<?xml version="1.0" encoding="UTF-8"?>
<svg id="_Слой_2" data-name="Слой 2" xmlns="http://www.w3.org/2000/svg" viewBox="0 0 307.3 79.28">
  <defs>
    <style>
      .cls-1 {
        fill: #514d4b;
      }
    </style>
  </defs>
  <g id="Layer_1" data-name="Layer 1">
    <g>
      <path class="cls-1" d="M65.53,53.73c-5.1-.12-8.2-1.89-9.31-5.31-.87-2.58-.61-5.74,.76-9.49,1.71-4.8,5.2-9.95,10.48-15.45,5.28-5.5,11.05-10.16,17.31-13.96-1.05,.12-4.15,.41-9.31,.85-5.16,.24-11.2,.09-18.12-.45-10.25-.87-16.91-1.36-19.97-1.48-12.77-.36-22.52,2.46-29.23,8.46-1.98,1.77-3.6,3.64-4.86,5.62-.6,.87-1.21,1.99-1.84,3.37-.63,1.38-.88,2.31-.76,2.79,.06,.36-.03,.56-.27,.58-.48-.36-.54-1.08-.18-2.16,.36-1.08,.94-2.4,1.75-3.96,.69-1.29,1.86-2.82,3.51-4.59,4.98-5.64,12.16-9.04,21.54-10.21,4.5-.54,10.27-.6,17.31-.18,1.53,.12,4.49,.39,8.88,.81,4.39,.42,7.82,.71,10.28,.85,6.57,.3,12.95,.08,19.16-.67,2.28-.24,3.69-.51,4.23-.81,1.71-.99,3.13-1.78,4.27-2.36s2.57-1.33,4.29-2.25c1.72-.92,3.14-1.6,4.25-2.07s2.22-.88,3.33-1.26,1.93-.5,2.47-.36c.54,.13,.78,.47,.72,1.01-.12,.48-.69,1.19-1.71,2.11-1.77,1.35-3.75,2.46-5.94,3.33-2.46,.87-5.25,1.63-8.37,2.29-1.89,.36-3.7,1.06-5.44,2.11-2.76,1.77-4.87,3.27-6.34,4.5-5.7,4.68-10.76,10.1-15.18,16.28-4.42,6.18-6.3,11.56-5.64,16.15,.3,2.28,1.47,3.85,3.51,4.72,2.4,.99,5.31,1.08,8.73,.27,3.63-.69,7.57-1.98,11.83-3.87,.42-.24,1.1-.59,2.05-1.06,.94-.46,1.58-.76,1.91-.88l2.56-1.48,1.21-.72c.36-.24,.57-.36,.63-.36,.36,.12,.4,.29,.13,.5s-.58,.4-.94,.58c-5.28,3.18-10.63,5.55-16.06,7.11-3.12,.78-5.67,1.14-7.65,1.08Zm-47.13,2.02c-1.35-.12-2.22-.27-2.61-.45-1.11-.48-1.69-1.12-1.75-1.93-.06-.06-.09-.15-.09-.27,.06-.18,.29-.18,.67,0,.18,.18,.27,.39,.27,.63,1.05,2.04,4.36,2.17,9.94,.41,2.94-.93,6.25-2.56,9.94-4.9,3.99-2.58,8.17-6.13,12.55-10.66,2.52-2.64,5.83-6.56,9.94-11.76,4.11-5.2,6.99-8.75,8.63-10.64,.6-.93,1.12-1.57,1.57-1.93,.3-.48,.61-.73,.94-.76,.24,0,.42,.1,.54,.29,.12,.2,.09,.41-.09,.65-1.29,1.59-4.13,5.18-8.52,10.77-4.39,5.59-7.91,9.8-10.55,12.62-4.56,4.8-8.89,8.61-13,11.42-6.57,4.35-12.7,6.52-18.39,6.52ZM88.47,8.53c2.52-.42,4.86-.97,7.02-1.66,3.39-.93,6.21-2.28,8.46-4.05,1.41-.99,1.99-1.69,1.75-2.11-.48-.48-2.59,.15-6.34,1.89-3.75,1.74-7.38,3.72-10.88,5.94Z"/>
      <path class="cls-1" d="M44.08,60.03c-.6,0-.91-.2-.94-.58v-.09l.09-.09,.09,.09c.24,.18,.67,.29,1.3,.31,4.62-.36,9.19-2.98,13.72-7.87,2.1-2.28,5.91-7.3,11.42-15.07,1.65-2.4,3.34-4.33,5.08-5.8,2.64-2.16,4.84-3.33,6.61-3.51,.75-.12,1.42-.18,2.02-.18,.42,0,.61,0,.58,0s-.35,.06-.94,.18c-.12,.06-.24,.09-.36,.09-2.22,.42-4.15,1.33-5.8,2.74-.24,.18-.64,.55-1.19,1.1-.56,.56-1.06,1.09-1.51,1.6l-.63,.72,1.84-1.3c4.5-2.82,7.04-3.73,7.65-2.74,.81,1.23-.45,2.98-3.78,5.26-1.83,1.35-3,2.61-3.51,3.78-.54,1.47-.11,2.14,1.3,2.02,2.4-.24,5.77-1.99,10.12-5.26,.54-.42,1.09-.85,1.66-1.3,.12-.06,.28-.2,.49-.41,.21-.21,.39-.34,.54-.4,.18-.18,.27-.12,.27,.18,0,.12-.17,.33-.49,.63-3.33,2.94-6.88,5.13-10.66,6.57-1.41,.54-2.55,.66-3.42,.36-.87-.3-1.17-1.03-.9-2.2,.36-1.71,1.83-3.43,4.41-5.17,.99-.69,1.88-1.45,2.68-2.27,.79-.83,1.1-1.39,.92-1.69-.42-.69-2.58,.2-6.48,2.65-.93,.6-1.93,1.47-3.01,2.61-.42,.42-1.42,1.64-2.99,3.67-1.57,2.02-3.25,4.24-5.04,6.63-1.78,2.4-2.95,3.93-3.49,4.59-2.28,2.52-4.28,4.45-6,5.8-1.72,1.35-3.88,2.46-6.45,3.33-1.89,.69-3.63,1.03-5.22,1.03Z"/>
      <path class="cls-1" d="M93.15,43.16c-1.35,.42-2.2,.21-2.56-.63-.24-.87-.26-1.75-.04-2.63,.21-.88,.51-1.58,.9-2.09-1.05,.75-1.77,1.18-2.16,1.3-.87,.36-1.54,.45-2.02,.27s-.7-.61-.67-1.28c.03-.67,.25-1.39,.67-2.14,1.11-1.71,2.77-3.03,4.99-3.96,1.98-.87,3.12-.78,3.42,.27,.24,.69,.09,1.36-.45,2.02-.18,.36-.25,.65-.22,.85,.06,.24-.15,.66-.63,1.26-.18,.18-.43,.46-.74,.83-.31,.38-.59,.72-.83,1.03-.24,.31-.45,.62-.63,.92-1.17,2.4-1.26,3.63-.27,3.69,.81,.12,2.53-.81,5.17-2.79,1.71-1.29,3.7-3.06,5.98-5.31l1.17-1.21c.42-.3,.64-.3,.67,0,0,.06-.2,.27-.58,.63l-3.51,3.33c-1.23,1.17-2.41,2.19-3.55,3.06-1.74,1.41-3.1,2.26-4.09,2.56Zm-5.49-4.32c.06,.18,.57,.12,1.53-.18,.12-.06,.64-.4,1.57-1.03,.06-.06,.67-.58,1.84-1.57,.12-.12,.44-.38,.97-.79,.52-.4,.88-.76,1.06-1.06,.81-1.05,.9-1.75,.27-2.11-.24-.24-.92-.03-2.02,.63-1.23,.69-2.47,1.75-3.71,3.17-1.24,1.42-1.75,2.41-1.51,2.95Z"/>
      <path class="cls-1" d="M83.07,67.76c-1.41,0-1.8-1.26-1.17-3.78,.18-.99,.63-2.01,1.35-3.06,.54-.81,2-2.46,4.36-4.95,2.28-2.28,4.24-4.03,5.89-5.26,1.98-1.47,3.45-2.55,4.41-3.24l3.51-2.38c1.65-1.05,2.77-1.84,3.37-2.38,.48-1.05,.7-2.01,.67-2.88,0-.42-.38-.6-1.12-.54-.24,.12-.36,.03-.36-.27l-.09-.76c-.12-.24,.12-.63,.72-1.17,4.68-3.99,7.02-6.51,7.02-7.56-.06-.36-.61-.21-1.66,.45-.42,.3-2.01,1.71-4.77,4.23-.12,.12-.26,.09-.41-.09-.06-.12,.17-.42,.67-.9l2.56-2.29c.93-.87,1.66-1.45,2.2-1.75l.27-.18c.93-.42,1.48-.36,1.66,.18,.18,.3,.18,.75,0,1.35-.48,1.35-1.77,3.01-3.87,4.99l-1.93,1.84-.81,.81,.36,.67c.3,.54,.42,1.16,.36,1.84l-.09,1.26c.69-.42,1.74-1.15,3.15-2.2,1.35-.99,3-2.34,4.95-4.05l2.25-2.11c.36-.24,.54-.27,.54-.09s-.21,.48-.63,.9c-1.35,1.35-2.86,2.67-4.54,3.96l-1.84,1.48c-.93,.69-1.57,1.15-1.93,1.39l-.99,.63-1.03,.76-.9,2.74c-.36,1.11-.83,2.1-1.39,2.97-.87,1.41-2.16,3.24-3.87,5.49-1.77,2.4-3.73,4.65-5.89,6.75-3.06,2.82-5.37,4.69-6.93,5.62-1.77,1.11-3.12,1.63-4.05,1.57Zm-.81-1.75c0,.48,.17,.78,.5,.9,.33,.12,.74,.09,1.24-.09,.5-.18,.93-.38,1.3-.58s.68-.4,.92-.58c2.52-1.65,4.54-3.34,6.07-5.08,5.79-6.15,9.62-11.3,11.51-15.47l.72-1.48-1.84,1.21c-6.51,4.62-9.97,7.11-10.39,7.46-2.28,1.89-4.45,4.03-6.52,6.43-2.4,2.64-3.57,5.07-3.51,7.29Z"/>
      <path class="cls-1" d="M129.89,33.94c.6-.6,.91-.69,.94-.27,0,.18-.32,.51-.94,.99-5.16,4.11-8.11,6.42-8.86,6.93l-3.37,2.2c-1.29,.93-2.43,2.13-3.42,3.6-4.35,6.81-8.16,12.19-11.42,16.15-8.96,10.49-14.27,15.74-15.92,15.74-.54,0-1-.25-1.37-.74-.38-.5-.53-1.01-.47-1.55,.18-2.04,1.96-5.17,5.33-9.38s7.11-8.31,11.22-12.3c1.23-1.23,3.12-2.81,5.67-4.75,2.55-1.93,4.26-3.26,5.13-3.98,.54-.48,1.45-1.62,2.74-3.42,2.88-4.11,4.78-6.6,5.71-7.47l-2.02,1.57c-4.05,3.39-6.4,5.17-7.06,5.35-.54,.18-1.03,.12-1.48-.18-.87-.48-.84-1.53,.09-3.15,2.1-3.51,4.77-5.91,8.01-7.2,2.28-.87,3.42-.31,3.42,1.66,0,.12,.04,.27,.13,.45s.13,.33,.13,.45c.12,.6-.96,2.5-3.24,5.71-.12,.24-.39,.66-.81,1.26s-.79,1.12-1.1,1.57c-.31,.45-.5,.7-.56,.76,3.99-2.58,6.42-4.2,7.29-4.86,3.69-3.03,5.77-4.75,6.25-5.17Zm-19.43,15.92c1.05-1.47,1.48-2.14,1.3-2.02-1.05,.87-2.48,1.99-4.29,3.37-1.81,1.38-3.42,2.71-4.83,4-1.41,1.29-3.22,3.07-5.44,5.35-3.18,3.27-5.52,5.97-7.02,8.1-2.28,3.18-3.72,5.64-4.32,7.38-.48,1.35-.27,2.11,.63,2.29,.6,.12,2.05-.95,4.36-3.19,5.52-5.52,11.29-12.8,17.32-21.86,1.29-1.92,2.05-3.06,2.29-3.42Zm7.83-12.68c1.59-1.29,2.5-2.22,2.74-2.79,.36-.87,.27-1.42-.27-1.66-2.04-.81-5.07,1.53-9.08,7.02-.3,.42-.56,.86-.79,1.33s-.22,.85,.02,1.15c.18,.06,.35,.08,.52,.05,.17-.03,.38-.12,.65-.27,.27-.15,.51-.3,.72-.45,.21-.15,.53-.4,.97-.74,.44-.34,.84-.67,1.21-.97,.37-.3,.88-.71,1.53-1.24,.64-.52,1.24-1,1.78-1.42Z"/>
      <path class="cls-1" d="M134.21,42.53c-.93-.06-1.33-.67-1.21-1.84,.18-1.47,.91-2.98,2.2-4.54l1.12-1.35-.99,.09c-.42,.06-1.11,.09-2.07,.09-.42,0-.74,.06-.94,.18-.21,.12-.6,.51-1.17,1.17-.75,.99-1.08,1.6-.99,1.84,0,.3-.12,.46-.36,.49-1.05,0-1.11-.9-.18-2.7,.36-.75,1.32-1.84,2.88-3.28,1.56-1.44,2.71-2.31,3.46-2.61,.36-.12,.76-.12,1.21,0,.42,.18,.19,.58-.67,1.21-.75,.48-1.46,1.07-2.11,1.75-.75,.75-1.07,1.19-.97,1.33,.1,.13,.67,.17,1.69,.11,.99-.12,1.83-.48,2.52-1.08,.99-.75,1.69-.97,2.11-.67,.24,.06,.3,.22,.18,.5-.18,.3-.94,1.12-2.29,2.47-1.71,1.71-2.7,2.76-2.97,3.15-.87,1.47-1.14,2.41-.81,2.83,.42,.54,1.33,.45,2.74-.27,1.53-.81,3.84-2.44,6.93-4.9l3.51-2.92c.36-.36,.54-.36,.54,0,0,.12-.12,.3-.36,.54-5.28,4.41-8.94,7.05-10.97,7.92-.75,.33-1.42,.5-2.02,.5Z"/>
      <path class="cls-1" d="M148.29,43.7c-.93-.36-1.26-1.12-.99-2.29,.48-1.77,2.07-3.85,4.77-6.25-2.82,1.35-4.59,1.84-5.31,1.48-.12-.06-.25-.17-.41-.32-.69-.69-.55-1.63,.41-2.83,.93-1.29,1.84-2.28,2.74-2.97,.6-.42,1.06-.39,1.39,.09,.12,.3-.13,.76-.76,1.39-2.04,1.83-3.05,3.06-3.04,3.69,.01,.63,.46,.81,1.33,.54,.24-.06,1.3-.51,3.19-1.35,.87-.48,1.63-.97,2.29-1.48,1.17-.81,1.84-1.06,2.02-.76,.3,.48,.03,1.09-.81,1.84-3.51,3.18-5.62,5.28-6.34,6.3-.81,1.11-1,1.9-.58,2.38,.3,.36,1.1,.34,2.41-.04,1.3-.39,2.69-1.08,4.16-2.07,2.28-1.47,5.22-3.93,8.82-7.38,.18-.12,.31-.21,.4-.27,.12-.06,.21,0,.27,.18,.06,.06,.03,.15-.09,.27-2.34,2.34-4.74,4.42-7.2,6.25-1.59,1.11-2.97,1.98-4.14,2.61-1.98,.96-3.49,1.29-4.54,.99Z"/>
      <path class="cls-1" d="M166.59,42.53c-.93-.06-1.33-.67-1.21-1.84,.18-1.47,.91-2.98,2.2-4.54l1.12-1.35-.99,.09c-.42,.06-1.11,.09-2.07,.09-.42,0-.74,.06-.94,.18-.21,.12-.6,.51-1.17,1.17-.75,.99-1.08,1.6-.99,1.84,0,.3-.12,.46-.36,.49-1.05,0-1.11-.9-.18-2.7,.36-.75,1.32-1.84,2.88-3.28,1.56-1.44,2.71-2.31,3.46-2.61,.36-.12,.76-.12,1.21,0,.42,.18,.19,.58-.67,1.21-.75,.48-1.46,1.07-2.11,1.75-.75,.75-1.07,1.19-.97,1.33,.1,.13,.67,.17,1.69,.11,.99-.12,1.83-.48,2.52-1.08,.99-.75,1.69-.97,2.11-.67,.24,.06,.3,.22,.18,.5-.18,.3-.94,1.12-2.29,2.47-1.71,1.71-2.7,2.76-2.97,3.15-.87,1.47-1.14,2.41-.81,2.83,.42,.54,1.33,.45,2.74-.27,1.53-.81,3.84-2.44,6.93-4.9l3.51-2.92c.36-.36,.54-.36,.54,0,0,.12-.12,.3-.36,.54-5.28,4.41-8.94,7.05-10.97,7.92-.75,.33-1.42,.5-2.02,.5Z"/>
      <path class="cls-1" d="M179.09,41.23c-.6-.75-.35-2.1,.76-4.05,.54-.87,1.3-1.8,2.29-2.79l-3.96,.94c.24,.48,.24,1.06,0,1.75-.36,.75-.85,1.3-1.48,1.66-.42,.24-.82,.27-1.21,.09-.3-.12-.45-.49-.45-1.12,.06-.6,.46-1.39,1.21-2.38,.06-.12,.85-1.11,2.38-2.97l1.12-1.08c.3-.42,.66-.61,1.08-.58h.09l.09,.09c.06,.18,.03,.34-.09,.49l-.63,.81-2.38,2.88c2.64-.48,4.51-1.06,5.62-1.75,.12-.06,.25-.13,.41-.23,.15-.09,.3-.17,.45-.25,.15-.07,.31-.11,.5-.11,.12,0,.18,.03,.18,.09,.06,.12,.03,.29-.09,.5-2.64,2.64-4.29,4.54-4.95,5.71-.54,.93-.74,1.66-.58,2.2,.24,.42,1.11,.21,2.61-.63,1.47-1.05,4.11-3.36,7.92-6.93,.3-.3,.48-.33,.54-.09,.06,.12-.09,.36-.45,.72-3.57,3.33-6.12,5.5-7.65,6.52s-2.64,1.18-3.33,.49Zm-3.19-2.97c.18,.3,.48,.24,.9-.18,.3-.18,.55-.49,.74-.92,.19-.43,.29-.82,.29-1.15s-.11-.5-.31-.5c-.24-.06-.63,.32-1.17,1.15-.54,.83-.69,1.36-.45,1.6Z"/>
      <path class="cls-1" d="M192.14,43.43c-.93,.3-1.6,.18-2.02-.36-.81-.93-.41-2.47,1.21-4.63l.94-.99c-3,1.71-4.81,2.23-5.44,1.57-.36-.36-.3-1,.18-1.93,.24-.42,1.27-1.56,3.1-3.42,.06-.06,.17-.18,.34-.36,.16-.18,.29-.34,.38-.47,.09-.13,.23-.25,.41-.34s.33-.1,.45-.04c.6,.3,.57,.85-.09,1.66-.24,.24-.77,.75-1.6,1.53-.82,.78-1.5,1.46-2.02,2.05-.52,.58-.73,.97-.61,1.15,.24,.42,1.35,.11,3.33-.94,1.11-.54,2.4-1.45,3.87-2.74,.99-.87,1.69-1.15,2.11-.85,.18,.18,.03,.53-.45,1.03l-1.93,1.93c-1.98,1.77-3.18,3.36-3.6,4.77-.18,.75,.09,1.12,.81,1.12,1.41,0,5.22-2.73,11.42-8.19,1.17-1.05,1.84-1.54,2.02-1.48,.18,.06,.15,.21-.09,.45s-1.44,1.29-3.6,3.15c-4.44,3.75-7.48,5.86-9.13,6.34Zm9.13-16.19c-2.04,.81-3.42,.58-4.14-.67-.69-1.05-.54-2.14,.45-3.28,.3-.42,.61-.5,.94-.22,.06,.06,.06,.2,0,.4-.06,.06-.19,.25-.38,.58s-.32,.61-.38,.85c-.3,1.53,.16,2.31,1.39,2.34,.3,0,1.32-.34,3.06-1.04,.12-.06,.54-.3,1.26-.72,.12-.06,.25-.03,.38,.09s.17,.24,.11,.36c0,.06-.05,.11-.16,.13-.11,.03-.2,.08-.29,.13-.09,.06-.17,.12-.23,.18-.18,.15-.85,.43-2.02,.85Z"/>
      <path class="cls-1" d="M216.83,40.87c-.69-.18-1.14-.59-1.35-1.24-.21-.64-.23-1.31-.04-2,.06-.48,.3-.97,.72-1.48,.87-1.41,1.95-2.58,3.24-3.51,1.89-1.41,3.64-2.11,5.26-2.11,.6,0,.9-.03,.9-.09,.12-.42,.22-.88,.31-1.37,.09-.5,.16-.92,.22-1.28,.06-.36,.08-.82,.04-1.37s-.04-.97-.04-1.26-.04-.73-.13-1.35c-.09-.61-.15-1.03-.18-1.24-.03-.21-.12-.65-.27-1.33-.15-.67-.24-1.07-.27-1.19-.03-.12-.15-.56-.36-1.33-.21-.76-.32-1.18-.32-1.24-.75-3.18-.75-5.49,0-6.93,.87-1.53,2.64-2.7,5.31-3.51,1.23-.36,2.46-.65,3.69-.88,1.23-.22,2.68-.38,4.34-.47s2.88-.17,3.64-.22c.76-.06,2.22-.09,4.36-.09h3.89c8.09-.24,14.26-1.47,18.48-3.69l.85-.45c.06,.69-.44,1.21-1.48,1.57-3.51,1.53-7.72,2.5-12.64,2.92-1.77,.12-4.33,.22-7.67,.29-3.34,.08-6.36,.22-9.06,.43s-5.22,.61-7.56,1.21c-2.52,.6-4.24,1.5-5.17,2.7-.93,1.35-1.08,3.46-.45,6.34,.12,.81,.37,1.9,.74,3.28s.62,2.28,.74,2.7c.6,3.18,.27,6.36-.99,9.54-1.26,3.18-3.21,5.71-5.85,7.6-1.14,.81-2.11,1.15-2.92,1.03Zm-.22-1.12c0,.24,.23,.34,.7,.31,.46-.03,.95-.17,1.46-.41,.18-.06,.54-.3,1.08-.72,.93-.87,1.92-1.92,2.97-3.15,.6-.75,1.3-1.92,2.11-3.51,.06-.06,.13-.2,.22-.41,.09-.21,.13-.34,.13-.4v-.18c-.12-.12-.63,0-1.53,.36-.9,.36-1.53,.69-1.89,.99-3.51,3.03-5.26,5.4-5.26,7.11Z"/>
      <path class="cls-1" d="M232.39,43.16c-1.35,.42-2.2,.21-2.56-.63-.24-.87-.26-1.75-.04-2.63,.21-.88,.51-1.58,.9-2.09-1.05,.75-1.77,1.18-2.16,1.3-.87,.36-1.54,.45-2.02,.27s-.7-.61-.67-1.28c.03-.67,.25-1.39,.67-2.14,1.11-1.71,2.77-3.03,4.99-3.96,1.98-.87,3.12-.78,3.42,.27,.24,.69,.09,1.36-.45,2.02-.18,.36-.25,.65-.22,.85,.06,.24-.15,.66-.63,1.26-.18,.18-.43,.46-.74,.83-.31,.38-.59,.72-.83,1.03-.24,.31-.45,.62-.63,.92-1.17,2.4-1.26,3.63-.27,3.69,.81,.12,2.53-.81,5.17-2.79,1.71-1.29,3.7-3.06,5.98-5.31l1.17-1.21c.42-.3,.64-.3,.67,0,0,.06-.2,.27-.58,.63l-3.51,3.33c-1.23,1.17-2.41,2.19-3.55,3.06-1.74,1.41-3.1,2.26-4.09,2.56Zm-5.49-4.32c.06,.18,.57,.12,1.53-.18,.12-.06,.64-.4,1.57-1.03,.06-.06,.67-.58,1.84-1.57,.12-.12,.44-.38,.97-.79,.52-.4,.88-.76,1.06-1.06,.81-1.05,.9-1.75,.27-2.11-.24-.24-.92-.03-2.02,.63-1.23,.69-2.47,1.75-3.71,3.17-1.24,1.42-1.75,2.41-1.51,2.95Z"/>
      <path class="cls-1" d="M247.36,42.53c-.93-.06-1.33-.67-1.21-1.84,.18-1.47,.91-2.98,2.2-4.54l1.12-1.35-.99,.09c-.42,.06-1.11,.09-2.07,.09-.42,0-.74,.06-.94,.18-.21,.12-.6,.51-1.17,1.17-.75,.99-1.08,1.6-.99,1.84,0,.3-.12,.46-.36,.49-1.05,0-1.11-.9-.18-2.7,.36-.75,1.32-1.84,2.88-3.28,1.56-1.44,2.71-2.31,3.46-2.61,.36-.12,.76-.12,1.21,0,.42,.18,.19,.58-.67,1.21-.75,.48-1.46,1.07-2.11,1.75-.75,.75-1.07,1.19-.97,1.33,.1,.13,.67,.17,1.69,.11,.99-.12,1.83-.48,2.52-1.08,.99-.75,1.69-.97,2.11-.67,.24,.06,.3,.22,.18,.5-.18,.3-.94,1.12-2.29,2.47-1.71,1.71-2.7,2.76-2.97,3.15-.87,1.47-1.14,2.41-.81,2.83,.42,.54,1.33,.45,2.74-.27,1.53-.81,3.84-2.44,6.93-4.9l3.51-2.92c.36-.36,.54-.36,.54,0,0,.12-.12,.3-.36,.54-5.28,4.41-8.94,7.05-10.97,7.92-.75,.33-1.42,.5-2.02,.5Z"/>
      <path class="cls-1" d="M261.8,44.56c-1.17,.36-1.99,.11-2.47-.76-.54-.75-.54-1.84,0-3.28,.36-.81,.97-1.89,1.84-3.24,.99-1.59,1.23-2.41,.72-2.47-.48,0-1.43,.66-2.86,1.98-1.42,1.32-2.38,2.4-2.86,3.24-.12,.18-.27,.38-.45,.58-.6,.18-.72-.23-.36-1.21,.6-1.77,2.1-4.2,4.5-7.29,1.17-1.47,2.02-2.2,2.56-2.2,.69,.06,.88,.36,.58,.9-.12,.18-.46,.61-1.03,1.3-.36,.48-.66,.88-.9,1.21-.75,1.05-1.09,1.6-1.03,1.66,0,.06,.19-.07,.56-.38,.37-.31,.77-.65,1.19-1.01l1.3-1.03c1.83-1.53,3.69-2.8,5.6-3.8,1.9-1,2.98-1,3.22,.02,.24,.93-.06,1.83-.9,2.7-.12,.12-.29,.18-.5,.18-.36,0-.42-.12-.18-.36,1.23-1.23,1.51-2.1,.85-2.61-.87-.48-3.18,.75-6.93,3.69-.42,.3-.83,.62-1.24,.97-.41,.34-.7,.59-.88,.74-.18,.15-.3,.22-.36,.22,.69-.3,1.12-.21,1.3,.27,.18,.3-.35,1.5-1.57,3.6-2.46,4.17-2.65,6.13-.58,5.89h.31c1.11-.12,2.49-.7,4.14-1.75,3.06-2.04,6.58-4.95,10.57-8.73,.42-.42,.64-.45,.67-.09,0,.12-.22,.39-.67,.81-3.27,3-5.32,4.81-6.16,5.44-3.24,2.61-5.91,4.21-8.01,4.81Z"/>
      <path class="cls-1" d="M276.24,40.78c-1.83,.69-3.06,.52-3.69-.5-.42-.48-.57-1.15-.45-2.02,.12-.69,.65-1.6,1.57-2.74l.72-.85c.81-.93,1.57-1.66,2.29-2.2,1.77-1.41,3.06-2.02,3.87-1.84,.6,.24,.79,.76,.58,1.57-.21,.81-.67,1.54-1.39,2.2-1.71,1.47-3.4,2.17-5.08,2.11-.12,0-.37,.29-.74,.88-.38,.58-.59,1.07-.65,1.46-.18,1.17,.08,1.78,.76,1.84,1.35,.12,3.72-1.02,7.11-3.42,1.53-1.11,3.06-2.34,4.59-3.69,.36-.3,.6-.36,.72-.18,0,.12-.21,.39-.63,.81-.69,.6-1.98,1.62-3.87,3.06-.54,.42-1.51,1.06-2.9,1.93-1.39,.87-2.33,1.39-2.81,1.57Zm-1.3-4.63c.81,.06,1.62-.12,2.43-.54,2.16-1.29,3.31-2.52,3.46-3.69,.06-.3-.06-.45-.36-.45-.42,.12-1.11,.52-2.07,1.19-.96,.67-1.68,1.31-2.16,1.91l-1.3,1.57Z"/>
      <path class="cls-1" d="M291.03,45.01c-.24-.48-.11-1.21,.4-2.2,.99-1.83,3.07-4.35,6.25-7.56,1.05-1.05,1.54-1.66,1.48-1.84-.12-.24-.75-.07-1.89,.52-1.14,.58-2.2,1.21-3.19,1.87-1.35,.81-2.49,1.74-3.42,2.79-.54,.54-.78,.54-.72,0,.06-.87,.52-1.74,1.39-2.61,.18-.24,.7-.82,1.55-1.73,.85-.91,1.63-1.75,2.34-2.5,.7-.75,1.09-1.18,1.15-1.3,.12-.24,.18-.43,.18-.58s-.12-.2-.36-.13c-1.23,.24-3.16,1.4-5.8,3.49s-4.48,3.88-5.53,5.37c-.3,.3-.42,.51-.36,.63,0,.12-.12,.24-.36,.36-.24,.18-.44,.2-.61,.04-.16-.15-.28-.46-.34-.94-.18-1.65,1.23-3.99,4.23-7.02,1.47-1.47,2.55-2.35,3.24-2.65,.36-.12,.67-.2,.94-.23,.3,.06,.43,.23,.4,.52-.03,.29-.2,.49-.49,.61-.42,.18-1.26,.88-2.52,2.11-1.83,1.83-3.06,3.21-3.69,4.14l-1.08,2.2c.36-.42,.82-.9,1.39-1.44,2.58-2.52,4.93-4.48,7.06-5.89,1.47-1.05,2.79-1.63,3.96-1.75,.3-.06,.5,.02,.61,.22,.11,.21,.14,.45,.11,.72-.03,.27-.11,.51-.23,.72-.18,.42-.99,1.48-2.43,3.19l-1.26,1.57c3.51-2.16,5.53-3.01,6.07-2.56,.12,.06,.21,.15,.27,.27,.18,.54-.34,1.42-1.57,2.65l-2.47,2.7-.67,.81c-.48,.48-.9,.94-1.26,1.37-.36,.43-.79,.99-1.28,1.66-.5,.67-.77,1.17-.83,1.48-.06,.31-.03,.62,.09,.92,.75,.42,3.21-1.08,7.38-4.5,1.29-1.05,3.03-2.65,5.22-4.81l2.34-2.11c.12-.12,.21-.18,.27-.18,.18,0,.27,.06,.27,.18,.06,.06,.03,.15-.09,.27-.36,.3-1.11,.98-2.25,2.02-1.14,1.05-2.02,1.84-2.65,2.38-2.1,1.98-3.94,3.58-5.53,4.81-3.21,2.34-5.11,2.98-5.71,1.93Z"/>
    </g>
  </g>
</svg>