<?xml version="1.0" encoding="utf-8"?>
<!-- Generator: Adobe Illustrator 27.0.0, SVG Export Plug-In . SVG Version: 6.00 Build 0)  -->
<svg version="1.1" id="_Слой_2" xmlns="http://www.w3.org/2000/svg" xmlns:xlink="http://www.w3.org/1999/xlink" x="0px"
	 y="0px" viewBox="0 0 78.6 90.7" style="enable-background:new 0 0 78.6 90.7;" xml:space="preserve">
<style type="text/css">
	.st0{fill:#7B335D;}
</style>
<g id="Layer_1">
	<g>
		<path class="st0" d="M28.1,13.4c0.3-1.6,0.6-3.3,1.4-4.8c0.7-1.5,2-2.9,3.6-3.4c1.6-0.6,3.3-0.5,5-0.4L43,5.1l5,0.2
			c1.6,0.1,3.3,0.1,4.9,0.6c0.8,0.3,1.6,0.7,2.2,1.3c0.6,0.6,1,1.4,1.3,2.2c0.5,1.6,0.5,3.3,0.4,5c0,0.1-0.1,0.2-0.2,0.2
			c-0.1,0-0.2-0.1-0.2-0.2v0c-0.1-1.6-0.2-3.3-0.7-4.7c-0.5-1.4-1.6-2.5-3-2.8c-1.4-0.4-3-0.4-4.7-0.5l-5-0.2L38,5.8
			c-1.6-0.1-3.2-0.1-4.6,0.3C32.1,6.5,31,7.6,30.2,9c-0.8,1.4-1.2,2.9-1.6,4.5v0c0,0.1-0.2,0.2-0.3,0.2
			C28.1,13.7,28.1,13.5,28.1,13.4L28.1,13.4z"/>
		<path class="st0" d="M28.5,13.7c0.3-0.6,0.9-1,1.5-1.2c0.6-0.2,1.2-0.3,1.8-0.4l3.6-0.3c1.2-0.1,2.4-0.2,3.6-0.2
			c1.2,0,2.4,0.1,3.6,0.1l7.1,0.5l3.6,0.2c0.6,0,1.2,0.1,1.8,0.3c0.6,0.2,1.2,0.6,1.4,1.2c0,0.1,0,0.2-0.1,0.3c-0.1,0-0.2,0-0.3-0.1
			l0,0c-0.6-0.9-1.8-1-2.9-1l-3.6-0.1c-2.4-0.1-4.8-0.2-7.1-0.3c-1.2-0.1-2.3-0.1-3.5-0.2c-1.2,0-2.3,0.2-3.5,0.1l-3.5,0.1
			c-1.1,0-2.3,0.2-2.9,1.1l0,0c-0.1,0.1-0.2,0.1-0.4,0.1C28.5,14,28.5,13.8,28.5,13.7L28.5,13.7z"/>
		<path class="st0" d="M13.6,44.1c-0.7-1.5-1.9-2.6-2.9-3.9c-1-1.3-1.7-2.9-2.2-4.5c-0.5-1.6-0.8-3.2-1.2-4.8
			c-0.1-0.8-0.2-1.7-0.1-2.5s0.4-1.6,0.8-2.4c0.7-1.5,1.4-3,2.6-4.2s2.8-1.9,4.5-1.9c1.7,0,3.4,0.7,4.5,2c1.1,1.2,1.8,3,1.7,4.7
			c0,0.1-0.1,0.2-0.2,0.2c-0.1,0-0.2-0.1-0.2-0.2v0c-0.1-3.2-2.9-5.9-5.8-5.6c-1.4,0.1-2.9,0.6-3.8,1.7c-1,1-1.6,2.6-2.3,4
			c-0.3,0.7-0.6,1.4-0.7,2.1c-0.1,0.7-0.1,1.4,0.1,2.2c0.3,1.5,0.7,3.2,1.1,4.7c0.4,1.5,1,3,1.9,4.3c0.9,1.3,2.1,2.6,2.7,4.2v0
			c0.1,0.1,0,0.3-0.1,0.3C13.8,44.3,13.6,44.2,13.6,44.1L13.6,44.1z"/>
		<path class="st0" d="M62,23c1.7-2.6,5-4.1,8.1-3.4c1.5,0.4,2.9,1.1,3.9,2.3c1.1,1.1,1.7,2.6,2,4.1c0.5,3-0.3,6.1-1.1,9
			c-0.8,2.9-1.8,5.9-4.1,8c-0.1,0.1-0.2,0.1-0.3,0c-0.1-0.1-0.1-0.2,0-0.3l0,0c1-1.1,1.8-2.3,2.3-3.7c0.6-1.3,0.9-2.8,1.3-4.2
			c0.6-2.9,1.5-5.9,0.9-8.5c-0.2-1.3-0.8-2.6-1.7-3.5c-0.9-1-2.1-1.7-3.4-2c-2.6-0.7-5.7,0.4-7.4,2.7l0,0c-0.1,0.1-0.2,0.1-0.4,0
			S62,23.1,62,23L62,23z"/>
		<path class="st0" d="M20.2,25.3c0-2.1,1.4-4,3.1-5c1.8-1.1,3.8-1.4,5.8-1.6c4-0.3,7.9-0.4,11.9-0.4c4,0,7.9,0,11.9,0.2
			c2,0.1,4,0.1,5.9,0.6c1.9,0.5,3.9,1.5,4.9,3.3c0.1,0.1,0,0.2-0.1,0.3s-0.2,0-0.3-0.1v0c-1.1-1.6-2.9-2.5-4.8-2.8
			c-1.8-0.4-3.8-0.4-5.8-0.4c-3.9-0.1-7.9-0.2-11.8-0.1c-3.9,0-7.9,0.1-11.8,0.3c-1.9,0.1-3.8,0.4-5.4,1.3c-1.6,0.9-2.9,2.4-3,4.3v0
			c0,0.1-0.1,0.2-0.3,0.2C20.4,25.5,20.3,25.4,20.2,25.3L20.2,25.3z"/>
		<path class="st0" d="M19.5,20.9c0-3.2,0.1-6.5,0.5-9.7c0.2-1.6,0.4-3.2,0.7-4.8c0.3-1.6,1-3.3,2.5-4.2c0.7-0.4,1.5-0.7,2.3-0.9
			C26.2,1,27,0.8,27.8,0.7c1.6-0.3,3.2-0.4,4.9-0.5C35.9,0,39.2,0,42.4,0c3.2,0.1,6.5,0.3,9.7,0.6c1.6,0.2,3.2,0.2,4.8,0.7
			c0.8,0.2,1.5,0.6,2.1,1.2c0.6,0.6,1,1.3,1.3,2.1c0.6,1.5,0.8,3.2,1.2,4.7c0.3,1.6,0.6,3.2,0.9,4.8c0.5,3.2,0.9,6.4,1.1,9.7
			c0,0.1-0.1,0.2-0.2,0.2c-0.1,0-0.2-0.1-0.2-0.2l0,0c-0.3-3.2-0.8-6.4-1.4-9.6c-0.3-1.6-0.6-3.2-1-4.7C60.4,8,60.1,6.4,59.5,5
			c-0.6-1.4-1.5-2.4-2.9-2.8c-1.4-0.4-3-0.5-4.6-0.6c-3.2-0.3-6.4-0.5-9.6-0.5C39.2,1,35.9,1,32.7,1.2c-1.6,0.1-3.2,0.2-4.7,0.5
			c-0.8,0.1-1.5,0.3-2.3,0.5c-0.8,0.2-1.5,0.4-2.1,0.7c-1.2,0.6-1.8,2-2.1,3.5C21.2,8,21,9.6,20.8,11.2c-0.4,3.2-0.7,6.4-0.8,9.6
			l0,0c0,0.1-0.1,0.3-0.3,0.3C19.6,21.2,19.5,21,19.5,20.9L19.5,20.9z"/>
		<path class="st0" d="M7.9,28.4c0.8,0.4,1.9,0.3,2.7,0c0.9-0.3,1.7-1,2.1-1.8c0.4-0.9,0.5-1.9,0.3-2.8c-0.2-0.9-0.8-1.8-1.6-2.3
			c-0.1-0.1-0.1-0.2-0.1-0.3c0.1-0.1,0.2-0.1,0.2-0.1l0.1,0c0.5,0.2,1,0.5,1.4,0.9c0.4,0.4,0.6,0.9,0.8,1.5c0.4,1.1,0.3,2.4-0.2,3.5
			c-0.6,1.1-1.6,1.9-2.7,2.2c-0.6,0.1-1.1,0.2-1.7,0.2c-0.6-0.1-1.1-0.2-1.6-0.6l-0.1,0c-0.1-0.1-0.1-0.2-0.1-0.4
			C7.7,28.4,7.8,28.3,7.9,28.4L7.9,28.4z"/>
		<path class="st0" d="M71.8,20.6c-0.6,0.7-1.2,1.6-1.3,2.5c-0.2,0.9,0,1.9,0.7,2.7c0.7,0.7,1.6,1.1,2.4,1.5
			c0.4,0.2,0.9,0.4,1.4,0.4c0.5,0,0.9,0,1.3-0.3c0.1-0.1,0.2-0.1,0.3,0c0.1,0.1,0.1,0.2,0,0.3l0,0.1c-0.4,0.5-1,0.7-1.6,0.7
			c-0.6,0-1.1-0.1-1.7-0.3c-1-0.3-2-0.8-2.8-1.7c-0.4-0.5-0.7-1.1-0.9-1.7c-0.1-0.6-0.1-1.3,0.1-1.8c0.3-1.1,1-2,1.9-2.7l0.1,0
			c0.1-0.1,0.3-0.1,0.4,0C71.9,20.4,71.9,20.5,71.8,20.6L71.8,20.6z"/>
		<path class="st0" d="M10.6,43.6c10,0.3,20-0.6,30-0.9c10-0.3,20.1,0,30.1,0.3c0.1,0,0.2,0.1,0.2,0.2c0,0.1-0.1,0.2-0.2,0.2h0
			l-7.5,0.1h-7.5c-5,0-10,0-15,0.2c-5,0.1-10,0.4-15,0.6c-2.5,0.1-5,0.1-7.5,0.1c-2.5,0-5-0.2-7.5-0.3h0c-0.1,0-0.2-0.1-0.2-0.3
			C10.3,43.7,10.5,43.6,10.6,43.6L10.6,43.6z"/>
		<path class="st0" d="M12.5,49.8c9.6-0.8,19.2-1.4,28.9-1.5C51,48,60.6,48,70.2,48.4c0.1,0,0.2,0.1,0.2,0.2s-0.1,0.2-0.2,0.2h0
			L55.8,49c-4.8,0.1-9.6,0.1-14.4,0.3c-4.8,0.1-9.6,0.3-14.4,0.4l-14.4,0.6h0c-0.1,0-0.3-0.1-0.3-0.2C12.3,49.9,12.4,49.8,12.5,49.8
			L12.5,49.8z"/>
		<path class="st0" d="M71.9,43c0.4,0,0.8-0.1,1.2,0c0.4,0.1,0.7,0.6,0.6,1c-0.2,0.8-0.6,1.3-0.9,2c-0.3,0.6-0.7,1.2-1.1,1.8
			c-0.4,0.6-0.9,1.2-1.6,1.5c-0.1,0-0.2,0-0.3-0.1c0-0.1,0-0.2,0-0.2l0.1-0.1c0.2-0.2,0.4-0.5,0.6-0.8c0.2-0.3,0.3-0.5,0.4-0.9
			c0.3-0.6,0.6-1.2,0.9-1.8l0.5-0.9c0.2-0.3,0.3-0.6,0.4-0.7c0-0.1,0.2,0,0.1-0.2c-0.1-0.2-0.5-0.2-0.8-0.3l-0.1,0
			c-0.1,0-0.2-0.2-0.2-0.3C71.7,43.1,71.8,43,71.9,43L71.9,43z"/>
		<path class="st0" d="M10.9,44.2c-0.1-0.1-0.3-0.1-0.6,0c-0.2,0.2-0.3,0.4-0.3,0.7c0,0.5,0.4,1.1,0.6,1.6c0.6,1,1.3,2.1,2.1,3
			c0.1,0.1,0.1,0.2,0,0.3c-0.1,0.1-0.1,0.1-0.2,0l-0.1,0c-0.3-0.2-0.6-0.3-0.8-0.5c-0.2-0.2-0.5-0.4-0.7-0.7c-0.4-0.5-0.8-1-1.1-1.5
			c-0.1-0.3-0.3-0.5-0.4-0.9c-0.1-0.3-0.3-0.7-0.2-1.2c0-0.5,0.3-1.1,0.7-1.3c0.2-0.1,0.5-0.2,0.7-0.2c0.3,0,0.5,0.1,0.7,0.3
			l0.1,0.1c0.1,0.1,0,0.3-0.1,0.3C11.2,44.3,11,44.3,10.9,44.2L10.9,44.2z"/>
		<path class="st0" d="M18.9,43.7c-0.1,0.9,0,1.8,0,2.7c0.1,0.9,0.1,1.8,0.3,2.7c0,0.1,0,0.2-0.1,0.2c-0.1,0-0.1,0-0.2-0.1l-0.1-0.1
			c-0.2-0.2-0.3-0.4-0.4-0.6l-0.2-0.7c-0.2-0.4-0.2-0.9-0.3-1.3c0-0.5,0-0.9,0.1-1.4l0.1-0.7c0.1-0.2,0.1-0.5,0.3-0.7l0.1-0.2
			c0.1-0.1,0.2-0.1,0.3-0.1C18.8,43.6,18.9,43.6,18.9,43.7L18.9,43.7z"/>
		<path class="st0" d="M65,43.2c0,0.8,0.1,1.6,0.1,2.3c0.1,0.8,0.1,1.5,0.1,2.3c0,0.1-0.1,0.2-0.2,0.2c-0.1,0-0.1,0-0.2-0.1
			l-0.1-0.2c-0.2-0.2-0.2-0.4-0.3-0.6l-0.2-0.6c-0.1-0.4-0.2-0.7-0.2-1.1c0-0.4,0-0.7,0.1-1.1l0.1-0.6c0.1-0.2,0.1-0.4,0.2-0.6
			l0.1-0.2c0.1-0.1,0.2-0.1,0.3-0.1C64.9,43,65,43.1,65,43.2L65,43.2z"/>
		<path class="st0" d="M27.8,44.8c4.5-0.5,9.1-0.9,13.7-1c4.6-0.2,9.1-0.1,13.7,0c0.1,0,0.2,0.1,0.2,0.2c0,0.1-0.1,0.2-0.2,0.2h0
			c-1.2,0.1-2.3,0.1-3.4,0.2l-3.4,0.1c-2.3,0.1-4.5,0.1-6.8,0.3c-2.3,0-4.5,0.2-6.8,0.3l-3.4,0.1c-1.1,0-2.3,0.1-3.4,0.1h0
			c-0.1,0-0.3-0.1-0.3-0.3C27.5,45,27.6,44.8,27.8,44.8z"/>
		<path class="st0" d="M29.3,44.2c-0.2,0.7-0.2,1.4-0.3,2.1c0,0.7,0,1.4,0.2,2.1c0,0.1,0,0.2-0.1,0.2c-0.1,0-0.1,0-0.2,0l-0.1-0.1
			c-0.2-0.2-0.3-0.3-0.4-0.5l-0.2-0.5C28,47,28,46.7,28,46.3c0-0.4,0-0.7,0.2-1.1c0.1-0.2,0.1-0.4,0.2-0.5c0.1-0.2,0.2-0.3,0.4-0.5
			L29,44c0.1-0.1,0.2-0.1,0.3,0C29.4,44.1,29.4,44.2,29.3,44.2L29.3,44.2z"/>
		<path class="st0" d="M56.2,43.8c-0.1,0.6-0.1,1.3-0.2,1.9c0,0.6-0.1,1.3,0,1.9c0,0.1-0.1,0.2-0.2,0.2c0,0-0.1,0-0.1-0.1l-0.1-0.2
			c-0.1-0.2-0.2-0.3-0.3-0.5l-0.2-0.5C55,46.3,55,46,55,45.7c0-0.3,0-0.6,0.2-0.9l0.2-0.5c0.1-0.2,0.2-0.3,0.3-0.5l0.2-0.2
			c0.1-0.1,0.2-0.1,0.3,0C56.2,43.7,56.2,43.8,56.2,43.8L56.2,43.8z"/>
		<path class="st0" d="M27.8,47.5c5.5-0.7,11.1-0.7,16.6-0.5c5.5,0,11.1,0.1,16.6-0.6c0.1,0,0.2,0.1,0.2,0.2c0,0.1-0.1,0.2-0.2,0.2
			h0c-1.4,0.3-2.8,0.5-4.1,0.7c-1.4,0.1-2.8,0.3-4.2,0.3C50,48,47.2,47.9,44.4,48c-2.8-0.1-5.5-0.1-8.3-0.1c-1.4,0-2.8,0-4.1,0
			l-2.1,0c-0.7,0-1.4,0.1-2.1,0.1h0c-0.1,0-0.3-0.1-0.3-0.2C27.6,47.6,27.7,47.5,27.8,47.5L27.8,47.5z"/>
		<path class="st0" d="M16.2,49.1c0.3,1.8,0.6,3.7,1,5.5l0.5,2.7c0,0.2,0.1,0.5,0.2,0.6c0.1,0.1,0.3,0.1,0.5,0.1l1.4-0.2l2.8-0.3
			c0.2,0,0.5,0,0.6-0.1c0.1-0.1,0.1-0.3,0.1-0.6l0.1-1.4c0.1-1.8,0.2-3.7,0.3-5.5c0-0.1,0.1-0.2,0.2-0.2c0.1,0,0.2,0.1,0.2,0.2v0
			c0.1,0.9,0.1,1.9,0.2,2.8l0,2.8c0,0.5,0,0.9,0,1.4c0,0.1,0,0.2,0,0.4c0,0.2-0.1,0.5-0.4,0.8c-0.3,0.3-0.6,0.3-0.8,0.3l-0.4,0
			l-2.8,0.4l-1.4,0.1c-0.1,0-0.3,0-0.6,0c-0.2,0-0.5-0.2-0.8-0.4c-0.5-0.5-0.4-0.9-0.5-1.1c-0.1-0.9-0.4-1.8-0.5-2.8L15.9,52
			c-0.1-0.9-0.2-1.9-0.2-2.8v0c0-0.1,0.1-0.3,0.2-0.3C16,48.9,16.1,49,16.2,49.1L16.2,49.1z"/>
		<path class="st0" d="M61.2,48.7c0.2,2.7,0.5,5.3,0.7,8l-0.2-0.1c1.1-0.3,2.2,0.1,3.3,0.2c0.5,0.1,1.1,0.1,1.6-0.1
			c0.2-0.1,0.5-0.2,0.6-0.4c0.1-0.2,0.1-0.5,0.2-0.7l0.4-3.2l0.3-2.9c-0.1,0-0.2-0.1-0.2-0.2c0-0.1,0.1-0.2,0.2-0.2
			c0.2,0,0.4,0.1,0.4,0.2c0.1,0.1,0.1,0.2,0.1,0.3c0,0.2,0,0.3,0,0.5v0.8c0,0.5,0,1.1,0,1.6c-0.1,1.1-0.1,2.2-0.2,3.2l-0.1,0.4
			c0,0.2-0.1,0.5-0.3,0.8c-0.4,0.5-0.7,0.6-1.1,0.7c-0.7,0.3-1.4,0.2-2,0.2c-1.2-0.1-2.1-0.5-2.8-0.3c-0.5,0.2-1-0.1-1.1-0.6
			c0-0.1,0-0.1,0-0.2l0,0l-0.2-2l-0.1-2c-0.1-1.3,0-2.7,0-4v-0.1c0-0.1,0.1-0.2,0.3-0.2C61.1,48.4,61.2,48.5,61.2,48.7L61.2,48.7z"
			/>
		<path class="st0" d="M30.2,37.3c-0.4,0.5-0.7,1.1-1.1,1.6c-0.3,0.5-0.5,1.2,0,1.5c0.4,0.3,1.1,0.2,1.5-0.2c0.4-0.4,0.7-1,0.9-1.6
			c0-0.1,0.1-0.2,0.2-0.1c0.1,0,0.1,0.1,0.1,0.2c-0.1,0.5-0.1,1.1,0,1.5c0.2,0.5,0.7,0.7,1.1,0.5c0.5-0.1,0.8-0.6,0.8-1.1
			c0-0.5-0.2-1-0.5-1.4c0,0,0-0.1,0-0.2c0,0,0.1,0,0.1,0c0.5,0.1,1-0.2,1.3-0.6c0.3-0.4,0.4-1,0.1-1.4c-0.2-0.4-0.7-0.8-1.2-0.8
			c-0.5-0.1-1.1,0.3-0.9,0.7l-0.2-0.1c0.4-0.3,0.3-1,0.1-1.5c-0.2-0.5-0.6-1-1.1-1.2c-0.5-0.2-1,0.1-1.2,0.6c-0.2,0.5,0,1.1,0.2,1.6
			l-0.4,0.1c0,0-0.1,0-0.2,0c0,0-0.1,0.1-0.1,0.3c0,0.3,0,0.7,0,1c0,0.6,0.3,1.3,0.9,1.5c0.1,0,0.2,0.2,0.1,0.3s-0.1,0.2-0.3,0.1h0
			c-0.4-0.1-0.7-0.4-0.9-0.8c-0.2-0.3-0.3-0.7-0.4-1.1c0-0.4-0.1-0.7-0.1-1.1c0-0.2,0.1-0.6,0.5-0.8c0.2-0.1,0.4-0.1,0.6,0
			c0.2,0,0.5,0.3,0.6,0.6c0,0.3-0.2,0.6-0.5,0.6c-0.3,0-0.5-0.1-0.6-0.4l0,0c-0.2-0.6-0.5-1.3-0.2-2.2c0.1-0.4,0.4-0.8,0.8-1.1
			c0.5-0.3,1.1-0.3,1.5-0.1c0.9,0.4,1.3,1,1.6,1.7c0.2,0.3,0.3,0.7,0.3,1.2c0,0.5-0.2,1.1-0.6,1.4c-0.4,0.3-0.9,0.3-1.2-0.1
			c-0.1-0.1-0.1-0.2-0.2-0.3v0c-0.1-0.3-0.1-0.8,0.1-1.1c0.1-0.3,0.3-0.5,0.5-0.6c0.4-0.3,1-0.4,1.4-0.3c0.9,0.1,1.6,0.6,2,1.3
			c0.2,0.4,0.3,0.8,0.3,1.3c0,0.5-0.2,0.9-0.5,1.2c-0.5,0.7-1.3,1.1-2.3,1l0.8-1.5c0.5,0.6,0.8,1.3,0.7,2.2c0,0.4-0.2,0.8-0.5,1.2
			c-0.3,0.4-0.7,0.6-1.1,0.7c-0.4,0.1-0.9,0.2-1.4,0c-0.5-0.2-0.8-0.6-1-1c-0.3-0.8-0.2-1.5-0.1-2.1l1.5,0.4c-0.2,0.6-0.5,1.4-1.2,2
			c-0.7,0.6-1.8,0.8-2.6,0.2c-0.4-0.3-0.6-0.9-0.5-1.4c0.1-0.5,0.3-0.8,0.5-1.1c0.4-0.6,0.8-1.1,1.2-1.6l0,0c0.1-0.1,0.2-0.1,0.4,0
			C30.2,37,30.2,37.2,30.2,37.3L30.2,37.3z"/>
		<path class="st0" d="M34.4,37.6c0.3-0.9,1.4-1.3,2.1-0.8c0.7,0.5,0.6,1.7-0.1,2.1c-0.1,0-0.2,0-0.2,0c0-0.1,0-0.1,0-0.2
			c0.3-0.5,0.9-0.7,1.4-0.5c0.5,0.1,1,0.5,1.1,1.1c0.1,0.5-0.1,1.1-0.5,1.4c-0.4,0.4-0.8,0.6-1.3,0.7c-1,0.2-2.1,0-2.9-0.6
			c-0.8-0.6-1.2-1.8-0.7-2.8c0-0.1,0.2-0.2,0.3-0.1c0.1,0,0.1,0.2,0.1,0.2l0,0.1c-0.2,0.8,0.3,1.6,0.9,2c0.6,0.4,1.5,0.4,2.2,0.2
			c0.3-0.1,0.6-0.2,0.8-0.4c0.2-0.2,0.2-0.4,0.2-0.5c0-0.3-0.4-0.4-0.7-0.2l-1.1-1.2c0,0,0.2-0.1,0.2-0.2s0-0.3-0.1-0.4
			c0-0.1-0.3-0.2-0.5-0.2c-0.2,0-0.5,0.2-0.6,0.4l0,0.1c-0.1,0.1-0.2,0.2-0.3,0.1C34.4,37.8,34.4,37.7,34.4,37.6L34.4,37.6z"/>
		<path class="st0" d="M29.6,35.8c0.1-0.7,0.2-1.5-0.1-2.2c-0.2-0.7-0.8-1.2-1.5-1.4c-0.4-0.1-0.7,0-0.8,0.3
			c-0.1,0.3-0.2,0.7-0.2,1.1c0,0.8,0.3,1.5,0.8,2.1l-0.2,0.2c-0.3-0.4-0.7-0.8-1.1-1c-0.4-0.2-1-0.3-1.4,0c-0.4,0.2-0.8,0.7-0.6,1.1
			c0.1,0.4,0.6,0.8,1,0.7l0,0.2c-0.6,0-0.9,0.8-0.7,1.3c0.1,0.6,0.6,1,1.2,1.1c0.6,0.1,1.2-0.1,1.7-0.4c0.5-0.3,0.9-0.8,1.3-1.3
			c0.1-0.1,0.2-0.1,0.3,0c0.1,0.1,0.1,0.2,0,0.3l0,0c-0.3,0.6-0.8,1.1-1.3,1.6c-0.6,0.5-1.4,0.8-2.2,0.6c-0.9-0.1-1.7-0.8-2-1.7
			c-0.1-0.4-0.1-1,0.1-1.5c0.2-0.5,0.7-1,1.5-1c0.5,0,0.9,0.4,0.9,0.8c0,0.4-0.2,0.7-0.5,0.8h0c-0.5,0.2-1.2,0.1-1.5-0.2
			c-0.4-0.3-0.7-0.7-0.8-1.1c-0.1-0.5,0-1.1,0.2-1.5c0.2-0.4,0.6-0.7,1-0.9c0.4-0.2,0.8-0.3,1.2-0.3c0.4,0,0.8,0.1,1.1,0.3
			c0.7,0.3,1.1,0.8,1.5,1.3l0,0c0.3,0.4,0.2,1-0.2,1.2c-0.4,0.3-0.9,0.2-1.2-0.2c-0.6-0.8-1-1.7-1-2.7c0-0.5,0.1-0.9,0.3-1.5
			c0.1-0.3,0.5-0.7,0.9-0.8c0.4-0.1,0.7-0.1,1-0.1c1.1,0.2,1.8,1.1,2.1,2c0.3,0.9,0.2,1.8-0.1,2.6v0C30,36,29.9,36.1,29.8,36
			C29.6,36,29.6,35.9,29.6,35.8L29.6,35.8z"/>
		<path class="st0" d="M26.5,35.1c-0.7-1.2-0.7-2.5-0.9-3.7c-0.1-0.6-0.2-1.2-0.5-1.7c-0.3-0.5-0.7-1-1.2-1.3
			c-0.2-0.2-0.4,0.1-0.4,0.4c0,0.3,0,0.6,0,0.9c0.1,0.6,0.2,1.2,0.5,1.7c0.5,1.1,1.5,2,2.6,2.4c0.1,0,0.2,0.2,0.1,0.3
			c0,0.1-0.1,0.2-0.2,0.1h-0.1c-0.7-0.1-1.3-0.5-1.8-0.9c-0.5-0.4-1-1-1.4-1.6c-0.4-0.6-0.6-1.3-0.7-2c-0.1-0.4,0-0.7,0-1.1
			c0-0.2,0-0.5,0.4-1c0.2-0.2,0.6-0.4,0.9-0.4c0.4,0,0.6,0.1,0.7,0.2c0.7,0.5,1.2,1,1.5,1.7c0.3,0.7,0.5,1.4,0.5,2.1l0.1,1.9
			c0,0.6,0.1,1.1,0.3,1.7l0,0.1c0,0.1,0,0.3-0.2,0.3C26.7,35.3,26.6,35.2,26.5,35.1L26.5,35.1z"/>
		<path class="st0" d="M26.7,35.1c-1.2-1.6-2.5-3.2-3.8-4.8l-1.9-2.4c-0.3-0.4-0.6-0.8-1-1.1c-0.2-0.2-0.4-0.3-0.6-0.4
			c-0.1,0-0.1-0.1-0.2,0c0,0.1-0.1,0.2-0.1,0.3c0,0.5,0.3,0.9,0.5,1.3c0.3,0.4,0.6,0.8,0.9,1.2c0.6,0.8,1.3,1.6,2,2.3
			c0.7,0.7,1.5,1.4,2.3,1.9c0.8,0.6,1.7,1.2,2.6,1.1c0.1,0,0.2,0.1,0.2,0.2c0,0.1-0.1,0.2-0.2,0.2h0c-1.2,0.2-2.2-0.5-3.1-1
			c-0.9-0.6-1.7-1.2-2.5-1.9c-0.8-0.7-1.5-1.5-2.1-2.3c-0.3-0.4-0.6-0.9-0.9-1.3c-0.3-0.4-0.7-1-0.7-1.9c0-0.1,0-0.2,0-0.4
			c0-0.1,0-0.2,0.2-0.5c0.1-0.2,0.5-0.5,0.9-0.5c0.4,0,0.5,0.1,0.6,0.1c0.3,0.1,0.6,0.3,0.9,0.5c0.5,0.4,0.8,0.9,1.1,1.3
			c0.6,0.8,1.3,1.6,1.8,2.4l1.8,2.5c0.5,0.9,1.1,1.7,1.6,2.6l0,0c0.1,0.1,0,0.3-0.1,0.3C26.9,35.2,26.8,35.2,26.7,35.1L26.7,35.1z"
			/>
		<path class="st0" d="M53.3,37c0.3,0.6,0.7,1.1,1.1,1.7c0.2,0.3,0.3,0.6,0.3,1c0,0.4-0.1,0.8-0.5,1.1c-0.7,0.5-1.6,0.3-2.1-0.2
			c-0.5-0.5-0.8-1.2-1-1.8l0.4-0.1c0.1,0.5,0.1,1.1-0.1,1.7c-0.1,0.3-0.3,0.5-0.7,0.6c-0.3,0.1-0.6,0.1-0.9,0c-0.6-0.2-1-0.8-1-1.3
			c0-0.6,0.2-1.2,0.5-1.6l0.1,0.2c-0.6,0.1-1.2-0.2-1.5-0.7c-0.4-0.5-0.5-1.1-0.2-1.7c0.3-0.5,0.8-0.9,1.4-1c0.3,0,0.6,0,0.9,0.2
			c0.2,0.2,0.5,0.5,0.4,0.8c0,0.1-0.1,0.1-0.2,0.1c0,0,0,0,0,0c-0.6-0.5-0.4-1.3-0.2-1.8c0.3-0.6,0.6-1.1,1.2-1.4
			c0.3-0.2,0.7-0.2,1,0c0.3,0.2,0.5,0.5,0.6,0.8c0.2,0.7,0,1.3-0.2,1.9l0,0c0,0.1-0.1,0.2-0.2,0.1c-0.1,0-0.2-0.1-0.1-0.2
			c0.1-0.4,0.5-0.4,0.7-0.3c0.3,0.1,0.3,0.4,0.4,0.6c0,0.4,0,0.7,0,1.1c0,0.7-0.3,1.5-1.1,1.9c-0.1,0-0.2,0-0.3-0.1
			c0-0.1,0-0.2,0.1-0.3l0,0c0.5-0.3,0.7-0.9,0.7-1.5c0-0.3,0-0.7-0.1-0.9c0-0.1-0.1-0.1,0,0c0,0,0.1,0,0.1,0c0,0,0.2-0.1,0.2-0.3
			l-1.1-0.2c0.2-0.6,0.2-1.1,0.1-1.4c-0.1-0.2-0.2-0.3-0.3-0.3s-0.1,0-0.2,0c-0.2,0.1-0.6,0.6-0.7,1c-0.1,0.2-0.1,0.4-0.1,0.5
			c0,0.1,0,0.1,0.1,0.2l-1.4,0.4c0,0.1,0,0.2,0,0.3c0,0,0,0,0,0c0,0-0.1,0-0.2,0c-0.2,0-0.5,0.2-0.5,0.4c-0.1,0.2,0,0.3,0.1,0.5
			s0.4,0.3,0.5,0.3h0c0.5-0.1,1,0.3,1,0.8c0,0.3-0.1,0.5-0.2,0.7c-0.2,0.2-0.3,0.6-0.3,0.8c0,0.3,0.1,0.3,0.3,0.5
			c0.2,0,0.2,0.1,0.3-0.1c0.1-0.2,0.1-0.6,0.1-1.1v-0.1c-0.1-0.4,0.2-0.8,0.7-0.9c0.4,0,0.8,0.2,0.9,0.6c0.2,0.6,0.3,1.1,0.6,1.5
			c0.2,0.3,0.8,0.4,1,0.2c0.1,0,0.2-0.2,0.2-0.4s-0.1-0.5-0.2-0.7l-0.9-1.7v0c-0.1-0.1,0-0.3,0.1-0.3C53.1,36.8,53.2,36.8,53.3,37
			L53.3,37z"/>
		<path class="st0" d="M48.1,37.7c-0.1-0.5-0.9-0.9-1.4-0.6c-0.5,0.3-0.5,1.2,0,1.6l-0.2,0.2c-0.2-0.3-0.7-0.5-1.1-0.5
			c-0.4,0.1-0.8,0.4-0.9,0.9c-0.1,0.4,0.1,0.9,0.4,1.2c0.3,0.3,0.8,0.5,1.2,0.6c0.9,0.2,1.9,0,2.7-0.6c0.7-0.5,1-1.7,0.5-2.4
			c-0.1-0.1,0-0.2,0.1-0.3c0.1-0.1,0.2,0,0.3,0l0,0c0.8,0.9,0.5,2.4-0.4,3.2c-0.9,0.8-2.2,1.1-3.3,1c-0.6-0.1-1.3-0.3-1.8-0.9
			c-0.5-0.5-0.8-1.3-0.7-2.2c0.2-0.8,0.9-1.5,1.7-1.6c0.8-0.1,1.7,0.2,2.1,0.9l0,0.1c0.2,0.4,0.1,0.9-0.2,1.1
			c-0.3,0.2-0.6,0.2-0.9,0c-0.6-0.4-0.8-1-0.8-1.6c0-0.5,0.3-1.1,0.8-1.5c0.5-0.3,1.1-0.2,1.5,0c0.4,0.2,0.8,0.7,0.8,1.1v0.1
			c0,0.1-0.1,0.3-0.2,0.3C48.3,37.9,48.1,37.9,48.1,37.7L48.1,37.7z"/>
		<path class="st0" d="M52.9,35.9c-0.1-0.8-0.1-1.7,0.2-2.4c0.3-0.8,1-1.4,1.9-1.5c0.2,0,0.4,0,0.7,0.1c0.2,0.1,0.4,0.3,0.5,0.5
			c0.1,0.4,0.2,0.8,0.2,1.2c0,0.8-0.3,1.6-0.9,2.2c0,0-0.1,0.1-0.2,0c0,0-0.1-0.1,0-0.2c0.3-0.4,0.7-0.8,1.2-1.1
			c0.5-0.2,1.1-0.3,1.6,0c0.5,0.2,0.9,0.8,0.8,1.4c-0.1,0.5-0.7,1.1-1.3,0.8c-0.1,0-0.1-0.1-0.1-0.2c0,0,0.1-0.1,0.1-0.1
			c0.4,0,0.7,0.3,0.9,0.6c0.2,0.3,0.2,0.7,0.1,1c-0.2,0.7-0.8,1.2-1.5,1.3c-0.7,0.1-1.4,0-2-0.4s-1-0.8-1.5-1.3
			c-0.1-0.1-0.1-0.2,0-0.3c0.1-0.1,0.2-0.1,0.3,0l0,0c0.5,0.4,1,0.8,1.5,1.1c0.5,0.2,1,0.3,1.5,0.2s0.7-0.5,0.7-0.8
			c0.1-0.3-0.3-0.6-0.1-0.4l0.3-1.7c0,0-0.1,0-0.1,0c0,0,0.1-0.1,0.1-0.2c0,0,0-0.1-0.2-0.2c-0.2-0.1-0.4-0.1-0.7,0
			c-0.3,0.1-0.6,0.4-0.8,0.7l-1.4-1.1c0.4-0.4,0.6-1,0.7-1.6c0-0.3,0-0.6,0-0.8c0-0.1,0.1,0,0.1,0c0,0-0.1,0-0.2,0
			c-0.5,0-1,0.4-1.3,1c-0.3,0.6-0.4,1.3-0.4,2v0c0,0.1-0.1,0.3-0.2,0.3C53.1,36.1,52.9,36,52.9,35.9L52.9,35.9z"/>
		<path class="st0" d="M56.1,34.8c0.7-0.9,0.8-2.2,1-3.5c0.1-0.6,0.3-1.2,0.6-1.8c0.3-0.6,0.8-1,1.3-1.4c0.1-0.1,0.4-0.1,0.6,0
			c0.1,0.2,0.2,0.3,0.2,0.5c0,0.3,0,0.6,0,1c-0.1,0.6-0.2,1.2-0.5,1.8c-0.5,1.1-1.5,2.1-2.6,2.7c-0.1,0-0.2,0-0.3-0.1
			c0-0.1,0-0.2,0-0.3l0,0c0.5-0.4,0.9-0.8,1.2-1.3c0.3-0.4,0.6-0.9,0.8-1.4c0.2-0.5,0.3-1,0.3-1.5c0-0.3,0-0.5,0-0.8
			c0-0.1-0.1-0.1,0.1,0.1c0.1,0.1,0.3,0.2,0.5,0.2c0.2,0,0.2-0.1,0.2-0.1c-0.3,0.2-0.7,0.6-0.9,1c-0.3,0.4-0.4,0.9-0.6,1.5
			c-0.2,0.6-0.3,1.2-0.5,1.8c-0.2,0.6-0.5,1.3-1,1.8l0,0c-0.1,0.1-0.3,0.1-0.4,0C56,35,56,34.9,56.1,34.8L56.1,34.8z"/>
		<path class="st0" d="M56,34.8c1.3-1.5,2.6-3.1,3.9-4.7l1.9-2.4c0.3-0.4,0.7-0.8,1-1.1c0.2-0.2,0.4-0.3,0.7-0.4
			c0.1,0,0.1-0.1,0.2-0.1c0.1,0,0.2,0.1,0.2,0.2c0.1,0.1,0.1,0.3,0.1,0.4c0,0.6-0.3,1-0.5,1.5c-0.3,0.4-0.5,0.9-0.8,1.3
			c-0.6,0.8-1.3,1.6-2,2.3c-0.7,0.7-1.5,1.4-2.3,2c-0.8,0.6-1.7,1.3-2.8,1.3c-0.1,0-0.2-0.1-0.2-0.2c0-0.1,0.1-0.2,0.2-0.2h0
			c0.9-0.1,1.7-0.8,2.4-1.5c0.8-0.6,1.5-1.3,2.1-2.1c0.6-0.8,1.3-1.5,1.8-2.3c0.3-0.4,0.5-0.8,0.8-1.2c0.3-0.4,0.4-0.8,0.4-0.9v0
			c0,0,0,0,0,0.1c0,0.1,0.3,0.3,0.6,0.3c0.3,0,0.3-0.1,0.2,0c-0.1,0-0.3,0.1-0.4,0.2c-0.3,0.2-0.6,0.6-0.9,1c-0.7,0.8-1.3,1.6-2,2.3
			l-2.1,2.2c-0.7,0.7-1.4,1.5-2.2,2.2l0,0c-0.1,0.1-0.3,0.1-0.4,0C55.9,35,55.9,34.8,56,34.8L56,34.8z"/>
		<path class="st0" d="M3.9,67.7c-0.5,1.9-1,3.8-1.6,5.7c-0.5,1.9-1.2,3.8-1.9,5.6c0,0.1-0.2,0.2-0.3,0.1C0,79.2,0,79.1,0,79v-0.1
			c0.1-0.5,0.2-1,0.2-1.5L0.5,76c0.2-1,0.5-1.9,0.8-2.8c0.3-0.9,0.6-1.9,0.9-2.8L2.8,69c0.2-0.4,0.4-0.9,0.6-1.4l0-0.1
			c0.1-0.1,0.2-0.2,0.3-0.1C3.9,67.5,3.9,67.6,3.9,67.7L3.9,67.7z"/>
		<path class="st0" d="M2.4,69.8c0.5-0.6,1-1.1,1.8-1.4c0.7-0.2,1.5-0.2,2.2,0c0.7,0.2,1.4,0.5,1.9,1.1c0.4,0.6,0.6,1.5,0.3,2.2
			c0,0.1-0.2,0.2-0.3,0.1c-0.1,0-0.1-0.1-0.1-0.2v-0.1c0-0.3-0.1-0.6-0.2-0.9c-0.1-0.2-0.3-0.5-0.5-0.6c-0.4-0.3-0.8-0.5-1.4-0.6
			c-0.6-0.1-1.2-0.2-1.6-0.1c-0.3,0-0.5,0.1-0.8,0.3c-0.3,0.1-0.6,0.3-0.9,0.5l-0.1,0.1c-0.1,0.1-0.3,0-0.3-0.1
			C2.3,70,2.3,69.9,2.4,69.8L2.4,69.8z"/>
		<path class="st0" d="M8.7,72.1c-0.5,1.4-1,2.8-1.6,4.2c-0.5,1.4-1.2,2.7-1.8,4.1c-0.1,0.1-0.2,0.2-0.3,0.1c-0.1,0-0.1-0.1-0.1-0.2
			v-0.1c0-0.4,0.2-0.8,0.2-1.1l0.3-1.1c0.2-0.7,0.5-1.4,0.7-2.1c0.3-0.7,0.6-1.3,0.9-2l0.5-1c0.2-0.3,0.4-0.6,0.6-0.9l0.1-0.1
			c0.1-0.1,0.2-0.1,0.4,0C8.7,71.9,8.7,72,8.7,72.1z"/>
		<path class="st0" d="M0.9,78.6c0.2,0.9,1,1.7,2,1.9c1,0.2,2.1-0.2,2.6-1c0.1-0.1,0.2-0.1,0.3-0.1c0.1,0,0.1,0.1,0.1,0.2l0,0.1
			c-0.1,0.3-0.2,0.6-0.4,0.8c-0.2,0.2-0.5,0.4-0.8,0.6c-0.6,0.3-1.3,0.4-2,0.3c-0.7-0.2-1.3-0.5-1.7-1c-0.2-0.3-0.4-0.5-0.5-0.8
			c-0.1-0.3-0.2-0.6-0.1-0.9l0-0.2c0-0.1,0.2-0.2,0.3-0.2C0.8,78.5,0.8,78.6,0.9,78.6L0.9,78.6z"/>
		<path class="st0" d="M15.7,69.2c-0.4,0.9-0.7,1.9-1.1,2.9c-0.3,1-0.6,2-0.8,3c0,0.1-0.1,0.2-0.2,0.2c-0.1,0-0.1-0.1-0.1-0.1l0-0.1
			c-0.1-0.3-0.1-0.6-0.1-0.8l0-0.8c0-0.5,0.2-1,0.3-1.5c0.2-0.5,0.3-1,0.6-1.4l0.4-0.7c0.2-0.2,0.3-0.4,0.6-0.6l0.1-0.1
			c0.1-0.1,0.2-0.1,0.3,0C15.7,69,15.7,69.1,15.7,69.2L15.7,69.2z"/>
		<path class="st0" d="M15,69.3c0.8-0.4,1.6-1,2.6-1.1c0.5-0.1,1,0,1.4,0.2c0.4,0.2,0.8,0.6,1,1.1c0,0.1,0,0.2-0.1,0.2
			c-0.1,0-0.1,0-0.2,0l-0.1-0.1c-0.2-0.1-0.4-0.2-0.5-0.3c-0.1-0.1-0.3-0.1-0.5-0.1c-0.3,0-0.6,0-0.9,0c-0.3,0-0.6,0.1-1,0.2
			c-0.2,0-0.4,0.1-0.6,0.2c-0.2,0-0.5,0.1-0.7,0.1h-0.2c-0.1,0-0.2-0.1-0.2-0.2C14.9,69.4,15,69.3,15,69.3L15,69.3z"/>
		<path class="st0" d="M19.9,69.9c-0.1,0.9-0.1,1.8-0.3,2.7c-0.1,0.9-0.3,1.8-0.4,2.7c0,0.1-0.1,0.2-0.2,0.2c-0.1,0-0.1-0.1-0.1-0.1
			l-0.1-0.2c-0.1-0.3-0.1-0.5-0.2-0.7l-0.1-0.7c0-0.4,0-0.9,0-1.3c0.1-0.4,0.1-0.8,0.2-1.3l0.2-0.7c0.1-0.2,0.2-0.4,0.3-0.7l0.1-0.2
			c0.1-0.1,0.2-0.1,0.3-0.1C19.9,69.8,19.9,69.9,19.9,69.9L19.9,69.9z"/>
		<path class="st0" d="M13.7,75.2c0.1,0.4,0.7,0.7,1.3,0.8c0.6,0.1,1.2,0.2,1.8,0.2c0.6-0.1,1.1-0.2,1.6-0.5c0.5-0.3,0.9-0.8,1-1.3
			c0-0.1,0.1-0.2,0.2-0.2c0.1,0,0.1,0.1,0.1,0.2v0.1c0,0.4-0.1,0.7-0.2,1.1c-0.2,0.3-0.4,0.6-0.7,0.8c-0.6,0.5-1.3,0.7-2,0.8
			c-0.7,0-1.4-0.1-2-0.3c-0.3-0.1-0.7-0.3-1-0.5c-0.3-0.3-0.6-0.6-0.6-1v-0.1c0-0.1,0.1-0.2,0.2-0.2C13.6,75,13.7,75.1,13.7,75.2z"
			/>
		<path class="st0" d="M29.2,61.3c1-0.2,1.9,0,2.7,0.5c0.8,0.5,1.3,1.4,1.4,2.3c0,0.1,0,0.2-0.2,0.2c-0.1,0-0.1,0-0.2-0.1l-0.1-0.1
			c-0.2-0.2-0.3-0.4-0.5-0.5c-0.1-0.2-0.2-0.3-0.4-0.4c-0.3-0.2-0.5-0.4-0.8-0.6c-0.2-0.2-0.5-0.3-0.8-0.5c-0.1-0.1-0.3-0.2-0.5-0.2
			c-0.2-0.1-0.4-0.1-0.6-0.2l-0.2-0.1c-0.1,0-0.2-0.2-0.1-0.3C29.1,61.4,29.1,61.3,29.2,61.3L29.2,61.3z"/>
		<path class="st0" d="M29.2,61.9c-0.5,0.5-0.8,1-1.3,1.5c-0.4,0.5-0.9,0.9-1.4,1.4c-0.1,0.1-0.2,0.1-0.2,0c0,0-0.1-0.1,0-0.1l0-0.2
			c0-0.2,0.1-0.4,0.1-0.6l0.2-0.5c0.1-0.3,0.3-0.5,0.5-0.8c0.2-0.2,0.4-0.4,0.7-0.6l0.4-0.2c0.2-0.1,0.3-0.2,0.5-0.2l0.2,0
			c0.1,0,0.2,0,0.2,0.2C29.3,61.8,29.3,61.9,29.2,61.9L29.2,61.9z"/>
		<path class="st0" d="M26.3,65c-0.1,0.3-0.1,0.8,0,1.2c0.1,0.4,0.4,0.8,0.6,1.1c0.3,0.3,0.6,0.6,1,0.8c0.4,0.2,0.8,0.2,1.1-0.1
			c0.1-0.1,0.2,0,0.3,0c0,0.1,0,0.2,0,0.2l-0.1,0.1c-0.2,0.3-0.5,0.4-0.7,0.5c-0.3,0.1-0.6,0.1-0.9,0c-0.6-0.1-1.1-0.6-1.4-1
			c-0.3-0.4-0.5-0.8-0.6-1.4c0-0.3-0.1-0.6,0-0.8c0.1-0.3,0.2-0.6,0.4-0.8l0.1-0.1c0.1-0.1,0.2-0.1,0.3,0
			C26.3,64.8,26.3,64.9,26.3,65L26.3,65z"/>
		<path class="st0" d="M29.2,68c0.8-0.6,1.4-1.3,2.1-2c0.6-0.7,1.3-1.4,1.9-2.2c0.1-0.1,0.2-0.1,0.3,0c0.1,0,0.1,0.1,0.1,0.2l0,0.1
			c0,0.3-0.2,0.5-0.2,0.8L33,65.6c-0.2,0.4-0.5,0.8-0.9,1.2c-0.3,0.3-0.7,0.7-1.1,0.9L30.4,68c-0.2,0.1-0.5,0.2-0.7,0.3l-0.2,0
			c-0.1,0-0.2-0.1-0.3-0.2C29.2,68.1,29.2,68,29.2,68L29.2,68z"/>
		<path class="st0" d="M35.6,73.3c0.8-1.7,1.4-3.4,2-5.1c0.6-1.7,1.3-3.4,1.8-5.2c0-0.1,0.2-0.2,0.3-0.1c0.1,0,0.2,0.1,0.2,0.2v0.1
			c0,0.5-0.1,0.9-0.2,1.4l-0.3,1.4c-0.2,0.9-0.5,1.8-0.8,2.7c-0.3,0.9-0.7,1.7-1.1,2.5l-0.7,1.2c-0.3,0.4-0.5,0.8-0.8,1.2L36,73.5
			c-0.1,0.1-0.2,0.1-0.3,0C35.5,73.5,35.5,73.4,35.6,73.3L35.6,73.3z"/>
		<path class="st0" d="M39.5,63.3c0.6-0.5,1.4-0.9,2.2-1.1c0.8-0.2,1.7-0.1,2.4,0.3c0.8,0.3,1.4,1,1.7,1.7c0.3,0.8,0.2,1.7-0.2,2.4
			c-0.1,0.1-0.2,0.1-0.3,0.1c-0.1,0-0.1-0.1-0.1-0.2l0-0.1c0.1-0.4,0.1-0.7,0-1.1c0-0.3-0.2-0.6-0.3-0.9c-0.3-0.5-0.7-0.8-1.2-1.1
			c-0.5-0.2-1.1-0.3-1.8-0.3c-0.3,0-0.7,0.1-1,0.2c-0.4,0.1-0.7,0.2-1.1,0.4l-0.1,0c-0.1,0-0.3,0-0.3-0.1
			C39.4,63.5,39.4,63.4,39.5,63.3L39.5,63.3z"/>
		<path class="st0" d="M36.2,74c0.3,0.9,1.2,1.6,2.1,2c1,0.3,2.1,0.3,2.9-0.2c0.1-0.1,0.2,0,0.3,0.1c0,0.1,0,0.2,0,0.2l-0.1,0.1
			c-0.2,0.3-0.4,0.4-0.7,0.6c-0.3,0.1-0.6,0.2-0.9,0.3c-0.6,0.2-1.3,0.1-1.8-0.1c-0.6-0.2-1.2-0.5-1.5-1c-0.2-0.2-0.4-0.5-0.5-0.8
			c-0.1-0.3-0.2-0.6-0.2-0.9v-0.2c0-0.1,0.1-0.2,0.2-0.2C36,73.8,36.1,73.9,36.2,74L36.2,74z"/>
		<path class="st0" d="M41.3,75.1c0.8-1.6,1.7-3.2,2.5-4.8c0.7-1.6,1.5-3.3,1.7-5c0-0.1,0.1-0.2,0.2-0.2c0.1,0,0.2,0.1,0.2,0.2v0.1
			c0.1,0.5,0.1,0.9,0,1.4c-0.1,0.5-0.1,0.9-0.2,1.4c-0.2,0.9-0.5,1.8-0.9,2.6c-0.4,0.8-0.8,1.6-1.3,2.3l-0.8,1.1
			c-0.3,0.3-0.5,0.7-0.8,1.1l-0.1,0.1c-0.1,0.1-0.2,0.1-0.3,0C41.2,75.3,41.2,75.1,41.3,75.1L41.3,75.1z"/>
		<path class="st0" d="M29.9,80.3c0.8-1.2,1.9-2.1,3.3-2.5c0.7-0.2,1.5-0.1,2,0.4c0.5,0.5,0.7,1.2,0.9,1.9c0,0.1,0,0.2-0.2,0.2
			c-0.1,0-0.2,0-0.2-0.1l-0.1-0.1c-0.2-0.3-0.3-0.6-0.5-0.8c-0.2-0.2-0.4-0.4-0.5-0.5c-0.4-0.2-0.6-0.2-1,0c-0.5,0.1-1,0.4-1.5,0.7
			c-0.3,0.1-0.5,0.3-0.8,0.5c-0.3,0.2-0.5,0.4-0.8,0.6l-0.1,0.1c-0.1,0.1-0.3,0.1-0.3-0.1C29.8,80.5,29.9,80.4,29.9,80.3L29.9,80.3z
			"/>
		<path class="st0" d="M30.6,80.8c-0.2,1.3-0.2,2.7-0.2,4c0.1,1.3,0.1,2.7,0.3,4c0,0.1-0.1,0.2-0.2,0.2c-0.1,0-0.2,0-0.2-0.1
			l-0.1-0.1c-0.2-0.3-0.3-0.7-0.4-1l-0.3-1c-0.2-0.7-0.2-1.3-0.2-2c0-0.7,0-1.4,0.2-2l0.2-1c0.1-0.3,0.2-0.7,0.4-1l0.1-0.1
			c0.1-0.1,0.2-0.2,0.3-0.1C30.5,80.6,30.6,80.7,30.6,80.8L30.6,80.8z"/>
		<path class="st0" d="M35.8,80.8c0.2,1.2,0.4,2.4,0.5,3.5c0.2,1.2,0.2,2.4,0.3,3.6c0,0.1-0.1,0.2-0.2,0.2c-0.1,0-0.2,0-0.2-0.1
			l-0.1-0.1c-0.2-0.3-0.2-0.6-0.3-0.9l-0.2-0.9c-0.2-0.6-0.2-1.1-0.3-1.7c0-0.6-0.1-1.1-0.1-1.7l0-0.9c0-0.3,0.1-0.6,0.1-0.9l0-0.2
			c0-0.1,0.2-0.2,0.3-0.2C35.8,80.7,35.8,80.7,35.8,80.8L35.8,80.8z"/>
		<path class="st0" d="M30.7,88.8c0.4,0.4,0.9,0.7,1.4,0.7c0.5,0.1,1.1,0.1,1.7-0.1c1.1-0.4,2-1.1,2.7-1.9c0.1-0.1,0.2-0.1,0.3,0
			c0.1,0.1,0.1,0.1,0.1,0.2l0,0.1c-0.1,0.3-0.3,0.6-0.4,0.9c-0.2,0.2-0.4,0.5-0.6,0.7c-0.5,0.5-1,0.8-1.7,1c-0.7,0.2-1.4,0.2-2.1,0
			c-0.3-0.1-0.7-0.3-1-0.5c-0.3-0.2-0.5-0.5-0.6-0.8l0-0.1c0-0.1,0-0.3,0.1-0.3C30.5,88.7,30.6,88.8,30.7,88.8L30.7,88.8z"/>
		<path class="st0" d="M42.6,86.7c0.9-1.6,1.6-3.2,2.3-4.8c0.6-1.7,1.3-3.3,1.8-5.1c0-0.1,0.2-0.2,0.3-0.2c0.1,0,0.2,0.1,0.2,0.2V77
			c0,0.5-0.1,0.9-0.1,1.4l-0.3,1.3c-0.2,0.9-0.5,1.7-0.8,2.6c-0.3,0.8-0.7,1.7-1.2,2.4L44,85.9c-0.3,0.4-0.5,0.7-0.9,1.1L43,87
			c-0.1,0.1-0.3,0.1-0.3,0C42.6,87,42.6,86.8,42.6,86.7L42.6,86.7z"/>
		<path class="st0" d="M46.8,77.3c0.3-0.7,1-1,1.6-1c0.6,0,1.2,0.2,1.8,0.5c0.5,0.3,1,0.7,1.4,1.2c0.3,0.5,0.5,1.2,0.3,1.8
			c0,0.1-0.1,0.2-0.2,0.1c-0.1,0-0.1-0.1-0.1-0.2l0-0.1c-0.1-0.3-0.1-0.5-0.3-0.7c-0.1-0.2-0.2-0.4-0.4-0.5
			c-0.3-0.3-0.6-0.5-1.1-0.7c-0.4-0.2-0.8-0.4-1.2-0.5c-0.2-0.1-0.4-0.1-0.6,0c-0.2,0-0.4,0.1-0.6,0.2l-0.2,0.1
			c-0.1,0.1-0.2,0.1-0.3-0.1C46.8,77.4,46.8,77.4,46.8,77.3L46.8,77.3z"/>
		<path class="st0" d="M51.5,80.3c-0.8,1.4-1.5,2.9-2.1,4.4c-0.6,1.5-1.2,3.1-1.6,4.6c0,0.1-0.1,0.2-0.2,0.2c-0.1,0-0.2-0.1-0.2-0.2
			v-0.1c0-0.4,0-0.8,0.1-1.3l0.2-1.2c0.2-0.8,0.4-1.6,0.7-2.4c0.3-0.8,0.7-1.5,1.1-2.2l0.7-1.1c0.3-0.3,0.5-0.7,0.8-1l0.1-0.1
			c0.1-0.1,0.3-0.1,0.3,0C51.5,80.1,51.5,80.2,51.5,80.3L51.5,80.3z"/>
		<path class="st0" d="M43.5,87.6c-0.2,0.3-0.1,0.9,0.3,1.2c0.4,0.3,0.9,0.6,1.3,0.7c0.5,0.1,1,0.1,1.5-0.1c0.5-0.2,0.8-0.6,0.9-1.1
			c0-0.1,0.1-0.2,0.2-0.2c0.1,0,0.2,0.1,0.2,0.2l0,0.1c0.1,0.3,0,0.7-0.2,1c-0.2,0.3-0.5,0.6-0.8,0.8c-0.6,0.4-1.4,0.4-2.1,0.3
			c-0.7-0.2-1.2-0.4-1.7-1c-0.2-0.3-0.5-0.7-0.5-1.1c0-0.4,0.1-0.8,0.4-1.1l0.1-0.1c0.1-0.1,0.3-0.1,0.3,0.1
			C43.6,87.4,43.6,87.5,43.5,87.6L43.5,87.6z"/>
		<path class="st0" d="M51.4,69.4c-0.7-0.5-1-1.3-1-2.1c0-0.8,0.2-1.5,0.6-2.2c0.4-0.7,0.9-1.2,1.5-1.7c0.6-0.5,1.3-0.8,2.1-1
			c0.1,0,0.2,0.1,0.2,0.2c0,0.1,0,0.2-0.1,0.2L54.6,63c-0.3,0.2-0.6,0.3-0.8,0.6c-0.3,0.2-0.5,0.4-0.7,0.7c-0.4,0.5-0.8,1-1.1,1.5
			c-0.3,0.5-0.5,1-0.6,1.5c0,0.3,0,0.6,0,0.8c0,0.3,0.2,0.6,0.3,0.9l0.1,0.1c0.1,0.1,0,0.3-0.1,0.3C51.6,69.5,51.5,69.5,51.4,69.4
			L51.4,69.4z"/>
		<path class="st0" d="M54.7,62.7c1.2,0.5,2.1,1.2,3.1,1.9c0.5,0.3,1,0.6,1.5,0.8c0.5,0.2,1.1,0.3,1.7,0.3c0.1,0,0.2,0.1,0.2,0.2
			c0,0.1,0,0.2-0.1,0.2L61,66.2c-0.3,0.2-0.7,0.2-1,0.2c-0.3,0-0.7-0.1-1-0.1c-0.7-0.1-1.2-0.5-1.8-0.8c-0.5-0.4-1-0.7-1.4-1.1
			c-0.2-0.2-0.4-0.4-0.6-0.6c-0.2-0.2-0.4-0.4-0.6-0.6l-0.1-0.1c-0.1-0.1-0.1-0.2,0-0.3C54.6,62.7,54.7,62.7,54.7,62.7L54.7,62.7z"
			/>
		<path class="st0" d="M52.3,69.4c1.2,0.3,2.3,1,3.2,1.7c1,0.6,2,1.3,3.2,1.4c0.1,0,0.2,0.1,0.2,0.2c0,0.1-0.1,0.2-0.1,0.2l-0.1,0
			C58.3,73,58,73,57.6,73c-0.3-0.1-0.7-0.1-1-0.2C56,72.6,55.5,72.3,55,72c-0.5-0.3-1-0.7-1.4-1c-0.2-0.2-0.4-0.3-0.7-0.5
			c-0.2-0.2-0.5-0.3-0.7-0.5L52,69.8c-0.1-0.1-0.1-0.2,0-0.3C52.1,69.4,52.2,69.4,52.3,69.4L52.3,69.4z"/>
		<path class="st0" d="M58.8,72.4c0.6-0.1,1.1-0.4,1.5-0.9c0.4-0.4,0.8-1,1-1.5c0.2-0.6,0.4-1.2,0.4-1.8c0-0.6-0.2-1.2-0.7-1.5
			c-0.1-0.1-0.2-0.2-0.1-0.3c0-0.1,0.1-0.1,0.2-0.1h0.1c0.4,0.1,0.8,0.4,1,0.7c0.2,0.4,0.3,0.8,0.4,1.2c0.1,0.8-0.1,1.5-0.3,2.2
			c-0.3,0.7-0.7,1.3-1.3,1.8c-0.3,0.2-0.6,0.4-1,0.6c-0.4,0.1-0.7,0.2-1.1,0.2l-0.1,0c-0.1,0-0.2-0.1-0.2-0.3
			C58.6,72.5,58.6,72.5,58.8,72.4L58.8,72.4z"/>
		<path class="st0" d="M67.6,67.3c-0.4-0.3-0.4-0.8-0.4-1.1c0.1-0.4,0.2-0.7,0.4-0.9c0.3-0.6,0.8-1,1.4-1.4c1.1-0.7,2.5-0.9,3.8-0.5
			c0.1,0,0.2,0.1,0.1,0.2c0,0.1-0.1,0.1-0.2,0.1l-0.1,0c-0.3,0-0.6,0-0.9,0.1c-0.3,0-0.5,0.1-0.8,0.2c-0.5,0.2-1,0.4-1.4,0.7
			c-0.4,0.2-0.8,0.6-1.1,0.9c-0.1,0.1-0.2,0.2-0.2,0.3c-0.1,0.1-0.1,0.2-0.2,0.3c-0.1,0.2-0.2,0.3-0.2,0.5l0.1,0.2
			c0,0.1-0.1,0.2-0.2,0.2C67.6,67.3,67.6,67.3,67.6,67.3L67.6,67.3z"/>
		<path class="st0" d="M72.9,63.3c0.8,0.9,1.7,1.6,2.6,2.5c0.9,0.8,1.8,1.6,2.8,2.3c0.1,0.1,0.1,0.2,0.1,0.3
			c-0.1,0.1-0.1,0.1-0.2,0.1l-0.1,0c-0.3-0.1-0.6-0.2-0.9-0.3l-0.8-0.4c-0.5-0.3-1-0.7-1.5-1c-0.4-0.4-0.9-0.8-1.2-1.3L73,64.5
			c-0.2-0.3-0.3-0.5-0.4-0.8l-0.1-0.1c-0.1-0.1,0-0.3,0.1-0.3C72.7,63.2,72.8,63.2,72.9,63.3L72.9,63.3z"/>
		<path class="st0" d="M68.2,67.4c0.9,0.9,1.8,1.7,2.8,2.6c1,0.8,1.9,1.6,2.9,2.4c0.1,0.1,0.1,0.2,0.1,0.3c-0.1,0.1-0.1,0.1-0.2,0.1
			l-0.1,0c-0.3-0.1-0.6-0.2-0.9-0.3l-0.8-0.5c-0.6-0.3-1.1-0.7-1.5-1.1c-0.5-0.4-0.9-0.8-1.3-1.3l-0.6-0.8c-0.2-0.3-0.4-0.6-0.5-0.9
			l-0.1-0.1c-0.1-0.1,0-0.3,0.1-0.3C68,67.3,68.1,67.3,68.2,67.4z"/>
		<path class="st0" d="M73.3,71.7c1.2,0.3,2.5-0.1,3.4-0.9c0.4-0.4,0.8-1,1-1.6c0.1-0.3,0.2-0.6,0.2-0.9c0-0.3-0.2-0.6-0.3-0.5
			c-0.1,0-0.2-0.1-0.2-0.2s0-0.2,0.2-0.2l0.1,0c0.2-0.1,0.6,0.1,0.7,0.3c0.2,0.2,0.2,0.4,0.3,0.6c0.1,0.5,0,0.8,0,1.2
			c-0.1,0.8-0.5,1.4-1.1,2c-0.6,0.5-1.3,0.9-2,1c-0.4,0.1-0.8,0.1-1.1,0c-0.4-0.1-0.7-0.2-1-0.4l-0.1-0.1C73,72.1,73,71.9,73,71.8
			C73.1,71.7,73.2,71.7,73.3,71.7L73.3,71.7z"/>
		<path class="st0" d="M66.9,81.8c-0.1-0.8,0.4-1.4,0.8-1.8c0.5-0.4,1-0.7,1.6-0.9c1.2-0.5,2.5-0.4,3.7-0.1c0.1,0,0.2,0.1,0.1,0.2
			c0,0.1-0.1,0.1-0.2,0.1l-0.1,0c-0.3,0-0.6,0-0.9,0.1c-0.3,0-0.5,0.1-0.8,0.1c-0.5,0.1-1,0.2-1.4,0.4c-0.5,0.2-0.9,0.4-1.3,0.6
			c-0.2,0.1-0.4,0.3-0.6,0.4c-0.2,0.2-0.3,0.3-0.4,0.6l-0.1,0.2C67.3,82,67.2,82,67.1,82C67,81.9,66.9,81.9,66.9,81.8L66.9,81.8z"/>
		<path class="st0" d="M67.2,81.9c0.4,1.4,1.1,2.7,1.8,4c0.7,1.3,1.5,2.5,2.4,3.7c0.1,0.1,0.1,0.2,0,0.3c-0.1,0.1-0.2,0.1-0.2,0
			L71,89.8c-0.3-0.2-0.6-0.5-0.9-0.7l-0.8-0.8c-0.5-0.6-0.9-1.2-1.3-1.8c-0.3-0.7-0.7-1.3-0.9-2.1l-0.3-1.1
			c-0.1-0.4-0.1-0.8-0.1-1.2V82c0-0.1,0.1-0.2,0.2-0.2C67.1,81.7,67.2,81.8,67.2,81.9L67.2,81.9z"/>
		<path class="st0" d="M73.3,79.2c0.6,1.2,1.3,2.2,1.9,3.4c0.7,1.1,1.3,2.3,1.9,3.4c0.1,0.1,0,0.2-0.1,0.3c-0.1,0-0.2,0-0.2,0
			l-0.1-0.1c-0.3-0.2-0.5-0.5-0.8-0.7l-0.6-0.8c-0.4-0.5-0.8-1.1-1.1-1.6c-0.3-0.6-0.6-1.1-0.9-1.7l-0.4-0.9c-0.1-0.3-0.2-0.6-0.3-1
			l0-0.1c0-0.1,0.1-0.2,0.2-0.3C73.1,79.1,73.2,79.2,73.3,79.2L73.3,79.2z"/>
		<path class="st0" d="M70.8,88.9c0.4,0.4,1,0.7,1.6,0.8c0.6,0.1,1.2,0,1.8-0.2c1.1-0.5,2-1.5,2.5-2.6c0.1-0.1,0.2-0.1,0.3-0.1
			c0.1,0,0.1,0.1,0.1,0.2V87c0,0.4-0.2,0.7-0.3,1c-0.2,0.3-0.3,0.6-0.5,0.9c-0.4,0.6-1,1.1-1.7,1.4c-0.7,0.3-1.6,0.4-2.3,0.2
			c-0.4-0.1-0.8-0.2-1.1-0.5c-0.3-0.2-0.6-0.5-0.8-0.9l-0.1-0.1c-0.1-0.1,0-0.3,0.1-0.3C70.6,88.8,70.7,88.8,70.8,88.9z"/>
		<path class="st0" d="M15.9,50.9c0.1,1.6-0.1,3.2-0.8,4.7c-0.6,1.5-1.6,2.8-2.4,4.1c-0.8,1.3-1.7,2.7-2.8,3.8
			c-1,1.2-2.2,2.3-2.5,3.8c0,0.1-0.1,0.2-0.2,0.2c-0.1,0-0.2-0.1-0.2-0.2v-0.1c0-0.9,0.4-1.7,0.8-2.4c0.4-0.7,1-1.3,1.4-1.9
			c0.9-1.2,1.8-2.5,2.6-3.8c0.9-1.3,1.8-2.6,2.4-3.9c0.3-0.6,0.6-1.3,0.8-2c0.2-0.7,0.3-1.5,0.4-2.3v-0.1c0-0.1,0.1-0.2,0.3-0.2
			C15.8,50.6,15.9,50.7,15.9,50.9z"/>
		<path class="st0" d="M18.2,58.2c0,0.9-0.1,1.8-0.3,2.7c-0.2,0.9-0.5,1.7-0.5,2.6c0,0.9,0.3,1.7,0.4,2.6c0.1,0.9,0.1,1.9-0.6,2.7
			c-0.1,0.1-0.2,0.1-0.3,0c-0.1-0.1-0.1-0.2-0.1-0.2l0-0.1c0.2-0.4,0.2-0.8,0.2-1.1c0-0.4-0.1-0.8-0.2-1.1c-0.2-0.8-0.5-1.6-0.6-2.7
			c0-1.1,0.3-2,0.6-2.8c0.1-0.4,0.2-0.8,0.4-1.2c0.1-0.4,0.2-0.8,0.4-1.3l0-0.1c0-0.1,0.2-0.2,0.3-0.2C18.1,58,18.2,58.1,18.2,58.2
			L18.2,58.2z"/>
		<path class="st0" d="M62.9,56.6c0.9,3.9,1.5,7.9,1.7,11.9c0.1,2,0.4,4,1.5,5.7c1,1.7,2.5,3.1,3.9,4.5c0.1,0.1,0.1,0.2,0,0.3
			c-0.1,0.1-0.2,0.1-0.3,0l0,0c-0.8-0.6-1.6-1.2-2.4-1.9c-0.7-0.7-1.4-1.5-2.1-2.4c-0.6-0.9-1.1-1.9-1.3-3c-0.3-1.1-0.4-2.1-0.5-3.1
			c-0.1-2-0.3-3.9-0.5-5.9c-0.1-1-0.2-2-0.3-3l-0.3-3v0c0-0.1,0.1-0.3,0.2-0.3C62.8,56.4,62.9,56.5,62.9,56.6L62.9,56.6z"/>
		<path class="st0" d="M66.5,56.1c-0.3,0.7-0.4,1.4-0.3,2.1c0.1,0.7,0.4,1.5,0.7,2.1c0.4,0.7,0.9,1.2,1.4,1.8c0.6,0.6,0.6,1.5,1,2.1
			c0.1,0.1,0,0.2-0.1,0.3c-0.1,0.1-0.2,0.1-0.2,0l-0.1-0.1c-0.4-0.3-0.5-0.8-0.7-1c-0.2-0.3-0.3-0.4-0.6-0.7
			c-0.6-0.5-1.2-1.1-1.6-1.8c-0.4-0.7-0.7-1.6-0.7-2.5c0-0.4,0-0.9,0.1-1.3c0.1-0.4,0.3-0.8,0.6-1.2l0.1-0.1c0.1-0.1,0.2-0.1,0.3,0
			C66.5,55.9,66.5,56,66.5,56.1L66.5,56.1z"/>
		<path class="st0" d="M44,49.3c-0.8,1.3-0.8,3-0.5,4.5c0.4,1.5,1.1,3,1.8,4.4c0.7,1.4,1.6,2.8,3,3.6c1.4,0.8,2.8,1.7,4,2.8
			c0.1,0.1,0.1,0.2,0,0.3c-0.1,0.1-0.2,0.1-0.3,0l0,0c-0.7-0.4-1.3-0.9-2-1.2c-0.7-0.4-1.3-0.7-2.1-1.1c-0.8-0.4-1.5-1-2-1.7
			c-0.5-0.7-1-1.5-1.4-2.2c-0.7-1.5-1.5-3-1.8-4.7c-0.1-0.9-0.2-1.7-0.1-2.6c0.2-0.9,0.4-1.7,1-2.4l0,0c0.1-0.1,0.2-0.1,0.4,0
			C44.1,49,44.1,49.2,44,49.3z"/>
		<path class="st0" d="M43.7,49.5c-0.3,1.5-0.6,3-1.2,4.4c-0.6,1.4-1.4,2.7-2.4,3.9c-1,1.2-2.2,2.2-3.5,3c-1.3,0.8-2.9,1.2-3.9,2.2
			c-0.1,0.1-0.2,0.1-0.3,0c-0.1-0.1-0.1-0.2,0-0.3l0,0c0.4-0.7,1.2-1.2,1.8-1.6c0.7-0.4,1.3-0.7,1.9-1.2c1.2-0.8,2.2-1.8,3.1-2.9
			c1-1,1.7-2.3,2.3-3.6c0.3-0.6,0.6-1.3,0.8-2c0.3-0.7,0.5-1.5,0.8-2.2l0,0c0.1-0.1,0.2-0.2,0.3-0.1C43.7,49.3,43.7,49.4,43.7,49.5
			L43.7,49.5z"/>
		<path class="st0" d="M43,49.8c-0.5,2.1-0.8,4.3-0.6,6.5c0.1,1.1,0.4,2.1,0.8,3.1c0.4,1,0.8,2.1,0.8,3.2c0,0.1-0.1,0.2-0.2,0.2
			c-0.1,0-0.2-0.1-0.2-0.2l0-0.1c-0.1-0.5-0.3-1-0.5-1.5c-0.2-0.5-0.5-0.9-0.7-1.4c-0.5-1-0.9-2.2-1-3.4c-0.1-1.2,0-2.3,0.2-3.4
			c0.1-0.6,0.2-1.1,0.4-1.6c0.2-0.5,0.3-1.1,0.6-1.6l0-0.1c0.1-0.1,0.2-0.2,0.3-0.1C43,49.6,43.1,49.7,43,49.8L43,49.8z"/>
		<path class="st0" d="M43,49c0,1.3-0.2,2.6-0.4,3.9c-0.3,1.3-0.7,2.5-1.1,3.8c-0.9,2.4-2.2,4.8-3.5,7c-0.7,1.1-1.3,2.2-2,3.3
			c-0.7,1.1-1.4,2.2-2,3.3c-1.1,2.3-1,5.1-0.1,7.4c0,0.1,0,0.2-0.1,0.3c-0.1,0-0.2,0-0.3-0.1v0c-0.7-1.2-1-2.5-1.1-3.9
			c-0.1-1.4,0.2-2.8,0.7-4.1c0.5-1.3,1.3-2.3,2-3.5c0.7-1.1,1.3-2.2,2-3.3c0.7-1.1,1.3-2.2,1.9-3.3c0.6-1.1,1.1-2.3,1.6-3.5
			c1-2.3,1.6-4.8,1.9-7.3v0c0-0.1,0.2-0.2,0.3-0.2C42.9,48.7,43,48.9,43,49L43,49z"/>
		<path class="st0" d="M43.3,50.5c-0.4,1.1-0.4,2.3-0.2,3.4c0.2,1.2,0.7,2.2,1.3,3.3c0.6,1,1.3,2,2,3c0.7,1,1.1,2.2,1.3,3.4
			c0.2,1.2,0.3,2.4,0.5,3.6c0.1,1.2,0.2,2.4-0.1,3.6c-0.1,0.6-0.3,1.2-0.1,1.7c0.2,0.5,0.7,0.9,1.1,1.3c1,0.8,1.3,2.4,0.5,3.5
			c-0.1,0.1-0.2,0.1-0.3,0.1c-0.1-0.1-0.1-0.2-0.1-0.3v0c0.3-0.5,0.3-1.1,0.2-1.5c-0.1-0.5-0.4-0.8-0.8-1.2c-0.4-0.4-1-0.8-1.3-1.5
			c-0.4-0.8-0.1-1.7-0.1-2.2c0.1-1.1,0.1-2.2,0-3.4c-0.1-1.2-0.3-2.4-0.5-3.5c-0.2-1.1-0.5-2.1-1.2-3c-0.6-1-1.4-1.9-2-3.1
			c-0.6-1.1-1.1-2.3-1.3-3.6c-0.2-1.3-0.1-2.6,0.4-3.8v0c0.1-0.1,0.2-0.2,0.4-0.1C43.3,50.2,43.4,50.3,43.3,50.5L43.3,50.5z"/>
	</g>
</g>
</svg>
