<?xml version="1.0" encoding="UTF-8"?>
<svg id="_Слой_2" data-name="Слой 2" xmlns="http://www.w3.org/2000/svg" viewBox="0 0 239.45 92.24">
  <defs>
    <style>
      .cls-1 {
        fill: #514d4b;
      }
    </style>
  </defs>
  <g id="Layer_1" data-name="Layer 1">
    <g>
      <path class="cls-1" d="M.09,90.73c-.41-1.18,.54-2.13,2.86-2.86,4.63-1.29,10.22-1.49,16.75-.62,.21,.1,.41,.15,.62,.15l2.7,.46c1.39-.1,4.97-1.96,10.73-5.56l2.39-1.54c-3.24-.93-6.1-2.19-8.57-3.78-3.81-2.42-6.54-5.22-8.18-8.42-2.21-4.84-3.01-9.87-2.39-15.09,.62-5.22,2.34-10.2,5.17-14.94,5.25-8.54,14.05-16.77,26.41-24.67S71.98,1.45,81.71,.31c10.24-1.29,16.6,1.39,19.07,8.03l.7,2.24,4.56-2.86c4.32-2.83,7.85-4.68,10.58-5.56,4.53-1.49,8.16-1.75,10.89-.77h-2.01c-4.74-.1-9.5,1.26-14.28,4.09-4.22,2.42-7.31,4.58-9.27,6.49,1.59,9.37,.59,18.66-3.01,27.87-2.42,6.13-6.82,13.24-13.2,21.35-6.38,8.11-12.38,14.48-17.99,19.11,3.04-.21,5.89-.7,8.57-1.47,8.54-1.8,16.08-4.89,22.62-9.27,1.59-1.03,2.91-1.98,3.94-2.86,1.03-.88,1.72-1.42,2.08-1.62l.46-.46c.51-.1,.82,0,.93,.31-7.05,6.44-15.55,11.02-25.48,13.74-5.35,1.19-8.67,1.88-9.96,2.08l-4.25,.62-2.08,1.31c-7.16,4.12-13.37,6.59-18.65,7.41-5.28,.82-12.24,.51-20.89-.93l-1.7-.15c-5.61,1.7-10.73,2.73-15.37,3.09s-7.26-.1-7.88-1.39Zm6.64,.62c3.71-.21,8.44-1.05,14.21-2.55,.82-.21,1.18-.36,1.08-.46-2.52-.41-5.51-.62-8.96-.62-6.54-.21-10.55,.44-12.04,1.93-.62,.72-.15,1.24,1.39,1.54,1.08,.21,2.52,.26,4.32,.15Zm30.34-11.35c.93-.51,2.68-1.96,5.25-4.32,6.54-6.02,11.49-11.13,14.86-15.33,3.37-4.19,6.55-8.69,9.54-13.47s6.12-9.19,9.42-13.2c6.84-8.75,15-16.29,24.48-22.62-1.03-6.12-5.4-9.5-13.13-10.11-5.92-.21-13.41,1.85-22.47,6.18-9.06,4.32-17.57,9.75-25.52,16.29-7.95,6.54-13.5,12.74-16.64,18.61-3.04,5.46-4.49,11.27-4.36,17.45,.13,6.18,2.05,10.81,5.75,13.9,1.9,1.6,3.91,2.93,6.02,4.01,2.11,1.08,3.78,1.8,5.02,2.16l1.78,.46Zm26.56,1.85c-9.16,.72-15.55,.88-19.15,.46l-6.79-1.08c-4.01,2.73-7.95,4.99-11.81,6.79l-1.31,.31c8.75,1.39,15.89,1.63,21.43,.73,5.53-.9,11.41-3.31,17.64-7.22Zm-6.49-.31l8.11-.93c1.03-.62,1.9-1.26,2.62-1.93,7.57-6.74,14.59-14.64,21.08-23.7,8.96-12.66,13.23-25.09,12.82-37.29l-.69-5.1c-1.39,.82-2.55,1.62-3.47,2.39-3.04,2.32-5.89,4.96-8.57,7.91-2.68,2.96-4.81,5.5-6.41,7.61-1.6,2.11-4.11,5.66-7.53,10.66-3.42,4.99-6.29,9.08-8.61,12.28-3.14,4.22-7.37,8.98-12.7,14.28-5.33,5.3-10.26,9.55-14.79,12.74,5.87,1.24,11.92,1.6,18.14,1.08Z"/>
      <path class="cls-1" d="M106.8,76.37c-3.14,1.18-5.25,.9-6.33-.85-.72-.82-.98-1.98-.77-3.47,.21-1.18,1.11-2.75,2.7-4.71l1.24-1.47c1.39-1.59,2.7-2.86,3.94-3.78,3.04-2.42,5.25-3.47,6.64-3.17,1.03,.41,1.36,1.31,1,2.7-.36,1.39-1.16,2.65-2.39,3.78-2.93,2.52-5.84,3.73-8.72,3.63-.21,0-.63,.5-1.27,1.5-.64,1-1.02,1.84-1.12,2.51-.31,2.01,.13,3.06,1.31,3.17,2.32,.21,6.38-1.75,12.2-5.87,2.62-1.9,5.25-4.02,7.88-6.33,.62-.51,1.03-.62,1.24-.31,0,.21-.36,.67-1.08,1.39-1.18,1.03-3.4,2.78-6.64,5.25-.93,.72-2.59,1.83-4.98,3.32-2.39,1.49-4,2.39-4.83,2.7Zm-2.24-7.95c1.39,.1,2.78-.21,4.17-.93,3.71-2.21,5.69-4.32,5.95-6.33,.1-.51-.1-.77-.62-.77-.72,.21-1.91,.89-3.55,2.05-1.65,1.16-2.88,2.25-3.71,3.28l-2.24,2.7Z"/>
      <path class="cls-1" d="M132.2,83.62c-.41-.82-.18-2.08,.7-3.78,1.7-3.14,5.28-7.46,10.73-12.97,1.8-1.8,2.65-2.86,2.55-3.17-.21-.41-1.29-.12-3.24,.89-1.96,1-3.78,2.07-5.48,3.21-2.32,1.39-4.27,2.99-5.87,4.79-.93,.93-1.34,.93-1.24,0,.1-1.49,.9-2.98,2.39-4.48,.31-.41,1.2-1.4,2.66-2.97,1.47-1.57,2.8-3,4.01-4.29,1.21-1.29,1.87-2.03,1.97-2.24,.21-.41,.31-.75,.31-1s-.21-.33-.62-.23c-2.11,.41-5.43,2.41-9.96,5.98-4.53,3.58-7.7,6.65-9.5,9.23-.52,.52-.72,.88-.62,1.08,0,.21-.21,.41-.62,.62-.41,.31-.76,.33-1.04,.08-.28-.26-.47-.8-.58-1.62-.31-2.83,2.11-6.85,7.26-12.04,2.52-2.52,4.38-4.04,5.56-4.56,.62-.21,1.16-.33,1.62-.39,.51,.1,.75,.4,.7,.89-.05,.49-.34,.84-.85,1.04-.72,.31-2.16,1.52-4.32,3.63-3.14,3.14-5.25,5.51-6.33,7.1l-1.85,3.78c.62-.72,1.42-1.54,2.39-2.47,4.43-4.32,8.47-7.69,12.12-10.11,2.52-1.8,4.79-2.8,6.79-3.01,.51-.1,.86,.03,1.04,.39,.18,.36,.24,.77,.19,1.24-.05,.46-.18,.88-.39,1.24-.31,.72-1.7,2.55-4.17,5.48l-2.16,2.7c6.02-3.71,9.5-5.17,10.42-4.4,.21,.1,.36,.26,.46,.46,.31,.93-.59,2.45-2.7,4.56l-4.25,4.63-1.16,1.39c-.82,.82-1.54,1.61-2.16,2.35-.62,.75-1.35,1.7-2.2,2.86s-1.33,2.01-1.43,2.55c-.1,.54-.05,1.07,.16,1.58,1.29,.72,5.51-1.85,12.66-7.72,2.21-1.8,5.2-4.56,8.96-8.26l4.02-3.63c.21-.21,.36-.31,.46-.31,.31,0,.46,.1,.46,.31,.1,.1,.05,.26-.15,.46-.62,.51-1.9,1.67-3.86,3.47-1.96,1.8-3.47,3.17-4.56,4.09-3.6,3.4-6.77,6.15-9.5,8.26-5.51,4.01-8.78,5.12-9.81,3.32Z"/>
      <path class="cls-1" d="M164.78,80.46c-2.32,.72-3.78,.36-4.4-1.08-.41-1.49-.44-3-.08-4.52,.36-1.52,.88-2.71,1.54-3.59-1.8,1.29-3.04,2.03-3.71,2.24-1.49,.62-2.65,.77-3.47,.46-.82-.31-1.21-1.04-1.16-2.2,.05-1.16,.44-2.38,1.16-3.67,1.9-2.93,4.76-5.2,8.57-6.79,3.4-1.49,5.35-1.34,5.87,.46,.41,1.18,.15,2.34-.77,3.47-.31,.62-.44,1.11-.39,1.47,.1,.41-.26,1.13-1.08,2.16-.31,.31-.73,.79-1.27,1.43-.54,.64-1.02,1.24-1.43,1.78-.41,.54-.77,1.07-1.08,1.58-2.01,4.12-2.16,6.23-.46,6.33,1.39,.21,4.35-1.39,8.88-4.79,2.93-2.21,6.36-5.25,10.27-9.11l2.01-2.08c.72-.51,1.11-.51,1.16,0,0,.1-.33,.46-1,1.08l-6.02,5.71c-2.11,2.01-4.14,3.76-6.1,5.25-2.99,2.42-5.33,3.89-7.03,4.4Zm-9.42-7.41c.1,.31,.98,.21,2.62-.31,.21-.1,1.11-.7,2.7-1.78,.1-.1,1.16-1,3.17-2.7,.21-.21,.76-.66,1.66-1.35,.9-.69,1.51-1.3,1.81-1.81,1.39-1.8,1.54-3.01,.46-3.63-.41-.41-1.57-.05-3.47,1.08-2.11,1.18-4.23,3-6.37,5.44-2.14,2.45-3,4.13-2.59,5.06Z"/>
      <path class="cls-1" d="M194.12,76.67c-1.7-1.18-1.83-2.98-.39-5.41l.15-.31c.72-1.29,1.59-2.51,2.62-3.67,1.03-1.16,2.28-2.44,3.75-3.86,1.47-1.42,2.66-2.64,3.59-3.67-.82,.51-2.7,1.88-5.64,4.09l-3.17,2.39c-7.57,5.46-12.33,8.44-14.28,8.96-1.49,.41-2.42,0-2.78-1.24-.62-2.01,.54-4.48,3.47-7.41,2.01-2.11,3.37-3.11,4.09-3.01,1.03,.21,.88,.93-.46,2.16-1.29,1.18-2.08,1.93-2.39,2.24-2.32,2.32-3.47,4.32-3.47,6.02,0,.72,.85,.69,2.55-.08,1.7-.77,3.32-1.75,4.86-2.93,7.46-5.15,12.74-8.98,15.83-11.5,.51-.51,.77-.95,.77-1.31,0-.41,.49-.46,1.47-.16,.62,.41,1.18,.62,1.7,.62,.93,0,.67,.75-.77,2.24-.21,.21-.52,.51-.93,.93-4.74,4.94-7.8,8.6-9.19,10.96-1.03,1.6-1.18,2.7-.46,3.32,1.18,1.03,3.75,.26,7.68-2.32,3.94-2.57,7.42-5.4,10.46-8.49l1.47-1.39c.31-.31,.57-.31,.77,0,.1,.21,.05,.41-.15,.62l-3.17,3.01c-4.01,3.81-8.18,6.77-12.51,8.88-2.47,1.03-4.3,1.13-5.48,.31Z"/>
      <path class="cls-1" d="M217.29,80.92c-1.6,.52-2.75,.31-3.47-.62-1.39-1.59-.7-4.25,2.08-7.95l1.62-1.7c-5.15,2.93-8.26,3.83-9.34,2.7-.62-.62-.51-1.72,.31-3.32,.41-.72,2.19-2.68,5.33-5.87,.1-.1,.3-.31,.58-.62,.28-.31,.5-.58,.66-.81s.39-.4,.69-.5c.31-.1,.57-.1,.77,0,.93,.41,.88,1.31-.15,2.7-.41,.41-1.33,1.29-2.74,2.62-1.42,1.34-2.57,2.51-3.47,3.51-.9,1-1.25,1.66-1.04,1.97,.41,.72,2.32,.18,5.71-1.62,1.9-.93,4.12-2.5,6.64-4.71,1.7-1.49,2.91-1.98,3.63-1.47,.31,.31,.05,.9-.77,1.78l-3.32,3.32c-3.4,3.04-5.46,5.76-6.18,8.18-.31,1.29,.15,1.93,1.39,1.93,2.42,0,8.96-4.68,19.61-14.05,2.01-1.8,3.17-2.65,3.47-2.55,.31,.1,.18,.44-.39,1s-2.55,2.29-5.95,5.17c-7.52,6.44-12.74,10.06-15.67,10.89Z"/>
    </g>
  </g>
</svg>