<?xml version="1.0" encoding="UTF-8"?>
<svg id="_Слой_2" data-name="Слой 2" xmlns="http://www.w3.org/2000/svg" viewBox="0 0 352.14 86.03">
  <defs>
    <style>
      .cls-1 {
        fill: #514d4b;
      }
    </style>
  </defs>
  <g id="Layer_1" data-name="Layer 1">
    <g>
      <path class="cls-1" d="M76.45,80.7c-3.71-.72-6.31-1.93-7.8-3.63-.72-.93-1.13-1.67-1.24-2.24l-.46-1.08c0-.51,.05-.95,.15-1.31,0-.21,.21-.41,.62-.62h.31c.1,.1,.15,.26,.15,.46-.31,2.11,.7,3.91,3.01,5.4,1.9,1.18,4.81,1.85,8.72,2.01,5.25-.1,10.53-.88,15.83-2.32,11.27-3.04,23.39-9.62,36.37-19.77,10.35-8.03,17.5-16.78,21.46-26.25,2.01-4.01,2.48-8.71,1.43-14.09-1.06-5.38-3.59-9.28-7.6-11.7-3.91-2.21-9.06-3.68-15.44-4.4-6.33-.41-13.25,.21-20.77,1.85-6.02,1.39-12.46,3.71-19.3,6.95l-6.1,3.17c5.61-.41,14.23-1.26,25.87-2.55l5.1-.77c2.93-.41,5.66-1.13,8.18-2.16,3.5-1.7,5.56-2.34,6.18-1.93,.62,.51-.05,1.26-2.01,2.24-.72,.31-1.83,.77-3.32,1.39-4.94,1.91-9.11,4.38-12.51,7.41-2.83,2.62-5.17,5.13-7.03,7.53-1.85,2.39-3.78,5.06-5.79,7.99-2.01,2.93-3.86,5.46-5.56,7.57-7.72,9.78-15.31,17.45-22.78,23.01-7.46,5.56-15.31,8.54-23.55,8.96-4.01,.21-6.69-.85-8.03-3.17-.41-.72-.72-1.83-.93-3.32-.31-6.12,4.07-14.72,13.13-25.79,4.32-4.94,8.57-9.27,12.74-12.97,5.92-5.04,10.09-8.42,12.51-10.11l3.94-2.7-1.54,.15c-6.43,0-10.81-.05-13.12-.15-12.35-.31-22.8,.39-31.35,2.08-11.17,2.42-19.97,6.49-26.41,12.2-3.6,3.14-5.92,5.92-6.95,8.34-.72,1.91-1.21,3.6-1.47,5.1-.26,1.49-.33,2.45-.23,2.86,.1,.41,.26,.88,.46,1.39,.1,.21,.1,.31,0,.31-.51,.1-.87-.26-1.08-1.08-.51-2.01-.21-4.37,.93-7.1,2.21-5.35,6.79-10.32,13.74-14.9,1.91-1.29,4.22-2.5,6.95-3.63,9.93-4.43,23.7-6.54,41.31-6.33h15.29c3.14,.1,5.4-.21,6.79-.93,3.91-2.11,8.98-4.37,15.21-6.79C109.93,1.87,118.32,.12,125.63,.02c3.81-.1,7.64,.23,11.5,1,9.37,1.6,15.65,6.07,18.84,13.43,2.01,4.84,1.9,10.99-.31,18.45-3.24,10.76-11.43,20.51-24.55,29.26-9.06,6.33-18.45,11.3-28.18,14.9-9.73,3.6-18.56,4.81-26.48,3.63Zm-24.71-9.96c2.62-.72,4.37-1.26,5.25-1.62,3.91-1.49,7.86-3.78,11.85-6.87,3.99-3.09,7.22-5.98,9.69-8.69s5.51-6.16,9.11-10.38c2.93-3.5,7.15-8.7,12.66-15.6,.51-.62,1.67-1.99,3.47-4.13,1.8-2.14,3.22-3.72,4.25-4.75,1.49-1.6,4.5-4.07,9.03-7.41l.77-.31-18.92,1.85c-1.91,.21-4.71,.41-8.42,.62l-6.18,.46c-.82,.41-3.14,1.85-6.95,4.32-3.04,2.21-5.41,4.04-7.1,5.48-5.61,4.74-10.53,9.45-14.75,14.13-5.61,6.23-9.6,11.61-11.97,16.14-1.39,2.83-2.34,5.71-2.86,8.65-.62,3.14,0,5.4,1.85,6.79,1.7,1.39,4.76,1.83,9.19,1.31Z"/>
      <path class="cls-1" d="M151.65,72.9c3.04-1.49,5.78-3.18,8.22-5.06,2.44-1.88,6.65-5.49,12.62-10.85l2.08-2.08c.72-.51,1.08-.51,1.08,0,0,.1-.31,.46-.93,1.08-.41,.41-1.04,1.02-1.89,1.81-.85,.8-1.62,1.52-2.32,2.16-.69,.64-1.35,1.22-1.97,1.74-6.85,5.92-11.94,9.75-15.29,11.5-4.01,2.11-6.46,1.91-7.33-.62-.82-2.73,1.13-6.56,5.87-11.5,2.11-2.11,3.22-3.32,3.32-3.63,0-.41-.05-.8-.15-1.16-.31-.51-.57-.77-.77-.77-.1,.1-.23,.21-.39,.31-.15,.1-.28,.21-.39,.31l-.54-.46c0-.1,.24-.39,.73-.85,.49-.46,.73-.98,.73-1.54-.21-.62-.1-.93,.31-.93,.51-.21,.87-.15,1.08,.15,.21,.31,.36,.85,.46,1.62,.1,.62,.33,1.57,.69,2.86,.21,.72,.17,1.31-.12,1.78-.28,.46-1.09,1.39-2.43,2.78-4.53,4.84-6.74,8.47-6.64,10.89,0,1.6,1.31,1.75,3.94,.46Z"/>
      <path class="cls-1" d="M208.71,54.91c.72-.51,1.11-.51,1.16,0,0,.31-.23,.57-.7,.77-.93,.72-5.35,2.73-13.28,6.02l-.31,1.39c-1.18,6.44-4.45,11.5-9.81,15.21-1.8,1.49-3.89,2.57-6.25,3.24-2.37,.67-4.22,.54-5.56-.39-.72-.72-1.11-1.67-1.16-2.86-.1-2.83,1.44-5.64,4.63-8.42,2.93-2.42,8.36-5.15,16.29-8.18,.1-.31,.23-.89,.39-1.74s.33-1.72,.54-2.62c.21-.9,.36-1.76,.46-2.59l-4.09,2.7c-5.82,3.91-10.45,6.85-13.9,8.8-2.11,1.39-4.27,2.24-6.49,2.55-1.39,.21-2.5-.1-3.32-.93-.62-.62-.95-1.47-1-2.55-.1-2.01,.85-4.32,2.86-6.95,3.6-4.43,7.46-6.95,11.58-7.57,1.39-.21,2.34,.05,2.86,.77,.21,.51,.21,1.03,0,1.54-.1,.41-.44,.9-1,1.47-1.8,2.11-4.53,3.78-8.18,5.02l-3.01,1c-1.18,1.39-1.98,2.45-2.39,3.17-1.03,2.01-1.08,3.27-.15,3.78,1.39,.62,3.45,.23,6.18-1.16,1.59-.82,3.55-1.93,5.87-3.32,.51-.31,1.22-.75,2.12-1.31,.9-.57,1.72-1.09,2.47-1.58,.75-.49,1.43-.94,2.05-1.35,.41-.31,2.57-1.83,6.49-4.56,.51-.21,.87-.54,1.08-1,.41-.62,.72-1.34,.93-2.16,.82-2.52,1.88-4.48,3.17-5.87,1.29-1.39,3.14-2.7,5.56-3.94,.82-.41,1.61-.46,2.35-.15,.75,.31,.91,1.03,.5,2.16-.93,1.91-3.68,4.76-8.26,8.57-.93,.93-1.44,1.52-1.54,1.78l-.46,1.39-1.08,5.71c2.52-.82,4.61-1.67,6.25-2.55,.93-.31,2.16-.85,3.71-1.62,1.03-.51,1.85-1.08,2.47-1.7Zm-35.36,2.86l-1.31,1.7c1.49-.21,3.32-.89,5.48-2.05s3.71-2.3,4.63-3.44c1.03-1.18,1.13-1.88,.31-2.08-.62-.21-1.88,.21-3.78,1.24-1.44,.98-3.22,2.52-5.33,4.63Zm14.36,16.45c2.83-2.93,4.79-6.84,5.87-11.74-5.46,2.21-8.26,3.37-8.42,3.47-5.61,2.73-9.29,5.74-11.04,9.03-.62,.82-.82,2.01-.62,3.55,.21,1.54,.82,2.37,1.85,2.47,2.21,.1,4.53-.64,6.95-2.24,.67-.41,2.47-1.93,5.41-4.56Zm11.5-25.33l-1.08,3.01,3.78-3.47,2.7-2.55c2.11-2.11,2.7-3.37,1.78-3.78-.52-.21-1.42,.15-2.7,1.08-1.7,1.39-3.19,3.29-4.48,5.71Z"/>
      <path class="cls-1" d="M194.43,76.77c-1.18-.93-.66-2.51,1.58-4.75,2.24-2.24,5.13-4.31,8.69-6.22,.93-.51,1.62-1.13,2.08-1.85,.1-.21,.21-.44,.31-.7,.41-.82,1.22-2.39,2.43-4.71,1.21-2.32,2.32-4.18,3.32-5.6,1-1.42,2.25-2.71,3.75-3.9,.62-.51,1.57-1.03,2.86-1.54,1.39-.31,2.19,0,2.39,.93,0,.82-.75,1.83-2.24,3.01-.62,.51-1.22,1.02-1.81,1.5-.59,.49-1.12,.92-1.58,1.27-.46,.36-.8,.59-1,.69-1.18,.93-1.93,1.62-2.24,2.08l-3.47,6.79c2.93-1.03,6.3-2.56,10.12-4.59,3.81-2.03,6.28-3.51,7.41-4.44,.72-.51,1.11-.46,1.16,.15-.41,.82-3.32,2.58-8.73,5.25l-10.42,4.71-1.93,2.7c-2.42,4.22-5.53,7.1-9.34,8.65-1.7,.88-2.81,1.06-3.32,.54Zm1.16-.54c1.39-.41,2.45-.93,3.17-1.54,1.91-1.29,3.58-3.09,5.02-5.41l2.08-3.17c-6.02,3.24-9.68,6.05-10.96,8.42-.57,1.24-.33,1.8,.7,1.7Zm18.45-21.31l3.32-2.55,2.08-1.7c.93-1.03,1.44-1.67,1.54-1.93,0-.62-.72-.51-2.16,.31-.21,.1-.41,.26-.62,.46l-4.17,5.4Z"/>
      <path class="cls-1" d="M252.18,67.11c-3.14,1.6-5.3,1.16-6.49-1.31-.31-.82-.36-2.03-.15-3.63,.31-1.39,1.06-2.86,2.24-4.4,1.7-2.32,3.58-4.17,5.64-5.56,2.11-1.18,3.86-1.75,5.25-1.7,1.49,0,2.37,.41,2.62,1.24,.26,.82-.13,1.88-1.16,3.17-.82,1.03-1.6,1.84-2.32,2.43-.72,.59-1.21,.86-1.47,.81-.26-.05-.44-.13-.54-.23,1.49-.93,2.71-2.03,3.67-3.32,.95-1.29,1.32-2.13,1.12-2.55-.72-1.7-2.93-.9-6.64,2.39-1.18,.93-2.68,2.55-4.48,4.86-2.21,3.14-2.98,5.46-2.32,6.95,.52,1.29,1.83,1.47,3.94,.54,3.04-1.29,7.31-3.99,12.82-8.11,2.21-1.7,3.73-2.96,4.56-3.78,.41-.41,.72-.41,.93,0,0,.31-.15,.57-.46,.77-.31,.21-.84,.61-1.58,1.2s-1.27,1.04-1.58,1.35l-3.32,2.55c-3.5,2.42-5.66,3.89-6.49,4.4l-3.78,1.93Z"/>
      <path class="cls-1" d="M283.76,54.14c.41-.31,.62-.31,.62,0s-.1,.57-.31,.77c-1.18,.93-2.06,1.54-2.62,1.85-2.32,1.29-4.81,1.42-7.49,.39-.62,1.18-1.24,2.19-1.85,3.01-.93,1.29-2.32,2.75-4.17,4.4-2.21,1.49-3.73,2.24-4.56,2.24-1.39,.21-2.24-.33-2.55-1.62-.21-1.49,.99-3.73,3.59-6.72,2.6-2.98,4.52-4.48,5.75-4.48,.41,0,.72,.26,.93,.77-.1-.21-.15-.57-.15-1.08,0-.72,.23-1.36,.7-1.93,.72-1.03,1.49-1.29,2.32-.77,1.03,.72,1.08,2.5,.16,5.33,1.7,.72,3.4,.88,5.1,.46,1.24-.15,2.75-1.03,4.56-2.62Zm-16.75,10.11c2.32-1.8,4.32-4.3,6.02-7.49l-.77-.46c-.41-.21-.75-.51-1-.93l-1.54,1.08c-1.18,.82-2.39,1.93-3.63,3.32-3.4,4.22-4.3,6.33-2.7,6.33,.1-.1,.26-.15,.46-.15,.82-.1,1.88-.67,3.17-1.7Zm6.33-8.26c.1-.1,.18-.26,.23-.46,.05-.21,.1-.39,.15-.54,.05-.15,.1-.36,.15-.62,.05-.26,.08-.53,.08-.81v-.81c0-.26-.05-.49-.15-.7-.21-.82-.62-.88-1.24-.15-.31,.21-.51,.51-.62,.93-.21,1.03-.1,1.83,.31,2.39,.31,.31,.57,.51,.77,.62l.31,.15Z"/>
      <path class="cls-1" d="M283.68,85.1c-1.49-1.49-2.03-3.71-1.62-6.64,.51-3.4,1.47-6.56,2.86-9.5l2.39-4.25,2.78-4.4-2.16,2.01c-.1,.1-.35,.32-.73,.66-.39,.33-.81,.71-1.27,1.12-.46,.41-.85,.72-1.16,.93-2.01,1.39-3.71,1.75-5.1,1.08-1.29-.72-1.39-2.5-.31-5.33,1.03-2.21,2.95-4.62,5.75-7.22,2.81-2.6,5.42-4.05,7.84-4.36,1.49-.21,2.55,.1,3.17,.93,.21,.21,.31,.54,.31,1l3.47-3.94c7.57-8.34,12.95-13.95,16.14-16.83,5.82-5.46,11.09-9.93,15.83-13.43,6.54-4.84,11.56-8.11,15.06-9.81,1.49-.72,2.78-.76,3.86-.12s1.52,1.63,1.31,2.97c-.31,1.8-1.73,4.17-4.25,7.1-7.72,9.16-18.22,18.3-31.5,27.41-7.16,4.84-12.69,8.21-16.6,10.11l-3.17,1.7c-.62,.31-1.24,.84-1.85,1.58-.62,.75-1.09,1.39-1.43,1.93-.33,.54-.79,1.31-1.35,2.32-.57,1-.95,1.66-1.16,1.97-2.42,3.6-4.22,6.87-5.41,9.81-1.9,5.04-2.16,8.47-.77,10.27,.51,.72,1.24,.98,2.16,.77,1.03-.21,2.52-.95,4.48-2.24,1.59-1.03,3.11-2.24,4.56-3.63,3.4-2.73,6.61-5.46,9.65-8.18,3.5-2.93,7.36-6.41,11.58-10.42l5.79-5.4c.72-.72,1.11-.77,1.16-.16,0,.1-.05,.23-.15,.39-.1,.15-.23,.28-.39,.39-.16,.1-.23,.21-.23,.31l-5.1,4.63-4.71,4.56c-2.52,2.32-6.79,5.95-12.82,10.89-.52,.41-1.6,1.34-3.24,2.78-1.65,1.44-3.08,2.64-4.29,3.59-1.21,.95-2.46,1.79-3.75,2.51-2.37,1.39-4.25,1.44-5.64,.15Zm-1.16-19.61c1.18-.62,3.29-2.29,6.33-5.02,2.52-2.21,4.58-4.76,6.18-7.64,.31-.62,.41-1.13,.31-1.54-.21-.62-.67-.87-1.39-.77-1.39,.1-3.29,1.26-5.71,3.47-1.39,1.18-2.86,2.75-4.4,4.71-.72,.82-1.57,2.19-2.55,4.09-.1,.31-.21,.66-.31,1.04-.1,.39-.16,.79-.16,1.2s.13,.67,.39,.77c.26,.1,.69,0,1.31-.31Zm14.05-10.27l3.71-1.93c3.04-1.59,5.82-3.17,8.34-4.71,12.66-7.82,23.88-16.73,33.66-26.71,2.42-2.42,4.48-4.79,6.18-7.1,2.21-2.62,3.11-4.58,2.7-5.87-.41-.62-.96-.93-1.66-.93s-1.7,.36-3.01,1.08-2.47,1.43-3.47,2.12-2.03,1.47-3.09,2.32c-1.06,.85-1.63,1.33-1.74,1.43-7.16,5.46-12.38,9.73-15.67,12.82-4.63,4.22-8.06,7.44-10.27,9.65-1.49,1.49-3.71,3.81-6.64,6.95-2.62,2.93-4.58,5.15-5.87,6.64l-3.17,4.25Z"/>
      <path class="cls-1" d="M322.9,67.27c-3.14,1.18-5.25,.9-6.33-.85-.72-.82-.98-1.98-.77-3.47,.21-1.18,1.11-2.75,2.7-4.71l1.24-1.47c1.39-1.59,2.7-2.86,3.94-3.78,3.04-2.42,5.25-3.47,6.64-3.17,1.03,.41,1.36,1.31,1,2.7-.36,1.39-1.16,2.65-2.39,3.78-2.93,2.52-5.84,3.73-8.72,3.63-.21,0-.63,.5-1.27,1.5-.64,1-1.02,1.84-1.12,2.51-.31,2.01,.13,3.06,1.31,3.17,2.32,.21,6.38-1.75,12.2-5.87,3.71-2.63,6.33-4.74,7.88-6.33,.72-.51,1.08-.51,1.08,0,0,.1-.31,.46-.93,1.08l-3.01,2.39c-.72,.62-1.93,1.57-3.63,2.86-.93,.72-2.59,1.83-4.98,3.32-2.39,1.49-4,2.39-4.83,2.7Zm-2.24-7.95c1.39,.1,2.78-.21,4.17-.93,3.71-2.21,5.69-4.32,5.95-6.33,.1-.51-.1-.77-.62-.77-.72,.21-1.91,.89-3.55,2.05-1.65,1.16-2.88,2.25-3.71,3.28l-2.24,2.7Z"/>
    </g>
  </g>
</svg>