<?xml version="1.0" encoding="UTF-8"?>
<svg id="_Слой_2" data-name=" Слой 2" xmlns="http://www.w3.org/2000/svg" xmlns:xlink="http://www.w3.org/1999/xlink" viewBox="0 0 679.8 682.5">
  <defs>
    <style>
      .cls-1 {
        isolation: isolate;
      }

      .cls-2 {
        fill: #514d4b;
      }

      .cls-3 {
        fill: #f8e6ee;
      }

      .cls-4 {
        fill: #782379;
      }
    </style>
  </defs>
  <g id="_Слой_2-2" data-name=" Слой 2-2">
    <g id="Layer_1" data-name="Layer 1">
      <g>
        <image class="cls-1" width="3600" height="2399" transform="translate(736.09 -92.03) rotate(97.78) scale(.28)" xlink:href="24DCCD45.png"/>
        <circle class="cls-3" cx="335.7" cy="361" r="192.2"/>
      </g>
      <g>
        <g>
          <path class="cls-4" d="M268.7,473.6h0c0-4.4,2.4-8.3,6.6-8.3s6.6,3.9,6.6,8.3h0c0,4.4-2.4,8.3-6.6,8.3s-6.6-3.9-6.6-8.3Zm12.6,.1h0c0-4.1-2.2-7.9-6.1-7.9s-6,3.7-6,7.8h0c0,4.1,2.2,7.9,6.1,7.9s6-3.7,6-7.8Z"/>
          <path class="cls-4" d="M293.5,466h-9.9v-.5h10.5v.3l-7.9,15.8h-.5l7.8-15.6h0Z"/>
          <path class="cls-4" d="M310,473.6h0c0-4.4,2.4-8.3,6.6-8.3s6.6,3.9,6.6,8.3h0c0,4.4-2.4,8.3-6.6,8.3s-6.6-3.9-6.6-8.3Zm12.7,.1h0c0-4.1-2.2-7.9-6.1-7.9s-6,3.7-6,7.8h0c0,4.1,2.2,7.9,6.1,7.9s6-3.7,6-7.8Z"/>
          <path class="cls-4" d="M334.8,466h-9.9v-.5h10.5v.3l-7.9,15.8h-.5l7.8-15.6h0Z"/>
          <path class="cls-4" d="M350.7,481.4l7.3-7.1c2.5-2.4,2.9-3.7,2.9-4.9,0-2-1.8-3.6-4.2-3.6s-4,1.4-5,3.2l-.4-.2c1.1-2,2.9-3.5,5.5-3.5,2.8,0,4.7,1.8,4.7,4h0c0,1.4-.4,2.6-3.1,5.2l-6.8,6.5h10.1v.5h-10.9l-.1-.1h0Z"/>
          <path class="cls-4" d="M364.4,473.6h0c0-4.4,2.4-8.3,6.6-8.3s6.6,3.9,6.6,8.3h0c0,4.4-2.4,8.3-6.6,8.3s-6.6-3.9-6.6-8.3Zm12.7,.1h0c0-4.1-2.2-7.9-6.1-7.9s-6,3.7-6,7.8h0c0,4.1,2.2,7.9,6.1,7.9s6-3.7,6-7.8Z"/>
          <path class="cls-4" d="M379.9,481.4l7.3-7.1c2.5-2.4,2.9-3.7,2.9-4.9,0-2-1.8-3.6-4.2-3.6s-4,1.4-5,3.2l-.4-.2c1.1-2,2.9-3.5,5.5-3.5,2.8,0,4.7,1.8,4.7,4h0c0,1.4-.4,2.6-3.1,5.2l-6.8,6.5h10.1v.5h-10.9l-.1-.1h0Z"/>
          <path class="cls-4" d="M392.2,479.1l.4-.3c1.2,1.6,3.1,2.7,5.4,2.7,2.5,0,4.7-1.7,4.7-4h0c0-2.8-2.4-4-6-4h-.5l-.2-.3,6.2-7.1h-9.2v-.5h9.8v.4l-6.2,7.1c4,0,6.5,1.4,6.5,4.4h0c0,2.6-2.4,4.4-5.2,4.4-2.4,0-4.4-1.2-5.7-2.8h0Z"/>
        </g>
        <path class="cls-4" d="M299.8,474.1h.8v1.2h-.8v-1.2Z"/>
        <path class="cls-4" d="M341.4,474.1h.8v1.2h-.8v-1.2Z"/>
      </g>
      <g>
        <path class="cls-2" d="M336.1,396.7c-4.1,.9-7.7,.3-10.7-1.7-3.3-2.2-5-5.8-5.1-10.7-.1-3.3,.8-6.6,2.7-9.8,1.8-3.2,4.7-7.1,8.6-11.7l-2.2-1.6-2.3-1.5c-1,.5-2.7,1.5-5.2,3.2l-1.1,.7c-3.7,2.3-7.7,4.7-12.1,7.2-10.2,5.6-15.7,8.7-16.5,9-3.3,1.4-5.9,2-7.8,1.7-.6-.1-1-.4-1.3-1-.1-.4,0-.5,.3-.5,.2,0,.4,.1,.7,.4,.5,.5,1.7,.6,3.5,.2,1.7-.3,3.2-.8,4.6-1.5,10.9-5.5,21.7-11.7,32.4-18.5l1.9-1.2c-5.7-3.8-10-6.5-13-8.1-7-3.6-14.8-5.2-23.3-4.7-7.7,.4-14.6,2.5-20.6,6.3-2,1.3-3.4,2.5-4,3.4-.4,.6-.7,1.2-.9,1.7-.2,.5-.2,.9-.2,1.2s.1,.6,.2,.9,.2,.5,.3,.7,.1,.3,0,.4-.3,.2-.5,.2c-.2,.1-.4-.1-.5-.5-.5-1.2-.4-2.5,.4-4,.7-1.2,2-2.5,3.8-3.8,3.9-2.7,8.4-4.7,13.5-5.8,5.1-1.2,10.2-1.6,15.3-1.3,5.3,.4,10.5,1.7,15.8,4,1.4,.7,2.9,1.5,4.4,2.4s3.1,2,4.9,3.2c1.7,1.2,3.1,2.1,4.1,2.7l1,.6c4.4-3,10.1-7.1,17.3-12.3,3.2-2.4,6-4.3,8.5-5.7,4.3-2.6,6.7-3.7,7.2-3.2q.1,.1,.1,.2c0,.1,0,.2-.1,.3-.1,.1-.1,.2-.2,.3l-.4,.4c-.2,.2-.4,.3-.5,.5-.2,.2-.4,.3-.6,.6s-.5,.5-.7,.6c-1,1-3.2,2.9-6.5,5.8s-6.4,5.7-9.4,8.4-5.6,5.5-7.9,8.2c.9,.8,2.3,1.6,4.3,2.5,5.2,2.5,10,3.7,14.4,3.8,1.9,0,3.4-.2,4.6-.7,.7-.3,1-.4,1.1-.3,.1,.4-.1,.6-.8,.8-4.4,1.5-10.1,.8-17-1.9l-7-3.6c-7.6,8.4-11.5,15.5-11.6,21.3-.1,4.2,1.2,7.3,4,9.3,2.9,2.3,6.7,2.8,11.2,1.6,3.2-.9,6.8-2.6,10.9-5.1,1.6-1,2.6-1.9,2.7-2.7v-.3c.1-.2,.3-.2,.5-.2s.3,.2,.3,.5c0,.5-.2,.9-.8,1.3-.9,.9-2.3,1.9-4.4,3.1-4.1,2.4-7.5,3.8-10.3,4.3h0Zm-3.9-34.5c3.3-3.6,6.4-6.6,9.3-9.1s8.4-7.2,16.8-14c.8-.6,1-.9,.7-.8s-.9,.3-1.8,.8c-2.8,1.6-5.6,3.3-8.5,5.3-2.8,1.9-6.1,4.2-9.7,6.9-3.6,2.7-6.5,4.8-8.7,6.3l-2.6,1.8,1.8,1.1,2.7,1.7h0Z"/>
        <path class="cls-2" d="M341.4,383.4c-1-.7-1.1-1.7-.2-3.2l.1-.2c.4-.8,.9-1.5,1.5-2.1,.6-.7,1.3-1.4,2.2-2.2,.9-.8,1.5-1.5,2.1-2.1-.5,.3-1.6,1.1-3.3,2.4l-1.8,1.4c-4.4,3.2-7.2,4.9-8.3,5.2-.9,.2-1.4,0-1.6-.7-.4-1.2,.3-2.6,2-4.3,1.2-1.2,2-1.8,2.4-1.8,.6,.1,.5,.5-.3,1.3-.8,.7-1.2,1.1-1.4,1.3-1.4,1.3-2,2.5-2,3.5,0,.4,.5,.4,1.5,0s1.9-1,2.8-1.7c4.4-3,7.4-5.2,9.2-6.7,.3-.3,.5-.5,.5-.8,0-.2,.3-.3,.9-.1,.4,.2,.7,.4,1,.4,.5,0,.4,.4-.5,1.3l-.5,.5c-2.8,2.9-4.5,5-5.4,6.4-.6,.9-.7,1.6-.3,1.9,.7,.6,2.2,.2,4.5-1.3s4.3-3.2,6.1-5l.9-.8c.2-.2,.3-.2,.5,0,.1,.1,0,.2-.1,.4l-1.8,1.8c-2.3,2.2-4.8,3.9-7.3,5.2-1.6,.4-2.7,.5-3.4,0h0Z"/>
        <path class="cls-2" d="M353.6,383.3c-1.8,.7-3.1,.5-3.7-.5-.4-.5-.6-1.2-.5-2,.1-.7,.6-1.6,1.6-2.7l.7-.8c.8-.9,1.6-1.7,2.3-2.2,1.8-1.4,3.1-2,3.9-1.8,.6,.2,.8,.8,.6,1.6s-.7,1.5-1.4,2.2c-1.7,1.5-3.4,2.2-5.1,2.1-.1,0-.4,.3-.7,.9-.4,.6-.6,1.1-.6,1.5-.2,1.2,.1,1.8,.8,1.8,1.4,.1,3.7-1,7.1-3.4,1.5-1.1,3.1-2.3,4.6-3.7,.4-.3,.6-.4,.7-.2,0,.1-.2,.4-.6,.8-.7,.6-2,1.6-3.9,3.1-.5,.4-1.5,1.1-2.9,1.9-1.5,.7-2.4,1.2-2.9,1.4h0Zm-1.3-4.7c.8,.1,1.6-.1,2.4-.5,2.2-1.3,3.3-2.5,3.5-3.7,.1-.3-.1-.5-.4-.5-.4,.1-1.1,.5-2.1,1.2s-1.7,1.3-2.2,1.9l-1.2,1.6h0Z"/>
        <path class="cls-2" d="M365.9,387c-1.2,.4-2,.1-2.5-.8-.5-.8-.5-1.8,0-3.3,.4-.8,1-1.9,1.8-3.2,1-1.6,1.2-2.4,.7-2.5-.5,0-1.4,.7-2.9,2-1.4,1.3-2.4,2.4-2.9,3.2-.1,.2-.3,.4-.5,.6-.6,.2-.7-.2-.4-1.2,.6-1.8,2.1-4.2,4.5-7.3,1.2-1.5,2-2.2,2.6-2.2,.7,.1,.9,.4,.6,.9-.1,.2-.5,.6-1,1.3-.4,.5-.7,.9-.9,1.2-.8,1-1.1,1.6-1,1.7,0,.1,.2-.1,.6-.4s.8-.7,1.2-1l1.3-1c1.8-1.5,3.7-2.8,5.6-3.8s3-1,3.2,0c.2,.9-.1,1.8-.9,2.7-.1,.1-.3,.2-.5,.2-.4,0-.4-.1-.2-.4,1.2-1.2,1.5-2.1,.9-2.6-.9-.5-3.2,.8-6.9,3.7-.4,.3-.8,.6-1.2,1-.4,.3-.7,.6-.9,.7-.2,.2-.3,.2-.4,.2,.7-.3,1.1-.2,1.3,.3,.2,.3-.4,1.5-1.6,3.6-2.5,4.2-2.6,6.1-.6,5.9h.3c1.1-.1,2.5-.7,4.1-1.8,3.1-2,6.6-5,10.6-8.7,.4-.4,.6-.5,.7-.1,0,.1-.2,.4-.7,.8-3.3,3-5.3,4.8-6.2,5.4-3.1,2.8-5.7,4.4-7.8,4.9h0Z"/>
        <path class="cls-2" d="M380.6,383.2c-2,.7-3.2,.4-3.8-.8-.2-.5-.2-1.2-.1-2.1,.2-.8,.6-1.7,1.3-2.6,1-1.3,2.1-2.4,3.3-3.2,1.2-.7,2.2-1,3.1-1s1.4,.2,1.5,.7-.1,1.1-.7,1.8c-.5,.6-.9,1.1-1.4,1.4-.4,.3-.7,.5-.9,.5-.1,0-.3-.1-.3-.1,.9-.5,1.6-1.2,2.1-1.9,.5-.8,.8-1.2,.6-1.5-.4-1-1.7-.5-3.9,1.4-.7,.5-1.6,1.5-2.6,2.8-1.3,1.8-1.7,3.2-1.4,4,.3,.8,1.1,.8,2.3,.3,2.3-.9,4.8-2.4,7.4-4.5,.3-.2,1.2-1,2.7-2.4,.2-.2,.4-.2,.5,0,0,.1-.1,.3-.3,.5-3.3,3.4-6.6,5.6-9.4,6.7h0Z"/>
        <path class="cls-2" d="M393.5,385.6c-1.4,.4-2.2,.2-2.6-.6-.2-.9-.3-1.8,0-2.6,.2-.9,.5-1.6,.9-2.1-1,.8-1.8,1.2-2.2,1.3-.9,.4-1.5,.5-2,.3s-.7-.6-.7-1.3,.2-1.4,.7-2.1c1.1-1.7,2.8-3,5-4,2-.9,3.1-.8,3.4,.3,.2,.7,.1,1.4-.5,2-.2,.4-.2,.7-.2,.8,.1,.2-.1,.7-.6,1.3-.2,.2-.4,.5-.7,.8-.3,.4-.6,.7-.8,1-.2,.3-.5,.6-.6,.9-1.2,2.4-1.3,3.6-.3,3.7,.8,.1,2.5-.8,5.2-2.8,1.7-1.3,3.7-3.1,6-5.3l1.2-1.2c.4-.3,.6-.3,.7,0,0,.1-.2,.3-.6,.6l-3.5,3.3c-1.2,1.2-2.4,2.2-3.5,3.1-1.9,1.5-3.3,2.3-4.3,2.6h0Zm-5.5-4.3c.1,.2,.6,.1,1.5-.2,.1-.1,.6-.4,1.6-1,.1-.1,.7-.6,1.8-1.6,.1-.1,.4-.4,1-.8s.9-.8,1.1-1.1c.8-1,.9-1.8,.3-2.1-.2-.2-.9,0-2,.6-1.2,.7-2.5,1.8-3.7,3.2s-1.8,2.5-1.6,3h0Z"/>
        <path class="cls-2" d="M408.5,385c-.9-.1-1.3-.7-1.2-1.8,.2-1.5,.9-3,2.2-4.5l1.1-1.3-1,.1c-.4,.1-1.1,.1-2.1,.1-.4,0-.7,.1-.9,.2-.2,.1-.6,.5-1.2,1.2-.8,1-1.1,1.6-1,1.8,0,.3-.1,.5-.4,.5-1,0-1.1-.9-.2-2.7,.4-.8,1.3-1.8,2.9-3.3s2.7-2.3,3.5-2.6c.4-.1,.8-.1,1.2,0,.4,.2,.2,.6-.7,1.2-.8,.5-1.5,1.1-2.1,1.8-.8,.8-1.1,1.2-1,1.3,.1,.1,.7,.2,1.7,.1s1.8-.5,2.5-1.1c1-.8,1.7-1,2.1-.7,.2,.1,.3,.2,.2,.5-.2,.3-.9,1.1-2.3,2.5-1.7,1.7-2.7,2.8-3,3.2-.9,1.5-1.1,2.4-.8,2.8,.4,.5,1.3,.5,2.7-.3,1.5-.8,3.8-2.4,6.9-4.9l3.5-2.9c.4-.4,.5-.4,.5,0,0,.1-.1,.3-.4,.5-5.3,4.4-8.9,7-11,7.9-.4,.2-1.1,.4-1.7,.4h0Z"/>
        <path class="cls-2" d="M434.3,376.4c.6-.6,.9-.7,.9-.3,0,.2-.3,.5-.9,1-5.2,4.1-8.1,6.4-8.9,6.9l-3.4,2.2c-1.3,.9-2.4,2.1-3.4,3.6-4.4,6.8-8.2,12.2-11.4,16.2-9,10.5-14.3,15.7-15.9,15.7-.5,0-1-.2-1.4-.7s-.5-1-.5-1.5c.2-2,2-5.2,5.3-9.4s7.1-8.3,11.2-12.3c1.2-1.2,3.1-2.8,5.7-4.7,2.5-1.9,4.3-3.3,5.1-4,.5-.5,1.5-1.6,2.7-3.4,2.9-4.1,4.8-6.6,5.7-7.5l-2,1.6c-4,3.4-6.4,5.2-7.1,5.3-.5,.2-1,.1-1.5-.2-.9-.5-.8-1.5,.1-3.2,2.1-3.5,4.8-5.9,8-7.2,2.3-.9,3.4-.3,3.4,1.7,0,.1,0,.3,.1,.5s.1,.3,.1,.5c.1,.6-1,2.5-3.2,5.7-.1,.2-.4,.7-.8,1.3-.4,.6-.8,1.1-1.1,1.6s-.5,.7-.6,.8c4-2.6,6.4-4.2,7.3-4.9,3.9-3.2,6-4.9,6.5-5.3h0Zm-19.5,15.9c1-1.5,1.5-2.1,1.3-2-1,.9-2.5,2-4.3,3.4s-3.4,2.7-4.8,4-3.2,3.1-5.4,5.3c-3.2,3.3-5.5,6-7,8.1-2.3,3.2-3.7,5.6-4.3,7.4-.5,1.3-.3,2.1,.6,2.3,.6,.1,2-.9,4.4-3.2,5.5-5.5,11.3-12.8,17.3-21.9,1.2-1.9,2-3,2.2-3.4h0Zm7.9-12.6c1.6-1.3,2.5-2.2,2.7-2.8,.4-.9,.3-1.4-.3-1.7-2-.8-5.1,1.5-9.1,7-.3,.4-.6,.9-.8,1.3-.2,.5-.2,.8,0,1.2,.2,.1,.4,.1,.5,0,.2,0,.4-.1,.6-.3s.5-.3,.7-.5,.5-.4,1-.7c.4-.3,.8-.7,1.2-1s.9-.7,1.5-1.2c.8-.4,1.4-.9,2-1.3h0Z"/>
        <path class="cls-2" d="M405.8,402.5c-.6,0-.9-.2-.9-.6v-.1l.1-.1,.1,.1c.2,.2,.7,.3,1.3,.3,4.6-.4,9.2-3,13.7-7.9,2.1-2.3,5.9-7.3,11.4-15.1,1.6-2.4,3.3-4.3,5.1-5.8,2.6-2.2,4.8-3.3,6.6-3.5,.8-.1,1.4-.2,2-.2h.6s-.4,.1-.9,.2c-.1,.1-.2,.1-.4,.1-2.2,.4-4.1,1.3-5.8,2.7-.2,.2-.6,.5-1.2,1.1s-1.1,1.1-1.5,1.6l-.6,.7,1.8-1.3c4.5-2.8,7-3.7,7.6-2.7,.8,1.2-.5,3-3.8,5.3-1.8,1.3-3,2.6-3.5,3.8-.5,1.5-.1,2.1,1.3,2,2.4-.2,5.8-2,10.1-5.3,.5-.4,1.1-.8,1.7-1.3,.1-.1,.3-.2,.5-.4,.2-.2,.4-.3,.5-.4,.2-.2,.3-.1,.3,.2,0,.1-.2,.3-.5,.6-3.3,2.9-6.9,5.1-10.7,6.6-1.4,.5-2.5,.7-3.4,.4-.9-.3-1.2-1-.9-2.2,.4-1.7,1.8-3.4,4.4-5.2,1-.7,1.9-1.5,2.7-2.3,.8-.8,1.1-1.4,.9-1.7-.4-.7-2.6,.2-6.5,2.7-.9,.6-1.9,1.5-3,2.6-.4,.4-1.4,1.6-3,3.7-1.6,2-3.2,4.2-5,6.6s-3,3.9-3.5,4.6c-2.3,2.5-4.3,4.5-6,5.8s-3.9,2.5-6.5,3.3c-1.8,.8-3.5,1.1-5.1,1.1h0Z"/>
        <path class="cls-2" d="M454.9,385.6c-1.3,.4-2.2,.2-2.6-.6-.2-.9-.3-1.8,0-2.6,.2-.9,.5-1.6,.9-2.1-1,.8-1.8,1.2-2.2,1.3-.9,.4-1.5,.5-2,.3s-.7-.6-.7-1.3,.2-1.4,.7-2.1c1.1-1.7,2.8-3,5-4,2-.9,3.1-.8,3.4,.3,.2,.7,.1,1.4-.5,2-.2,.4-.2,.7-.2,.8,.1,.2-.2,.7-.6,1.3-.2,.2-.4,.5-.7,.8-.3,.4-.6,.7-.8,1-.2,.3-.5,.6-.6,.9-1.2,2.4-1.3,3.6-.3,3.7,.8,.1,2.5-.8,5.2-2.8,1.7-1.3,3.7-3.1,6-5.3l1.2-1.2c.4-.3,.6-.3,.7,0,0,.1-.2,.3-.6,.6l-3.5,3.3c-1.2,1.2-2.4,2.2-3.5,3.1-2,1.5-3.3,2.3-4.3,2.6h0Zm-5.5-4.3c.1,.2,.6,.1,1.5-.2,.1-.1,.6-.4,1.6-1,.1-.1,.7-.6,1.8-1.6,.1-.1,.4-.4,1-.8s.9-.8,1.1-1.1c.8-1,.9-1.8,.3-2.1-.2-.2-.9,0-2,.6-1.2,.7-2.5,1.8-3.7,3.2-1.4,1.5-1.9,2.5-1.6,3h0Z"/>
      </g>
      <g>
        <path class="cls-2" d="M283,327.2c-3.5,.2-6.6-.4-9.4-1.9s-4.9-3.8-6.3-6.9c-.9-2-1.4-4.2-1.5-6.5s.1-4.5,.6-6.6,1.2-4.6,2.4-7.8c1-3.2,1.2-5.3,.4-6.2-.4-.5-1.2-.7-2.4-.5-2.4,3.2-5.5,6.8-9.3,10.8-5.9,6.2-12.9,10.5-21,12.8-2.9,.8-5.6,1.2-8.1,1.1-5.9-.4-8.9-2.1-9-5.2,0-.6,.2-.6,.5,0l.3,.6c.2,.5,.5,1,.9,1.5,1.2,1.4,3.5,2.2,6.9,2.5,5.3,.2,10.9-1.6,16.6-5.6,3.3-2.2,6.7-5,10-8.4,3.4-3.4,6.2-6.8,8.6-10.2-1.2-.1-1.8-.2-2-.4-.6-.3-.9-.7-.9-1.2s.9-.7,2.6-.5l1.6,.2,.3-.3,2-3.1,3.1-4.6c2.6-3.9,4.9-7.1,7-9.4,.2-.4,.6-.8,1-1.2s.7-.8,1-1l.3-.4-3.4,1c-.2,.1-1,.2-2.3,.5s-2.2,.5-2.9,.6c-3.8,.8-9.9,1.5-18.5,2.2s-15.1,1.6-19.6,2.7c-5.4,1.3-9.7,3.2-12.8,5.8-.9,.8-1.9,1.7-2.8,2.8-1.4,1.6-2.1,2.9-2.2,3.6v.4c-.1,.1-.2,.2-.3,.2-.2,0-.3-.1-.3-.4-.1-.9,.6-2.4,2.3-4.4,.8-1,1.9-2,3.4-3.2,3.3-2.3,7.2-4.1,11.8-5.3,3.3-.9,7.8-1.6,13.5-2.2,.9-.1,3.2-.3,6.7-.6,3.5-.3,6.1-.5,7.7-.6l3.5-.5c6.6-.9,11.3-1.8,14.1-2.7,1.4-.4,2.2-.7,2.5-.9s.9-.6,1.6-1.2c2.2-1.6,3.6-2.5,4.1-2.7l1-.4c.4-.1,.6-.1,.9-.1,.5,0,.7,.3,.5,.9-.3,.5-.8,.9-1.4,1.4-.2,.1-.7,.3-1.4,.6-.7,.3-1.1,.5-1.3,.5l-1.7,.8c-.4,.2-1.4,1.1-3,2.6-.9,1-1.9,2.4-3.2,4.4-1.1,1.6-3.2,4.9-6.2,10l-2.7,4.5,1.7,.5c.7,.4,1.6,.3,2.6-.3,2.4-1,6.4-4.5,12-10.2,3.1-3.1,5.6-5.3,7.4-6.7,2.3-1.5,4.2-2.2,5.7-2.1,.7,.1,1.1,.5,1.3,1.2q.1,.1,0,.1l-.3-.4c-.4-.5-1.2-.7-2.4-.5-1.4,.3-2.8,1.2-4.2,2.7l-5.6,5.6c-3.8,3.8-6.4,6.2-7.6,7.1-1.5,1.2-3.2,2.2-5.1,3.2l-2.8,.9c.2,.2,.4,.6,.5,1.1,.4,.8,.5,1.9,.4,3.4s-.3,2.6-.5,3.4-.5,2-.9,3.4c-.4,1.5-.7,2.6-.9,3.4-1.2,5.8-.9,10.5,.9,14.2,1.8,3.8,4.9,6.1,9.4,6.8,3.3,.6,6.8,.4,10.3-.5,6.5-2.1,11.6-4.8,15.4-8.1,1.5-1.4,2.2-2.5,1.9-3.2-.1-.2-.3-.4-.6-.4-.5,0-.6-.2-.2-.6,.5-.4,.9-.1,1.1,.9,.1,.5-.1,1.1-.4,1.8-.4,.5-.9,1.2-1.7,1.9-1.4,1.2-2.8,2.2-4.3,3.1l-3.5,2c-4.8,2.7-9.4,4.1-13.4,4.4h0Zm-20.5-37.1c.5,.1,.8,.1,1.1-.2,.2-.1,.3-.2,.3-.4s-.1-.2-.3-.2l-.5-.1c-.6-.2-1.2-.2-1.7-.2-.4,.1-.5,.2-.5,.5,.1,.2,.4,.4,.7,.5,.2,0,.5,.1,.9,.1h0Zm19.7-22.6c2.5-1.1,3.9-1.8,4.2-2,.3-.2,.6-.5,1-.9,.1-.2,0-.3-.1-.5-.2-.1-.5-.1-.8,0l-.8,.5c-1,.7-2,1.4-2.9,2.2l-.6,.7h0Z"/>
        <path class="cls-2" d="M283.4,310.4c-.9,.3-1.6,.2-2-.4-.8-.9-.4-2.5,1.2-4.6l.9-1c-3,1.7-4.8,2.2-5.4,1.6-.4-.4-.3-1,.2-1.9,.2-.4,1.3-1.6,3.1-3.4,.1-.1,.2-.2,.3-.4,.2-.2,.3-.3,.4-.5,.1-.1,.2-.2,.4-.3s.3-.1,.5,0c.5,.2,.5,.8-.1,1.6-.2,.2-.8,.8-1.6,1.5l-2,2c-.5,.6-.7,1-.6,1.1,.2,.4,1.4,.1,3.3-.9,1.1-.5,2.4-1.5,3.9-2.7,1-.9,1.7-1.1,2.1-.9,.2,.2,0,.5-.5,1l-1.9,1.9c-2,1.8-3.2,3.4-3.6,4.8-.2,.8,.1,1.1,.8,1.1,1.4,0,5.2-2.7,11.4-8.2,1.2-1,1.8-1.5,2-1.5s.1,.3-.2,.6-1.5,1.3-3.5,3c-4.3,4-7.4,6.1-9.1,6.5h0Z"/>
        <path class="cls-2" d="M266.4,327c-.6,0-.9-.2-.9-.6v-.1l.1-.1,.1,.1c.2,.2,.7,.3,1.3,.3,4.6-.4,9.2-3,13.7-7.9,2.1-2.3,5.9-7.3,11.4-15.1,1.6-2.4,3.3-4.3,5.1-5.8,2.6-2.2,4.8-3.3,6.6-3.5,.8-.1,1.4-.2,2-.2h.6s-.4,.1-.9,.2c-.1,.1-.2,.1-.4,.1-2.2,.4-4.1,1.3-5.8,2.7-.2,.2-.6,.5-1.2,1.1s-1.1,1.1-1.5,1.6l-.6,.7,1.8-1.3c4.5-2.8,7-3.7,7.6-2.7,.8,1.2-.5,3-3.8,5.3-1.8,1.4-3,2.6-3.5,3.8-.5,1.5-.1,2.1,1.3,2,2.4-.2,5.8-2,10.1-5.3,.5-.4,1.1-.9,1.7-1.3,.1-.1,.3-.2,.5-.4s.4-.3,.5-.4c.2-.2,.3-.1,.3,.2,0,.1-.2,.3-.5,.6-3.3,2.9-6.9,5.1-10.7,6.6-1.4,.5-2.5,.7-3.4,.4-.9-.3-1.2-1-.9-2.2,.4-1.7,1.8-3.4,4.4-5.2,1-.7,1.9-1.5,2.7-2.3,.8-.8,1.1-1.4,.9-1.7-.4-.7-2.6,.2-6.5,2.6-.9,.6-1.9,1.5-3,2.6-.4,.4-1.4,1.6-3,3.7-1.6,2-3.2,4.2-5,6.6s-3,3.9-3.5,4.6c-2.3,2.5-4.3,4.5-6,5.8-1.7,1.4-3.9,2.5-6.5,3.3-1.8,.9-3.5,1.3-5.1,1.2h0Z"/>
        <path class="cls-2" d="M314.1,310.4c-.9,.3-1.6,.2-2-.4-.8-.9-.4-2.5,1.2-4.6l.9-1c-3,1.7-4.8,2.2-5.4,1.6-.4-.4-.3-1,.2-1.9,.2-.4,1.3-1.6,3.1-3.4,.1-.1,.2-.2,.3-.4,.2-.2,.3-.3,.4-.5,.1-.1,.2-.2,.4-.3s.3-.1,.5,0c.5,.2,.5,.8-.1,1.6-.2,.2-.8,.8-1.6,1.5l-2,2c-.5,.6-.7,1-.6,1.1,.2,.4,1.4,.1,3.3-.9,1.1-.5,2.4-1.5,3.9-2.7,1-.9,1.7-1.1,2.1-.9,.2,.2,0,.5-.5,1l-1.9,1.9c-2,1.8-3.2,3.4-3.6,4.8-.2,.8,.1,1.1,.8,1.1,1.4,0,5.2-2.7,11.4-8.2,1.2-1,1.8-1.5,2-1.5s.1,.3-.2,.6-1.5,1.3-3.5,3c-4.4,4-7.4,6.1-9.1,6.5h0Z"/>
        <path class="cls-2" d="M332,308c-1-.7-1.1-1.7-.2-3.1l.1-.2c.4-.8,.9-1.5,1.5-2.1,.6-.7,1.3-1.4,2.2-2.2,.9-.8,1.5-1.5,2.1-2.1-.5,.3-1.6,1.1-3.3,2.4l-1.8,1.4c-4.4,3.2-7.2,4.9-8.3,5.2-.9,.2-1.4,0-1.6-.7-.4-1.2,.3-2.6,2-4.3,1.2-1.2,2-1.8,2.4-1.8,.6,.1,.5,.5-.3,1.3-.8,.7-1.2,1.1-1.4,1.3-1.4,1.4-2,2.5-2,3.5,0,.4,.5,.4,1.5,0s1.9-1,2.8-1.7c4.4-3,7.4-5.2,9.2-6.7,.3-.3,.5-.5,.5-.8,0-.2,.3-.3,.9-.1,.4,.2,.7,.4,1,.4,.5,0,.4,.4-.5,1.3l-.5,.5c-2.8,2.9-4.5,5-5.4,6.4-.6,.9-.7,1.6-.3,1.9,.7,.6,2.2,.1,4.5-1.4s4.3-3.1,6.1-5l.9-.8c.2-.2,.3-.2,.5,0,.1,.1,0,.2-.1,.4l-1.8,1.8c-2.3,2.2-4.8,3.9-7.3,5.2-1.7,.4-2.8,.4-3.4,0h0Z"/>
        <path class="cls-2" d="M349.4,308c-1-.7-1.1-1.7-.2-3.1l.1-.2c.4-.8,.9-1.5,1.5-2.1,.6-.7,1.3-1.4,2.2-2.2,.9-.8,1.5-1.5,2.1-2.1-.5,.3-1.6,1.1-3.3,2.4l-1.8,1.4c-4.4,3.2-7.2,4.9-8.3,5.2-.9,.2-1.4,0-1.6-.7-.4-1.2,.3-2.6,2-4.3,1.2-1.2,2-1.8,2.4-1.8,.6,.1,.5,.5-.3,1.3-.8,.7-1.2,1.1-1.4,1.3-1.4,1.4-2,2.5-2,3.5,0,.4,.5,.4,1.5,0s1.9-1,2.8-1.7c4.4-3,7.4-5.2,9.2-6.7,.3-.3,.5-.5,.5-.8,0-.2,.3-.3,.9-.1,.4,.2,.7,.4,1,.4,.5,0,.4,.4-.5,1.3l-.5,.5c-2.8,2.9-4.5,5-5.4,6.4-.6,.9-.7,1.6-.3,1.9,.7,.6,2.2,.1,4.5-1.4s4.3-3.1,6.1-5l.9-.8c.2-.2,.3-.2,.5,0,.1,.1,0,.2-.1,.4l-1.8,1.8c-2.3,2.2-4.8,3.9-7.3,5.2-1.7,.4-2.8,.4-3.4,0h0Z"/>
      </g>
      <path class="cls-2" d="M386.5,308.4c-.9,.3-1.6,.2-2-.4-.8-.9-.4-2.5,1.2-4.6l.9-1c-3,1.7-4.8,2.2-5.4,1.6-.4-.4-.3-1,.2-1.9,.2-.4,1.3-1.6,3.1-3.4,.1-.1,.2-.2,.3-.4,.2-.2,.3-.3,.4-.5,.1-.1,.2-.2,.4-.3s.3-.1,.5,0c.5,.2,.5,.8-.1,1.6-.2,.2-.8,.8-1.6,1.5l-2,2c-.5,.6-.7,1-.6,1.1,.2,.4,1.4,.1,3.3-.9,1.1-.5,2.4-1.5,3.9-2.7,1-.9,1.7-1.1,2.1-.9,.2,.2,0,.5-.5,1l-1.9,1.9c-2,1.8-3.2,3.4-3.6,4.8-.2,.8,.1,1.1,.8,1.1,1.4,0,5.2-2.7,11.4-8.2,1.2-1,1.8-1.5,2-1.5s.1,.3-.2,.6-1.5,1.3-3.5,3c-4.4,4-7.4,6.1-9.1,6.5h0Z"/>
    </g>
  </g>
</svg>