<?xml version="1.0" encoding="utf-8"?>
<!-- Generator: Adobe Illustrator 27.0.0, SVG Export Plug-In . SVG Version: 6.00 Build 0)  -->
<svg version="1.1" id="_Слой_2" xmlns="http://www.w3.org/2000/svg" xmlns:xlink="http://www.w3.org/1999/xlink" x="0px"
	 y="0px" viewBox="0 0 61.5 93.1" style="enable-background:new 0 0 61.5 93.1;" xml:space="preserve">
<style type="text/css">
	.st0{fill:#7B335D;}
</style>
<g id="Layer_1">
	<g>
		<g>
			<path class="st0" d="M61.1,92.7C46,92.8,15.6,93.1,0.5,93.1c-0.2,0-0.4-0.2-0.4-0.4L0,52.7c0-0.3,0.2-0.5,0.5-0.5l30.3,0
				l30.3,0.1c0.2,0,0.3,0.1,0.3,0.3L61.1,92.7L61.1,92.7L61.1,92.7z M61.1,92.7l-0.3-40l0.3,0.3l-30.3,0.1l-30.3,0L1,52.7l-0.1,40
				l-0.4-0.4C15.6,92.3,46,92.6,61.1,92.7L61.1,92.7L61.1,92.7z"/>
			<path class="st0" d="M45.9,74.5C46,86.8,30.9,93.2,22,84.6c-5.6-5.3-5.6-14.8,0-20.2C30.9,55.8,46,62.2,45.9,74.5L45.9,74.5
				L45.9,74.5z M45.9,74.5C45.9,62.4,31.1,56.4,22.6,65c-5.1,5-5.1,13.9,0,18.9C31.1,92.6,45.9,86.6,45.9,74.5L45.9,74.5L45.9,74.5z
				"/>
			<path class="st0" d="M56.9,60.7c-3.2,0.2-6.6,0.4-9.8,0.5c-0.2,0-0.5-0.2-0.5-0.4c0-1.4,0-2.9,0-4.3c0-0.3,0.2-0.5,0.5-0.5
				c3.3,0,6.6,0.1,9.9,0.2c0.2,0,0.3,0.1,0.3,0.3C57.1,57.9,57,59.3,56.9,60.7L56.9,60.7L56.9,60.7z M56.9,60.7
				c-0.1-1.5-0.2-2.9-0.3-4.3l0.3,0.3c-3.3,0.2-6.6,0.2-9.8,0.2l0.5-0.5c0,1.4,0,2.9,0,4.3L47,60.2C50.3,60.3,53.5,60.5,56.9,60.7
				L56.9,60.7z"/>
			<path class="st0" d="M49.7,80c0,2-3.1,2.2-3.1,0C46.6,77.9,49.7,78,49.7,80L49.7,80z M49.7,80c-0.1-1.5-2.2-1.4-2.2,0
				S49.6,81.6,49.7,80L49.7,80z"/>
			<path class="st0" d="M61.1,63.7c-6.8,0.7-13.6,0.7-20.4,0C47.6,63,54.3,63,61.1,63.7C61.1,63.7,61.1,63.7,61.1,63.7z"/>
			<path class="st0" d="M42.6,83.5c6.2-0.7,12.3-0.7,18.5,0C55,84.2,48.8,84.2,42.6,83.5L42.6,83.5z"/>
			<path class="st0" d="M0.5,83.5c7-0.7,14.1-0.7,21.1,0C14.6,84.2,7.5,84.2,0.5,83.5L0.5,83.5z"/>
			<path class="st0" d="M23.5,63.7c-7.6,0.7-15.3,0.7-23,0C8.1,63,15.8,63,23.5,63.7L23.5,63.7z"/>
			<path class="st0" d="M42.9,74.5c0.1,9.6-11.8,14.7-18.7,7.9c-4.4-4.1-4.4-11.7,0-15.8C31.1,59.8,43,64.9,42.9,74.5L42.9,74.5z
				 M42.9,74.5c0-9.4-11.6-14.1-18.1-7.3c-3.9,3.9-3.9,10.8,0,14.6C31.3,88.6,42.9,83.9,42.9,74.5C42.9,74.5,42.9,74.5,42.9,74.5z"
				/>
			<path class="st0" d="M15.3,52.7c-2.3,0.2-4.8,0.4-7.4,0.5c-0.2,0-0.4-0.2-0.4-0.4c0-1.3,0-2.5-0.1-3.8c0-0.3,0.2-0.5,0.5-0.5
				c2.5,0,5,0.1,7.4,0.2c0.2,0,0.3,0.1,0.3,0.3C15.5,50.2,15.4,51.5,15.3,52.7L15.3,52.7L15.3,52.7z M15.3,52.7
				c-0.1-1.4-0.2-2.6-0.3-3.8l0.3,0.3c-2.5,0.1-4.9,0.2-7.4,0.2l0.5-0.5c0,1.3,0,2.5-0.1,3.8l-0.4-0.5
				C10.2,52.3,12.6,52.5,15.3,52.7C15.3,52.7,12.6,52.5,15.3,52.7z"/>
			<path class="st0" d="M30.8,65.8c-2.6,1.8-4.5,4.1-6.1,6.9C24.9,69.4,27.6,66.3,30.8,65.8L30.8,65.8z"/>
		</g>
		<g>
			<path class="st0" d="M34.7,52.8c-0.7-4-0.7-8,0-11.9C35.4,44.8,35.4,48.8,34.7,52.8L34.7,52.8z"/>
			<path class="st0" d="M29,41.1c0.7,3.9,0.7,7.8,0,11.7C28.3,48.9,28.3,45,29,41.1L29,41.1z"/>
			<g>
				<path class="st0" d="M52,21.1c0,17.8-21.5,26.8-34.3,14.4c-7.9-7.6-8-21.1,0-28.7C30.5-5.7,52,3.3,52,21.1L52,21.1z M52,21.1
					C51.9,3.5,30.7-5.1,18.3,7.3c-7.5,7.3-7.5,20.3,0,27.5C30.7,47.3,51.9,38.7,52,21.1L52,21.1z"/>
				<path class="st0" d="M34.7,21.1c-0.1,3.7-5.5,3.8-5.6,0C29.2,17.3,34.6,17.4,34.7,21.1L34.7,21.1z M34.7,21.1
					c-0.1-3.1-4.6-3-4.6,0C30.1,24.1,34.6,24.2,34.7,21.1L34.7,21.1z"/>
				<path class="st0" d="M32.1,1.2c0.7,5.8,0.7,11.6,0,17.3C31.4,12.8,31.4,7,32.1,1.2C32.1,1.2,32.1,1.2,32.1,1.2z"/>
				<path class="st0" d="M22.2,3.9c3.5,4.7,6.4,9.7,8.7,15C27.4,14.2,24.5,9.2,22.2,3.9C22.2,3.9,22.2,3.9,22.2,3.9z"/>
				<path class="st0" d="M14.9,11.1c5.3,2.3,10.4,5.2,15,8.7C24.6,17.5,19.6,14.6,14.9,11.1C14.9,11.1,14.9,11.1,14.9,11.1z"/>
				<path class="st0" d="M12.2,21.1c5.8-0.7,11.6-0.7,17.3,0C23.8,21.8,18,21.8,12.2,21.1C12.2,21.1,12.2,21.1,12.2,21.1z"/>
				<path class="st0" d="M14.9,31c4.7-3.5,9.7-6.4,15-8.7C25.3,25.9,20.2,28.8,14.9,31C14.9,31,14.9,31,14.9,31z"/>
				<path class="st0" d="M22.2,38.3c2.3-5.3,5.2-10.4,8.7-15C28.5,28.6,25.6,33.7,22.2,38.3L22.2,38.3z"/>
				<path class="st0" d="M32.1,41c-0.7-5.8-0.7-11.6,0-17.3C32.8,29.4,32.8,35.2,32.1,41L32.1,41z"/>
				<path class="st0" d="M42.1,38.3c-3.5-4.7-6.4-9.7-8.7-15C36.9,28,39.8,33,42.1,38.3L42.1,38.3z"/>
				<path class="st0" d="M49.3,31c-5.3-2.3-10.4-5.2-15-8.7C39.7,24.7,44.7,27.6,49.3,31C49.3,31,49.3,31,49.3,31z"/>
				<path class="st0" d="M52,21.1c-5.8,0.7-11.6,0.7-17.3,0C40.5,20.4,46.2,20.4,52,21.1C52,21.1,52,21.1,52,21.1z"/>
				<path class="st0" d="M49.3,11.1c-4.7,3.5-9.7,6.4-15,8.7C39,16.3,44,13.4,49.3,11.1C49.3,11.1,49.3,11.1,49.3,11.1z"/>
				<path class="st0" d="M42.1,3.9c-2.3,5.3-5.2,10.4-8.7,15C35.7,13.5,38.6,8.5,42.1,3.9C42.1,3.9,42.1,3.9,42.1,3.9z"/>
				<path class="st0" d="M11.3,21.1c0-18.6,22.6-28.1,35.9-15c8.3,8,8.3,22.1,0,30.1C33.8,49.2,11.2,39.7,11.3,21.1L11.3,21.1z
					 M11.3,21.1c0.1,18.4,22.4,27.5,35.3,14.4c7.8-7.6,7.8-21.3,0-28.9C33.6-6.4,11.4,2.7,11.3,21.1L11.3,21.1z"/>
			</g>
		</g>
	</g>
</g>
</svg>
