<?xml version="1.0" encoding="utf-8"?>
<!-- Generator: Adobe Illustrator 27.0.0, SVG Export Plug-In . SVG Version: 6.00 Build 0)  -->
<svg version="1.1" id="_Слой_2" xmlns="http://www.w3.org/2000/svg" xmlns:xlink="http://www.w3.org/1999/xlink" x="0px"
	 y="0px" viewBox="0 0 69 94" style="enable-background:new 0 0 69 94;" xml:space="preserve">
<style type="text/css">
	.st0{fill:#7B335D;}
</style>
<g id="Layer_1">
	<g>
		<g>
			<path class="st0" d="M46.9,10.1c4.8-0.1,14.6-0.3,19.5-0.3h0.3l0,0.3c-1.4,13.5-2.6,27.1-6.5,40.2C52.2,72.3,47.2,14.3,46.9,10.1
				c1.8,13.4,3.2,27,7.1,39.9c2,5.6,3.3,5.7,5.3,0c3.8-13,5.1-26.6,6.8-39.9l0.3,0.3C61.5,10.4,51.7,10.2,46.9,10.1L46.9,10.1
				L46.9,10.1z"/>
			<path class="st0" d="M57.6,54.8c0.4,11.4,0.4,22.9,0.5,34.3v0.6c0.1,0.8-0.7,1.7-1.5,1.6c-0.8,0-1.6-0.8-1.5-1.6v-0.6
				c0-11.2,0.1-23.1,0.5-34.3c0.4,11.4,0.5,23.5,0.5,34.9c-0.1,0.6,0.8,0.9,1,0.3c0.1-0.1,0-0.7,0.1-0.9
				C57.2,77.8,57.3,66.3,57.6,54.8L57.6,54.8L57.6,54.8z"/>
			<path class="st0" d="M57.6,88.2c2.9-0.1,5.9,0,8.8,0.8c0.9,0.3,1.9,0.6,2.4,1.4c0.4,1.4-1.5,2.1-2.6,2.4
				c-4.8,1.3-9.8,1.3-14.7,0.8c-2-0.3-4-0.5-5.8-1.7c-0.2-0.2-0.5-0.4-0.6-0.8c-0.3-1,0.9-1.6,1.6-1.9c2.8-1,5.8-1.1,8.8-1.1
				c-2.9,0.3-5.8,0.6-8.5,1.7c-2.8,1.2,0.3,2,1.8,2.4c2.8,0.6,5.7,0.8,8.6,0.7c3.3-0.1,6.8-0.2,9.9-1.4c0.4-0.2,0.8-0.5,0.8-0.7
				c0.1-0.2-0.2-0.5-0.6-0.7C64.5,88.7,61,88.5,57.6,88.2L57.6,88.2L57.6,88.2z"/>
			<path class="st0" d="M49.1,28c5-0.7,10.1-0.7,15.1,0C59.1,28.7,54.1,28.7,49.1,28L49.1,28z"/>
			<path class="st0" d="M55.2,32.8c0,2.1-3.2,2.2-3.3,0C52,30.5,55.2,30.7,55.2,32.8L55.2,32.8z M55.2,32.8c-0.1-1.6-2.3-1.5-2.3,0
				C52.9,34.3,55.1,34.4,55.2,32.8L55.2,32.8z"/>
			<path class="st0" d="M57.4,37.8c0,0.8-1.2,1-1.3,0C56.2,36.8,57.5,36.9,57.4,37.8L57.4,37.8z M57.4,37.8c0-0.2-0.3-0.3-0.4-0.1
				c-0.1,0.2,0.1,0.2,0.1,0.1c0-0.1-0.2,0-0.1,0.1C57.1,38.1,57.4,38,57.4,37.8C57.4,37.8,57.4,38,57.4,37.8z"/>
			<path class="st0" d="M61.3,31.7c0.1,0.7-1,0.8-1,0C60.3,30.8,61.4,31,61.3,31.7L61.3,31.7z M61.3,31.7c0-0.2-0.3-0.2-0.3,0
				C61,31.8,61.2,31.8,61.3,31.7c0-0.1-0.3-0.1-0.3,0C61,31.9,61.3,31.9,61.3,31.7C61.3,31.7,61.3,31.9,61.3,31.7z"/>
			<path class="st0" d="M58.2,42.6c0,1.1-1.7,1.3-1.7,0C56.6,41.4,58.3,41.5,58.2,42.6L58.2,42.6z M58.2,42.6c0-0.6-0.9-0.5-0.7,0
				C57.4,43.1,58.2,43.3,58.2,42.6L58.2,42.6z"/>
			<path class="st0" d="M62.3,36.7c0,1.2-1.8,1.3-1.8,0C60.6,35.4,62.3,35.5,62.3,36.7L62.3,36.7z M62.3,36.7c0-0.7-0.9-0.6-0.8,0
				C61.4,37.3,62.3,37.4,62.3,36.7L62.3,36.7z"/>
		</g>
		<g>
			<path class="st0" d="M29,0c4.6,1.6,13.9,4.7,18.4,6.3l0.3,0.1l-0.1,0.3c-5.9,12.2-11.7,24.7-19.7,35.6C12.9,60.3,27.8,4,29,0
				c-2.8,13.2-6.1,26.5-6.8,40c0,6,1.2,6.5,5,1.8c8-10.9,13.8-23.3,19.9-35.3l0.2,0.4C42.6,5.2,33.5,1.7,29,0L29,0L29,0z"/>
			<path class="st0" d="M24,45.7c-3.6,11-7.4,22-11.3,33c-0.2,0.8-1.2,1.3-2,1l-0.3-0.5l0.3,0.5c-0.5-0.2-0.9-0.7-1-1.3
				C9.6,78,9.8,77.5,10,77.1C13.8,66.6,17.9,55.4,22,45c-3.4,10.6-7.4,21.9-11.1,32.5c-0.1,0.2-0.3,0.7-0.2,0.9
				c0,0.2,0.2,0.4,0.4,0.4l0.3,0.5L11,78.8c0.3,0.1,0.6-0.1,0.7-0.4C15.7,67.4,19.7,56.5,24,45.7L24,45.7L24,45.7z"/>
			<path class="st0" d="M12.7,77.1c2.8,0.9,5.6,2,8,3.7c0.7,0.6,1.6,1.2,1.8,2.2c-0.1,1.5-2.1,1.4-3.2,1.4
				c-4.9-0.4-9.7-2.1-14.1-4.3c-1.8-1-3.6-1.8-4.8-3.6C0.1,76.3,0,76,0,75.7c0.1-1.1,1.4-1.2,2.1-1.2c3,0,5.8,0.9,8.6,1.9
				c-2.8-0.7-5.7-1.4-8.6-1.3c-0.7,0.1-1.9,0.2-1.3,1.1c2.6,2.7,6.5,4.1,9.9,5.4c3.1,1.1,6.4,2.2,9.8,2c0.4,0,0.9-0.2,1-0.4
				c0.2-0.1-0.1-0.6-0.3-0.9C19,79.8,15.7,78.5,12.7,77.1L12.7,77.1L12.7,77.1z"/>
			<path class="st0" d="M24.3,20.9c5-0.1,10,0.5,14.9,1.7C34.2,22.8,29.2,22.2,24.3,20.9L24.3,20.9z"/>
			<path class="st0" d="M29.1,24.1c-0.7,2-3.8,1-3.1-1.1C26.9,20.9,29.8,22.1,29.1,24.1L29.1,24.1z M29.1,24.1
				c0.5-1.5-1.6-2.1-2.1-0.8S28.5,25.6,29.1,24.1L29.1,24.1z"/>
			<path class="st0" d="M29.5,29.5c-0.2,0.8-1.5,0.5-1.2-0.4C28.7,28.2,29.9,28.8,29.5,29.5L29.5,29.5z M29.5,29.5
				c0.1-0.2-0.2-0.4-0.3-0.3c-0.1,0.1,0,0.2,0,0.2c0-0.1-0.2-0.1-0.1,0.1C29.1,29.7,29.5,29.8,29.5,29.5
				C29.5,29.6,29.5,29.8,29.5,29.5L29.5,29.5z"/>
			<path class="st0" d="M35.2,25.1c-0.2,0.7-1.2,0.5-1-0.4C34.6,24,35.5,24.5,35.2,25.1L35.2,25.1z M35.2,25.1
				C35.3,25,35,24.9,35,25S35.1,25.3,35.2,25.1c0-0.1-0.2-0.2-0.3-0.1C34.9,25.2,35.2,25.3,35.2,25.1C35.2,25.1,35.2,25.3,35.2,25.1
				L35.2,25.1z"/>
			<path class="st0" d="M28.7,34.4c-0.4,1-2,0.7-1.6-0.6C27.6,32.6,29.1,33.4,28.7,34.4L28.7,34.4z M28.7,34.4
				c0.2-0.6-0.7-0.8-0.7-0.2C27.7,34.6,28.4,35,28.7,34.4L28.7,34.4z"/>
			<path class="st0" d="M34.5,30.2c-0.4,1.1-2.1,0.6-1.7-0.6C33.3,28.4,34.9,29.1,34.5,30.2L34.5,30.2z M34.5,30.2
				c0.2-0.7-0.7-0.8-0.8-0.3C33.5,30.4,34.2,30.8,34.5,30.2L34.5,30.2z"/>
		</g>
		<g>
			<g>
				<path class="st0" d="M53.8,16.7c1.3-0.3,2.5,0.1,3.5,1.1C56,18.1,54.8,17.8,53.8,16.7L53.8,16.7z"/>
				<path class="st0" d="M56.1,15.6c0.3,1.4-0.1,2.5-1.1,3.5C54.7,17.7,55.1,16.5,56.1,15.6C56.1,15.6,56.1,15.6,56.1,15.6z"/>
			</g>
			<g>
				<path class="st0" d="M65.5,23.1c1.3-0.3,2.5,0.1,3.5,1.1C67.6,24.5,66.4,24.1,65.5,23.1L65.5,23.1z"/>
				<path class="st0" d="M67.8,21.9c0.3,1.4-0.1,2.5-1.1,3.5C66.4,24,66.8,22.8,67.8,21.9C67.8,21.9,67.8,21.9,67.8,21.9z"/>
			</g>
			<g>
				<path class="st0" d="M60.5,13.8c1.9-0.1,3.6,0.4,5,1.6C63.6,15.6,61.9,15,60.5,13.8C60.5,13.8,60.5,13.8,60.5,13.8z"/>
				<path class="st0" d="M63.8,12.1c0.1,1.9-0.5,3.6-1.7,5C62.1,15.3,62.6,13.6,63.8,12.1L63.8,12.1z"/>
			</g>
			<g>
				<path class="st0" d="M26.3,4.8C27.6,4.6,28.8,5,29.7,6C28.4,6.3,27.2,5.9,26.3,4.8C26.3,4.8,26.3,4.8,26.3,4.8z"/>
				<path class="st0" d="M28.6,3.7c0.3,1.4-0.1,2.5-1.1,3.5C27.2,5.8,27.6,4.6,28.6,3.7C28.6,3.7,28.6,3.7,28.6,3.7z"/>
			</g>
			<g>
				<path class="st0" d="M33.7,1.8c1.3-0.3,2.5,0.1,3.5,1.1C35.8,3.2,34.6,2.8,33.7,1.8C33.7,1.8,33.7,1.8,33.7,1.8z"/>
				<path class="st0" d="M36,0.6c0.3,1.4-0.1,2.5-1.1,3.5C34.5,2.8,34.9,1.6,36,0.6C36,0.7,36,0.7,36,0.6z"/>
			</g>
			<g>
				<path class="st0" d="M30.5,8.8c1.9-0.1,3.6,0.4,5,1.6C33.7,10.5,32,10,30.5,8.8C30.5,8.8,30.5,8.8,30.5,8.8z"/>
				<path class="st0" d="M33.8,7.1c0.1,1.9-0.5,3.6-1.7,5C32.1,10.2,32.6,8.5,33.8,7.1L33.8,7.1z"/>
			</g>
		</g>
	</g>
</g>
</svg>
