<?xml version="1.0" encoding="utf-8"?>
<!-- Generator: Adobe Illustrator 27.0.0, SVG Export Plug-In . SVG Version: 6.00 Build 0)  -->
<svg version="1.1" id="_Слой_2" xmlns="http://www.w3.org/2000/svg" xmlns:xlink="http://www.w3.org/1999/xlink" x="0px"
	 y="0px" viewBox="0 0 676 681" style="enable-background:new 0 0 676 681;" xml:space="preserve">
<style type="text/css">
	.st0{fill:#F8E6EE;}
	.st1{fill:#782379;}
	.st2{fill:#514D4B;}
</style>
<g id="Layer_1">
	
		<image style="overflow:visible;enable-background:new    ;" width="3600" height="2400" xlink:href="C7CB508B.png"  transform="matrix(-3.790352e-02 0.2774 -0.2774 -3.790352e-02 738.02 -90.19)">
	</image>
	<circle class="st0" cx="337.5" cy="362.8" r="192.2"/>
	<g>
		<g>
			<path class="st1" d="M270.5,475.5L270.5,475.5c0-4.4,2.4-8.3,6.6-8.3s6.6,3.9,6.6,8.3v0c0,4.4-2.4,8.3-6.6,8.3
				S270.5,479.9,270.5,475.5z M283.1,475.5L283.1,475.5c0-4.1-2.2-7.9-6.1-7.9s-6,3.7-6,7.8v0c0,4.1,2.2,7.9,6.1,7.9
				S283.1,479.6,283.1,475.5z"/>
			<path class="st1" d="M295.3,467.8h-9.9v-0.5h10.5v0.3l-7.9,15.8h-0.5L295.3,467.8L295.3,467.8z"/>
			<path class="st1" d="M311.8,475.5L311.8,475.5c0-4.4,2.4-8.3,6.6-8.3s6.6,3.9,6.6,8.3v0c0,4.4-2.4,8.3-6.6,8.3
				S311.8,479.9,311.8,475.5z M324.5,475.5L324.5,475.5c0-4.1-2.2-7.9-6.1-7.9s-6,3.7-6,7.8v0c0,4.1,2.2,7.9,6.1,7.9
				S324.5,479.6,324.5,475.5z"/>
			<path class="st1" d="M336.6,467.8h-9.9v-0.5h10.5v0.3l-7.9,15.8h-0.5L336.6,467.8L336.6,467.8z"/>
			<path class="st1" d="M352.5,483.2l7.3-7.1c2.5-2.4,2.9-3.7,2.9-4.9c0-2-1.8-3.6-4.2-3.6c-2.4,0-4,1.4-5,3.2l-0.4-0.2
				c1.1-2,2.9-3.5,5.5-3.5c2.8,0,4.7,1.8,4.7,4v0c0,1.4-0.4,2.6-3.1,5.2l-6.8,6.5h10.1v0.5h-10.9L352.5,483.2L352.5,483.2z"/>
			<path class="st1" d="M366.2,475.5L366.2,475.5c0-4.4,2.4-8.3,6.6-8.3s6.6,3.9,6.6,8.3v0c0,4.4-2.4,8.3-6.6,8.3
				S366.2,479.9,366.2,475.5z M378.9,475.5L378.9,475.5c0-4.1-2.2-7.9-6.1-7.9s-6,3.7-6,7.8v0c0,4.1,2.2,7.9,6.1,7.9
				S378.9,479.6,378.9,475.5z"/>
			<path class="st1" d="M381.7,483.2l7.3-7.1c2.5-2.4,2.9-3.7,2.9-4.9c0-2-1.8-3.6-4.2-3.6c-2.4,0-4,1.4-5,3.2l-0.4-0.2
				c1.1-2,2.9-3.5,5.5-3.5c2.8,0,4.7,1.8,4.7,4v0c0,1.4-0.4,2.6-3.1,5.2l-6.8,6.5h10.1v0.5h-10.9L381.7,483.2L381.7,483.2z"/>
			<path class="st1" d="M394,480.9l0.4-0.3c1.2,1.6,3.1,2.7,5.4,2.7c2.5,0,4.7-1.7,4.7-4v0c0-2.8-2.4-4-6-4H398l-0.2-0.3l6.2-7.1
				h-9.2v-0.5h9.8v0.4l-6.2,7.1c4,0,6.5,1.4,6.5,4.4v0c0,2.6-2.4,4.4-5.2,4.4C397.3,483.8,395.3,482.6,394,480.9L394,480.9z"/>
		</g>
		<path class="st1" d="M301.6,475.9h0.8v1.2h-0.8V475.9z"/>
		<path class="st1" d="M343.1,475.9h0.8v1.2h-0.8V475.9z"/>
	</g>
	<g>
		<path class="st2" d="M337.9,398.5c-4.1,0.9-7.7,0.3-10.7-1.7c-3.3-2.2-5-5.8-5.1-10.7c-0.1-3.3,0.8-6.6,2.7-9.8
			c1.8-3.2,4.7-7.1,8.6-11.7l-2.2-1.6l-2.3-1.5c-1,0.5-2.7,1.5-5.2,3.2l-1.1,0.7c-3.7,2.3-7.7,4.7-12.1,7.2
			c-10.2,5.6-15.7,8.7-16.5,9c-3.3,1.4-5.9,2-7.8,1.7c-0.6-0.1-1-0.4-1.3-1c-0.1-0.4,0-0.5,0.3-0.5c0.2,0,0.4,0.1,0.7,0.4
			c0.5,0.5,1.7,0.6,3.5,0.2c1.7-0.3,3.2-0.8,4.6-1.5c10.9-5.5,21.7-11.7,32.4-18.5l1.9-1.2c-5.7-3.8-10-6.5-13-8.1
			c-7-3.6-14.8-5.2-23.3-4.7c-7.7,0.4-14.6,2.5-20.6,6.3c-2,1.3-3.4,2.5-4,3.4c-0.4,0.6-0.7,1.2-0.9,1.7c-0.2,0.5-0.2,0.9-0.2,1.2
			s0.1,0.6,0.2,0.9c0.1,0.3,0.2,0.5,0.3,0.7s0.1,0.3,0,0.4c-0.1,0.1-0.3,0.2-0.5,0.2c-0.2,0.1-0.4-0.1-0.5-0.5
			c-0.5-1.2-0.4-2.5,0.4-4c0.7-1.2,2-2.5,3.8-3.8c3.9-2.7,8.4-4.7,13.5-5.8c5.1-1.2,10.2-1.6,15.3-1.3c5.3,0.4,10.5,1.7,15.8,4
			c1.4,0.7,2.9,1.5,4.4,2.4s3.1,2,4.9,3.2c1.7,1.2,3.1,2.1,4.1,2.7l1,0.6c4.4-3,10.1-7.1,17.3-12.3c3.2-2.4,6-4.3,8.5-5.7
			c4.3-2.6,6.7-3.7,7.2-3.2c0.1,0.1,0.1,0.1,0.1,0.2s0,0.2-0.1,0.3c-0.1,0.1-0.1,0.2-0.2,0.3c-0.1,0.1-0.2,0.2-0.4,0.4
			c-0.2,0.2-0.4,0.3-0.5,0.5c-0.2,0.2-0.4,0.3-0.6,0.6s-0.5,0.5-0.7,0.6c-1,1-3.2,2.9-6.5,5.8s-6.4,5.7-9.4,8.4s-5.6,5.5-7.9,8.2
			c0.9,0.8,2.3,1.6,4.3,2.5c5.2,2.5,10,3.7,14.4,3.8c1.9,0,3.4-0.2,4.6-0.7c0.7-0.3,1-0.4,1.1-0.3c0.1,0.4-0.1,0.6-0.8,0.8
			c-4.4,1.5-10.1,0.8-17-1.9l-7-3.6c-7.6,8.4-11.5,15.5-11.6,21.3c-0.1,4.2,1.2,7.3,4,9.3c2.9,2.3,6.7,2.8,11.2,1.6
			c3.2-0.9,6.8-2.6,10.9-5.1c1.6-1,2.6-1.9,2.7-2.7v-0.3c0.1-0.2,0.3-0.2,0.5-0.2s0.3,0.2,0.3,0.5c0,0.5-0.2,0.9-0.8,1.3
			c-0.9,0.9-2.3,1.9-4.4,3.1C344.1,396.6,340.7,398,337.9,398.5L337.9,398.5z M334,364c3.3-3.6,6.4-6.6,9.3-9.1s8.4-7.2,16.8-14
			c0.8-0.6,1-0.9,0.7-0.8c-0.3,0.1-0.9,0.3-1.8,0.8c-2.8,1.6-5.6,3.3-8.5,5.3c-2.8,1.9-6.1,4.2-9.7,6.9c-3.6,2.7-6.5,4.8-8.7,6.3
			l-2.6,1.8l1.8,1.1L334,364L334,364z"/>
		<path class="st2" d="M343.2,385.3c-1-0.7-1.1-1.7-0.2-3.2l0.1-0.2c0.4-0.8,0.9-1.5,1.5-2.1c0.6-0.7,1.3-1.4,2.2-2.2
			c0.9-0.8,1.5-1.5,2.1-2.1c-0.5,0.3-1.6,1.1-3.3,2.4l-1.8,1.4c-4.4,3.2-7.2,4.9-8.3,5.2c-0.9,0.2-1.4,0-1.6-0.7
			c-0.4-1.2,0.3-2.6,2-4.3c1.2-1.2,2-1.8,2.4-1.8c0.6,0.1,0.5,0.5-0.3,1.3c-0.8,0.7-1.2,1.1-1.4,1.3c-1.4,1.3-2,2.5-2,3.5
			c0,0.4,0.5,0.4,1.5,0s1.9-1,2.8-1.7c4.4-3,7.4-5.2,9.2-6.7c0.3-0.3,0.5-0.5,0.5-0.8c0-0.2,0.3-0.3,0.9-0.1c0.4,0.2,0.7,0.4,1,0.4
			c0.5,0,0.4,0.4-0.5,1.3c-0.1,0.1-0.3,0.3-0.5,0.5c-2.8,2.9-4.5,5-5.4,6.4c-0.6,0.9-0.7,1.6-0.3,1.9c0.7,0.6,2.2,0.2,4.5-1.3
			c2.3-1.5,4.3-3.2,6.1-5l0.9-0.8c0.2-0.2,0.3-0.2,0.5,0c0.1,0.1,0,0.2-0.1,0.4l-1.8,1.8c-2.3,2.2-4.8,3.9-7.3,5.2
			C345,385.7,343.9,385.7,343.2,385.3L343.2,385.3z"/>
		<path class="st2" d="M355.4,385.1c-1.8,0.7-3.1,0.5-3.7-0.5c-0.4-0.5-0.6-1.2-0.5-2c0.1-0.7,0.6-1.6,1.6-2.7l0.7-0.8
			c0.8-0.9,1.6-1.7,2.3-2.2c1.8-1.4,3.1-2,3.9-1.8c0.6,0.2,0.8,0.8,0.6,1.6s-0.7,1.5-1.4,2.2c-1.7,1.5-3.4,2.2-5.1,2.1
			c-0.1,0-0.4,0.3-0.7,0.9c-0.4,0.6-0.6,1.1-0.6,1.5c-0.2,1.2,0.1,1.8,0.8,1.8c1.4,0.1,3.7-1,7.1-3.4c1.5-1.1,3.1-2.3,4.6-3.7
			c0.4-0.3,0.6-0.4,0.7-0.2c0,0.1-0.2,0.4-0.6,0.8c-0.7,0.6-2,1.6-3.9,3.1c-0.5,0.4-1.5,1.1-2.9,1.9
			C356.8,384.4,355.8,384.9,355.4,385.1L355.4,385.1z M354.1,380.5c0.8,0.1,1.6-0.1,2.4-0.5c2.2-1.3,3.3-2.5,3.5-3.7
			c0.1-0.3-0.1-0.5-0.4-0.5c-0.4,0.1-1.1,0.5-2.1,1.2c-1,0.7-1.7,1.3-2.2,1.9L354.1,380.5L354.1,380.5z"/>
		<path class="st2" d="M367.7,388.9c-1.2,0.4-2,0.1-2.5-0.8c-0.5-0.8-0.5-1.8,0-3.3c0.4-0.8,1-1.9,1.8-3.2c1-1.6,1.2-2.4,0.7-2.5
			c-0.5,0-1.4,0.7-2.9,2c-1.4,1.3-2.4,2.4-2.9,3.2c-0.1,0.2-0.3,0.4-0.5,0.6c-0.6,0.2-0.7-0.2-0.4-1.2c0.6-1.8,2.1-4.2,4.5-7.3
			c1.2-1.5,2-2.2,2.6-2.2c0.7,0.1,0.9,0.4,0.6,0.9c-0.1,0.2-0.5,0.6-1,1.3c-0.4,0.5-0.7,0.9-0.9,1.2c-0.8,1-1.1,1.6-1,1.7
			c0,0.1,0.2-0.1,0.6-0.4s0.8-0.7,1.2-1l1.3-1c1.8-1.5,3.7-2.8,5.6-3.8c1.9-1,3-1,3.2,0c0.2,0.9-0.1,1.8-0.9,2.7
			c-0.1,0.1-0.3,0.2-0.5,0.2c-0.4,0-0.4-0.1-0.2-0.4c1.2-1.2,1.5-2.1,0.9-2.6c-0.9-0.5-3.2,0.8-6.9,3.7c-0.4,0.3-0.8,0.6-1.2,1
			c-0.4,0.3-0.7,0.6-0.9,0.7c-0.2,0.2-0.3,0.2-0.4,0.2c0.7-0.3,1.1-0.2,1.3,0.3c0.2,0.3-0.4,1.5-1.6,3.6c-2.5,4.2-2.6,6.1-0.6,5.9
			h0.3c1.1-0.1,2.5-0.7,4.1-1.8c3.1-2,6.6-5,10.6-8.7c0.4-0.4,0.6-0.5,0.7-0.1c0,0.1-0.2,0.4-0.7,0.8c-3.3,3-5.3,4.8-6.2,5.4
			C372.4,386.7,369.8,388.3,367.7,388.9L367.7,388.9z"/>
		<path class="st2" d="M382.4,385c-2,0.7-3.2,0.4-3.8-0.8c-0.2-0.5-0.2-1.2-0.1-2.1c0.2-0.8,0.6-1.7,1.3-2.6c1-1.3,2.1-2.4,3.3-3.2
			c1.2-0.7,2.2-1,3.1-1c0.9,0,1.4,0.2,1.5,0.7s-0.1,1.1-0.7,1.8c-0.5,0.6-0.9,1.1-1.4,1.4c-0.4,0.3-0.7,0.5-0.9,0.5
			c-0.1,0-0.3-0.1-0.3-0.1c0.9-0.5,1.6-1.2,2.1-1.9c0.5-0.8,0.8-1.2,0.6-1.5c-0.4-1-1.7-0.5-3.9,1.4c-0.7,0.5-1.6,1.5-2.6,2.8
			c-1.3,1.8-1.7,3.2-1.4,4c0.3,0.8,1.1,0.8,2.3,0.3c2.3-0.9,4.8-2.4,7.4-4.5c0.3-0.2,1.2-1,2.7-2.4c0.2-0.2,0.4-0.2,0.5,0
			c0,0.1-0.1,0.3-0.3,0.5C388.5,381.7,385.2,383.9,382.4,385L382.4,385z"/>
		<path class="st2" d="M395.3,387.5c-1.4,0.4-2.2,0.2-2.6-0.6c-0.2-0.9-0.3-1.8,0-2.6c0.2-0.9,0.5-1.6,0.9-2.1
			c-1,0.8-1.8,1.2-2.2,1.3c-0.9,0.4-1.5,0.5-2,0.3c-0.5-0.2-0.7-0.6-0.7-1.3c0-0.7,0.2-1.4,0.7-2.1c1.1-1.7,2.8-3,5-4
			c2-0.9,3.1-0.8,3.4,0.3c0.2,0.7,0.1,1.4-0.5,2c-0.2,0.4-0.2,0.7-0.2,0.8c0.1,0.2-0.1,0.7-0.6,1.3c-0.2,0.2-0.4,0.5-0.7,0.8
			c-0.3,0.4-0.6,0.7-0.8,1c-0.2,0.3-0.5,0.6-0.6,0.9c-1.2,2.4-1.3,3.6-0.3,3.7c0.8,0.1,2.5-0.8,5.2-2.8c1.7-1.3,3.7-3.1,6-5.3
			l1.2-1.2c0.4-0.3,0.6-0.3,0.7,0c0,0.1-0.2,0.3-0.6,0.6l-3.5,3.3c-1.2,1.2-2.4,2.2-3.5,3.1C397.7,386.3,396.3,387.1,395.3,387.5
			L395.3,387.5z M389.8,383.1c0.1,0.2,0.6,0.1,1.5-0.2c0.1-0.1,0.6-0.4,1.6-1c0.1-0.1,0.7-0.6,1.8-1.6c0.1-0.1,0.4-0.4,1-0.8
			s0.9-0.8,1.1-1.1c0.8-1,0.9-1.8,0.3-2.1c-0.2-0.2-0.9,0-2,0.6c-1.2,0.7-2.5,1.8-3.7,3.2S389.6,382.6,389.8,383.1L389.8,383.1z"/>
		<path class="st2" d="M410.3,386.8c-0.9-0.1-1.3-0.7-1.2-1.8c0.2-1.5,0.9-3,2.2-4.5l1.1-1.3l-1,0.1c-0.4,0.1-1.1,0.1-2.1,0.1
			c-0.4,0-0.7,0.1-0.9,0.2c-0.2,0.1-0.6,0.5-1.2,1.2c-0.8,1-1.1,1.6-1,1.8c0,0.3-0.1,0.5-0.4,0.5c-1,0-1.1-0.9-0.2-2.7
			c0.4-0.8,1.3-1.8,2.9-3.3s2.7-2.3,3.5-2.6c0.4-0.1,0.8-0.1,1.2,0c0.4,0.2,0.2,0.6-0.7,1.2c-0.8,0.5-1.5,1.1-2.1,1.8
			c-0.8,0.8-1.1,1.2-1,1.3c0.1,0.1,0.7,0.2,1.7,0.1c1-0.1,1.8-0.5,2.5-1.1c1-0.8,1.7-1,2.1-0.7c0.2,0.1,0.3,0.2,0.2,0.5
			c-0.2,0.3-0.9,1.1-2.3,2.5c-1.7,1.7-2.7,2.8-3,3.2c-0.9,1.5-1.1,2.4-0.8,2.8c0.4,0.5,1.3,0.5,2.7-0.3c1.5-0.8,3.8-2.4,6.9-4.9
			l3.5-2.9c0.4-0.4,0.5-0.4,0.5,0c0,0.1-0.1,0.3-0.4,0.5c-5.3,4.4-8.9,7-11,7.9C411.5,386.7,410.9,386.8,410.3,386.8L410.3,386.8z"
			/>
		<path class="st2" d="M436,378.2c0.6-0.6,0.9-0.7,0.9-0.3c0,0.2-0.3,0.5-0.9,1c-5.2,4.1-8.1,6.4-8.9,6.9l-3.4,2.2
			c-1.3,0.9-2.4,2.1-3.4,3.6c-4.4,6.8-8.2,12.2-11.4,16.2c-9,10.5-14.3,15.7-15.9,15.7c-0.5,0-1-0.2-1.4-0.7c-0.4-0.5-0.5-1-0.5-1.5
			c0.2-2,2-5.2,5.3-9.4s7.1-8.3,11.2-12.3c1.2-1.2,3.1-2.8,5.7-4.7c2.5-1.9,4.3-3.3,5.1-4c0.5-0.5,1.5-1.6,2.7-3.4
			c2.9-4.1,4.8-6.6,5.7-7.5l-2,1.6c-4,3.4-6.4,5.2-7.1,5.3c-0.5,0.2-1,0.1-1.5-0.2c-0.9-0.5-0.8-1.5,0.1-3.2c2.1-3.5,4.8-5.9,8-7.2
			c2.3-0.9,3.4-0.3,3.4,1.7c0,0.1,0,0.3,0.1,0.5s0.1,0.3,0.1,0.5c0.1,0.6-1,2.5-3.2,5.7c-0.1,0.2-0.4,0.7-0.8,1.3
			c-0.4,0.6-0.8,1.1-1.1,1.6s-0.5,0.7-0.6,0.8c4-2.6,6.4-4.2,7.3-4.9C433.5,380.4,435.6,378.7,436,378.2L436,378.2z M416.6,394.2
			c1-1.5,1.5-2.1,1.3-2c-1,0.9-2.5,2-4.3,3.4s-3.4,2.7-4.8,4c-1.4,1.3-3.2,3.1-5.4,5.3c-3.2,3.3-5.5,6-7,8.1
			c-2.3,3.2-3.7,5.6-4.3,7.4c-0.5,1.3-0.3,2.1,0.6,2.3c0.6,0.1,2-0.9,4.4-3.2c5.5-5.5,11.3-12.8,17.3-21.9
			C415.6,395.7,416.4,394.5,416.6,394.2L416.6,394.2z M424.4,381.5c1.6-1.3,2.5-2.2,2.7-2.8c0.4-0.9,0.3-1.4-0.3-1.7
			c-2-0.8-5.1,1.5-9.1,7c-0.3,0.4-0.6,0.9-0.8,1.3c-0.2,0.5-0.2,0.8,0,1.2c0.2,0.1,0.4,0.1,0.5,0c0.2,0,0.4-0.1,0.6-0.3
			s0.5-0.3,0.7-0.5s0.5-0.4,1-0.7c0.4-0.3,0.8-0.7,1.2-1s0.9-0.7,1.5-1.2C423.3,382.4,423.9,381.9,424.4,381.5L424.4,381.5z"/>
		<path class="st2" d="M407.6,404.3c-0.6,0-0.9-0.2-0.9-0.6v-0.1l0.1-0.1l0.1,0.1c0.2,0.2,0.7,0.3,1.3,0.3c4.6-0.4,9.2-3,13.7-7.9
			c2.1-2.3,5.9-7.3,11.4-15.1c1.6-2.4,3.3-4.3,5.1-5.8c2.6-2.2,4.8-3.3,6.6-3.5c0.8-0.1,1.4-0.2,2-0.2c0.4,0,0.6,0,0.6,0
			s-0.4,0.1-0.9,0.2c-0.1,0.1-0.2,0.1-0.4,0.1c-2.2,0.4-4.1,1.3-5.8,2.7c-0.2,0.2-0.6,0.5-1.2,1.1c-0.6,0.6-1.1,1.1-1.5,1.6
			l-0.6,0.7l1.8-1.3c4.5-2.8,7-3.7,7.6-2.7c0.8,1.2-0.5,3-3.8,5.3c-1.8,1.3-3,2.6-3.5,3.8c-0.5,1.5-0.1,2.1,1.3,2
			c2.4-0.2,5.8-2,10.1-5.3c0.5-0.4,1.1-0.8,1.7-1.3c0.1-0.1,0.3-0.2,0.5-0.4c0.2-0.2,0.4-0.3,0.5-0.4c0.2-0.2,0.3-0.1,0.3,0.2
			c0,0.1-0.2,0.3-0.5,0.6c-3.3,2.9-6.9,5.1-10.7,6.6c-1.4,0.5-2.5,0.7-3.4,0.4c-0.9-0.3-1.2-1-0.9-2.2c0.4-1.7,1.8-3.4,4.4-5.2
			c1-0.7,1.9-1.5,2.7-2.3c0.8-0.8,1.1-1.4,0.9-1.7c-0.4-0.7-2.6,0.2-6.5,2.7c-0.9,0.6-1.9,1.5-3,2.6c-0.4,0.4-1.4,1.6-3,3.7
			c-1.6,2-3.2,4.2-5,6.6c-1.8,2.4-3,3.9-3.5,4.6c-2.3,2.5-4.3,4.5-6,5.8s-3.9,2.5-6.5,3.3C410.9,404,409.1,404.4,407.6,404.3
			L407.6,404.3z"/>
		<path class="st2" d="M456.6,387.5c-1.3,0.4-2.2,0.2-2.6-0.6c-0.2-0.9-0.3-1.8,0-2.6c0.2-0.9,0.5-1.6,0.9-2.1
			c-1,0.8-1.8,1.2-2.2,1.3c-0.9,0.4-1.5,0.5-2,0.3c-0.5-0.2-0.7-0.6-0.7-1.3c0-0.7,0.2-1.4,0.7-2.1c1.1-1.7,2.8-3,5-4
			c2-0.9,3.1-0.8,3.4,0.3c0.2,0.7,0.1,1.4-0.5,2c-0.2,0.4-0.2,0.7-0.2,0.8c0.1,0.2-0.2,0.7-0.6,1.3c-0.2,0.2-0.4,0.5-0.7,0.8
			c-0.3,0.4-0.6,0.7-0.8,1c-0.2,0.3-0.5,0.6-0.6,0.9c-1.2,2.4-1.3,3.6-0.3,3.7c0.8,0.1,2.5-0.8,5.2-2.8c1.7-1.3,3.7-3.1,6-5.3
			l1.2-1.2c0.4-0.3,0.6-0.3,0.7,0c0,0.1-0.2,0.3-0.6,0.6l-3.5,3.3c-1.2,1.2-2.4,2.2-3.5,3.1C459,386.3,457.6,387.1,456.6,387.5
			L456.6,387.5z M451.2,383.1c0.1,0.2,0.6,0.1,1.5-0.2c0.1-0.1,0.6-0.4,1.6-1c0.1-0.1,0.7-0.6,1.8-1.6c0.1-0.1,0.4-0.4,1-0.8
			s0.9-0.8,1.1-1.1c0.8-1,0.9-1.8,0.3-2.1c-0.2-0.2-0.9,0-2,0.6c-1.2,0.7-2.5,1.8-3.7,3.2C451.4,381.6,450.9,382.6,451.2,383.1
			L451.2,383.1z"/>
	</g>
	<g>
		<path class="st2" d="M284.8,329c-3.5,0.2-6.6-0.4-9.4-1.9c-2.8-1.5-4.9-3.8-6.3-6.9c-0.9-2-1.4-4.2-1.5-6.5s0.1-4.5,0.6-6.6
			s1.2-4.6,2.4-7.8c1-3.2,1.2-5.3,0.4-6.2c-0.4-0.5-1.2-0.7-2.4-0.5c-2.4,3.2-5.5,6.8-9.3,10.8c-5.9,6.2-12.9,10.5-21,12.8
			c-2.9,0.8-5.6,1.2-8.1,1.1c-5.9-0.4-8.9-2.1-9-5.2c0-0.6,0.2-0.6,0.5,0c0.1,0.2,0.2,0.4,0.3,0.6c0.2,0.5,0.5,1,0.9,1.5
			c1.2,1.4,3.5,2.2,6.9,2.5c5.3,0.2,10.9-1.6,16.6-5.6c3.3-2.2,6.7-5,10-8.4s6.2-6.8,8.6-10.2c-1.2-0.1-1.8-0.2-2-0.4
			c-0.6-0.3-0.9-0.7-0.9-1.2c0-0.5,0.9-0.7,2.6-0.5l1.6,0.2l0.3-0.3l2-3.1l3.1-4.6c2.6-3.9,4.9-7.1,7-9.4c0.2-0.4,0.6-0.8,1-1.2
			s0.7-0.8,1-1l0.3-0.4l-3.4,1c-0.2,0.1-1,0.2-2.3,0.5c-1.3,0.3-2.2,0.5-2.9,0.6c-3.8,0.8-9.9,1.5-18.5,2.2s-15.1,1.6-19.6,2.7
			c-5.4,1.3-9.7,3.2-12.8,5.8c-0.9,0.8-1.9,1.7-2.8,2.8c-1.4,1.6-2.1,2.9-2.2,3.6v0.4c-0.1,0.1-0.2,0.2-0.3,0.2
			c-0.2,0-0.3-0.1-0.3-0.4c-0.1-0.9,0.6-2.4,2.3-4.4c0.8-1,1.9-2,3.4-3.2c3.3-2.3,7.2-4.1,11.8-5.3c3.3-0.9,7.8-1.6,13.5-2.2
			c0.9-0.1,3.2-0.3,6.7-0.6c3.5-0.3,6.1-0.5,7.7-0.6l3.5-0.5c6.6-0.9,11.3-1.8,14.1-2.7c1.4-0.4,2.2-0.7,2.5-0.9s0.9-0.6,1.6-1.2
			c2.2-1.6,3.6-2.5,4.1-2.7l1-0.4c0.4-0.1,0.6-0.1,0.9-0.1c0.5,0,0.7,0.3,0.5,0.9c-0.3,0.5-0.8,0.9-1.4,1.4
			c-0.2,0.1-0.7,0.3-1.4,0.6c-0.7,0.3-1.1,0.5-1.3,0.5l-1.7,0.8c-0.4,0.2-1.4,1.1-3,2.6c-0.9,1-1.9,2.4-3.2,4.4
			c-1.1,1.6-3.2,4.9-6.2,10l-2.7,4.5l1.7,0.5c0.7,0.4,1.6,0.3,2.6-0.3c2.4-1,6.4-4.5,12-10.2c3.1-3.1,5.6-5.3,7.4-6.7
			c2.3-1.5,4.2-2.2,5.7-2.1c0.7,0.1,1.1,0.5,1.3,1.2c0.1,0.1,0.1,0.1,0,0.1l-0.3-0.4c-0.4-0.5-1.2-0.7-2.4-0.5
			c-1.4,0.3-2.8,1.2-4.2,2.7l-5.6,5.6c-3.8,3.8-6.4,6.2-7.6,7.1c-1.5,1.2-3.2,2.2-5.1,3.2l-2.8,0.9c0.2,0.2,0.4,0.6,0.5,1.1
			c0.4,0.8,0.5,1.9,0.4,3.4s-0.3,2.6-0.5,3.4s-0.5,2-0.9,3.4c-0.4,1.5-0.7,2.6-0.9,3.4c-1.2,5.8-0.9,10.5,0.9,14.2
			c1.8,3.8,4.9,6.1,9.4,6.8c3.3,0.6,6.8,0.4,10.3-0.5c6.5-2.1,11.6-4.8,15.4-8.1c1.5-1.4,2.2-2.5,1.9-3.2c-0.1-0.2-0.3-0.4-0.6-0.4
			c-0.5,0-0.6-0.2-0.2-0.6c0.5-0.4,0.9-0.1,1.1,0.9c0.1,0.5-0.1,1.1-0.4,1.8c-0.4,0.5-0.9,1.2-1.7,1.9c-1.4,1.2-2.8,2.2-4.3,3.1
			l-3.5,2C293.4,327.4,288.8,328.7,284.8,329L284.8,329z M264.3,291.9c0.5,0.1,0.8,0.1,1.1-0.2c0.2-0.1,0.3-0.2,0.3-0.4
			s-0.1-0.2-0.3-0.2l-0.5-0.1c-0.6-0.2-1.2-0.2-1.7-0.2c-0.4,0.1-0.5,0.2-0.5,0.5c0.1,0.2,0.4,0.4,0.7,0.5
			C263.6,291.9,263.9,291.9,264.3,291.9L264.3,291.9z M284,269.3c2.5-1.1,3.9-1.8,4.2-2c0.3-0.2,0.6-0.5,1-0.9
			c0.1-0.2,0-0.3-0.1-0.5c-0.2-0.1-0.5-0.1-0.8,0l-0.8,0.5c-1,0.7-2,1.4-2.9,2.2L284,269.3L284,269.3z"/>
		<path class="st2" d="M285.2,312.3c-0.9,0.3-1.6,0.2-2-0.4c-0.8-0.9-0.4-2.5,1.2-4.6l0.9-1c-3,1.7-4.8,2.2-5.4,1.6
			c-0.4-0.4-0.3-1,0.2-1.9c0.2-0.4,1.3-1.6,3.1-3.4c0.1-0.1,0.2-0.2,0.3-0.4c0.2-0.2,0.3-0.3,0.4-0.5c0.1-0.1,0.2-0.2,0.4-0.3
			s0.3-0.1,0.5,0c0.5,0.2,0.5,0.8-0.1,1.6c-0.2,0.2-0.8,0.8-1.6,1.5c-0.8,0.8-1.5,1.5-2,2c-0.5,0.6-0.7,1-0.6,1.1
			c0.2,0.4,1.4,0.1,3.3-0.9c1.1-0.5,2.4-1.5,3.9-2.7c1-0.9,1.7-1.1,2.1-0.9c0.2,0.2,0,0.5-0.5,1l-1.9,1.9c-2,1.8-3.2,3.4-3.6,4.8
			c-0.2,0.8,0.1,1.1,0.8,1.1c1.4,0,5.2-2.7,11.4-8.2c1.2-1,1.8-1.5,2-1.5s0.1,0.3-0.2,0.6c-0.3,0.3-1.5,1.3-3.5,3
			C290,309.7,286.9,311.8,285.2,312.3L285.2,312.3z"/>
		<path class="st2" d="M268.2,328.9c-0.6,0-0.9-0.2-0.9-0.6v-0.1l0.1-0.1l0.1,0.1c0.2,0.2,0.7,0.3,1.3,0.3c4.6-0.4,9.2-3,13.7-7.9
			c2.1-2.3,5.9-7.3,11.4-15.1c1.6-2.4,3.3-4.3,5.1-5.8c2.6-2.2,4.8-3.3,6.6-3.5c0.8-0.1,1.4-0.2,2-0.2c0.4,0,0.6,0,0.6,0
			s-0.4,0.1-0.9,0.2c-0.1,0.1-0.2,0.1-0.4,0.1c-2.2,0.4-4.1,1.3-5.8,2.7c-0.2,0.2-0.6,0.5-1.2,1.1c-0.6,0.6-1.1,1.1-1.5,1.6
			l-0.6,0.7l1.8-1.3c4.5-2.8,7-3.7,7.6-2.7c0.8,1.2-0.5,3-3.8,5.3c-1.8,1.4-3,2.6-3.5,3.8c-0.5,1.5-0.1,2.1,1.3,2
			c2.4-0.2,5.8-2,10.1-5.3c0.5-0.4,1.1-0.9,1.7-1.3c0.1-0.1,0.3-0.2,0.5-0.4s0.4-0.3,0.5-0.4c0.2-0.2,0.3-0.1,0.3,0.2
			c0,0.1-0.2,0.3-0.5,0.6c-3.3,2.9-6.9,5.1-10.7,6.6c-1.4,0.5-2.5,0.7-3.4,0.4c-0.9-0.3-1.2-1-0.9-2.2c0.4-1.7,1.8-3.4,4.4-5.2
			c1-0.7,1.9-1.5,2.7-2.3c0.8-0.8,1.1-1.4,0.9-1.7c-0.4-0.7-2.6,0.2-6.5,2.6c-0.9,0.6-1.9,1.5-3,2.6c-0.4,0.4-1.4,1.6-3,3.7
			c-1.6,2-3.2,4.2-5,6.6c-1.8,2.4-3,3.9-3.5,4.6c-2.3,2.5-4.3,4.5-6,5.8c-1.7,1.4-3.9,2.5-6.5,3.3
			C271.5,328.5,269.8,328.9,268.2,328.9L268.2,328.9z"/>
		<path class="st2" d="M315.9,312.3c-0.9,0.3-1.6,0.2-2-0.4c-0.8-0.9-0.4-2.5,1.2-4.6l0.9-1c-3,1.7-4.8,2.2-5.4,1.6
			c-0.4-0.4-0.3-1,0.2-1.9c0.2-0.4,1.3-1.6,3.1-3.4c0.1-0.1,0.2-0.2,0.3-0.4c0.2-0.2,0.3-0.3,0.4-0.5c0.1-0.1,0.2-0.2,0.4-0.3
			s0.3-0.1,0.5,0c0.5,0.2,0.5,0.8-0.1,1.6c-0.2,0.2-0.8,0.8-1.6,1.5c-0.8,0.8-1.5,1.5-2,2c-0.5,0.6-0.7,1-0.6,1.1
			c0.2,0.4,1.4,0.1,3.3-0.9c1.1-0.5,2.4-1.5,3.9-2.7c1-0.9,1.7-1.1,2.1-0.9c0.2,0.2,0,0.5-0.5,1l-1.9,1.9c-2,1.8-3.2,3.4-3.6,4.8
			c-0.2,0.8,0.1,1.1,0.8,1.1c1.4,0,5.2-2.7,11.4-8.2c1.2-1,1.8-1.5,2-1.5s0.1,0.3-0.2,0.6c-0.3,0.3-1.5,1.3-3.5,3
			C320.6,309.7,317.6,311.8,315.9,312.3L315.9,312.3z"/>
		<path class="st2" d="M333.8,309.8c-1-0.7-1.1-1.7-0.2-3.1l0.1-0.2c0.4-0.8,0.9-1.5,1.5-2.1c0.6-0.7,1.3-1.4,2.2-2.2
			c0.9-0.8,1.5-1.5,2.1-2.1c-0.5,0.3-1.6,1.1-3.3,2.4l-1.8,1.4c-4.4,3.2-7.2,4.9-8.3,5.2c-0.9,0.2-1.4,0-1.6-0.7
			c-0.4-1.2,0.3-2.6,2-4.3c1.2-1.2,2-1.8,2.4-1.8c0.6,0.1,0.5,0.5-0.3,1.3c-0.8,0.7-1.2,1.1-1.4,1.3c-1.4,1.4-2,2.5-2,3.5
			c0,0.4,0.5,0.4,1.5,0s1.9-1,2.8-1.7c4.4-3,7.4-5.2,9.2-6.7c0.3-0.3,0.5-0.5,0.5-0.8c0-0.2,0.3-0.3,0.9-0.1c0.4,0.2,0.7,0.4,1,0.4
			c0.5,0,0.4,0.4-0.5,1.3c-0.1,0.1-0.3,0.3-0.5,0.5c-2.8,2.9-4.5,5-5.4,6.4c-0.6,0.9-0.7,1.6-0.3,1.9c0.7,0.6,2.2,0.1,4.5-1.4
			c2.3-1.5,4.3-3.1,6.1-5l0.9-0.8c0.2-0.2,0.3-0.2,0.5,0c0.1,0.1,0,0.2-0.1,0.4l-1.8,1.8c-2.3,2.2-4.8,3.9-7.3,5.2
			C335.5,310.2,334.4,310.3,333.8,309.8L333.8,309.8z"/>
		<path class="st2" d="M351.1,309.8c-1-0.7-1.1-1.7-0.2-3.1l0.1-0.2c0.4-0.8,0.9-1.5,1.5-2.1c0.6-0.7,1.3-1.4,2.2-2.2
			c0.9-0.8,1.5-1.5,2.1-2.1c-0.5,0.3-1.6,1.1-3.3,2.4l-1.8,1.4c-4.4,3.2-7.2,4.9-8.3,5.2c-0.9,0.2-1.4,0-1.6-0.7
			c-0.4-1.2,0.3-2.6,2-4.3c1.2-1.2,2-1.8,2.4-1.8c0.6,0.1,0.5,0.5-0.3,1.3c-0.8,0.7-1.2,1.1-1.4,1.3c-1.4,1.4-2,2.5-2,3.5
			c0,0.4,0.5,0.4,1.5,0s1.9-1,2.8-1.7c4.4-3,7.4-5.2,9.2-6.7c0.3-0.3,0.5-0.5,0.5-0.8c0-0.2,0.3-0.3,0.9-0.1c0.4,0.2,0.7,0.4,1,0.4
			c0.5,0,0.4,0.4-0.5,1.3c-0.1,0.1-0.3,0.3-0.5,0.5c-2.8,2.9-4.5,5-5.4,6.4c-0.6,0.9-0.7,1.6-0.3,1.9c0.7,0.6,2.2,0.1,4.5-1.4
			c2.3-1.5,4.3-3.1,6.1-5l0.9-0.8c0.2-0.2,0.3-0.2,0.5,0c0.1,0.1,0,0.2-0.1,0.4l-1.8,1.8c-2.3,2.2-4.8,3.9-7.3,5.2
			C352.9,310.2,351.8,310.3,351.1,309.8L351.1,309.8z"/>
	</g>
	<path class="st2" d="M388.3,310.3c-0.9,0.3-1.6,0.2-2-0.4c-0.8-0.9-0.4-2.5,1.2-4.6l0.9-1c-3,1.7-4.8,2.2-5.4,1.6
		c-0.4-0.4-0.3-1,0.2-1.9c0.2-0.4,1.3-1.6,3.1-3.4c0.1-0.1,0.2-0.2,0.3-0.4c0.2-0.2,0.3-0.3,0.4-0.5c0.1-0.1,0.2-0.2,0.4-0.3
		s0.3-0.1,0.5,0c0.5,0.2,0.5,0.8-0.1,1.6c-0.2,0.2-0.8,0.8-1.6,1.5c-0.8,0.8-1.5,1.5-2,2c-0.5,0.6-0.7,1-0.6,1.1
		c0.2,0.4,1.4,0.1,3.3-0.9c1.1-0.5,2.4-1.5,3.9-2.7c1-0.9,1.7-1.1,2.1-0.9c0.2,0.2,0,0.5-0.5,1l-1.9,1.9c-2,1.8-3.2,3.4-3.6,4.8
		c-0.2,0.8,0.1,1.1,0.8,1.1c1.4,0,5.2-2.7,11.4-8.2c1.2-1,1.8-1.5,2-1.5s0.1,0.3-0.2,0.6c-0.3,0.3-1.5,1.3-3.5,3
		C393,307.7,390,309.8,388.3,310.3L388.3,310.3z"/>
</g>
</svg>
