<?xml version="1.0" encoding="utf-8"?>
<!-- Generator: Adobe Illustrator 27.0.0, SVG Export Plug-In . SVG Version: 6.00 Build 0)  -->
<svg version="1.1" id="_Слой_2" xmlns="http://www.w3.org/2000/svg" xmlns:xlink="http://www.w3.org/1999/xlink" x="0px"
	 y="0px" viewBox="0 0 123 79.5" style="enable-background:new 0 0 123 79.5;" xml:space="preserve">
<style type="text/css">
	.st0{fill:#7B335D;}
</style>
<g id="Layer_1">
	<g>
		<g>
			<path class="st0" d="M75.3,44.4c0.1,8-9.8,12.2-15.5,6.6c-3.7-3.4-3.7-9.8,0-13.2C65.5,32.2,75.3,36.5,75.3,44.4L75.3,44.4
				L75.3,44.4z M75.3,44.4c0.1-7.7-9.6-11.6-14.9-6c-3.2,3.2-3.2,8.8,0,12C65.6,56,75.3,52.1,75.3,44.4L75.3,44.4L75.3,44.4z"/>
			<path class="st0" d="M105.7,43.6c0.1,7.9-9.8,12.2-15.5,6.6c-3.7-3.4-3.7-9.8,0-13.2C96.1,31.3,105.6,35.7,105.7,43.6L105.7,43.6
				L105.7,43.6z M105.7,43.6c-0.1-7.7-9.6-11.6-14.9-6c-3.2,3.2-3.2,8.8,0,12C96.1,55.2,105.8,51.3,105.7,43.6L105.7,43.6
				L105.7,43.6z"/>
			<path class="st0" d="M70.7,36.6c-0.3-8.6-0.3-21.1-0.4-29.8c0-0.2,0.2-0.4,0.3-0.4c8.6-1.6,25.9-4.8,34.5-6.4
				c0.3-0.1,0.5,0.2,0.5,0.4c0,13.4-0.2,26.8-0.4,40.2c-0.3-13.4-0.4-26.8-0.4-40.2l0.5,0.4c-8.6,1.6-25.9,4.8-34.5,6.3l0.3-0.4
				C71,15.6,70.9,28,70.7,36.6L70.7,36.6z"/>
			<path class="st0" d="M74.6,41.1c-0.1-4.7-0.2-9.4-0.3-14.2s-0.2-9.4-0.2-14.2c0-0.2,0.2-0.4,0.3-0.4c6.6-1.6,19.9-4.8,26.6-6.3
				c0.2-0.1,0.5,0.1,0.5,0.3c0,9.7-0.2,19.4-0.4,29.2c-0.3-9.7-0.4-19.4-0.4-29l0.6,0.4c-6.6,1.6-20,4.8-26.6,6.3l0.3-0.4
				C75,22.2,74.9,31.7,74.6,41.1L74.6,41.1L74.6,41.1z"/>
		</g>
		<g>
			<path class="st0" d="M28,24.9c2.4,11.6,4.2,23.4,5.3,35.2C30.8,48.5,29.1,36.7,28,24.9C28,24.9,28,24.9,28,24.9z"/>
			<path class="st0" d="M39.2,66.2c-2.4-12.3-4.6-24.6-6.8-36.9c-0.1-0.3,0.3-0.6,0.6-0.5c3.2,1.5,4.9,4.8,6.7,7.7l-0.5-0.2l2.9-0.4
				l-0.4,0.5c-0.9-7.4-6-12.5-13.7-11.5c3.4-0.8,7.2-0.1,9.9,2.1c2.8,2.2,4.1,5.8,4.7,9.3c0,0.3-0.1,0.5-0.4,0.5l-2.9,0.5
				c-0.2,0-0.4-0.1-0.5-0.2c-0.8-1.4-1.7-2.8-2.7-4.2c-0.9-1.2-2-2.6-3.4-3.2l0.6-0.5C35.4,41.5,37.4,53.9,39.2,66.2L39.2,66.2
				L39.2,66.2z"/>
			<path class="st0" d="M39.6,67.9c1.4,8.7-8.6,14.9-15.8,9.7c-4.6-3.1-5.6-10.1-2.2-14.4C27,56.2,38.3,59.2,39.6,67.9L39.6,67.9z
				 M39.6,67.9c-1.3-8.5-12.4-11.1-17.3-4.1c-3,4-2.1,10.2,2,13.2C31,82.2,40.9,76.4,39.6,67.9L39.6,67.9L39.6,67.9z"/>
		</g>
		<g>
			<g>
				<path class="st0" d="M50.3,61.4c3,0.3,5.9,1.2,8.5,2.8C55.8,63.9,53,63,50.3,61.4C50.3,61.4,50.3,61.4,50.3,61.4z"/>
				<path class="st0" d="M56,58.5c-0.3,3-1.2,5.9-2.8,8.5C53.5,64,54.4,61.2,56,58.5C56,58.5,56,58.5,56,58.5z"/>
			</g>
			<g>
				<path class="st0" d="M6.2,44c3,0.3,5.9,1.2,8.5,2.8C11.7,46.6,8.8,45.6,6.2,44C6.2,44,6.2,44,6.2,44z"/>
				<path class="st0" d="M11.8,41.2c-0.3,3-1.2,5.9-2.8,8.5C9.3,46.6,10.3,43.8,11.8,41.2C11.8,41.2,11.8,41.2,11.8,41.2z"/>
			</g>
			<g>
				<path class="st0" d="M0,20.8c4.3,0.7,8.5,2,12.4,4.1C8,24.2,3.9,22.8,0,20.8C0,20.8,0,20.8,0,20.8z"/>
				<path class="st0" d="M8.2,16.6C7.5,21,6.2,25.1,4.2,29C4.8,24.7,6.2,20.5,8.2,16.6L8.2,16.6z"/>
			</g>
			<g>
				<path class="st0" d="M110.3,64.8c3,0.3,5.9,1.2,8.5,2.8C115.8,67.4,113,66.4,110.3,64.8L110.3,64.8z"/>
				<path class="st0" d="M116,62c-0.3,3-1.2,5.9-2.8,8.5C113.5,67.4,114.4,64.6,116,62L116,62z"/>
			</g>
			<g>
				<path class="st0" d="M114.5,34.1c3,0.3,5.9,1.2,8.5,2.8C119.9,36.7,117.1,35.7,114.5,34.1L114.5,34.1z"/>
				<path class="st0" d="M120.1,31.3c-0.3,3-1.2,5.9-2.8,8.5C117.6,36.7,118.6,33.9,120.1,31.3L120.1,31.3z"/>
			</g>
			<g>
				<path class="st0" d="M48.4,22.8c4.3,0.7,8.5,2,12.4,4.1C56.5,26.2,52.3,24.8,48.4,22.8C48.4,22.8,48.4,22.8,48.4,22.8z"/>
				<path class="st0" d="M56.6,18.7c-0.7,4.3-2,8.5-4,12.4C53.3,26.7,54.6,22.6,56.6,18.7C56.6,18.7,56.6,18.7,56.6,18.7z"/>
			</g>
		</g>
	</g>
</g>
</svg>
