<?xml version="1.0" encoding="UTF-8"?>
<svg id="_Слой_2" data-name="Слой 2" xmlns="http://www.w3.org/2000/svg" viewBox="0 0 534.77 232.77">
  <defs>
    <style>
      .cls-1 {
        fill: #514d4b;
      }
    </style>
  </defs>
  <g id="Layer_1" data-name="Layer 1">
    <g>
      <g>
        <path class="cls-1" d="M118.39,109.15c-6.02,.41-11.4-.67-16.14-3.24-4.74-2.57-8.37-6.51-10.89-11.81-1.6-3.5-2.45-7.25-2.55-11.23-.1-3.99,.24-7.75,1.04-11.27,.8-3.53,2.15-7.99,4.05-13.4,1.8-5.46,2.01-9.03,.62-10.73-.62-.82-1.98-1.13-4.09-.93-4.12,5.46-9.45,11.66-15.98,18.61-10.04,10.66-22.06,17.99-36.06,22-5.04,1.39-9.68,2.03-13.9,1.93-10.14-.62-15.26-3.58-15.36-8.88,0-1.03,.28-1.03,.85,0,.21,.31,.36,.67,.46,1.08,.31,.93,.82,1.78,1.54,2.55,2.11,2.32,6.07,3.73,11.89,4.25,9.16,.41,18.68-2.81,28.57-9.65,5.71-3.81,11.44-8.61,17.18-14.4,5.74-5.79,10.67-11.62,14.79-17.49-2.01-.21-3.17-.41-3.47-.62-1.03-.51-1.54-1.21-1.54-2.08,0-.93,1.47-1.24,4.4-.93l2.7,.31,.46-.46,3.47-5.25,5.4-7.88c4.43-6.74,8.42-12.12,11.97-16.14,.41-.62,.96-1.3,1.66-2.05,.69-.75,1.25-1.32,1.66-1.74l.46-.69-5.79,1.78c-.41,.1-1.71,.39-3.9,.85-2.19,.46-3.85,.82-4.98,1.08-6.44,1.29-17,2.52-31.7,3.71-14.7,1.18-25.9,2.73-33.62,4.63-9.26,2.21-16.6,5.53-22,9.96-1.59,1.29-3.22,2.88-4.86,4.79-2.32,2.83-3.58,4.92-3.78,6.25v.69c-.21,.21-.36,.31-.46,.31-.31,0-.46-.21-.46-.62-.21-1.59,1.11-4.09,3.94-7.49,1.29-1.7,3.24-3.53,5.87-5.48,5.61-4.01,12.35-7.03,20.23-9.03,5.61-1.49,13.36-2.75,23.24-3.78,1.59-.1,5.44-.45,11.54-1.04s10.51-.94,13.24-1.04l6.02-.77c11.27-1.49,19.33-3.04,24.17-4.63,2.32-.72,3.77-1.24,4.36-1.54,.59-.31,1.53-1,2.82-2.08,3.81-2.73,6.18-4.3,7.1-4.71l1.7-.62c.62-.21,1.11-.26,1.47-.15,.82,0,1.13,.52,.93,1.54-.51,.82-1.31,1.62-2.39,2.39-.41,.21-1.2,.57-2.35,1.08-1.16,.52-1.89,.82-2.2,.93l-2.86,1.31c-.72,.41-2.42,1.93-5.1,4.56-1.49,1.7-3.32,4.2-5.48,7.49-1.91,2.73-5.43,8.47-10.58,17.22l-4.63,7.72,2.86,.77c1.18,.62,2.7,.46,4.56-.46,4.12-1.8,10.99-7.64,20.62-17.53,5.35-5.35,9.57-9.16,12.66-11.43,4.01-2.62,7.26-3.83,9.73-3.63,1.18,.21,1.93,.9,2.24,2.08,.1,.1,.1,.15,0,.15l-.46-.62c-.72-.93-2.08-1.24-4.09-.93-2.42,.51-4.84,2.08-7.26,4.71l-9.65,9.65c-6.54,6.54-10.91,10.6-13.13,12.2-2.52,2.01-5.43,3.83-8.72,5.48l-4.86,1.62c.41,.41,.67,1.03,.77,1.85,.72,1.39,.95,3.32,.7,5.79-.26,2.47-.54,4.41-.85,5.83-.31,1.42-.84,3.37-1.58,5.87-.75,2.5-1.27,4.41-1.58,5.75-2.01,9.93-1.49,18.07,1.54,24.4,3.04,6.54,8.42,10.42,16.14,11.66,5.71,1.03,11.63,.72,17.76-.93,11.07-3.6,19.87-8.24,26.41-13.9,2.62-2.42,3.73-4.27,3.32-5.56-.21-.41-.54-.62-1-.62-.93,0-1.03-.36-.31-1.08,.93-.72,1.57-.21,1.93,1.54,.1,.82-.1,1.88-.62,3.17-.62,.93-1.57,2.03-2.86,3.32-2.42,2.01-4.86,3.76-7.33,5.25l-6.1,3.47c-8.8,4.12-16.63,6.44-23.47,6.95Zm-35.21-63.78c.82,.21,1.44,.1,1.85-.31,.31-.21,.46-.44,.46-.69s-.16-.39-.46-.39l-.77-.15c-1.03-.31-1.98-.41-2.86-.31-.62,.1-.93,.36-.93,.77,.21,.41,.62,.72,1.24,.93,.36,.1,.85,.16,1.47,.16ZM116.99,6.54c4.22-1.9,6.64-3.06,7.26-3.47,.51-.31,1.11-.8,1.78-1.47,.1-.31,.05-.57-.15-.77-.41-.21-.85-.21-1.31,0l-1.39,.77c-1.8,1.18-3.45,2.45-4.94,3.78l-1.24,1.16Z"/>
        <path class="cls-1" d="M119.16,80.35c-1.6,.52-2.75,.31-3.47-.62-1.39-1.59-.7-4.25,2.08-7.95l1.62-1.7c-5.15,2.93-8.26,3.83-9.34,2.7-.62-.62-.51-1.72,.31-3.32,.41-.72,2.19-2.68,5.33-5.87,.1-.1,.3-.31,.58-.62,.28-.31,.5-.58,.66-.81s.39-.4,.69-.5c.31-.1,.57-.1,.77,0,.93,.41,.88,1.31-.15,2.7-.41,.41-1.33,1.29-2.74,2.62-1.42,1.34-2.57,2.51-3.47,3.51-.9,1-1.25,1.66-1.04,1.97,.41,.72,2.32,.18,5.71-1.62,1.9-.93,4.12-2.5,6.64-4.71,1.7-1.49,2.91-1.98,3.63-1.47,.31,.31,.05,.9-.77,1.78l-3.32,3.32c-3.4,3.04-5.46,5.76-6.18,8.18-.31,1.29,.15,1.93,1.39,1.93,2.42,0,8.96-4.68,19.61-14.05,2.01-1.8,3.17-2.65,3.47-2.55,.31,.1,.18,.44-.39,1s-2.55,2.29-5.95,5.17c-7.52,6.44-12.74,10.06-15.67,10.89Z"/>
        <path class="cls-1" d="M89.97,108.84c-1.03,0-1.57-.33-1.62-1v-.15l.15-.15,.15,.15c.41,.31,1.16,.49,2.24,.54,7.93-.62,15.78-5.12,23.55-13.51,3.6-3.91,10.14-12.53,19.61-25.87,2.83-4.12,5.74-7.44,8.72-9.96,4.53-3.71,8.31-5.71,11.35-6.02,1.29-.21,2.44-.31,3.47-.31,.72,0,1.05,0,1,0s-.59,.1-1.62,.31c-.21,.1-.41,.15-.62,.15-3.81,.72-7.13,2.29-9.96,4.71-.41,.31-1.09,.94-2.05,1.89s-1.81,1.87-2.59,2.74l-1.08,1.24,3.17-2.24c7.72-4.84,12.1-6.41,13.13-4.71,1.39,2.11-.77,5.12-6.49,9.03-3.14,2.32-5.15,4.48-6.02,6.49-.93,2.52-.18,3.68,2.24,3.47,4.12-.41,9.91-3.42,17.37-9.03,.93-.72,1.88-1.47,2.86-2.24,.21-.1,.49-.33,.85-.69,.36-.36,.67-.59,.93-.7,.31-.31,.46-.21,.46,.31,0,.21-.28,.57-.85,1.08-5.71,5.04-11.81,8.8-18.3,11.27-2.42,.93-4.38,1.13-5.87,.62-1.49-.51-2.01-1.78-1.54-3.78,.62-2.93,3.14-5.89,7.57-8.88,1.7-1.18,3.23-2.48,4.59-3.9,1.36-1.42,1.89-2.38,1.58-2.9-.72-1.18-4.43,.33-11.12,4.56-1.6,1.03-3.32,2.52-5.17,4.48-.72,.72-2.43,2.82-5.13,6.29-2.7,3.47-5.58,7.27-8.65,11.39-3.06,4.12-5.06,6.74-5.98,7.88-3.91,4.32-7.35,7.64-10.31,9.96-2.96,2.32-6.65,4.22-11.08,5.71-3.24,1.18-6.23,1.78-8.96,1.78Z"/>
        <path class="cls-1" d="M171.74,80.35c-1.6,.52-2.75,.31-3.47-.62-1.39-1.59-.7-4.25,2.08-7.95l1.62-1.7c-5.15,2.93-8.26,3.83-9.34,2.7-.62-.62-.51-1.72,.31-3.32,.41-.72,2.19-2.68,5.33-5.87,.1-.1,.3-.31,.58-.62,.28-.31,.5-.58,.66-.81s.39-.4,.69-.5c.31-.1,.57-.1,.77,0,.93,.41,.88,1.31-.15,2.7-.41,.41-1.33,1.29-2.74,2.62-1.42,1.34-2.57,2.51-3.47,3.51-.9,1-1.25,1.66-1.04,1.97,.41,.72,2.32,.18,5.71-1.62,1.9-.93,4.12-2.5,6.64-4.71,1.7-1.49,2.91-1.98,3.63-1.47,.31,.31,.05,.9-.77,1.78l-3.32,3.32c-3.4,3.04-5.46,5.76-6.18,8.18-.31,1.29,.15,1.93,1.39,1.93,2.42,0,8.96-4.68,19.61-14.05,2.01-1.8,3.17-2.65,3.47-2.55,.31,.1,.18,.44-.39,1s-2.55,2.29-5.95,5.17c-7.52,6.44-12.74,10.06-15.67,10.89Z"/>
        <path class="cls-1" d="M202.47,76.1c-1.7-1.18-1.83-2.98-.39-5.41l.15-.31c.72-1.29,1.59-2.51,2.62-3.67,1.03-1.16,2.28-2.44,3.75-3.86,1.47-1.42,2.66-2.64,3.59-3.67-.82,.51-2.7,1.88-5.64,4.09l-3.17,2.39c-7.57,5.46-12.33,8.44-14.28,8.96-1.49,.41-2.42,0-2.78-1.24-.62-2.01,.54-4.48,3.47-7.41,2.01-2.11,3.37-3.11,4.09-3.01,1.03,.21,.88,.93-.46,2.16-1.29,1.18-2.08,1.93-2.39,2.24-2.32,2.32-3.47,4.32-3.47,6.02,0,.72,.85,.69,2.55-.08,1.7-.77,3.32-1.75,4.86-2.93,7.46-5.15,12.74-8.98,15.83-11.5,.51-.51,.77-.95,.77-1.31,0-.41,.49-.46,1.47-.16,.62,.41,1.18,.62,1.7,.62,.93,0,.67,.75-.77,2.24-.21,.21-.52,.51-.93,.93-4.74,4.94-7.8,8.6-9.19,10.96-1.03,1.6-1.18,2.7-.46,3.32,1.18,1.03,3.75,.26,7.68-2.32,3.94-2.57,7.42-5.4,10.46-8.49l1.47-1.39c.31-.31,.57-.31,.77,0,.1,.21,.05,.41-.15,.62l-3.17,3.01c-4.01,3.81-8.18,6.77-12.51,8.88-2.47,1.03-4.3,1.13-5.48,.31Z"/>
        <path class="cls-1" d="M232.35,76.1c-1.7-1.18-1.83-2.98-.39-5.41l.15-.31c.72-1.29,1.59-2.51,2.62-3.67,1.03-1.16,2.28-2.44,3.75-3.86,1.47-1.42,2.66-2.64,3.59-3.67-.82,.51-2.7,1.88-5.64,4.09l-3.17,2.39c-7.57,5.46-12.33,8.44-14.28,8.96-1.49,.41-2.42,0-2.78-1.24-.62-2.01,.54-4.48,3.47-7.41,2.01-2.11,3.37-3.11,4.09-3.01,1.03,.21,.88,.93-.46,2.16-1.29,1.18-2.08,1.93-2.39,2.24-2.32,2.32-3.47,4.32-3.47,6.02,0,.72,.85,.69,2.55-.08,1.7-.77,3.32-1.75,4.86-2.93,7.46-5.15,12.74-8.98,15.83-11.5,.51-.51,.77-.95,.77-1.31,0-.41,.49-.46,1.47-.16,.62,.41,1.18,.62,1.7,.62,.93,0,.67,.75-.77,2.24-.21,.21-.52,.51-.93,.93-4.74,4.94-7.8,8.6-9.19,10.96-1.03,1.6-1.18,2.7-.46,3.32,1.18,1.03,3.75,.26,7.68-2.32,3.94-2.57,7.42-5.4,10.46-8.49l1.47-1.39c.31-.31,.57-.31,.77,0,.1,.21,.05,.41-.15,.62l-3.17,3.01c-4.01,3.81-8.18,6.77-12.51,8.88-2.47,1.03-4.3,1.13-5.48,.31Z"/>
        <path class="cls-1" d="M280.76,80.35c-1.6,.52-2.75,.31-3.47-.62-1.39-1.59-.7-4.25,2.08-7.95l1.62-1.7c-5.15,2.93-8.26,3.83-9.34,2.7-.62-.62-.51-1.72,.31-3.32,.41-.72,2.19-2.68,5.33-5.87,.1-.1,.3-.31,.58-.62,.28-.31,.5-.58,.66-.81s.39-.4,.69-.5c.31-.1,.57-.1,.77,0,.93,.41,.88,1.31-.15,2.7-.41,.41-1.33,1.29-2.74,2.62-1.42,1.34-2.57,2.51-3.47,3.51-.9,1-1.25,1.66-1.04,1.97,.41,.72,2.32,.18,5.71-1.62,1.9-.93,4.12-2.5,6.64-4.71,1.7-1.49,2.91-1.98,3.63-1.47,.31,.31,.05,.9-.77,1.78l-3.32,3.32c-3.4,3.04-5.46,5.76-6.18,8.18-.31,1.29,.15,1.93,1.39,1.93,2.42,0,8.96-4.68,19.61-14.05,2.01-1.8,3.17-2.65,3.47-2.55,.31,.1,.18,.44-.39,1s-2.55,2.29-5.95,5.17c-7.52,6.44-12.74,10.06-15.67,10.89Z"/>
      </g>
      <g>
        <path class="cls-1" d="M310.7,189.77c-7.05,1.49-13.18,.54-18.38-2.86-5.61-3.81-8.52-9.93-8.72-18.38-.1-5.71,1.43-11.35,4.59-16.91,3.17-5.56,8.07-12.25,14.71-20.07l-3.78-2.7-3.94-2.55c-1.7,.82-4.66,2.63-8.88,5.41l-1.85,1.24c-6.33,4.01-13.25,8.13-20.77,12.35-17.5,9.68-26.97,14.85-28.41,15.52-5.61,2.42-10.09,3.37-13.44,2.86-1.03-.1-1.78-.69-2.24-1.78-.21-.62-.05-.93,.46-.93,.31,0,.7,.21,1.16,.62,.93,.93,2.91,1.03,5.95,.31,2.93-.51,5.59-1.36,7.95-2.55,18.63-9.47,37.19-20.05,55.67-31.73l3.32-2.08c-9.78-6.54-17.22-11.17-22.31-13.9-11.99-6.23-25.33-8.9-40-8.03-13.28,.62-25.09,4.25-35.44,10.89-3.5,2.32-5.82,4.27-6.95,5.87-.72,1.03-1.22,2-1.51,2.9-.28,.9-.4,1.61-.35,2.12,.05,.51,.17,1.02,.35,1.5,.18,.49,.35,.86,.5,1.12,.15,.26,.15,.46,0,.62s-.46,.28-.93,.39c-.41,.1-.72-.21-.93-.93-.82-2.11-.62-4.38,.62-6.79,1.18-2.11,3.35-4.27,6.49-6.49,6.74-4.63,14.49-7.98,23.24-10.04,8.75-2.06,17.5-2.78,26.25-2.16,9.06,.62,18.12,2.93,27.18,6.95,2.42,1.18,4.93,2.56,7.53,4.13,2.6,1.57,5.38,3.39,8.34,5.44,2.96,2.06,5.31,3.63,7.06,4.71l1.78,1.08c7.46-5.15,17.37-12.2,29.73-21.16,5.46-4.12,10.29-7.39,14.52-9.81,7.36-4.53,11.48-6.33,12.35-5.41,.1,.1,.15,.23,.15,.39s-.05,.33-.15,.54c-.1,.21-.21,.39-.31,.54-.1,.15-.31,.37-.62,.66-.31,.28-.61,.55-.89,.81-.28,.26-.66,.59-1.12,1-.46,.41-.85,.77-1.16,1.08-1.8,1.7-5.52,5.01-11.16,9.92-5.64,4.92-10.99,9.74-16.06,14.48-5.07,4.74-9.59,9.42-13.55,14.05,1.49,1.29,3.96,2.7,7.41,4.25,8.96,4.22,17.17,6.38,24.63,6.49,3.24,0,5.89-.41,7.95-1.24,1.18-.51,1.8-.67,1.85-.46,.21,.62-.26,1.08-1.39,1.39-7.57,2.52-17.32,1.42-29.26-3.32l-12.04-6.18c-13.08,14.46-19.72,26.66-19.92,36.6-.21,7.16,2.11,12.51,6.95,16.06,5.04,3.91,11.48,4.81,19.3,2.7,5.46-1.49,11.68-4.43,18.68-8.8,2.83-1.7,4.4-3.24,4.71-4.63v-.46c.21-.31,.48-.41,.81-.31,.33,.1,.5,.36,.5,.77,0,.82-.44,1.57-1.31,2.24-1.49,1.49-4.01,3.27-7.57,5.33-6.74,4.07-12.54,6.51-17.37,7.33Zm-6.64-59.3c5.71-6.12,11.01-11.35,15.91-15.67,4.89-4.32,14.49-12.33,28.8-24.01,1.29-1.03,1.67-1.52,1.16-1.47-.52,.1-1.52,.54-3.01,1.31-4.84,2.73-9.69,5.75-14.55,9.07s-10.41,7.27-16.64,11.85c-6.23,4.58-11.22,8.18-14.98,10.81l-4.48,3.17,3.01,1.93,4.79,3.01Z"/>
        <path class="cls-1" d="M319.89,166.99c-1.7-1.18-1.83-2.98-.39-5.41l.15-.31c.72-1.29,1.59-2.51,2.62-3.67,1.03-1.16,2.28-2.44,3.75-3.86,1.47-1.42,2.66-2.64,3.59-3.67-.82,.51-2.7,1.88-5.64,4.09l-3.17,2.39c-7.57,5.46-12.33,8.44-14.28,8.96-1.49,.41-2.42,0-2.78-1.24-.62-2.01,.54-4.48,3.47-7.41,2.01-2.11,3.37-3.11,4.09-3.01,1.03,.21,.88,.93-.46,2.16-1.29,1.18-2.08,1.93-2.39,2.24-2.32,2.32-3.47,4.32-3.47,6.02,0,.72,.85,.69,2.55-.08,1.7-.77,3.32-1.75,4.86-2.93,7.46-5.15,12.74-8.98,15.83-11.5,.51-.51,.77-.95,.77-1.31,0-.41,.49-.46,1.47-.16,.62,.41,1.18,.62,1.7,.62,.93,0,.67,.75-.77,2.24-.21,.21-.52,.51-.93,.93-4.74,4.94-7.8,8.6-9.19,10.96-1.03,1.6-1.18,2.7-.46,3.32,1.18,1.03,3.75,.26,7.68-2.32,3.94-2.57,7.42-5.4,10.46-8.49l1.47-1.39c.31-.31,.57-.31,.77,0,.1,.21,.05,.41-.15,.62l-3.17,3.01c-4.01,3.81-8.18,6.77-12.51,8.88-2.47,1.03-4.3,1.13-5.48,.31Z"/>
        <path class="cls-1" d="M340.74,166.68c-3.14,1.18-5.25,.9-6.33-.85-.72-.82-.98-1.98-.77-3.47,.21-1.18,1.11-2.75,2.7-4.71l1.24-1.47c1.39-1.59,2.7-2.86,3.94-3.78,3.04-2.42,5.25-3.47,6.64-3.17,1.03,.41,1.36,1.31,1,2.7-.36,1.39-1.16,2.65-2.39,3.78-2.93,2.52-5.84,3.73-8.72,3.63-.21,0-.63,.5-1.27,1.5-.64,1-1.02,1.84-1.12,2.51-.31,2.01,.13,3.06,1.31,3.17,2.32,.21,6.38-1.75,12.2-5.87,2.62-1.9,5.25-4.02,7.88-6.33,.62-.51,1.03-.62,1.24-.31,0,.21-.36,.67-1.08,1.39-1.18,1.03-3.4,2.78-6.64,5.25-.93,.72-2.59,1.83-4.98,3.32-2.39,1.49-4,2.39-4.83,2.7Zm-2.24-7.95c1.39,.1,2.78-.21,4.17-.93,3.71-2.21,5.69-4.32,5.95-6.33,.1-.51-.1-.77-.62-.77-.72,.21-1.91,.89-3.55,2.05-1.65,1.16-2.88,2.25-3.71,3.28l-2.24,2.7Z"/>
        <path class="cls-1" d="M361.89,173.17c-2.01,.62-3.42,.18-4.25-1.31-.93-1.29-.93-3.17,0-5.64,.62-1.39,1.67-3.24,3.17-5.56,1.7-2.73,2.11-4.14,1.24-4.25-.82,0-2.46,1.13-4.9,3.4-2.45,2.27-4.08,4.12-4.9,5.56-.21,.31-.46,.64-.77,1-1.03,.31-1.24-.39-.62-2.08,1.03-3.04,3.6-7.21,7.72-12.51,2.01-2.52,3.47-3.78,4.4-3.78,1.18,.1,1.52,.62,1,1.54-.21,.31-.8,1.06-1.78,2.24-.62,.82-1.13,1.52-1.54,2.08-1.29,1.8-1.88,2.75-1.78,2.86,0,.1,.32-.12,.97-.66,.64-.54,1.32-1.12,2.05-1.74l2.24-1.78c3.14-2.62,6.34-4.8,9.61-6.52,3.27-1.72,5.11-1.71,5.52,.04,.41,1.6-.1,3.14-1.54,4.63-.21,.21-.49,.31-.85,.31-.62,0-.72-.21-.31-.62,2.11-2.11,2.6-3.6,1.47-4.48-1.49-.82-5.46,1.29-11.89,6.33-.72,.51-1.43,1.07-2.12,1.66-.69,.59-1.2,1.02-1.51,1.27-.31,.26-.51,.39-.62,.39,1.18-.51,1.93-.36,2.24,.46,.31,.51-.59,2.57-2.7,6.18-4.22,7.16-4.56,10.53-1,10.11h.54c1.9-.21,4.27-1.21,7.1-3.01,5.25-3.5,11.3-8.49,18.14-14.98,.72-.72,1.11-.77,1.16-.15,0,.21-.39,.67-1.16,1.39-5.61,5.15-9.14,8.26-10.58,9.34-5.56,4.48-10.14,7.23-13.74,8.26Z"/>
        <path class="cls-1" d="M387.14,166.52c-3.4,1.19-5.56,.75-6.49-1.31-.31-.82-.36-2.03-.15-3.63,.31-1.39,1.06-2.86,2.24-4.4,1.7-2.32,3.58-4.17,5.64-5.56,2.11-1.18,3.86-1.75,5.25-1.7,1.49,0,2.37,.41,2.62,1.24,.26,.82-.13,1.88-1.16,3.17-.82,1.03-1.6,1.84-2.32,2.43-.72,.59-1.21,.86-1.47,.81-.26-.05-.44-.13-.54-.23,1.49-.93,2.71-2.03,3.67-3.32,.95-1.29,1.32-2.13,1.12-2.55-.72-1.7-2.93-.9-6.64,2.39-1.18,.93-2.68,2.55-4.48,4.86-2.21,3.14-2.98,5.46-2.32,6.95,.52,1.29,1.83,1.47,3.94,.54,4.02-1.59,8.24-4.19,12.66-7.8,.51-.41,2.08-1.78,4.71-4.09,.41-.41,.72-.41,.93,0,0,.21-.15,.46-.46,.77-6.33,5.71-11.92,9.52-16.75,11.43Z"/>
        <path class="cls-1" d="M409.3,170.77c-2.32,.72-3.78,.36-4.4-1.08-.41-1.49-.44-3-.08-4.52,.36-1.52,.88-2.71,1.54-3.59-1.8,1.29-3.04,2.03-3.71,2.24-1.49,.62-2.65,.77-3.47,.46-.82-.31-1.21-1.04-1.16-2.2,.05-1.16,.44-2.38,1.16-3.67,1.9-2.93,4.76-5.2,8.57-6.79,3.4-1.49,5.35-1.34,5.87,.46,.41,1.18,.15,2.34-.77,3.47-.31,.62-.44,1.11-.39,1.47,.1,.41-.26,1.13-1.08,2.16-.31,.31-.73,.79-1.27,1.43-.54,.64-1.02,1.24-1.43,1.78-.41,.54-.77,1.07-1.08,1.58-2.01,4.12-2.16,6.23-.46,6.33,1.39,.21,4.35-1.39,8.88-4.79,2.93-2.21,6.36-5.25,10.27-9.11l2.01-2.08c.72-.51,1.11-.51,1.16,0,0,.1-.33,.46-1,1.08l-6.02,5.71c-2.11,2.01-4.14,3.76-6.1,5.25-2.99,2.42-5.33,3.89-7.03,4.4Zm-9.42-7.41c.1,.31,.98,.21,2.62-.31,.21-.1,1.11-.7,2.7-1.78,.1-.1,1.16-1,3.17-2.7,.21-.21,.76-.66,1.66-1.35,.9-.69,1.51-1.3,1.81-1.81,1.39-1.8,1.54-3.01,.46-3.63-.41-.41-1.57-.05-3.47,1.08-2.11,1.18-4.23,3-6.37,5.44-2.14,2.45-3,4.13-2.59,5.06Z"/>
        <path class="cls-1" d="M435.01,169.69c-1.6-.1-2.29-1.16-2.08-3.17,.31-2.52,1.57-5.12,3.78-7.8l1.93-2.32-1.7,.15c-.72,.1-1.91,.15-3.55,.15-.72,0-1.26,.1-1.62,.31-.36,.21-1.03,.88-2.01,2.01-1.29,1.7-1.85,2.75-1.7,3.17,0,.51-.21,.8-.62,.85-1.8,0-1.9-1.54-.31-4.63,.62-1.29,2.26-3.17,4.94-5.64,2.68-2.47,4.66-3.96,5.95-4.48,.62-.21,1.31-.21,2.08,0,.72,.31,.33,1-1.16,2.08-1.29,.82-2.5,1.83-3.63,3.01-1.29,1.29-1.84,2.05-1.66,2.28,.18,.23,1.14,.3,2.9,.19,1.7-.21,3.14-.82,4.32-1.85,1.7-1.29,2.91-1.67,3.63-1.16,.41,.1,.51,.39,.31,.85-.31,.51-1.62,1.93-3.94,4.25-2.93,2.93-4.63,4.74-5.1,5.41-1.49,2.52-1.96,4.14-1.39,4.86,.72,.93,2.29,.77,4.71-.46,2.62-1.39,6.59-4.19,11.89-8.42l6.02-5.02c.62-.62,.93-.62,.93,0,0,.21-.21,.52-.62,.93-9.06,7.57-15.34,12.1-18.84,13.59-1.29,.57-2.45,.85-3.47,.85Z"/>
        <path class="cls-1" d="M479.25,154.94c1.03-1.03,1.57-1.18,1.62-.46,0,.31-.54,.88-1.62,1.7-8.85,7.05-13.92,11.02-15.21,11.89l-5.79,3.78c-2.21,1.6-4.17,3.66-5.87,6.18-7.46,11.69-14,20.92-19.61,27.72-15.39,18.01-24.5,27.02-27.33,27.02-.93,0-1.71-.42-2.35-1.27-.64-.85-.91-1.74-.81-2.66,.31-3.5,3.36-8.87,9.15-16.1,5.79-7.23,12.21-14.27,19.26-21.12,2.11-2.11,5.35-4.83,9.73-8.15,4.38-3.32,7.31-5.6,8.8-6.83,.93-.82,2.5-2.78,4.71-5.87,4.94-7.05,8.21-11.32,9.81-12.82l-3.47,2.7c-6.95,5.82-10.99,8.88-12.12,9.19-.93,.31-1.78,.21-2.55-.31-1.49-.82-1.44-2.62,.15-5.41,3.6-6.02,8.18-10.14,13.74-12.35,3.91-1.49,5.87-.54,5.87,2.86,0,.21,.08,.46,.23,.77,.15,.31,.23,.57,.23,.77,.21,1.03-1.65,4.3-5.56,9.81-.21,.41-.67,1.13-1.39,2.16-.72,1.03-1.35,1.93-1.89,2.7-.54,.77-.86,1.21-.96,1.31,6.84-4.43,11.01-7.21,12.51-8.34,6.33-5.2,9.91-8.16,10.73-8.88Zm-33.35,27.33c1.8-2.52,2.55-3.68,2.24-3.47-1.8,1.49-4.26,3.42-7.37,5.79-3.11,2.37-5.88,4.66-8.3,6.87-2.42,2.21-5.53,5.28-9.34,9.19-5.46,5.61-9.47,10.24-12.04,13.9-3.91,5.46-6.38,9.68-7.41,12.66-.82,2.32-.46,3.63,1.08,3.94,1.03,.21,3.53-1.62,7.49-5.48,9.47-9.47,19.38-21.98,29.73-37.52,2.21-3.29,3.53-5.25,3.94-5.87Zm13.43-21.77c2.73-2.21,4.3-3.81,4.71-4.79,.62-1.49,.46-2.44-.46-2.86-3.5-1.39-8.7,2.62-15.6,12.04-.51,.72-.96,1.48-1.35,2.28-.39,.8-.37,1.46,.04,1.97,.31,.1,.61,.13,.89,.08,.28-.05,.66-.21,1.12-.46,.46-.26,.88-.51,1.24-.77,.36-.26,.91-.68,1.66-1.27,.75-.59,1.44-1.14,2.08-1.66,.64-.51,1.52-1.22,2.63-2.12,1.11-.9,2.12-1.71,3.05-2.43Z"/>
        <path class="cls-1" d="M430.38,199.73c-1.03,0-1.57-.33-1.62-1v-.15l.15-.15,.15,.15c.41,.31,1.16,.49,2.24,.54,7.93-.62,15.78-5.12,23.55-13.51,3.6-3.91,10.14-12.53,19.61-25.87,2.83-4.12,5.74-7.44,8.72-9.96,4.53-3.71,8.31-5.71,11.35-6.02,1.29-.21,2.44-.31,3.47-.31,.72,0,1.05,0,1,0s-.59,.1-1.62,.31c-.21,.1-.41,.15-.62,.15-3.81,.72-7.13,2.29-9.96,4.71-.41,.31-1.09,.94-2.05,1.89s-1.81,1.87-2.59,2.74l-1.08,1.24,3.17-2.24c7.72-4.84,12.1-6.41,13.13-4.71,1.39,2.11-.77,5.12-6.49,9.03-3.14,2.32-5.15,4.48-6.02,6.49-.93,2.52-.18,3.68,2.24,3.47,4.12-.41,9.91-3.42,17.37-9.03,.93-.72,1.88-1.47,2.86-2.24,.21-.1,.49-.33,.85-.69,.36-.36,.67-.59,.93-.7,.31-.31,.46-.21,.46,.31,0,.21-.28,.57-.85,1.08-5.71,5.04-11.81,8.8-18.3,11.27-2.42,.93-4.38,1.13-5.87,.62-1.49-.51-2.01-1.78-1.54-3.78,.62-2.93,3.14-5.89,7.57-8.88,1.7-1.18,3.23-2.48,4.59-3.9,1.36-1.42,1.89-2.38,1.58-2.9-.72-1.18-4.43,.33-11.12,4.56-1.6,1.03-3.32,2.52-5.17,4.48-.72,.72-2.43,2.82-5.13,6.29-2.7,3.47-5.58,7.27-8.65,11.39-3.06,4.12-5.06,6.74-5.98,7.88-3.91,4.32-7.35,7.64-10.31,9.96-2.96,2.32-6.65,4.22-11.08,5.71-3.24,1.18-6.23,1.78-8.96,1.78Z"/>
        <path class="cls-1" d="M514.62,170.77c-2.32,.72-3.78,.36-4.4-1.08-.41-1.49-.44-3-.08-4.52,.36-1.52,.88-2.71,1.54-3.59-1.8,1.29-3.04,2.03-3.71,2.24-1.49,.62-2.65,.77-3.47,.46-.82-.31-1.21-1.04-1.16-2.2,.05-1.16,.44-2.38,1.16-3.67,1.9-2.93,4.76-5.2,8.57-6.79,3.4-1.49,5.35-1.34,5.87,.46,.41,1.18,.15,2.34-.77,3.47-.31,.62-.44,1.11-.39,1.47,.1,.41-.26,1.13-1.08,2.16-.31,.31-.73,.79-1.27,1.43-.54,.64-1.02,1.24-1.43,1.78-.41,.54-.77,1.07-1.08,1.58-2.01,4.12-2.16,6.23-.46,6.33,1.39,.21,4.35-1.39,8.88-4.79,2.93-2.21,6.36-5.25,10.27-9.11l2.01-2.08c.72-.51,1.11-.51,1.16,0,0,.1-.33,.46-1,1.08l-6.02,5.71c-2.11,2.01-4.14,3.76-6.1,5.25-2.99,2.42-5.33,3.89-7.03,4.4Zm-9.42-7.41c.1,.31,.98,.21,2.62-.31,.21-.1,1.11-.7,2.7-1.78,.1-.1,1.16-1,3.17-2.7,.21-.21,.76-.66,1.66-1.35,.9-.69,1.51-1.3,1.81-1.81,1.39-1.8,1.54-3.01,.46-3.63-.41-.41-1.57-.05-3.47,1.08-2.11,1.18-4.23,3-6.37,5.44-2.14,2.45-3,4.13-2.59,5.06Z"/>
      </g>
    </g>
  </g>
</svg>