<?xml version="1.0" encoding="UTF-8"?>
<svg id="_Слой_2" data-name="Слой 2" xmlns="http://www.w3.org/2000/svg" viewBox="0 0 381.48 82.98">
  <defs>
    <style>
      .cls-1 {
        fill: #514d4b;
      }
    </style>
  </defs>
  <g id="Layer_1" data-name="Layer 1">
    <g>
      <path class="cls-1" d="M.05,52.85c-.24-.69,.32-1.24,1.66-1.66,2.7-.75,5.95-.87,9.76-.36,.12,.06,.24,.09,.36,.09l1.57,.27c.81-.06,2.89-1.14,6.25-3.24l1.39-.9c-1.89-.54-3.55-1.27-4.99-2.2-2.22-1.41-3.81-3.04-4.77-4.9-1.29-2.82-1.75-5.75-1.39-8.79s1.36-5.94,3.01-8.7c3.06-4.98,8.18-9.77,15.38-14.37C35.49,3.47,41.93,.84,47.59,.18c5.97-.75,9.67,.81,11.11,4.68l.41,1.3,2.65-1.66c2.52-1.65,4.57-2.73,6.16-3.24,2.64-.87,4.75-1.02,6.34-.45h-1.17c-2.76-.06-5.53,.73-8.32,2.38-2.46,1.41-4.26,2.67-5.4,3.78,.93,5.46,.34,10.87-1.75,16.24-1.41,3.57-3.97,7.71-7.69,12.44-3.72,4.72-7.21,8.43-10.48,11.13,1.77-.12,3.43-.4,4.99-.85,4.98-1.05,9.37-2.85,13.18-5.4,.93-.6,1.69-1.15,2.29-1.66,.6-.51,1-.82,1.21-.94l.27-.27c.3-.06,.48,0,.54,.18-4.11,3.75-9.05,6.42-14.84,8-3.12,.69-5.05,1.09-5.8,1.21l-2.47,.36-1.21,.76c-4.17,2.4-7.79,3.84-10.86,4.32-3.07,.48-7.13,.3-12.17-.54l-.99-.09c-3.27,.99-6.25,1.59-8.95,1.8s-4.23-.06-4.59-.81Zm3.87,.36c2.16-.12,4.92-.61,8.28-1.48,.48-.12,.69-.21,.63-.27-1.47-.24-3.21-.36-5.22-.36-3.81-.12-6.15,.25-7.02,1.12-.36,.42-.09,.72,.81,.9,.63,.12,1.47,.15,2.52,.09Zm17.67-6.61c.54-.3,1.56-1.14,3.06-2.52,3.81-3.51,6.69-6.48,8.66-8.93s3.82-5.06,5.55-7.85c1.74-2.79,3.57-5.35,5.49-7.69,3.99-5.1,8.74-9.49,14.26-13.18-.6-3.57-3.15-5.53-7.65-5.89-3.45-.12-7.81,1.08-13.09,3.6s-10.23,5.68-14.86,9.49c-4.63,3.81-7.86,7.42-9.69,10.84-1.77,3.18-2.62,6.57-2.54,10.16,.07,3.6,1.19,6.3,3.35,8.1,1.11,.93,2.28,1.71,3.51,2.34,1.23,.63,2.2,1.05,2.92,1.26l1.03,.27Zm15.47,1.08c-5.34,.42-9.05,.51-11.15,.27l-3.96-.63c-2.34,1.59-4.63,2.91-6.88,3.96l-.76,.18c5.1,.81,9.26,.95,12.48,.43,3.22-.52,6.65-1.93,10.28-4.21Zm-3.78-.18l4.72-.54c.6-.36,1.11-.73,1.53-1.12,4.41-3.93,8.5-8.53,12.28-13.81,5.22-7.38,7.71-14.62,7.47-21.72l-.4-2.97c-.81,.48-1.48,.94-2.02,1.39-1.77,1.35-3.43,2.89-4.99,4.61-1.56,1.72-2.8,3.2-3.73,4.43-.93,1.23-2.39,3.3-4.39,6.21-1.99,2.91-3.67,5.29-5.01,7.15-1.83,2.46-4.29,5.23-7.4,8.32-3.1,3.09-5.97,5.56-8.61,7.42,3.42,.72,6.94,.93,10.57,.63Z"/>
      <path class="cls-1" d="M70.48,36.84c.24-.18,.36-.18,.36,0s-.06,.33-.18,.45c-.69,.54-1.2,.9-1.53,1.08-1.35,.75-2.8,.83-4.36,.23-.36,.69-.72,1.27-1.08,1.75-.54,.75-1.35,1.6-2.43,2.56-1.29,.87-2.17,1.3-2.65,1.3-.81,.12-1.3-.19-1.48-.94-.12-.87,.58-2.17,2.09-3.91s2.63-2.61,3.35-2.61c.24,0,.42,.15,.54,.45-.06-.12-.09-.33-.09-.63,0-.42,.14-.79,.41-1.12,.42-.6,.87-.75,1.35-.45,.6,.42,.63,1.46,.09,3.1,.99,.42,1.98,.51,2.97,.27,.72-.09,1.6-.6,2.65-1.53Zm-9.76,5.89c1.35-1.05,2.52-2.5,3.51-4.36l-.45-.27c-.24-.12-.43-.3-.58-.54l-.9,.63c-.69,.48-1.39,1.12-2.11,1.93-1.98,2.46-2.5,3.69-1.57,3.69,.06-.06,.15-.09,.27-.09,.48-.06,1.1-.39,1.84-.99Zm3.69-4.81c.06-.06,.1-.15,.13-.27,.03-.12,.06-.23,.09-.32s.06-.21,.09-.36c.03-.15,.04-.31,.04-.47v-.47c0-.15-.03-.29-.09-.41-.12-.48-.36-.51-.72-.09-.18,.12-.3,.3-.36,.54-.12,.6-.06,1.06,.18,1.39,.18,.18,.33,.3,.45,.36l.18,.09Z"/>
      <path class="cls-1" d="M40.85,63.73c-.6,0-.91-.2-.94-.58v-.09l.09-.09,.09,.09c.24,.18,.67,.29,1.3,.31,4.62-.36,9.19-2.98,13.72-7.87,2.1-2.28,5.91-7.3,11.42-15.07,1.65-2.4,3.34-4.33,5.08-5.8,2.64-2.16,4.84-3.33,6.61-3.51,.75-.12,1.42-.18,2.02-.18,.42,0,.61,0,.58,0s-.35,.06-.94,.18c-.12,.06-.24,.09-.36,.09-2.22,.42-4.15,1.33-5.8,2.74-.24,.18-.64,.55-1.19,1.1-.56,.56-1.06,1.09-1.51,1.6l-.63,.72,1.84-1.3c4.5-2.82,7.04-3.73,7.65-2.74,.81,1.23-.45,2.98-3.78,5.26-1.83,1.35-3,2.61-3.51,3.78-.54,1.47-.11,2.14,1.3,2.02,2.4-.24,5.77-1.99,10.12-5.26,.54-.42,1.09-.85,1.66-1.3,.12-.06,.28-.2,.49-.41,.21-.21,.39-.34,.54-.4,.18-.18,.27-.12,.27,.18,0,.12-.17,.33-.49,.63-3.33,2.94-6.88,5.13-10.66,6.57-1.41,.54-2.55,.66-3.42,.36-.87-.3-1.17-1.03-.9-2.2,.36-1.71,1.83-3.43,4.41-5.17,.99-.69,1.88-1.45,2.68-2.27,.79-.83,1.1-1.39,.92-1.69-.42-.69-2.58,.2-6.48,2.65-.93,.6-1.93,1.47-3.01,2.61-.42,.42-1.42,1.64-2.99,3.67-1.57,2.02-3.25,4.24-5.04,6.63-1.78,2.4-2.95,3.93-3.49,4.59-2.28,2.52-4.28,4.45-6,5.8-1.72,1.35-3.88,2.46-6.45,3.33-1.89,.69-3.63,1.03-5.22,1.03Z"/>
      <path class="cls-1" d="M107.68,37.29c.3-.18,.54-.18,.72,0-.6,.87-2.88,2.59-6.84,5.17-2.28,1.47-3.96,2.23-5.04,2.29-.69,0-1.19-.25-1.48-.74-.3-.49-.42-1.06-.36-1.71,.06-.64,.24-1.18,.54-1.6,.87-1.23,2.16-2.4,3.87-3.51,2.22-1.47,3.57-2.52,4.05-3.15,.75-.87,.69-1.29-.18-1.26-.75,0-1.57,.27-2.47,.81-.3,.18-1.31,.93-3.04,2.25-1.72,1.32-2.86,2.13-3.4,2.43-1.47,.75-2.92,.85-4.36,.32-.36,.69-.72,1.27-1.08,1.75-.54,.75-1.35,1.6-2.43,2.56-1.29,.87-2.17,1.3-2.65,1.3-.81,.12-1.3-.19-1.48-.94-.12-.87,.58-2.17,2.09-3.91s2.63-2.61,3.35-2.61c.24,0,.42,.15,.54,.45-.06-.12-.09-.33-.09-.63,0-.42,.14-.79,.41-1.12,.42-.6,.87-.75,1.35-.45,.6,.42,.63,1.46,.09,3.1,.99,.42,1.98,.51,2.97,.27,.69-.18,1.98-.97,3.87-2.38,2.46-1.98,4.05-3.07,4.77-3.28,1.59-.48,2.56-.39,2.9,.27,.34,.66-.16,1.66-1.51,3.01-.6,.6-1.36,1.21-2.29,1.84-.81,.54-1.86,1.44-3.15,2.7-1.41,1.35-2.02,2.41-1.84,3.19,.12,.42,.41,.65,.88,.7s1.02-.11,1.66-.45c.64-.34,1.17-.62,1.57-.83,.41-.21,.76-.43,1.06-.67,3.51-2.4,5.85-4.12,7.02-5.17Zm-22.04,5.44c1.35-1.05,2.52-2.5,3.51-4.36l-.45-.27c-.24-.12-.43-.3-.58-.54l-.9,.63c-.69,.48-1.39,1.12-2.11,1.93-1.98,2.46-2.5,3.69-1.57,3.69,.06-.06,.15-.09,.27-.09,.48-.06,1.1-.39,1.84-.99Zm3.69-4.81c.06-.06,.1-.15,.13-.27,.03-.12,.06-.23,.09-.32s.06-.21,.09-.36c.03-.15,.04-.31,.04-.47v-.47c0-.15-.03-.29-.09-.41-.12-.48-.36-.51-.72-.09-.18,.12-.3,.3-.36,.54-.12,.6-.06,1.06,.18,1.39,.18,.18,.33,.3,.45,.36l.18,.09Z"/>
      <path class="cls-1" d="M109.66,47.14c-.93,.3-1.6,.18-2.02-.36-.81-.93-.41-2.47,1.21-4.63l.94-.99c-3,1.71-4.81,2.23-5.44,1.57-.36-.36-.3-1,.18-1.93,.24-.42,1.27-1.56,3.1-3.42,.06-.06,.17-.18,.34-.36,.16-.18,.29-.34,.38-.47,.09-.13,.23-.23,.41-.29,.18-.06,.33-.06,.45,0,.54,.24,.51,.76-.09,1.57-.24,.24-.77,.75-1.6,1.53-.82,.78-1.5,1.46-2.02,2.05-.52,.58-.73,.97-.61,1.15,.24,.42,1.35,.11,3.33-.94,1.11-.54,2.4-1.45,3.87-2.74,.99-.87,1.69-1.15,2.11-.85,.18,.18,.03,.53-.45,1.03l-1.93,1.93c-1.98,1.77-3.18,3.36-3.6,4.77-.18,.75,.09,1.12,.81,1.12,1.41,0,5.22-2.73,11.42-8.19,1.17-1.05,1.84-1.54,2.02-1.48,.18,.06,.11,.25-.22,.58s-1.48,1.33-3.46,3.01c-4.38,3.75-7.42,5.86-9.13,6.34Z"/>
      <path class="cls-1" d="M122.29,44.48c-1.83,.69-3.06,.52-3.69-.5-.42-.48-.57-1.15-.45-2.02,.12-.69,.65-1.6,1.57-2.74l.72-.85c.81-.93,1.57-1.66,2.29-2.2,1.77-1.41,3.06-2.02,3.87-1.84,.6,.24,.79,.76,.58,1.57-.21,.81-.67,1.54-1.39,2.2-1.71,1.47-3.4,2.17-5.08,2.11-.12,0-.37,.29-.74,.88-.38,.58-.59,1.07-.65,1.46-.18,1.17,.08,1.78,.76,1.84,1.35,.12,3.72-1.02,7.11-3.42,1.53-1.11,3.06-2.34,4.59-3.69,.36-.3,.6-.36,.72-.18,0,.12-.21,.39-.63,.81-.69,.6-1.98,1.62-3.87,3.06-.54,.42-1.51,1.06-2.9,1.93-1.39,.87-2.33,1.39-2.81,1.57Zm-1.3-4.63c.81,.06,1.62-.12,2.43-.54,2.16-1.29,3.31-2.52,3.46-3.69,.06-.3-.06-.45-.36-.45-.42,.12-1.11,.52-2.07,1.19-.96,.67-1.68,1.31-2.16,1.91l-1.3,1.57Z"/>
      <path class="cls-1" d="M117.48,63.73c-.6,0-.91-.2-.94-.58v-.09l.09-.09,.09,.09c.24,.18,.67,.29,1.3,.31,4.62-.36,9.19-2.98,13.72-7.87,2.1-2.28,5.91-7.3,11.42-15.07,1.65-2.4,3.34-4.33,5.08-5.8,2.64-2.16,4.84-3.33,6.61-3.51,.75-.12,1.42-.18,2.02-.18,.42,0,.61,0,.58,0s-.35,.06-.94,.18c-.12,.06-.24,.09-.36,.09-2.22,.42-4.15,1.33-5.8,2.74-.24,.18-.64,.55-1.19,1.1-.56,.56-1.06,1.09-1.51,1.6l-.63,.72,1.84-1.3c4.5-2.82,7.04-3.73,7.65-2.74,.81,1.23-.45,2.98-3.78,5.26-1.83,1.35-3,2.61-3.51,3.78-.54,1.47-.11,2.14,1.3,2.02,2.4-.24,5.77-1.99,10.12-5.26,.54-.42,1.09-.85,1.66-1.3,.12-.06,.28-.2,.49-.41,.21-.21,.39-.34,.54-.4,.18-.18,.27-.12,.27,.18,0,.12-.17,.33-.49,.63-3.33,2.94-6.88,5.13-10.66,6.57-1.41,.54-2.55,.66-3.42,.36-.87-.3-1.17-1.03-.9-2.2,.36-1.71,1.83-3.43,4.41-5.17,.99-.69,1.88-1.45,2.68-2.27,.79-.83,1.1-1.39,.92-1.69-.42-.69-2.58,.2-6.48,2.65-.93,.6-1.93,1.47-3.01,2.61-.42,.42-1.42,1.64-2.99,3.67-1.57,2.02-3.25,4.24-5.04,6.63-1.78,2.4-2.95,3.93-3.49,4.59-2.28,2.52-4.28,4.45-6,5.8-1.72,1.35-3.88,2.46-6.45,3.33-1.89,.69-3.63,1.03-5.22,1.03Z"/>
      <path class="cls-1" d="M186.43,37.74c.6-.6,.9-.72,.9-.36,0,.06-.3,.39-.9,.99-3.12,2.82-6.07,5.13-8.86,6.93l-3.42,2.2c-1.29,.93-2.41,2.13-3.37,3.6-4.92,7.5-8.73,12.88-11.42,16.15-8.66,10.49-13.99,15.74-15.97,15.74-.54,0-1-.25-1.37-.74-.37-.5-.53-1.01-.47-1.55,.18-2.04,1.99-5.22,5.44-9.56,3.45-4.33,7.2-8.37,11.24-12.12,1.41-1.29,3.33-2.89,5.76-4.79,2.43-1.9,4.08-3.21,4.95-3.93,.54-.48,1.45-1.62,2.74-3.42,2.94-4.11,4.84-6.6,5.71-7.47l-2.02,1.57c-4.05,3.39-6.42,5.17-7.11,5.35-.54,.18-1.02,.12-1.44-.18-.87-.48-.84-1.53,.09-3.15,1.05-1.77,2.25-3.24,3.6-4.41-1.53,.42-2.95,.42-4.27,0-.36,.69-.72,1.27-1.08,1.75-.54,.75-1.35,1.6-2.43,2.56-1.29,.87-2.17,1.3-2.65,1.3-.81,.12-1.3-.19-1.48-.94-.12-.87,.58-2.17,2.09-3.91s2.63-2.61,3.35-2.61c.24,0,.42,.15,.54,.45-.06-.12-.09-.33-.09-.63,0-.42,.13-.79,.41-1.12,.42-.6,.87-.75,1.35-.45,.6,.42,.63,1.46,.09,3.1,.99,.42,1.98,.51,2.97,.27,.48-.06,1.36-.39,2.65-.99,.81-.54,1.8-1.06,2.97-1.57,2.28-.87,3.42-.31,3.42,1.66,0,.12,.04,.27,.13,.45s.13,.33,.13,.45c.12,.6-.96,2.5-3.24,5.71-.12,.24-.4,.66-.83,1.26s-.8,1.12-1.1,1.57c-.3,.45-.48,.7-.54,.76,4.17-2.7,6.6-4.29,7.29-4.77,2.94-2.22,5.02-3.94,6.25-5.17Zm-19.43,15.83c1.05-1.47,1.47-2.14,1.26-2.02-.87,.69-2.04,1.6-3.51,2.74-1.47,1.14-2.56,2-3.26,2.59-.7,.58-1.75,1.52-3.13,2.81-1.38,1.29-2.92,2.82-4.63,4.59-3.18,3.27-5.52,5.97-7.02,8.1-2.28,3.18-3.72,5.64-4.32,7.38-.48,1.35-.27,2.11,.63,2.29,.6,.12,2.04-.95,4.32-3.19,5.52-5.52,11.29-12.8,17.31-21.86,1.32-1.92,2.1-3.06,2.34-3.42Zm-4.81-10.84c1.35-1.05,2.52-2.5,3.51-4.36l-.45-.27c-.24-.12-.43-.3-.58-.54l-.9,.63c-.69,.48-1.39,1.12-2.11,1.93-1.98,2.46-2.5,3.69-1.57,3.69,.06-.06,.15-.09,.27-.09,.48-.06,1.09-.39,1.84-.99Zm3.69-4.81c.06-.06,.1-.15,.13-.27,.03-.12,.06-.23,.09-.32,.03-.09,.06-.21,.09-.36,.03-.15,.04-.31,.04-.47v-.47c0-.15-.03-.29-.09-.41-.12-.48-.36-.51-.72-.09-.18,.12-.3,.3-.36,.54-.12,.6-.06,1.06,.18,1.39,.18,.18,.33,.3,.45,.36l.18,.09Zm8.95,2.97c1.59-1.29,2.5-2.22,2.74-2.79,.36-.87,.27-1.42-.27-1.66-2.04-.81-5.08,1.53-9.13,7.02-.3,.42-.56,.86-.76,1.33-.21,.46-.2,.85,.04,1.15,.18,.06,.34,.08,.49,.05,.15-.03,.37-.12,.65-.27,.29-.15,.53-.3,.74-.45s.53-.4,.97-.74,.83-.67,1.19-.97c.36-.3,.87-.71,1.53-1.24,.66-.52,1.26-1,1.8-1.42Z"/>
      <path class="cls-1" d="M190.75,46.24c-.93-.06-1.33-.67-1.21-1.84,.18-1.47,.91-2.98,2.2-4.54l1.12-1.35-.99,.09c-.42,.06-1.11,.09-2.07,.09-.42,0-.74,.06-.94,.18-.21,.12-.6,.51-1.17,1.17-.75,.99-1.08,1.6-.99,1.84,0,.3-.12,.46-.36,.49-1.05,0-1.11-.9-.18-2.7,.36-.75,1.32-1.84,2.88-3.28,1.56-1.44,2.71-2.31,3.46-2.61,.36-.12,.76-.12,1.21,0,.42,.18,.19,.58-.67,1.21-.75,.48-1.46,1.07-2.11,1.75-.75,.75-1.07,1.19-.97,1.33,.1,.13,.67,.17,1.69,.11,.99-.12,1.83-.48,2.52-1.08,.99-.75,1.69-.97,2.11-.67,.24,.06,.3,.22,.18,.5-.18,.3-.94,1.12-2.29,2.47-1.71,1.71-2.7,2.76-2.97,3.15-.87,1.47-1.14,2.41-.81,2.83,.42,.54,1.33,.45,2.74-.27,1.53-.81,3.84-2.44,6.93-4.9l3.51-2.92c.36-.36,.54-.36,.54,0,0,.12-.12,.3-.36,.54-5.28,4.41-8.94,7.05-10.97,7.92-.75,.33-1.42,.5-2.02,.5Z"/>
      <path class="cls-1" d="M203.25,44.93c-.6-.75-.35-2.1,.76-4.05,.54-.87,1.3-1.8,2.29-2.79l-3.96,.94c.24,.48,.24,1.06,0,1.75-.36,.75-.85,1.3-1.48,1.66-.42,.24-.82,.27-1.21,.09-.3-.12-.45-.49-.45-1.12,.06-.6,.46-1.39,1.21-2.38,.06-.12,.85-1.11,2.38-2.97l1.12-1.08c.3-.42,.66-.61,1.08-.58h.09l.09,.09c.06,.18,.03,.34-.09,.49l-.63,.81-2.38,2.88c2.64-.48,4.51-1.06,5.62-1.75,.12-.06,.25-.13,.41-.23,.15-.09,.3-.17,.45-.25,.15-.07,.31-.11,.5-.11,.12,0,.18,.03,.18,.09,.06,.12,.03,.29-.09,.5-2.64,2.64-4.29,4.54-4.95,5.71-.54,.93-.74,1.66-.58,2.2,.24,.42,1.11,.21,2.61-.63,1.47-1.05,4.11-3.36,7.92-6.93,.3-.3,.48-.33,.54-.09,.06,.12-.09,.36-.45,.72-3.57,3.33-6.12,5.5-7.65,6.52s-2.64,1.18-3.33,.49Zm-3.19-2.97c.18,.3,.48,.24,.9-.18,.3-.18,.55-.49,.74-.92,.19-.43,.29-.82,.29-1.15s-.11-.5-.31-.5c-.24-.06-.63,.32-1.17,1.15-.54,.83-.69,1.36-.45,1.6Z"/>
      <path class="cls-1" d="M214.94,44.48c-1.83,.69-3.06,.52-3.69-.5-.42-.48-.57-1.15-.45-2.02,.12-.69,.65-1.6,1.57-2.74l.72-.85c.81-.93,1.57-1.66,2.29-2.2,1.77-1.41,3.06-2.02,3.87-1.84,.6,.24,.79,.76,.58,1.57-.21,.81-.67,1.54-1.39,2.2-1.71,1.47-3.4,2.17-5.08,2.11-.12,0-.37,.29-.74,.88-.38,.58-.59,1.07-.65,1.46-.18,1.17,.08,1.78,.76,1.84,1.35,.12,3.72-1.02,7.11-3.42,1.53-1.11,3.06-2.34,4.59-3.69,.36-.3,.6-.36,.72-.18,0,.12-.21,.39-.63,.81-.69,.6-1.98,1.62-3.87,3.06-.54,.42-1.51,1.06-2.9,1.93-1.39,.87-2.33,1.39-2.81,1.57Zm-1.3-4.63c.81,.06,1.62-.12,2.43-.54,2.16-1.29,3.31-2.52,3.46-3.69,.06-.3-.06-.45-.36-.45-.42,.12-1.11,.52-2.07,1.19-.96,.67-1.68,1.31-2.16,1.91l-1.3,1.57Z"/>
      <path class="cls-1" d="M241.12,47.14c-.93,.3-1.6,.18-2.02-.36-.81-.93-.41-2.47,1.21-4.63l.94-.99c-3,1.71-4.81,2.23-5.44,1.57-.36-.36-.3-1,.18-1.93,.24-.42,1.27-1.56,3.1-3.42,.06-.06,.17-.18,.34-.36,.16-.18,.29-.34,.38-.47,.09-.13,.23-.23,.41-.29,.18-.06,.33-.06,.45,0,.54,.24,.51,.76-.09,1.57-.24,.24-.77,.75-1.6,1.53-.82,.78-1.5,1.46-2.02,2.05-.52,.58-.73,.97-.61,1.15,.24,.42,1.35,.11,3.33-.94,1.11-.54,2.4-1.45,3.87-2.74,.99-.87,1.69-1.15,2.11-.85,.18,.18,.03,.53-.45,1.03l-1.93,1.93c-1.98,1.77-3.18,3.36-3.6,4.77-.18,.75,.09,1.12,.81,1.12,1.41,0,5.22-2.73,11.42-8.19,1.17-1.05,1.84-1.54,2.02-1.48,.18,.06,.11,.25-.22,.58s-1.48,1.33-3.46,3.01c-4.38,3.75-7.42,5.86-9.13,6.34Z"/>
      <path class="cls-1" d="M282,37.65c.6-.6,.91-.69,.94-.27,0,.18-.32,.51-.94,.99-5.16,4.11-8.11,6.42-8.86,6.93l-3.37,2.2c-1.29,.93-2.43,2.13-3.42,3.6-4.35,6.81-8.16,12.19-11.42,16.15-8.96,10.49-14.27,15.74-15.92,15.74-.54,0-1-.25-1.37-.74-.38-.5-.53-1.01-.47-1.55,.18-2.04,1.96-5.17,5.33-9.38s7.11-8.31,11.22-12.3c1.23-1.23,3.12-2.81,5.67-4.75,2.55-1.93,4.26-3.26,5.13-3.98,.54-.48,1.45-1.62,2.74-3.42,2.88-4.11,4.78-6.6,5.71-7.47l-2.02,1.57c-4.05,3.39-6.4,5.17-7.06,5.35-.54,.18-1.03,.12-1.48-.18-.87-.48-.84-1.53,.09-3.15,2.1-3.51,4.77-5.91,8.01-7.2,2.28-.87,3.42-.31,3.42,1.66,0,.12,.04,.27,.13,.45s.13,.33,.13,.45c.12,.6-.96,2.5-3.24,5.71-.12,.24-.39,.66-.81,1.26s-.79,1.12-1.1,1.57c-.31,.45-.5,.7-.56,.76,3.99-2.58,6.42-4.2,7.29-4.86,3.69-3.03,5.77-4.75,6.25-5.17Zm-19.43,15.92c1.05-1.47,1.48-2.14,1.3-2.02-1.05,.87-2.48,1.99-4.29,3.37-1.81,1.38-3.42,2.71-4.83,4-1.41,1.29-3.22,3.07-5.44,5.35-3.18,3.27-5.52,5.97-7.02,8.1-2.28,3.18-3.72,5.64-4.32,7.38-.48,1.35-.27,2.11,.63,2.29,.6,.12,2.05-.95,4.36-3.19,5.52-5.52,11.29-12.8,17.32-21.86,1.29-1.92,2.05-3.06,2.29-3.42Zm7.83-12.68c1.59-1.29,2.5-2.22,2.74-2.79,.36-.87,.27-1.42-.27-1.66-2.04-.81-5.07,1.53-9.08,7.02-.3,.42-.56,.86-.79,1.33s-.22,.85,.02,1.15c.18,.06,.35,.08,.52,.05,.17-.03,.38-.12,.65-.27,.27-.15,.51-.3,.72-.45,.21-.15,.53-.4,.97-.74,.44-.34,.84-.67,1.21-.97,.37-.3,.88-.71,1.53-1.24,.64-.52,1.24-1,1.78-1.42Z"/>
      <path class="cls-1" d="M253.53,63.73c-.6,0-.91-.2-.94-.58v-.09l.09-.09,.09,.09c.24,.18,.67,.29,1.3,.31,4.62-.36,9.19-2.98,13.72-7.87,2.1-2.28,5.91-7.3,11.42-15.07,1.65-2.4,3.34-4.33,5.08-5.8,2.64-2.16,4.84-3.33,6.61-3.51,.75-.12,1.42-.18,2.02-.18,.42,0,.61,0,.58,0s-.35,.06-.94,.18c-.12,.06-.24,.09-.36,.09-2.22,.42-4.15,1.33-5.8,2.74-.24,.18-.64,.55-1.19,1.1-.56,.56-1.06,1.09-1.51,1.6l-.63,.72,1.84-1.3c4.5-2.82,7.04-3.73,7.65-2.74,.81,1.23-.45,2.98-3.78,5.26-1.83,1.35-3,2.61-3.51,3.78-.54,1.47-.11,2.14,1.3,2.02,2.4-.24,5.77-1.99,10.12-5.26,.54-.42,1.09-.85,1.66-1.3,.12-.06,.28-.2,.49-.41,.21-.21,.39-.34,.54-.4,.18-.18,.27-.12,.27,.18,0,.12-.17,.33-.49,.63-3.33,2.94-6.88,5.13-10.66,6.57-1.41,.54-2.55,.66-3.42,.36-.87-.3-1.17-1.03-.9-2.2,.36-1.71,1.83-3.43,4.41-5.17,.99-.69,1.88-1.45,2.68-2.27,.79-.83,1.1-1.39,.92-1.69-.42-.69-2.58,.2-6.48,2.65-.93,.6-1.93,1.47-3.01,2.61-.42,.42-1.42,1.64-2.99,3.67-1.57,2.02-3.25,4.24-5.04,6.63-1.78,2.4-2.95,3.93-3.49,4.59-2.28,2.52-4.28,4.45-6,5.8-1.72,1.35-3.88,2.46-6.45,3.33-1.89,.69-3.63,1.03-5.22,1.03Z"/>
      <path class="cls-1" d="M317.3,37.11c.18,.18,.06,.48-.36,.9-3.45,3.33-6.14,5.65-8.07,6.97-1.93,1.32-4.83,2.95-8.7,4.9-.75,.36-1.3,.65-1.66,.85-.06,.06-.24,.28-.54,.65-.3,.38-.58,.71-.85,1.01-.6,.81-2.71,3.51-6.34,8.1-5.46,6.87-10.55,11.41-15.29,13.63-2.22,.99-3.69,1.42-4.41,1.3-1.11-.18-1.6-.94-1.48-2.29,.12-2.34,1.93-5.23,5.44-8.68,2.4-2.34,5.77-4.71,10.12-7.11,.99-.48,4.59-2.47,10.79-5.98l.81-1.17c.06-.06,1.06-1.6,2.99-4.61,1.93-3.01,2.99-4.64,3.17-4.88-3.12,1.98-5.08,2.95-5.89,2.92-.54,0-.9-.2-1.08-.58s-.2-.83-.04-1.33c.15-.49,.34-.92,.58-1.28,.75-1.05,1.67-2.17,2.77-3.37,1.09-1.2,1.81-1.83,2.14-1.89,.81-.12,1.2,.06,1.17,.54,0,.18-.13,.41-.41,.7-.27,.29-.62,.61-1.06,.97-.43,.36-.71,.63-.83,.81-2.22,2.34-3.36,3.76-3.42,4.27-.06,.18-.06,.33,0,.45,.18,.42,1.17,.13,2.97-.85l2.56-1.53c.6-.36,1.53-1.17,2.79-2.43,1.17-1.17,2.17-2.11,3.01-2.83,1.35-.99,2.11-1.24,2.29-.76,.06,.24-.21,.64-.81,1.21-1.77,1.59-4.29,4.72-7.56,9.4-.69,.99-1.26,1.84-1.71,2.54-.45,.7-.8,1.25-1.06,1.64-.25,.39-.41,.63-.47,.72l2.34-1.21c4.17-2.28,7.36-4.3,9.58-6.07,1.59-1.29,3.64-3.1,6.16-5.44,.18-.18,.3-.24,.36-.18Zm-24.6,18.89c1.35-1.59,2.31-2.85,2.88-3.78-8.28,4.5-13.04,7.17-14.3,8.01-2.94,1.98-5.37,3.97-7.29,5.98-1.41,1.53-2.32,2.76-2.74,3.69-1.41,2.76-1.56,4.38-.45,4.86,.24,.12,.54,.16,.9,.13,2.46-.3,5.44-1.96,8.95-4.99,3.36-2.94,7.38-7.57,12.05-13.9Z"/>
      <path class="cls-1" d="M295.4,71.47c-1.41,0-1.8-1.26-1.17-3.78,.18-.99,.63-2.01,1.35-3.06,.54-.81,2-2.46,4.36-4.95,2.28-2.28,4.24-4.03,5.89-5.26,1.98-1.47,3.45-2.55,4.41-3.24l3.51-2.38c1.65-1.05,2.77-1.84,3.37-2.38,.48-1.05,.7-2.01,.67-2.88,0-.42-.38-.6-1.12-.54-.24,.12-.36,.03-.36-.27l-.09-.76c-.12-.24,.12-.63,.72-1.17,4.68-3.99,7.02-6.51,7.02-7.56-.06-.36-.61-.21-1.66,.45-.42,.3-2.01,1.71-4.77,4.23-.12,.12-.26,.09-.41-.09-.06-.12,.17-.42,.67-.9l2.56-2.29c.93-.87,1.66-1.45,2.2-1.75l.27-.18c.93-.42,1.48-.36,1.66,.18,.18,.3,.18,.75,0,1.35-.48,1.35-1.77,3.01-3.87,4.99l-1.93,1.84-.81,.81,.36,.67c.3,.54,.42,1.16,.36,1.84l-.09,1.26c.69-.42,1.74-1.15,3.15-2.2,1.35-.99,3-2.34,4.95-4.05l2.25-2.11c.36-.24,.54-.27,.54-.09s-.21,.48-.63,.9c-1.35,1.35-2.86,2.67-4.54,3.96l-1.84,1.48c-.93,.69-1.57,1.15-1.93,1.39l-.99,.63-1.03,.76-.9,2.74c-.36,1.11-.83,2.1-1.39,2.97-.87,1.41-2.16,3.24-3.87,5.49-1.77,2.4-3.73,4.65-5.89,6.75-3.06,2.82-5.37,4.69-6.93,5.62-1.77,1.11-3.12,1.63-4.05,1.57Zm-.81-1.75c0,.48,.17,.78,.5,.9,.33,.12,.74,.09,1.24-.09,.5-.18,.93-.38,1.3-.58s.68-.4,.92-.58c2.52-1.65,4.54-3.34,6.07-5.08,5.79-6.15,9.62-11.3,11.51-15.47l.72-1.48-1.84,1.21c-6.51,4.62-9.97,7.11-10.39,7.46-2.28,1.89-4.45,4.03-6.52,6.43-2.4,2.64-3.57,5.07-3.51,7.29Z"/>
      <path class="cls-1" d="M325.45,43c-.42,.36-.79,.45-1.12,.27-.33-.18-.49-.58-.49-1.21,0-1.11,1.32-2.82,3.96-5.13,1.35-1.29,2.23-1.96,2.65-2.02,.18,0,.33,.09,.45,.27,.12,.12,.18,.24,.18,.36l-.36,.27c-.54,.3-.97,.62-1.3,.95l-2.83,2.74c.75,.18,1.86,.18,3.33,0,2.64-.42,4.48-1.15,5.53-2.2,.12-.12,.25-.18,.41-.18s.22,.06,.22,.18c0,.3-.4,.66-1.21,1.08-1.35,.81-3.16,1.33-5.44,1.57h-2.2c.12,.87-.47,1.89-1.75,3.06Zm1.39-2.88c0-.3-.21-.3-.63,0-.12,.06-.21,.13-.27,.22-.81,.81-1.24,1.54-1.3,2.2-.06,.81,.34,.67,1.21-.4,.6-.81,.93-1.48,.99-2.02Z"/>
      <path class="cls-1" d="M340.96,45.02c-1.05,.36-1.81,.21-2.29-.45-.81-1.05,.08-2.86,2.65-5.44,.69-.54,1.03-.85,1.03-.94l-.36-.18-2.7,1.66c-.69,.48-1.57,.91-2.63,1.28-1.06,.38-1.78,.38-2.14,.02-.48-.48-.48-1.15,0-2.02,.24-.24,.48-.55,.72-.94,.6-.6,1-.93,1.21-.99,.12-.06,.24-.03,.36,.09,.12,.12,.18,.24,.18,.36,0,.18-.11,.38-.31,.58s-.49,.47-.83,.79-.61,.56-.79,.74c-.54,.81-.42,1.21,.36,1.21,.6,0,1.36-.25,2.29-.76l3.6-2.2c-.48-.18-.81-.42-.99-.72-.42-.69-.06-1.51,1.08-2.47,.93-.93,1.9-1.6,2.92-2,1.02-.41,1.65-.32,1.89,.25,.3,.87-.96,2.46-3.78,4.77l.45,.18c.24,.18,.3,.37,.18,.56-.12,.2-.57,.71-1.35,1.55-1.77,1.89-2.64,3.27-2.61,4.14,.06,.36,.26,.58,.61,.65,.34,.08,.78-.01,1.3-.27s1.03-.52,1.51-.79c.48-.27,.97-.58,1.48-.94,2.16-1.59,4.39-3.4,6.7-5.44,.36-.24,.58-.24,.67,0,0,.06-.11,.18-.32,.36-4.77,4.17-8.14,6.63-10.12,7.38Zm.94-7.56c1.89-1.53,3.18-2.82,3.87-3.87,.24-.36,.18-.57-.18-.63-.36,0-.92,.24-1.66,.72-1.98,1.35-2.97,2.4-2.97,3.15,0,.18,.07,.31,.22,.4s.33,.13,.54,.13l.18,.09Z"/>
      <path class="cls-1" d="M351.44,46.33c-.18,0-.27-.14-.27-.43s.03-.46,.09-.52c.24-.48,.58-.63,1.03-.45,.06,.06,.09,.12,.09,.18-.03,.81-.34,1.21-.94,1.21Zm3.42-5.71c-.42,0-.48-.49-.18-1.48,.99-2.1,3.7-5.89,8.12-11.38,4.42-5.49,8.19-9.8,11.31-12.95,2.58-2.58,4.21-4.11,4.9-4.59,1.35-.93,2.14-1.24,2.38-.94,.24,.24,0,.58-.72,1.03-.93,.54-2.86,2.33-5.78,5.37-2.92,3.04-5.85,6.32-8.79,9.83-1.41,1.65-3.49,4.32-6.25,8.01-2.76,3.69-4.3,5.89-4.63,6.61-.12,.27-.24,.43-.36,.49Z"/>
    </g>
  </g>
</svg>