<?xml version="1.0" encoding="utf-8"?>
<!-- Generator: Adobe Illustrator 27.0.0, SVG Export Plug-In . SVG Version: 6.00 Build 0)  -->
<svg version="1.1" id="_Слой_2" xmlns="http://www.w3.org/2000/svg" xmlns:xlink="http://www.w3.org/1999/xlink" x="0px"
	 y="0px" viewBox="0 0 99.2 77.6" style="enable-background:new 0 0 99.2 77.6;" xml:space="preserve">
<style type="text/css">
	.st0{fill:#7B335D;}
</style>
<g id="Layer_1">
	<g>
		<g>
			<path class="st0" d="M88.7,39.7c0.2,14.8-9.3,29.1-23,34.7C41,84.8,13.5,66.5,13.5,39.7C13.5,12.8,41-5.5,65.7,5
				C79.4,10.6,88.9,24.8,88.7,39.7C88.7,39.7,88.7,39.7,88.7,39.7z M88.7,39.7c0.1-14.8-9.4-29-23.1-34.4
				c-24.3-9.9-51.2,8.2-51.1,34.4C14.4,65.9,41.3,84,65.6,74.1C79.4,68.6,88.8,54.4,88.7,39.7L88.7,39.7z"/>
			<path class="st0" d="M74.8,39.7c0,21-25.4,31.6-40.4,16.9c-9.3-9-9.4-24.8,0-33.8C49.4,8.1,74.8,18.7,74.8,39.7L74.8,39.7z
				 M74.8,39.7c-0.1-20.7-25.2-31-39.8-16.3c-8.9,8.6-8.9,24,0,32.6C49.6,70.7,74.7,60.4,74.8,39.7L74.8,39.7z"/>
		</g>
		<g>
			<path class="st0" d="M8.8,23.7c0.4,17.8,0.4,35.6,0.5,53.4c0,0.3-0.2,0.5-0.5,0.5H4.2c-0.3,0-0.5-0.2-0.5-0.5
				c0-17.8,0.1-35.6,0.5-53.4c0.4,17.8,0.4,35.6,0.5,53.4l-0.5-0.5h4.7l-0.5,0.5C8.4,59.3,8.4,41.5,8.8,23.7
				C8.8,23.7,8.8,23.7,8.8,23.7z"/>
			<g>
				<path class="st0" d="M5,24.3c-6.6-1.9-5-12.7-4.4-17.9C1,4.2,1.5,2.1,2.3,0C2.1,1.1,1.9,2.2,1.8,3.2C1.4,8.6-1.1,21.8,5,24.3
					C5,24.3,5,24.3,5,24.3z"/>
				<path class="st0" d="M8,24.3c6.2-2.5,3.6-15.6,3.2-21c-0.1-1.1-0.3-2.2-0.5-3.2c0.8,2.1,1.2,4.2,1.6,6.4
					C13,11.6,14.6,22.4,8,24.3L8,24.3z"/>
				<path class="st0" d="M5.1,0C4.9,5.2,4.4,10.4,3.9,15.6c0,0.3-0.3,0.5-0.5,0.4c-0.2,0-0.4-0.2-0.5-0.5C2.7,13,2.5,10.4,2.4,7.8
					C2.4,5.5,2.2,2.3,2.3,0c0.3,2.2,0.7,5.5,1,7.8c0.3,2.6,0.5,5.2,0.7,7.8l-1,0C3.5,10.3,4.2,5.1,5.1,0C5.1,0,5.1,0,5.1,0z"/>
				<path class="st0" d="M7.9,0C7.7,5.2,7.3,10.4,6.7,15.6c0,0.3-0.3,0.5-0.6,0.4c-0.2,0-0.4-0.2-0.4-0.5C5.5,13,5.4,10.4,5.3,7.8
					C5.2,5.5,5.1,2.3,5.1,0C5.4,2.2,5.8,5.5,6,7.8c0.3,2.6,0.5,5.2,0.7,7.8l-1,0C6.3,10.3,7,5.1,7.9,0L7.9,0z"/>
				<path class="st0" d="M10.7,0c-0.2,5.2-0.6,10.4-1.2,15.6c0,0.3-0.3,0.5-0.6,0.4c-0.2,0-0.4-0.2-0.4-0.5C8.3,13,8.2,10.4,8.1,7.8
					C8,5.5,7.9,2.3,7.9,0c0.3,2.2,0.7,5.5,1,7.8c0.3,2.6,0.5,5.2,0.7,7.8l-1,0C9.1,10.3,9.8,5.1,10.7,0L10.7,0L10.7,0z"/>
			</g>
		</g>
		<path class="st0" d="M98.7,0c-2,3.7-4.2,7.3-5.3,11.4c-1.1,4.1-1.3,8.3-0.7,12.5c0-0.1,2.1,9,2.1,9c0,0,0,0,0,0.1
			c0.1,14.7,0.1,29.5,0.2,44.2l-0.5-0.5h4.3l-0.5,0.5C98.2,52.3,98.6,24.9,98.7,0L98.7,0L98.7,0z M98.7,0c0.1,25,0.5,52.1,0.5,77.1
			c0,0.3-0.2,0.5-0.5,0.5h-4.3c-0.3,0-0.5-0.2-0.5-0.5C94,62.5,94,47.3,94.1,33l-2-9c-0.3-2.1-0.4-4.3-0.2-6.4
			c0.3-4.2,1.6-8.4,3.6-12.1L98.7,0L98.7,0L98.7,0z"/>
	</g>
</g>
</svg>
