<?xml version="1.0" encoding="UTF-8"?>
<svg id="_Слой_2" data-name="Слой 2" xmlns="http://www.w3.org/2000/svg" viewBox="0 0 162.78 118.6">
  <defs>
    <style>
      .cls-1 {
        fill: #514d4b;
      }
    </style>
  </defs>
  <g id="Layer_1" data-name="Layer 1">
    <g>
      <path class="cls-1" d="M64.7,11.49c1.04,7.63-.95,16.76-5.98,27.4-5.03,10.64-12.29,21.1-21.76,31.39-11.56,12.49-20.93,18.73-28.09,18.73h-.87C2.44,89-.22,85.94,.01,79.81c.23-5.09,1.96-11.3,5.2-18.64,3.24-7.34,7.69-14.71,13.35-22.11,2.66-3.47,4.34-6.24,5.03-8.32,2.89-8.21,5.78-14.16,8.67-17.86,4.28-5.78,9.07-9.65,14.39-11.62,4.51-1.73,8.47-1.67,11.88,.17,3.41,1.85,5.46,5.2,6.16,10.06Zm-1.39,8.32c.81-6.24-.29-9.83-3.29-10.75-3.01-.92-7.23,.69-12.66,4.86-7.4,5.32-14.45,12.03-21.16,20.12-1.5,1.85-2.43,3.7-2.78,5.55-.35,1.97-.12,3.47,.69,4.51l.52,.52h-.35c-1.39,0-2.2-.58-2.43-1.73l-.69-2.77-3.12,4.16c-3.35,4.51-6.48,9.92-9.36,16.21-2.89,6.3-4.77,11.97-5.64,16.99-.87,5.03-.03,8.24,2.51,9.62,4.74,1.85,11.21-.66,19.42-7.54,8.21-6.88,15.37-14.48,21.5-22.8,9.83-13.29,15.43-25.61,16.82-36.94ZM45.1,4.38c-7.75,4.86-13.64,12.95-17.69,24.28,.11-.35,1.13-1.47,3.03-3.38s4.86-4.45,8.84-7.63c3.99-3.18,8.12-5.92,12.4-8.24,3.93-2.08,7.46-2.54,10.58-1.39-1.27-3.35-3.53-5.38-6.76-6.07-3.24-.69-6.71,.12-10.4,2.43Z"/>
      <path class="cls-1" d="M52.9,67.15c-.35-.69-.06-1.73,.87-3.12,1.73-2.54,3.93-5.32,6.59-8.32l1.91-1.73c.81-.81,1.44-1.33,1.91-1.56,.58-.35,1.04-.35,1.39,0,.23,.58,.06,1.1-.52,1.56-.12,.12-.35,.38-.69,.78-.35,.41-.81,.9-1.39,1.47s-1.04,1.1-1.39,1.56c-2.89,3.01-4.28,4.51-4.16,4.51s.75-.4,1.91-1.21c1.04-.81,2.54-1.76,4.51-2.86,1.96-1.1,3.06-1.65,3.29-1.65,.81,0,1.1,.35,.87,1.04-.23,.58-.75,1.33-1.56,2.25-2.89,3.47-3.18,5.32-.87,5.55,1.73,.12,4.34-.66,7.8-2.34,3.47-1.67,6.42-3.44,8.84-5.29,.46-.23,.87-.11,1.21,.35-6.24,4.97-11.91,7.69-16.99,8.15-2.54,.23-3.76-.52-3.64-2.25,.11-1.27,.98-2.89,2.6-4.86,.58-.81,.81-1.21,.69-1.21-.35-.35-2.6,1.04-6.76,4.16-.46,.23-1.79,1.33-3.99,3.29-1.39,1.39-2.2,1.97-2.43,1.73Z"/>
      <path class="cls-1" d="M45.1,118.48c-.11,.23-.4,.11-.87-.35l-.52-.17,1.56-2.43,16.65-27.23c13.99-22.2,24.28-37.4,30.87-45.61,.81-.92,1.39-1.33,1.73-1.21,.35,0,.52,.06,.52,.17,0,.58-2.08,3.87-6.24,9.88l-4.16,5.9,.35,.52,.35,.69,3.12-1.73c3-1.5,5.2-2.37,6.59-2.6,1.15,0,1.85,.35,2.08,1.04,.46,1.16-.58,3.41-3.12,6.76l-2.25,2.6c4.39,1.73,9.77,.81,16.13-2.77,1.96-1.15,3.99-2.49,6.07-3.99,.23-.23,.43-.29,.61-.17,.17,.12,.2,.29,.09,.52l-.87,.87c-2.54,1.97-4.68,3.35-6.42,4.16-6.01,3.12-11.56,3.88-16.65,2.25l-1.56,1.73c-4.16,3.93-7,4.57-8.5,1.91-.58-1.15-.58-2.66,0-4.51l.17-.87c-.23,.35-1.62,2.31-4.16,5.9-5.9,8.09-12.54,18.32-19.94,30.69-6.94,11.21-10.81,17.22-11.62,18.03Zm37.11-48.73c.92,.23,2.02-.17,3.29-1.21,.35-.23,.84-.63,1.47-1.21,.63-.58,1.18-1.1,1.65-1.56l.52-.87c-1.5-.81-2.83-2.08-3.99-3.81-.12-.35-.46-.29-1.04,.17-.58,.46-1.16,1.33-1.73,2.6-1.27,3.58-1.33,5.55-.17,5.9Zm7.8-5.72c.11,0,.43-.29,.95-.87,.52-.58,1.13-1.3,1.82-2.17s1.21-1.59,1.56-2.17c.69-.92,1.15-1.73,1.39-2.43,.23-.58,.29-.92,.17-1.04-.35-.35-2.25,.29-5.72,1.91-2.78,1.5-4.16,2.54-4.16,3.12,0,.35,.49,1.04,1.47,2.08,.98,1.04,1.82,1.56,2.51,1.56Z"/>
      <path class="cls-1" d="M109.78,66.11c-.46-.58-.46-1.44,0-2.6,.35-1.15,1.5-2.83,3.47-5.03,1.04-1.15,2.02-2.08,2.95-2.77l1.73-1.04c.58,0,.87-.17,.87-.52,0-.11,.29-.17,.87-.17,.81,.23,1.27,.52,1.39,.87-.23,.23-.41,.29-.52,.17-.23,.12-.41,.35-.52,.69l-.35,1.56c-.23,1.39,0,2.43,.69,3.12,3.47,3.12,8.09,2.49,13.87-1.91l1.21-.69c.46-.23,.75-.11,.87,.35l-2.08,1.56c-1.85,1.39-3.99,2.37-6.42,2.95-2.43,.58-4.74,.29-6.94-.87-.69-.58-1.21-1.1-1.56-1.56-.23-.46-.41-.58-.52-.35-.81,1.62-1.91,3.12-3.29,4.51-2.66,2.54-4.57,3.12-5.72,1.73Zm1.04-.17c.46,.58,1.79-.23,3.99-2.43,1.62-1.39,2.78-3.12,3.47-5.2,.23-.69,.35-1.21,.35-1.56l-.17-.69-1.73,1.73c-2.08,1.85-3.7,3.64-4.86,5.38-.81,1.5-1.16,2.43-1.04,2.77Z"/>
      <path class="cls-1" d="M131.63,67.85c-1.39-1.04-1.73-2.37-1.04-3.99,.46-1.62,1.62-3.35,3.47-5.2s3.7-3.18,5.55-3.99c1.04-.46,1.96-.61,2.78-.43,.81,.17,1.21,.55,1.21,1.13,0,.93-.75,2.14-2.25,3.64s-2.6,2.25-3.29,2.25c-.81,0-.69-.35,.35-1.04,1.27-.81,2.37-1.76,3.29-2.86,.92-1.1,1.21-1.82,.87-2.17-.46-.46-1.62,0-3.47,1.39-2.31,1.5-4.19,3.32-5.64,5.46-1.45,2.14-1.88,3.73-1.3,4.77,.46,1.04,2.17,1.39,5.12,1.04,2.95-.35,6.21-1.33,9.8-2.95,3.93-1.73,7.63-4.04,11.1-6.94,2.54-2.08,3.75-3.35,3.64-3.82,0-.11,.06-.17,.17-.17,1.62,0,.81,1.33-2.43,3.99-3.12,2.77-7.28,5.38-12.49,7.8-7.05,3.58-12.2,4.28-15.43,2.08Z"/>
    </g>
  </g>
</svg>