<?xml version="1.0" encoding="utf-8"?>
<!-- Generator: Adobe Illustrator 27.0.0, SVG Export Plug-In . SVG Version: 6.00 Build 0)  -->
<svg version="1.1" id="_Слой_2" xmlns="http://www.w3.org/2000/svg" xmlns:xlink="http://www.w3.org/1999/xlink" x="0px"
	 y="0px" viewBox="0 0 103.1 112.6" style="enable-background:new 0 0 103.1 112.6;" xml:space="preserve">
<style type="text/css">
	.st0{fill:none;stroke:#7B335D;stroke-linecap:round;stroke-linejoin:round;}
</style>
<g id="Layer_1">
	<g>
		<circle class="st0" cx="33.4" cy="70" r="32.9"/>
		<circle class="st0" cx="33.4" cy="70" r="27"/>
		<circle class="st0" cx="69.7" cy="79.2" r="32.9"/>
		<circle class="st0" cx="69.7" cy="79.2" r="27"/>
		<g>
			<polygon class="st0" points="30.1,27.2 24,38.5 12.7,32.4 10.1,23.6 14,17.9 21,15.8 27.5,18.4 			"/>
			<polyline class="st0" points="10.1,23.6 17.7,24.5 23.6,22.7 27.5,18.4 			"/>
			<polyline class="st0" points="21,15.8 23.6,22.7 24,38.5 			"/>
			<polyline class="st0" points="24,38.5 17.7,24.5 14,17.9 			"/>
			<line class="st0" x1="12.7" y1="32.4" x2="17.7" y2="24.5"/>
			<line class="st0" x1="23.6" y1="22.7" x2="30.1" y2="27.2"/>
		</g>
		<g>
			<line class="st0" x1="12.7" y1="0.5" x2="16" y2="11.8"/>
			<line class="st0" x1="21.6" y1="11.4" x2="24.6" y2="3.1"/>
			<line class="st0" x1="11" y1="14.6" x2="4" y2="9.2"/>
		</g>
	</g>
</g>
</svg>
