<?xml version="1.0" encoding="UTF-8"?>
<svg id="_Слой_2" data-name="Слой 2" xmlns="http://www.w3.org/2000/svg" viewBox="0 0 399.2 106.9">
  <defs>
    <style>
      .cls-1 {
        fill: #514d4b;
      }
    </style>
  </defs>
  <g id="Layer_1" data-name="Layer 1">
    <g>
      <path class="cls-1" d="M17.09,94.15c-2.11-.31-3.83-1.16-5.17-2.55-.31-.21-.54-.57-.7-1.08,0-.62,.33-.85,1-.7l.46,.7,.93,.93c2.32,1.49,5.22,2.11,8.72,1.85,2.52-.21,4.68-.57,6.49-1.08,4.22-1.03,8.91-3.19,14.05-6.49,3.71-2.21,8.08-5.17,13.13-8.88,5.71-4.32,11.2-9.27,16.45-14.83,5.15-5.46,11.63-13.41,19.46-23.86,5.61-7.36,8.67-11.32,9.19-11.89,3.4-3.6,6.18-6.28,8.34-8.03l1.47-1.31c-3.24,.1-6.51,.1-9.81,0-9.16-.21-20.77-1.26-34.82-3.17-13.18-1.7-23.6-2.21-31.27-1.54-9.37,.72-16.7,2.78-22.01,6.18-4.22,2.73-7.54,6.46-9.96,11.2-2.42,4.84-2.83,9.57-1.24,14.21-.72-.41-1.21-1.24-1.47-2.47-.72-3.71-.27-7.46,1.35-11.27,1.62-3.81,3.98-7.03,7.06-9.65,5.61-4.84,13.67-7.82,24.17-8.96,2.01-.21,3.96-.35,5.87-.42s4.01-.05,6.33,.08c2.32,.13,4.21,.22,5.67,.27,1.47,.05,3.58,.23,6.33,.54,2.75,.31,4.59,.54,5.52,.7,.93,.15,3,.44,6.22,.85,3.22,.41,5.16,.67,5.83,.77,9.57,1.18,20.05,1.78,31.42,1.78h6.18l1.93-1.39c2.73-2.11,5.1-3.71,7.1-4.79,3.71-1.9,7.28-3.42,10.73-4.55,3.81-1.03,6.18-1.08,7.1-.15,1.18,1.03,.88,2.34-.93,3.94-3.4,3.04-10.63,5.61-21.7,7.72-.93,.21-2.75,1.57-5.48,4.09-2.21,2.11-4.12,4.07-5.71,5.87-2.52,2.83-5.79,7.41-9.81,13.74-9.78,15.7-23.06,28.93-39.84,39.69-5.71,3.4-9.99,5.89-12.82,7.49-4.74,2.32-9.01,4.09-12.82,5.33-4.12,1.39-8.44,1.78-12.97,1.16Zm119.6,12.43c-11.17,.82-20.2,.05-27.1-2.32-7.16-2.52-11.79-8-13.9-16.45-1.6-6.23-1.39-13.56,.62-22,.1-.41,.82-2.7,2.16-6.87,1.34-4.17,2.01-7.36,2.01-9.57-.21-3.4-.85-5.07-1.93-5.02-.41,0-.72-.19-.93-.58-.21-.39-.26-.78-.15-1.2,.21-.41,.88-.41,2.01,0,.93,.41,2.29,.46,4.09,.16,1.7-.41,4.86-1.83,9.5-4.25,4.01-2.32,8.13-5.12,12.35-8.42,4.94-3.6,8.11-6.87,9.5-9.81,.41-.82,.46-1.42,.15-1.78s-.95-.44-1.93-.23c-2.42,.52-4.79,1.24-7.1,2.16-4.12,1.7-8.49,4.14-13.12,7.33-3.5,2.52-8.98,7.31-16.45,14.36-.31-.51-.08-1.16,.7-1.93,3.71-3.71,7.9-7.49,12.58-11.35,3.91-3.14,7.72-5.74,11.43-7.8,2.32-1.29,4.53-2.26,6.64-2.93,1.29-.51,2.6-.85,3.94-1,1.49-.21,2.75-.1,3.78,.31,2.11,.72,2.55,2.47,1.31,5.25-.62,1.39-1.47,2.65-2.55,3.78-2.52,2.83-5.43,5.3-8.72,7.41-5.61,3.81-11.56,6.77-17.84,8.88-.31,.1-.96,.21-1.97,.31-1,.1-1.85,.26-2.55,.46-.69,.21-1.25,.54-1.66,1,.1,.52,.31,1.08,.62,1.7,1.49,2.93,1.24,8-.77,15.21-1.9,7.36-3.06,12.95-3.47,16.75-.72,7.72,.39,13.87,3.32,18.45,3.6,5.71,11.5,8.78,23.7,9.19,8.96,.41,18.16-.44,27.6-2.55,9.44-2.11,17.9-5.1,25.36-8.96,2.73-1.39,4.14-2.98,4.25-4.79,.31-.1,.63-.03,.96,.23,.33,.26,.45,.62,.35,1.08,0,.62-.44,1.18-1.31,1.7-4.84,3.4-11.53,6.41-20.08,9.03-8.49,2.73-16.96,4.4-25.4,5.02ZM117.54,15.55c.41,0,2.08-.31,5.02-.93,6.84-1.39,11.81-3.4,14.9-6.02,.93-.93,1.39-1.62,1.39-2.08-.52-1.18-3.04-.82-7.57,1.08-2.52,1.18-4.94,2.43-7.26,3.74s-4.02,2.33-5.1,3.05l-1.39,1.16Z"/>
      <path class="cls-1" d="M131.74,93.99c-10.04-.21-17.68-3.32-22.93-9.34-3.24-3.81-4.53-8.4-3.86-13.78,.67-5.38,3.06-9.69,7.18-12.93,6.33-4.84,14.93-7.75,25.79-8.72,2.01-.21,4.07-.31,6.18-.31s3.98,.05,5.6,.15c1.62,.1,3.64,.36,6.06,.77,2.42,.41,4.26,.73,5.52,.97,1.26,.23,3.27,.68,6.02,1.35,2.75,.67,4.61,1.13,5.56,1.39,.95,.26,2.92,.81,5.91,1.66,2.98,.85,4.86,1.38,5.64,1.58l2.7,.85c.82-1.39,1.87-3.14,3.13-5.25,1.26-2.11,2.2-3.63,2.82-4.55,5.04-7.82,9.06-13.49,12.04-16.99-2.11,.31-4.53,.49-7.26,.54-7.26,0-14.13-.67-20.62-2.01-6.49-1.34-14.59-3.42-24.32-6.25-8.24-2.32-16.83-3.89-25.79-4.71-11.48-1.03-22.43-.21-32.85,2.47-10.42,2.68-18.65,7.9-24.67,15.67-2.01,2.42-3.32,5.33-3.94,8.73-.31,1.39-.46,2.91-.46,4.55,0,.21,.03,.58,.08,1.12,.05,.54,.08,.91,.08,1.12,0,.31,.1,.73,.31,1.27,.21,.54,.31,.91,.31,1.12-.41,.31-.81,.25-1.2-.19-.39-.44-.63-1.12-.73-2.05-.1-.93-.18-1.71-.23-2.35-.05-.64-.08-1.17-.08-1.58,.52-8.96,6.25-16.65,17.22-23.09,6.95-4.01,16.14-6.67,27.56-7.95,3.04-.31,6.06-.49,9.07-.54,3.01-.05,6.12,.1,9.34,.46,3.22,.36,6.06,.73,8.53,1.12,2.47,.39,5.52,1.03,9.15,1.93,3.63,.9,6.42,1.58,8.38,2.05,1.96,.46,4.99,1.27,9.11,2.43s7.03,1.94,8.73,2.36c7.57,1.9,15.98,2.96,25.25,3.17l10.27-.93c.93-.72,1.83-1.47,2.7-2.24,6.23-5.71,12.93-10.46,20.11-14.25,7.18-3.78,13.71-5.67,19.57-5.67,3.4-.21,4.79,.8,4.17,3.01-.93,2.42-2.83,4.68-5.71,6.79-3.04,2.01-6.51,3.96-10.42,5.87-2.83,1.39-8.6,3.4-17.29,6.02l-9.11,1.85-2.7,3.01c-4.22,5.46-7.8,10.99-10.73,16.6l-5.25,8.88c.93,.31,3.29,1,7.1,2.08,9.68,2.62,16.21,3.94,19.61,3.94,8.13,0,13.61-1.16,16.45-3.47,.31-.31,.57-.46,.77-.46,1.03,0,.82,.57-.62,1.7-.72,.52-1.52,.95-2.39,1.31-7.93,2.93-17.66,2.7-29.19-.69-8.34-2.42-12.66-3.35-12.97-2.78-6.64,10.04-15.26,18.11-25.87,24.21s-21.54,9.1-32.81,9Zm9.65-2.39c8.34-1.8,15.98-4.92,22.93-9.34,4.22-2.62,7.94-5.7,11.16-9.23,3.22-3.53,6.81-8.25,10.77-14.17l-2.01-.62-3.32-1c-11.38-3.6-20.87-5.87-28.49-6.79-14.67-1.8-27.05,.46-37.14,6.79-3.6,2.21-6.24,5.07-7.91,8.57-1.67,3.5-2.05,7.23-1.12,11.2,1.03,4.63,3.63,8.3,7.8,11,4.17,2.7,8.63,4.13,13.4,4.29,4.76,.15,9.41-.08,13.94-.69ZM211.27,29.14c4.12-.62,6.92-1.16,8.42-1.62,6.02-1.8,10.63-3.36,13.82-4.67,3.19-1.31,7-3.38,11.43-6.22,2.01-1.29,3.69-2.66,5.06-4.13,1.36-1.47,1.84-2.56,1.43-3.28-.72-.72-2.87-.72-6.45,0-3.58,.72-6.52,1.62-8.84,2.7-6.74,3.14-13.72,7.77-20.92,13.9l-3.94,3.32Z"/>
      <path class="cls-1" d="M241.31,87.82c-1.6-.72-2.6-2.32-3.01-4.79-.41-3.5,.27-7.37,2.05-11.62,1.78-4.25,3.49-7.53,5.13-9.84,1.65-2.32,4.04-5.48,7.18-9.5,2.01-2.52,4.5-5.28,7.49-8.26l3.63-3.94c1.03-1.03,2.24-2.13,3.63-3.32-17.6,2.52-34,2.63-49.18,.31-10.24-1.9-17.09-3.11-20.54-3.63-16.21-2.73-29.57-3.83-40.07-3.32-14,.62-24.96,3.78-32.89,9.5-4.53,3.24-8.13,7.22-10.81,11.93-2.68,4.71-3.81,9.69-3.4,14.94,.1,2.93,.54,4.79,1.31,5.56,.51,.52,.57,.82,.15,.93-.41,0-1-.36-1.78-1.08-2.11-2.73-2.26-7.46-.46-14.21,1.03-4.84,3.35-9.21,6.95-13.13,3.91-4.43,8.71-7.91,14.4-10.46,5.69-2.55,11.96-4.08,18.8-4.59,6.85-.51,12.93-.67,18.26-.46,5.33,.21,11.42,.67,18.26,1.39,4.12,.41,10,1.34,17.64,2.78,7.64,1.44,13.04,2.37,16.18,2.78,15.29,2.01,29.8,1.96,43.55-.15,2.73-.41,4.66-.95,5.79-1.62,1.18-.51,2.83-1.62,4.94-3.32,8.75-7.26,15.6-12.42,20.54-15.48,4.94-3.06,7.41-3.05,7.41,.04-.1,2.32-1.16,4.53-3.17,6.64-2.21,2.52-5.37,4.92-9.46,7.18-4.09,2.27-7.68,3.91-10.77,4.94l-4.4,1.47c-4.84,4.43-9.47,9.11-13.9,14.05-13.49,15.19-20.33,26.51-20.54,33.97,0,1.49,.46,2.55,1.39,3.17,.82,.72,2.29,.62,4.4-.31,22.75-12.56,42.95-27.9,60.61-46.02,6.02-6.02,10.11-11.45,12.28-16.29,.1-.41,.49-.62,1.16-.62,3.91,.41,10.17-1.21,18.76-4.86,8.34-3.5,14.93-4.3,19.77-2.39,1.29,.51,1.98,1.26,2.08,2.24,.21,.51,.13,1-.23,1.47-.36,.46-.75,.59-1.16,.39,.41-.62,.27-1.3-.42-2.05-.7-.75-1.46-1.27-2.28-1.58-4.01-1.03-9.5-.18-16.45,2.55-.93,.41-2.19,.96-3.78,1.66-1.6,.7-2.9,1.25-3.9,1.66-1,.41-2.21,.86-3.63,1.35-1.42,.49-2.82,.84-4.21,1.04h-1.74c-.95,0-1.63,.1-2.05,.31-.41,.21-.81,.57-1.2,1.08-.39,.52-.79,1.12-1.2,1.81-.41,.7-.67,1.15-.77,1.35-14.46,18.89-37.34,37.76-68.64,56.59-3.35,1.91-5.92,2.5-7.72,1.78Zm34.44-54.12c2.93-.62,5.74-1.49,8.42-2.62,4.63-2.11,8.85-4.86,12.66-8.26,3.71-3.24,5.28-5.76,4.71-7.57-.41-1.59-2.32-1.18-5.71,1.24-3.71,2.52-8.34,6.43-13.9,11.74l-6.18,5.48Z"/>
      <path class="cls-1" d="M260.38,105.96c-2.21-.51-3.42-1.36-3.63-2.55-.21-.93-.21-1.49,0-1.7,.21-.21,.49-.21,.85,0,.36,.21,.49,.46,.39,.77-.21,.41-.09,.86,.35,1.35,.44,.49,.96,.79,1.58,.89,2.83,.72,6,.77,9.5,.15,13.38-2.52,25.45-10.53,36.21-24.01,3.04-3.91,8.62-11.8,16.75-23.67,8.13-11.86,13.77-19.8,16.91-23.82,2.52-3.4,5.64-7.01,9.34-10.85,3.71-3.83,6.49-6.55,8.34-8.15,.1,0,.47-.28,1.12-.85,.64-.57,1.22-1.05,1.74-1.47l1.16-.77c-3.81,.1-7.18,.1-10.11,0-4.22,0-11.71-.7-22.47-2.08-4.74-.72-11.76-1.62-21.08-2.7-12.56-1.59-23.14-1.75-31.73-.46-9.57,1.6-17.66,4.27-24.24,8.03-3.81,2.32-7.13,4.92-9.96,7.8-2.52,2.73-4.5,5.35-5.95,7.88-.51,1.39-.8,2.24-.85,2.55,.41,1.18,.57,1.8,.46,1.85-.31,.41-.62,.46-.93,.16s-.51-.72-.62-1.24c-.21-.72-.05-1.67,.46-2.86,1.6-4.43,5.07-8.65,10.42-12.66,12.56-10.04,28.85-14.57,48.87-13.59,4.32,.21,10.6,.89,18.84,2.05,8.23,1.16,12.87,1.81,13.9,1.97,11.99,1.49,21.1,2.21,27.33,2.16l8.72-.15c.21-.1,.51-.31,.93-.62l.62-.31c6.12-3.5,11.61-5.97,16.45-7.41,2.42-.82,4.68-1.36,6.79-1.62,1.8-.1,3.13,.08,3.98,.54,.85,.46,1.12,1.34,.81,2.62-.31,1.6-3.17,3.06-8.57,4.4-3.91,1.03-8.7,2.08-14.36,3.17-1.8,.21-3.37,.7-4.71,1.47-2.93,1.6-6.15,4.32-9.65,8.18l-4.94,5.56c-2.11,2.32-3.83,4.58-5.17,6.79-.1,.21,.05,.21,.46,0,.62-.21,3.34-1.83,8.18-4.86,5.35-3.4,10.42-5.79,15.21-7.18,4.53-1.49,9.01-2.01,13.43-1.54,2.52,.31,4.44,1.44,5.75,3.4,1.31,1.96,1.97,4.3,1.97,7.03,0,6.43-2.64,13.37-7.91,20.81-5.28,7.44-11.59,14.09-18.96,19.96,.41,.31,2.26,.85,5.56,1.62,4.01,.93,8.29,1.08,12.82,.46,4.74-.51,10.37-3.73,16.91-9.65,.93-.72,1.42-1.03,1.47-.93,.05,.1,.08,.26,.08,.46,0,.31-.58,.94-1.74,1.89-1.16,.95-2.74,2.11-4.75,3.47-2.01,1.36-4.01,2.54-6.02,3.51-6.85,3.5-15.26,3.4-25.25-.31l-4.48,2.62c-3.5,2.11-6.72,3.71-9.65,4.79-6.95,2.52-13.25,2.83-18.92,.93-2.32-.72-4.01-1.83-5.1-3.32-1.8-2.42-2.16-4.99-1.08-7.72,1.18-2.83,3.22-4.97,6.1-6.41,2.88-1.44,5.89-1.9,9.03-1.39,3.81,.62,9.29,2.52,16.45,5.71l4.63,2.39,3.17-2.39c11.38-9.93,19.28-20.41,23.7-31.42,2.73-6.02,2.62-10.4-.31-13.13-1.8-1.59-4.97-2.13-9.5-1.62-3.4,.41-6.98,1.42-10.73,3.01-3.91,1.6-9.88,5.02-17.91,10.27-4.63,2.83-8.96,7.31-12.97,13.43-.72,1.18-2.66,4.2-5.83,9.03-3.17,4.84-5.78,8.79-7.84,11.85-2.06,3.06-4.53,6.51-7.41,10.35-2.88,3.83-5.33,6.71-7.33,8.61-16.68,16.01-31.71,22.49-45.09,19.46Zm81.15-27.95c5.04-1.03,10.47-3.99,16.29-8.88l-4.32-2.24c-2.21-1.18-4.14-2.06-5.79-2.62-2.52-1.29-5.22-2.24-8.11-2.86-3.81-.82-7.53-.42-11.16,1.2-3.63,1.62-5.55,4.29-5.75,7.99,0,1.6,.59,3.17,1.78,4.71,.82,1.03,2.14,1.88,3.94,2.55,3.6,1.29,7.98,1.34,13.13,.16Zm24.78-68.18l3.94-.62c8.03-.93,14-2.39,17.91-4.4,2.42-1.29,3.27-2.29,2.55-3.01-1.03-1.03-2.78-1.21-5.25-.54-4.43,1.19-8.22,2.48-11.39,3.9-3.17,1.42-5.26,2.56-6.29,3.44l-1.47,1.24Z"/>
    </g>
  </g>
</svg>