<?xml version="1.0" encoding="UTF-8"?>
<svg id="_Слой_2" data-name="Слой 2" xmlns="http://www.w3.org/2000/svg" viewBox="0 0 310.94 136.1">
  <defs>
    <style>
      .cls-1 {
        fill: #514d4b;
      }
    </style>
  </defs>
  <g id="Layer_1" data-name="Layer 1">
    <g>
      <path class="cls-1" d="M112.51,92.24c-8.75-.21-14.08-3.24-15.98-9.11-1.49-4.43-1.06-9.86,1.31-16.29,2.93-8.24,8.93-17.08,17.99-26.52,9.06-9.45,18.97-17.44,29.73-23.97-1.8,.21-7.13,.7-15.98,1.47-8.85,.41-19.23,.15-31.12-.77-17.6-1.49-29.03-2.34-34.28-2.55-21.93-.62-38.66,4.22-50.19,14.52-3.4,3.04-6.18,6.25-8.34,9.65-1.03,1.49-2.08,3.42-3.17,5.79-1.08,2.37-1.52,3.96-1.31,4.79,.1,.62-.05,.95-.46,1-.82-.62-.93-1.85-.31-3.71,.62-1.85,1.62-4.12,3.01-6.79,1.18-2.21,3.19-4.84,6.02-7.88,8.54-9.68,20.87-15.52,36.98-17.53,7.72-.93,17.63-1.03,29.73-.31,2.62,.21,7.71,.67,15.25,1.39,7.54,.72,13.42,1.21,17.64,1.47,11.27,.51,22.24,.13,32.89-1.16,3.91-.41,6.33-.88,7.26-1.39,2.93-1.7,5.38-3.05,7.33-4.05,1.96-1,4.41-2.29,7.37-3.86,2.96-1.57,5.39-2.75,7.3-3.55,1.9-.8,3.81-1.52,5.71-2.16,1.9-.64,3.32-.85,4.25-.62,.93,.23,1.34,.81,1.24,1.74-.21,.82-1.18,2.03-2.93,3.63-3.04,2.32-6.43,4.22-10.19,5.71-4.22,1.49-9.01,2.81-14.36,3.94-3.24,.62-6.36,1.83-9.34,3.63-4.74,3.04-8.37,5.61-10.89,7.72-9.78,8.03-18.47,17.35-26.06,27.95-7.59,10.6-10.82,19.84-9.69,27.72,.51,3.91,2.52,6.61,6.02,8.11,4.12,1.7,9.11,1.85,14.98,.46,6.23-1.18,13-3.4,20.31-6.64,.72-.41,1.89-1.02,3.51-1.81,1.62-.8,2.71-1.3,3.28-1.51l4.4-2.55,2.08-1.24c.62-.41,.98-.62,1.08-.62,.62,.21,.69,.49,.23,.85-.46,.36-1,.7-1.62,1-9.06,5.46-18.25,9.52-27.56,12.2-5.35,1.34-9.73,1.96-13.13,1.85Zm-80.92,3.47c-2.32-.21-3.81-.46-4.48-.77-1.9-.82-2.91-1.93-3.01-3.32-.1-.1-.15-.26-.15-.46,.1-.31,.49-.31,1.16,0,.31,.31,.46,.67,.46,1.08,1.8,3.5,7.49,3.73,17.06,.69,5.05-1.59,10.73-4.4,17.06-8.42,6.84-4.43,14.03-10.53,21.54-18.3,4.32-4.53,10.01-11.26,17.06-20.19,7.05-8.93,11.99-15.02,14.82-18.26,1.03-1.59,1.93-2.7,2.7-3.32,.51-.82,1.05-1.26,1.62-1.31,.41,0,.72,.17,.93,.5,.21,.33,.15,.71-.15,1.12-2.21,2.73-7.09,8.89-14.63,18.49-7.54,9.6-13.58,16.82-18.11,21.66-7.83,8.24-15.26,14.77-22.31,19.61-11.27,7.46-21.8,11.2-31.58,11.2ZM151.88,14.65c4.32-.72,8.34-1.67,12.04-2.86,5.82-1.59,10.66-3.91,14.52-6.95,2.42-1.7,3.42-2.91,3.01-3.63-.82-.82-4.45,.26-10.89,3.24-6.44,2.99-12.66,6.38-18.69,10.19Z"/>
      <path class="cls-1" d="M135.59,70.31c-1.7-1.18-1.83-2.98-.39-5.41l.15-.31c.72-1.29,1.59-2.51,2.62-3.67,1.03-1.16,2.28-2.44,3.75-3.86,1.47-1.42,2.66-2.64,3.59-3.67-.82,.51-2.7,1.88-5.64,4.09l-3.17,2.39c-7.57,5.46-12.33,8.44-14.28,8.96-1.49,.41-2.42,0-2.78-1.24-.62-2.01,.54-4.48,3.47-7.41,2.01-2.11,3.37-3.11,4.09-3.01,1.03,.21,.88,.93-.46,2.16-1.29,1.18-2.08,1.93-2.39,2.24-2.32,2.32-3.47,4.32-3.47,6.02,0,.72,.85,.69,2.55-.08,1.7-.77,3.32-1.75,4.86-2.93,7.46-5.15,12.74-8.98,15.83-11.5,.51-.51,.77-.95,.77-1.31,0-.41,.49-.46,1.47-.16,.62,.41,1.18,.62,1.7,.62,.93,0,.67,.75-.77,2.24-.21,.21-.52,.51-.93,.93-4.74,4.94-7.8,8.6-9.19,10.96-1.03,1.6-1.18,2.7-.46,3.32,1.18,1.03,3.75,.26,7.68-2.32,3.94-2.57,7.42-5.4,10.46-8.49l1.47-1.39c.31-.31,.57-.31,.77,0,.1,.21,.05,.41-.15,.62l-3.17,3.01c-4.01,3.81-8.18,6.77-12.51,8.88-2.47,1.03-4.3,1.13-5.48,.31Z"/>
      <path class="cls-1" d="M161.23,74.1c-2.32,.72-3.78,.36-4.4-1.08-.41-1.49-.44-3-.08-4.52,.36-1.52,.88-2.71,1.54-3.59-1.8,1.29-3.04,2.03-3.71,2.24-1.49,.62-2.65,.77-3.47,.46-.82-.31-1.21-1.04-1.16-2.2,.05-1.16,.44-2.38,1.16-3.67,1.9-2.93,4.76-5.2,8.57-6.79,3.4-1.49,5.35-1.34,5.87,.46,.41,1.18,.15,2.34-.77,3.47-.31,.62-.44,1.11-.39,1.47,.1,.41-.26,1.13-1.08,2.16-.31,.31-.73,.79-1.27,1.43-.54,.64-1.02,1.24-1.43,1.78-.41,.54-.77,1.07-1.08,1.58-2.01,4.12-2.16,6.23-.46,6.33,1.39,.21,4.35-1.39,8.88-4.79,2.93-2.21,6.36-5.25,10.27-9.11l2.01-2.08c.72-.51,1.11-.51,1.16,0,0,.1-.33,.46-1,1.08l-6.02,5.71c-2.11,2.01-4.14,3.76-6.1,5.25-2.99,2.42-5.33,3.89-7.03,4.4Zm-9.42-7.41c.1,.31,.98,.21,2.62-.31,.21-.1,1.11-.7,2.7-1.78,.1-.1,1.16-1,3.17-2.7,.21-.21,.76-.66,1.66-1.35,.9-.69,1.51-1.3,1.81-1.81,1.39-1.8,1.54-3.01,.46-3.63-.41-.41-1.57-.05-3.47,1.08-2.11,1.18-4.23,3-6.37,5.44-2.14,2.45-3,4.13-2.59,5.06Z"/>
      <path class="cls-1" d="M186.94,73.02c-1.6-.1-2.29-1.16-2.08-3.17,.31-2.52,1.57-5.12,3.78-7.8l1.93-2.32-1.7,.15c-.72,.1-1.91,.15-3.55,.15-.72,0-1.26,.1-1.62,.31-.36,.21-1.03,.88-2.01,2.01-1.29,1.7-1.85,2.75-1.7,3.17,0,.51-.21,.8-.62,.85-1.8,0-1.9-1.54-.31-4.63,.62-1.29,2.26-3.17,4.94-5.64,2.68-2.47,4.66-3.96,5.95-4.48,.62-.21,1.31-.21,2.08,0,.72,.31,.33,1-1.16,2.08-1.29,.82-2.5,1.83-3.63,3.01-1.29,1.29-1.84,2.05-1.66,2.28,.18,.23,1.14,.3,2.9,.19,1.7-.21,3.14-.82,4.32-1.85,1.7-1.29,2.91-1.67,3.63-1.16,.41,.1,.51,.39,.31,.85-.31,.51-1.62,1.93-3.94,4.25-2.93,2.93-4.63,4.74-5.1,5.41-1.49,2.52-1.96,4.14-1.39,4.86,.72,.93,2.29,.77,4.71-.46,2.62-1.39,6.59-4.19,11.89-8.42l6.02-5.02c.62-.62,.93-.62,.93,0,0,.21-.21,.52-.62,.93-9.06,7.57-15.34,12.1-18.84,13.59-1.29,.57-2.45,.85-3.47,.85Z"/>
      <path class="cls-1" d="M256.43,58.27c1.03-1.03,1.57-1.18,1.62-.46,0,.31-.54,.88-1.62,1.7-8.85,7.05-13.92,11.02-15.21,11.89l-5.79,3.78c-2.21,1.6-4.17,3.66-5.87,6.18-7.46,11.69-14,20.92-19.61,27.72-15.39,18.01-24.5,27.02-27.33,27.02-.93,0-1.71-.42-2.35-1.27-.64-.85-.91-1.74-.81-2.66,.31-3.5,3.36-8.87,9.15-16.1,5.79-7.23,12.21-14.27,19.26-21.12,2.11-2.11,5.35-4.83,9.73-8.15,4.38-3.32,7.31-5.6,8.8-6.83,.93-.82,2.5-2.78,4.71-5.87,4.94-7.05,8.21-11.32,9.81-12.82l-3.47,2.7c-6.95,5.82-10.99,8.88-12.12,9.19-.93,.31-1.78,.21-2.55-.31-1.49-.82-1.44-2.62,.15-5.41,3.6-6.02,8.18-10.14,13.74-12.35,3.91-1.49,5.87-.54,5.87,2.86,0,.21,.08,.46,.23,.77,.15,.31,.23,.57,.23,.77,.21,1.03-1.65,4.3-5.56,9.81-.21,.41-.67,1.13-1.39,2.16-.72,1.03-1.35,1.93-1.89,2.7-.54,.77-.86,1.21-.96,1.31,6.84-4.43,11.01-7.21,12.51-8.34,6.33-5.2,9.91-8.16,10.73-8.88Zm-33.35,27.33c1.8-2.52,2.55-3.68,2.24-3.47-1.8,1.49-4.26,3.42-7.37,5.79-3.11,2.37-5.88,4.66-8.3,6.87-2.42,2.21-5.53,5.28-9.34,9.19-5.46,5.61-9.47,10.24-12.04,13.9-3.91,5.46-6.38,9.68-7.41,12.66-.82,2.32-.46,3.63,1.08,3.94,1.03,.21,3.53-1.62,7.49-5.48,9.47-9.47,19.38-21.98,29.73-37.52,2.21-3.29,3.53-5.25,3.94-5.87Zm13.43-21.77c2.73-2.21,4.3-3.81,4.71-4.79,.62-1.49,.46-2.44-.46-2.86-3.5-1.39-8.7,2.62-15.6,12.04-.51,.72-.96,1.48-1.35,2.28-.39,.8-.37,1.46,.04,1.97,.31,.1,.61,.13,.89,.08,.28-.05,.66-.21,1.12-.46,.46-.26,.88-.51,1.24-.77,.36-.26,.91-.68,1.66-1.27,.75-.59,1.44-1.14,2.08-1.66,.64-.51,1.52-1.22,2.63-2.12,1.11-.9,2.12-1.71,3.05-2.43Z"/>
      <path class="cls-1" d="M263.84,73.02c-1.6-.1-2.29-1.16-2.08-3.17,.31-2.52,1.57-5.12,3.78-7.8l1.93-2.32-1.7,.15c-.72,.1-1.91,.15-3.55,.15-.72,0-1.26,.1-1.62,.31-.36,.21-1.03,.88-2.01,2.01-1.29,1.7-1.85,2.75-1.7,3.17,0,.51-.21,.8-.62,.85-1.8,0-1.9-1.54-.31-4.63,.62-1.29,2.26-3.17,4.94-5.64,2.68-2.47,4.66-3.96,5.95-4.48,.62-.21,1.31-.21,2.08,0,.72,.31,.33,1-1.16,2.08-1.29,.82-2.5,1.83-3.63,3.01-1.29,1.29-1.84,2.05-1.66,2.28,.18,.23,1.14,.3,2.9,.19,1.7-.21,3.14-.82,4.32-1.85,1.7-1.29,2.91-1.67,3.63-1.16,.41,.1,.51,.39,.31,.85-.31,.51-1.62,1.93-3.94,4.25-2.93,2.93-4.63,4.74-5.1,5.41-1.49,2.52-1.96,4.14-1.39,4.86,.72,.93,2.29,.77,4.71-.46,2.62-1.39,6.59-4.19,11.89-8.42l6.02-5.02c.62-.62,.93-.62,.93,0,0,.21-.21,.52-.62,.93-9.06,7.57-15.34,12.1-18.84,13.59-1.29,.57-2.45,.85-3.47,.85Z"/>
      <path class="cls-1" d="M293.03,70.93c-1.8,.62-3.12,.36-3.94-.77-1.39-1.8,.13-4.92,4.56-9.34,1.18-.93,1.78-1.47,1.78-1.62l-.62-.31-4.63,2.86c-1.18,.82-2.69,1.56-4.52,2.2-1.83,.64-3.05,.66-3.67,.04-.82-.82-.82-1.98,0-3.47,.41-.41,.82-.95,1.24-1.62,1.03-1.03,1.72-1.59,2.08-1.7,.21-.1,.41-.05,.62,.15,.21,.21,.31,.41,.31,.62,0,.31-.18,.64-.54,1-.36,.36-.84,.81-1.43,1.35-.59,.54-1.04,.96-1.35,1.27-.93,1.39-.72,2.08,.62,2.08,1.03,0,2.34-.44,3.94-1.31l6.18-3.78c-.82-.31-1.39-.72-1.7-1.24-.72-1.18-.1-2.6,1.85-4.25,1.59-1.59,3.27-2.74,5.02-3.44,1.75-.69,2.83-.55,3.24,.42,.51,1.49-1.65,4.22-6.49,8.18l.77,.31c.41,.31,.51,.63,.31,.96-.21,.34-.98,1.22-2.32,2.66-3.04,3.24-4.53,5.61-4.48,7.1,.1,.62,.45,.99,1.04,1.12,.59,.13,1.34-.03,2.24-.46,.9-.44,1.76-.89,2.59-1.35,.82-.46,1.67-1,2.55-1.62,3.71-2.73,7.54-5.84,11.5-9.34,.62-.41,1-.41,1.16,0,0,.1-.18,.31-.54,.62-8.18,7.16-13.98,11.38-17.37,12.66Zm1.62-12.97c3.24-2.62,5.46-4.84,6.64-6.64,.41-.62,.31-.98-.31-1.08-.62,0-1.57,.41-2.86,1.24-3.4,2.32-5.1,4.12-5.1,5.41,0,.31,.13,.54,.39,.69,.26,.15,.57,.23,.93,.23l.31,.15Z"/>
    </g>
  </g>
</svg>