<?xml version="1.0" encoding="UTF-8"?>
<svg id="_Слой_2" data-name="Слой 2" xmlns="http://www.w3.org/2000/svg" viewBox="0 0 428.08 59.27">
  <defs>
    <style>
      .cls-1 {
        fill: #514d4b;
      }
    </style>
  </defs>
  <g id="Layer_1" data-name="Layer 1">
    <g>
      <path class="cls-1" d="M100.58,.67c3.81-1.05,5.8-.87,5.98,.54,.24,1.23-1.02,2.68-3.78,4.36-.99,.54-2.1,1.06-3.33,1.57-3.12,1.23-6.64,2.05-10.57,2.47-3.45,.42-5.49,.75-6.12,.99-1.29,.48-2.52,1.12-3.69,1.93-11.6,7.62-19.02,16.28-22.26,26-1.77,5.1-1.47,8.84,.9,11.24,1.53,1.53,3.43,2.38,5.71,2.56,2.58,.3,5.86-.06,9.85-1.08,4.41-1.11,9.08-2.65,14.03-4.63,1.65-.6,3.52-1.48,5.62-2.65,.12-.06,.24-.07,.36-.04,.12,.03,.15,.11,.09,.23-.06,.18-.27,.36-.63,.54-7.14,3.51-14.05,6-20.73,7.47-3.18,.87-6.13,1.11-8.86,.72-6.15-.81-9.22-4.27-9.22-10.39,.12-5.85,2.81-11.76,8.07-17.74,5.26-5.98,11.21-10.85,17.83-14.59-1.71,.3-6.45,.36-14.21,.18-1.53-.06-3.72-.22-6.57-.49-2.85-.27-4.86-.43-6.03-.5-4.92-.36-9.77-.55-14.57-.58-5.22-.12-10,.26-14.35,1.12-8.16,1.71-14.63,5.17-19.43,10.39C1.94,23.04,.54,25.47,.51,27.57c0,.54-.09,.72-.27,.54-.48-.42-.25-1.58,.7-3.49,.94-1.9,2.17-3.68,3.67-5.33,1.83-1.98,3.67-3.54,5.51-4.7,1.84-1.15,4.33-2.29,7.44-3.4,3.75-1.35,7.75-2.22,12.01-2.61,5.52-.69,15.46-.46,29.82,.67,4.5,.48,9.5,.63,15.02,.45l6.93-.36c9.32-4.86,15.74-7.75,19.25-8.68Zm-44.3,15.47c-4.86,6.03-8.28,10.15-10.25,12.37-3.57,3.93-7.32,7.45-11.24,10.57-4.92,3.87-9.52,6.94-13.81,9.22-5.28,2.7-9.5,4.05-12.68,4.05-1.11,0-2.05-.22-2.83-.65-.78-.43-1.23-.92-1.35-1.46-.12-.81,.04-1.42,.49-1.84,.42-.6,.69-.87,.81-.81,.12,.06-.03,.39-.45,.99-.75,.99-.51,1.84,.72,2.56,1.29,.87,3.34,.94,6.16,.22,6.39-1.77,13.85-6.25,22.4-13.45,4.62-3.75,8.89-7.84,12.82-12.28,.69-.81,3.6-4.42,8.72-10.84,.54-.69,.91-1.08,1.1-1.17,.19-.09,.41-.01,.65,.22,.21,.3-.21,1.07-1.26,2.29Zm-8.05,20.01c-.87,1.77-1.42,3.27-1.66,4.5-.12,.75-.08,1.39,.14,1.93,0,.06,.04,.18,.13,.36s.18,.37,.27,.56c.09,.2,.16,.29,.22,.29-.81,.54-1.44,.5-1.89-.11-.45-.61-.67-1.36-.67-2.23,0-1.23,.33-2.64,.99-4.23,.87-2.1,2.47-4.86,4.81-8.27,2.7-3.99,4.99-6.82,6.88-8.5,1.11-.87,1.81-1.26,2.11-1.17,.42-.12,.64-.09,.65,.09,.01,.18-.47,.71-1.46,1.57-3.27,3.33-6.78,8.4-10.52,15.2ZM99.73,6.2c2.88-1.23,4.84-2.55,5.89-3.96,.42-.69,.39-1.15-.09-1.39-1.35-.6-4.16,.02-8.43,1.87s-8.61,4.09-13.02,6.72c6.87-.63,12.08-1.71,15.65-3.24Z"/>
      <path class="cls-1" d="M77.78,32.38c.24-.18,.36-.18,.36,0s-.06,.33-.18,.45c-.69,.54-1.2,.9-1.53,1.08-1.35,.75-2.8,.83-4.36,.23-.36,.69-.72,1.27-1.08,1.75-.54,.75-1.35,1.6-2.43,2.56-1.29,.87-2.17,1.3-2.65,1.3-.81,.12-1.3-.19-1.48-.94-.12-.87,.58-2.17,2.09-3.91s2.63-2.61,3.35-2.61c.24,0,.42,.15,.54,.45-.06-.12-.09-.33-.09-.63,0-.42,.14-.79,.41-1.12,.42-.6,.87-.75,1.35-.45,.6,.42,.63,1.46,.09,3.1,.99,.42,1.98,.51,2.97,.27,.72-.09,1.6-.6,2.65-1.53Zm-9.76,5.89c1.35-1.05,2.52-2.5,3.51-4.36l-.45-.27c-.24-.12-.43-.3-.58-.54l-.9,.63c-.69,.48-1.39,1.12-2.11,1.93-1.98,2.46-2.5,3.69-1.57,3.69,.06-.06,.15-.09,.27-.09,.48-.06,1.1-.39,1.84-.99Zm3.69-4.81c.06-.06,.1-.15,.13-.27,.03-.12,.06-.23,.09-.32s.06-.21,.09-.36c.03-.15,.04-.31,.04-.47v-.47c0-.15-.03-.29-.09-.41-.12-.48-.36-.51-.72-.09-.18,.12-.3,.3-.36,.54-.12,.6-.06,1.06,.18,1.39,.18,.18,.33,.3,.45,.36l.18,.09Z"/>
      <path class="cls-1" d="M48.14,59.27c-.6,0-.91-.2-.94-.58v-.09l.09-.09,.09,.09c.24,.18,.67,.29,1.3,.31,4.62-.36,9.19-2.98,13.72-7.87,2.1-2.28,5.91-7.3,11.42-15.07,1.65-2.4,3.34-4.33,5.08-5.8,2.64-2.16,4.84-3.33,6.61-3.51,.75-.12,1.42-.18,2.02-.18,.42,0,.61,0,.58,0s-.35,.06-.94,.18c-.12,.06-.24,.09-.36,.09-2.22,.42-4.15,1.33-5.8,2.74-.24,.18-.64,.55-1.19,1.1-.56,.56-1.06,1.09-1.51,1.6l-.63,.72,1.84-1.3c4.5-2.82,7.04-3.73,7.65-2.74,.81,1.23-.45,2.98-3.78,5.26-1.83,1.35-3,2.61-3.51,3.78-.54,1.47-.11,2.14,1.3,2.02,2.4-.24,5.77-1.99,10.12-5.26,.54-.42,1.09-.85,1.66-1.3,.12-.06,.28-.2,.49-.41,.21-.21,.39-.34,.54-.4,.18-.18,.27-.12,.27,.18,0,.12-.17,.33-.49,.63-3.33,2.94-6.88,5.13-10.66,6.57-1.41,.54-2.55,.66-3.42,.36-.87-.3-1.17-1.03-.9-2.2,.36-1.71,1.83-3.43,4.41-5.17,.99-.69,1.88-1.45,2.68-2.27,.79-.83,1.1-1.39,.92-1.69-.42-.69-2.58,.2-6.48,2.65-.93,.6-1.93,1.47-3.01,2.61-.42,.42-1.42,1.64-2.99,3.67-1.57,2.02-3.25,4.24-5.04,6.63-1.78,2.4-2.95,3.93-3.49,4.59-2.28,2.52-4.28,4.45-6,5.8-1.72,1.35-3.88,2.46-6.45,3.33-1.89,.69-3.63,1.03-5.22,1.03Z"/>
      <path class="cls-1" d="M118.66,32.83c.36-.36,.57-.39,.63-.09,0,.18-.83,.97-2.47,2.38-2.22,1.83-4.48,3.36-6.79,4.59-2.31,1.23-3.85,1.46-4.63,.67-.36-.36-.48-.94-.36-1.75,.18-1.05,.97-2.65,2.38-4.81-3.69,2.1-5.82,3.36-6.39,3.78-.12,.12-.21,.2-.27,.22-.18,0-.27-.19-.27-.58,.06-.42,.32-.98,.79-1.69,.46-.7,.76-1.21,.88-1.51-.69,.24-1.57,.78-2.65,1.62-1.11,.81-2.22,1.42-3.33,1.84-.75,.3-1.43,.46-2.05,.47-.62,.02-.92-.2-.92-.65-.06-.36,.22-.69,.85-.99,.93-.54,2.25-1.09,3.96-1.66l1.57-.45,.99-1.3c2.34-2.94,2.74-4.41,1.21-4.41-1.11,0-2.37,.48-3.78,1.44l-4.14,3.42c-.18,.18-.35,.18-.5,0-.06-.12-.06-.21,0-.27,1.77-1.65,3.49-3,5.17-4.05,.75-.48,1.6-.79,2.54-.92,.95-.14,1.61,0,2,.38,.87,.6,.55,2.07-.94,4.41l-.63,.9c.93-.3,1.69-.75,2.29-1.35,.99-.87,1.6-1.36,1.84-1.48,.3-.12,.51-.12,.63,0,.3,.18,.27,.45-.09,.81-.24,.3-.94,.88-2.11,1.75-.81,.6-1.66,1.68-2.56,3.24,4.05-2.28,6.72-3.94,8-4.99,2.58-2.16,4.6-3.22,6.07-3.19,.24,0,.49,.04,.74,.13,.25,.09,.35,.23,.29,.41-.06,.12-.22,.12-.5,0-.48-.18-1.48,.29-3.01,1.39-1.53,1.11-2.88,2.28-4.05,3.51-1.65,1.77-2.76,3.51-3.33,5.22-.18,.48-.13,.82,.13,1.01,.27,.2,.66,.23,1.17,.11,2.76-.69,6.63-3.21,11.6-7.56Zm-20.73,3.15l1.39-1.3-2.07,.63-1.17,.45c-1.35,.48-2.17,.94-2.47,1.39-.18,.3-.06,.45,.36,.45,.36,0,.85-.09,1.48-.27,.6-.15,1.42-.6,2.47-1.35Z"/>
      <path class="cls-1" d="M119.38,40.02c-1.83,.69-3.06,.52-3.69-.5-.42-.48-.57-1.15-.45-2.02,.12-.69,.65-1.6,1.57-2.74l.72-.85c.81-.93,1.57-1.66,2.29-2.2,1.77-1.41,3.06-2.02,3.87-1.84,.6,.24,.79,.76,.58,1.57-.21,.81-.67,1.54-1.39,2.2-1.71,1.47-3.4,2.17-5.08,2.11-.12,0-.37,.29-.74,.88-.38,.58-.59,1.07-.65,1.46-.18,1.17,.08,1.78,.76,1.84,1.35,.12,3.72-1.02,7.11-3.42,1.53-1.11,3.06-2.34,4.59-3.69,.36-.3,.6-.36,.72-.18,0,.12-.21,.39-.63,.81-.69,.6-1.98,1.62-3.87,3.06-.54,.42-1.51,1.06-2.9,1.93-1.39,.87-2.33,1.39-2.81,1.57Zm-1.3-4.63c.81,.06,1.62-.12,2.43-.54,2.16-1.29,3.31-2.52,3.46-3.69,.06-.3-.06-.45-.36-.45-.42,.12-1.11,.52-2.07,1.19-.96,.67-1.68,1.31-2.16,1.91l-1.3,1.57Z"/>
      <path class="cls-1" d="M129.77,39.93c-1.98,.69-3.24,.43-3.78-.76-.18-.48-.21-1.18-.09-2.11,.18-.81,.62-1.66,1.3-2.56,.99-1.35,2.08-2.43,3.28-3.24,1.23-.69,2.25-1.02,3.06-.99,.87,0,1.38,.24,1.53,.72,.15,.48-.08,1.09-.67,1.84-.48,.6-.93,1.07-1.35,1.42-.42,.34-.71,.5-.85,.47-.15-.03-.26-.07-.32-.13,.87-.54,1.58-1.18,2.14-1.93,.55-.75,.77-1.24,.65-1.48-.42-.99-1.71-.52-3.87,1.39-.69,.54-1.56,1.48-2.61,2.83-1.29,1.83-1.74,3.18-1.35,4.05,.3,.75,1.06,.85,2.29,.31,2.34-.93,4.8-2.44,7.38-4.54,.3-.24,1.21-1.03,2.74-2.38,.24-.24,.42-.24,.54,0,0,.12-.09,.27-.27,.45-3.69,3.33-6.94,5.55-9.76,6.66Z"/>
      <path class="cls-1" d="M144.56,44.25c-.24-.48-.11-1.21,.4-2.2,.99-1.83,3.07-4.35,6.25-7.56,1.05-1.05,1.54-1.66,1.48-1.84-.12-.24-.75-.07-1.89,.52-1.14,.58-2.2,1.21-3.19,1.87-1.35,.81-2.49,1.74-3.42,2.79-.54,.54-.78,.54-.72,0,.06-.87,.52-1.74,1.39-2.61,.18-.24,.7-.82,1.55-1.73,.85-.91,1.63-1.75,2.34-2.5,.7-.75,1.09-1.18,1.15-1.3,.12-.24,.18-.43,.18-.58s-.12-.2-.36-.13c-1.23,.24-3.16,1.4-5.8,3.49s-4.48,3.88-5.53,5.37c-.3,.3-.42,.51-.36,.63,0,.12-.12,.24-.36,.36-.24,.18-.44,.2-.61,.04-.16-.15-.28-.46-.34-.94-.18-1.65,1.23-3.99,4.23-7.02,1.47-1.47,2.55-2.35,3.24-2.65,.36-.12,.67-.2,.94-.23,.3,.06,.43,.23,.4,.52-.03,.29-.2,.49-.49,.61-.42,.18-1.26,.88-2.52,2.11-1.83,1.83-3.06,3.21-3.69,4.14l-1.08,2.2c.36-.42,.82-.9,1.39-1.44,2.58-2.52,4.93-4.48,7.06-5.89,1.47-1.05,2.79-1.63,3.96-1.75,.3-.06,.5,.02,.61,.22,.11,.21,.14,.45,.11,.72-.03,.27-.11,.51-.23,.72-.18,.42-.99,1.48-2.43,3.19l-1.26,1.57c3.51-2.16,5.53-3.01,6.07-2.56,.12,.06,.21,.15,.27,.27,.18,.54-.34,1.42-1.57,2.65l-2.47,2.7-.67,.81c-.48,.48-.9,.94-1.26,1.37-.36,.43-.79,.99-1.28,1.66-.5,.67-.77,1.17-.83,1.48-.06,.31-.03,.62,.09,.92,.75,.42,3.21-1.08,7.38-4.5,1.29-1.05,3.03-2.65,5.22-4.81l2.34-2.11c.12-.12,.21-.18,.27-.18,.18,0,.27,.06,.27,.18,.06,.06,.03,.15-.09,.27-.36,.3-1.11,.98-2.25,2.02-1.14,1.05-2.02,1.84-2.65,2.38-2.1,1.98-3.94,3.58-5.53,4.81-3.21,2.34-5.11,2.98-5.71,1.93Z"/>
      <path class="cls-1" d="M155.45,46.46c-1.83,.54-3.09,.45-3.78-.27-.69-.93-.81-1.86-.36-2.79,.24-.75,.88-1.54,1.93-2.38,1.05-.84,2.19-1.54,3.42-2.11,.48-1.47,1.45-3.19,2.92-5.17,3.93-5.1,8.82-10.34,14.66-15.74,4.41-3.93,8.9-7.71,13.47-11.33,4.57-3.63,7.38-5.44,8.43-5.44,.87,0,1.12,.78,.76,2.34-.54,2.04-3.34,5.07-8.41,9.08-1.59,1.29-3.85,2.78-6.77,4.47-2.92,1.69-5.45,2.98-7.58,3.85-.42,.18-1.47,1-3.15,2.47l-2.65,2.74-3.33,3.69c-1.83,2.1-3.18,3.7-4.05,4.81-1.05,1.35-1.69,2.55-1.93,3.6l.36-.36c.18-.3,.46-.68,.83-1.15,.37-.46,.68-.86,.92-1.19,1.83-1.98,3.51-3.42,5.06-4.34,1.54-.91,2.59-1.18,3.13-.79,.3,.3,.45,.66,.45,1.08,.12,.93-.21,2.16-.99,3.69l-.45,1.03-.49,.9c3.06-.81,5.58-1.89,7.56-3.24,.12-.06,.61-.45,1.48-1.17,.36-.36,.54-.36,.54,0,.06,.06-.09,.27-.45,.63-1.47,1.23-2.85,2.12-4.14,2.68-1.29,.55-3.04,1.1-5.26,1.64l-.99,1.21c-3.33,3.69-7.05,6.21-11.15,7.56Zm-2.29-.09c1.47,.12,4.14-1.32,8.01-4.32,.81-.69,1.55-1.37,2.23-2.05,.67-.67,1.13-1.19,1.37-1.55l.36-.45c-2.76,.36-4.42,.6-4.99,.72l-.81,.18c-.42,.42-.91,1.44-1.48,3.06-.12,.42-.27,.69-.45,.81-.18,.12-.36,.06-.54-.18s-.34-.61-.5-1.12l.09-2.02c-3.18,1.47-4.8,3.07-4.86,4.81-.24,1.29,.29,1.99,1.57,2.11Zm6.52-8l2.7-.36,3.01-.49c.54-.69,1.15-1.6,1.84-2.74,.99-1.83,1.48-2.91,1.48-3.24,.06-.3,.03-.5-.09-.58-.12-.09-.41-.07-.85,.04-1.35,.48-2.79,1.45-4.32,2.9-1.53,1.46-2.79,2.95-3.78,4.48Zm14.21-17.9c6.93-3.33,12.08-6.48,15.47-9.44,4.62-3.75,6.97-6.49,7.06-8.23,.12-.81-.15-1.02-.81-.63-.54,.24-2.05,1.31-4.54,3.21-2.49,1.9-4.69,3.68-6.61,5.33-.3,.24-.8,.7-1.51,1.39-.71,.69-1.85,1.76-3.44,3.22-1.59,1.46-3.46,3.17-5.62,5.15Z"/>
      <path class="cls-1" d="M176.86,40.02c-1.83,.69-3.06,.52-3.69-.5-.42-.48-.57-1.15-.45-2.02,.12-.69,.65-1.6,1.57-2.74l.72-.85c.81-.93,1.57-1.66,2.29-2.2,1.77-1.41,3.06-2.02,3.87-1.84,.6,.24,.79,.76,.58,1.57-.21,.81-.67,1.54-1.39,2.2-1.71,1.47-3.4,2.17-5.08,2.11-.12,0-.37,.29-.74,.88-.38,.58-.59,1.07-.65,1.46-.18,1.17,.08,1.78,.76,1.84,1.35,.12,3.72-1.02,7.11-3.42,1.53-1.11,3.06-2.34,4.59-3.69,.36-.3,.6-.36,.72-.18,0,.12-.21,.39-.63,.81-.69,.6-1.98,1.62-3.87,3.06-.54,.42-1.51,1.06-2.9,1.93-1.39,.87-2.33,1.39-2.81,1.57Zm-1.3-4.63c.81,.06,1.62-.12,2.43-.54,2.16-1.29,3.31-2.52,3.46-3.69,.06-.3-.06-.45-.36-.45-.42,.12-1.11,.52-2.07,1.19-.96,.67-1.68,1.31-2.16,1.91l-1.3,1.57Z"/>
      <path class="cls-1" d="M190.12,41.78c-.93-.06-1.33-.67-1.21-1.84,.18-1.47,.91-2.98,2.2-4.54l1.12-1.35-.99,.09c-.42,.06-1.11,.09-2.07,.09-.42,0-.74,.06-.94,.18-.21,.12-.6,.51-1.17,1.17-.75,.99-1.08,1.6-.99,1.84,0,.3-.12,.46-.36,.49-1.05,0-1.11-.9-.18-2.7,.36-.75,1.32-1.84,2.88-3.28,1.56-1.44,2.71-2.31,3.46-2.61,.36-.12,.76-.12,1.21,0,.42,.18,.19,.58-.67,1.21-.75,.48-1.46,1.07-2.11,1.75-.75,.75-1.07,1.19-.97,1.33,.1,.13,.67,.17,1.69,.11,.99-.12,1.83-.48,2.52-1.08,.99-.75,1.69-.97,2.11-.67,.24,.06,.3,.22,.18,.5-.18,.3-.94,1.12-2.29,2.47-1.71,1.71-2.7,2.76-2.97,3.15-.87,1.47-1.14,2.41-.81,2.83,.42,.54,1.33,.45,2.74-.27,1.53-.81,3.84-2.44,6.93-4.9l3.51-2.92c.36-.36,.54-.36,.54,0,0,.12-.12,.3-.36,.54-5.28,4.41-8.94,7.05-10.97,7.92-.75,.33-1.42,.5-2.02,.5Z"/>
      <path class="cls-1" d="M205.5,41.78c-.93-.06-1.33-.67-1.21-1.84,.18-1.47,.91-2.98,2.2-4.54l1.12-1.35-.99,.09c-.42,.06-1.11,.09-2.07,.09-.42,0-.74,.06-.94,.18-.21,.12-.6,.51-1.17,1.17-.75,.99-1.08,1.6-.99,1.84,0,.3-.12,.46-.36,.49-1.05,0-1.11-.9-.18-2.7,.36-.75,1.32-1.84,2.88-3.28,1.56-1.44,2.71-2.31,3.46-2.61,.36-.12,.76-.12,1.21,0,.42,.18,.19,.58-.67,1.21-.75,.48-1.46,1.07-2.11,1.75-.75,.75-1.07,1.19-.97,1.33,.1,.13,.67,.17,1.69,.11,.99-.12,1.83-.48,2.52-1.08,.99-.75,1.69-.97,2.11-.67,.24,.06,.3,.22,.18,.5-.18,.3-.94,1.12-2.29,2.47-1.71,1.71-2.7,2.76-2.97,3.15-.87,1.47-1.14,2.41-.81,2.83,.42,.54,1.33,.45,2.74-.27,1.53-.81,3.84-2.44,6.93-4.9l3.51-2.92c.36-.36,.54-.36,.54,0,0,.12-.12,.3-.36,.54-5.28,4.41-8.94,7.05-10.97,7.92-.75,.33-1.42,.5-2.02,.5Z"/>
      <path class="cls-1" d="M220.53,42.41c-1.35,.42-2.2,.21-2.56-.63-.24-.87-.26-1.75-.04-2.63,.21-.88,.51-1.58,.9-2.09-1.05,.75-1.77,1.18-2.16,1.3-.87,.36-1.54,.45-2.02,.27s-.7-.61-.67-1.28c.03-.67,.25-1.39,.67-2.14,1.11-1.71,2.77-3.03,4.99-3.96,1.98-.87,3.12-.78,3.42,.27,.24,.69,.09,1.36-.45,2.02-.18,.36-.25,.65-.22,.85,.06,.24-.15,.66-.63,1.26-.18,.18-.43,.46-.74,.83-.31,.38-.59,.72-.83,1.03-.24,.31-.45,.62-.63,.92-1.17,2.4-1.26,3.63-.27,3.69,.81,.12,2.53-.81,5.17-2.79,1.71-1.29,3.7-3.06,5.98-5.31l1.17-1.21c.42-.3,.64-.3,.67,0,0,.06-.2,.27-.58,.63l-3.51,3.33c-1.23,1.17-2.41,2.19-3.55,3.06-1.74,1.41-3.1,2.26-4.09,2.56Zm-5.49-4.32c.06,.18,.57,.12,1.53-.18,.12-.06,.64-.4,1.57-1.03,.06-.06,.67-.58,1.84-1.57,.12-.12,.44-.38,.97-.79,.52-.4,.88-.76,1.06-1.06,.81-1.05,.9-1.75,.27-2.11-.24-.24-.92-.03-2.02,.63-1.23,.69-2.47,1.75-3.71,3.17-1.24,1.42-1.75,2.41-1.51,2.95Z"/>
      <path class="cls-1" d="M237.12,40.56c-1.05,.36-1.81,.21-2.29-.45-.81-1.05,.08-2.86,2.65-5.44,.69-.54,1.03-.85,1.03-.94l-.36-.18-2.7,1.66c-.69,.48-1.57,.91-2.63,1.28-1.06,.38-1.78,.38-2.14,.02-.48-.48-.48-1.15,0-2.02,.24-.24,.48-.55,.72-.94,.6-.6,1-.93,1.21-.99,.12-.06,.24-.03,.36,.09,.12,.12,.18,.24,.18,.36,0,.18-.11,.38-.31,.58s-.49,.47-.83,.79-.61,.56-.79,.74c-.54,.81-.42,1.21,.36,1.21,.6,0,1.36-.25,2.29-.76l3.6-2.2c-.48-.18-.81-.42-.99-.72-.42-.69-.06-1.51,1.08-2.47,.93-.93,1.9-1.6,2.92-2,1.02-.41,1.65-.32,1.89,.25,.3,.87-.96,2.46-3.78,4.77l.45,.18c.24,.18,.3,.37,.18,.56-.12,.2-.57,.71-1.35,1.55-1.77,1.89-2.64,3.27-2.61,4.14,.06,.36,.26,.58,.61,.65,.34,.08,.78-.01,1.3-.27s1.03-.52,1.51-.79c.48-.27,.97-.58,1.48-.94,2.16-1.59,4.39-3.4,6.7-5.44,.36-.24,.58-.24,.67,0,0,.06-.11,.18-.32,.36-4.77,4.17-8.14,6.63-10.12,7.38Zm.94-7.56c1.89-1.53,3.18-2.82,3.87-3.87,.24-.36,.18-.57-.18-.63-.36,0-.92,.24-1.66,.72-1.98,1.35-2.97,2.4-2.97,3.15,0,.18,.07,.31,.22,.4s.33,.13,.54,.13l.18,.09Z"/>
      <path class="cls-1" d="M232.04,59.27c-.6,0-.91-.2-.94-.58v-.09l.09-.09,.09,.09c.24,.18,.67,.29,1.3,.31,4.62-.36,9.19-2.98,13.72-7.87,2.1-2.28,5.91-7.3,11.42-15.07,1.65-2.4,3.34-4.33,5.08-5.8,2.64-2.16,4.84-3.33,6.61-3.51,.75-.12,1.42-.18,2.02-.18,.42,0,.61,0,.58,0s-.35,.06-.94,.18c-.12,.06-.24,.09-.36,.09-2.22,.42-4.15,1.33-5.8,2.74-.24,.18-.64,.55-1.19,1.1-.56,.56-1.06,1.09-1.51,1.6l-.63,.72,1.84-1.3c4.5-2.82,7.04-3.73,7.65-2.74,.81,1.23-.45,2.98-3.78,5.26-1.83,1.35-3,2.61-3.51,3.78-.54,1.47-.11,2.14,1.3,2.02,2.4-.24,5.77-1.99,10.12-5.26,.54-.42,1.09-.85,1.66-1.3,.12-.06,.28-.2,.49-.41,.21-.21,.39-.34,.54-.4,.18-.18,.27-.12,.27,.18,0,.12-.17,.33-.49,.63-3.33,2.94-6.88,5.13-10.66,6.57-1.41,.54-2.55,.66-3.42,.36-.87-.3-1.17-1.03-.9-2.2,.36-1.71,1.83-3.43,4.41-5.17,.99-.69,1.88-1.45,2.68-2.27,.79-.83,1.1-1.39,.92-1.69-.42-.69-2.58,.2-6.48,2.65-.93,.6-1.93,1.47-3.01,2.61-.42,.42-1.42,1.64-2.99,3.67-1.57,2.02-3.25,4.24-5.04,6.63-1.78,2.4-2.95,3.93-3.49,4.59-2.28,2.52-4.28,4.45-6,5.8-1.72,1.35-3.88,2.46-6.45,3.33-1.89,.69-3.63,1.03-5.22,1.03Z"/>
      <path class="cls-1" d="M278.32,40.02c-1.83,.69-3.06,.52-3.69-.5-.42-.48-.57-1.15-.45-2.02,.12-.69,.65-1.6,1.57-2.74l.72-.85c.81-.93,1.57-1.66,2.29-2.2,1.77-1.41,3.06-2.02,3.87-1.84,.6,.24,.79,.76,.58,1.57-.21,.81-.67,1.54-1.39,2.2-1.71,1.47-3.4,2.17-5.08,2.11-.12,0-.37,.29-.74,.88-.38,.58-.59,1.07-.65,1.46-.18,1.17,.08,1.78,.76,1.84,1.35,.12,3.72-1.02,7.11-3.42,1.53-1.11,3.06-2.34,4.59-3.69,.36-.3,.6-.36,.72-.18,0,.12-.21,.39-.63,.81-.69,.6-1.98,1.62-3.87,3.06-.54,.42-1.51,1.06-2.9,1.93-1.39,.87-2.33,1.39-2.81,1.57Zm-1.3-4.63c.81,.06,1.62-.12,2.43-.54,2.16-1.29,3.31-2.52,3.46-3.69,.06-.3-.06-.45-.36-.45-.42,.12-1.11,.52-2.07,1.19-.96,.67-1.68,1.31-2.16,1.91l-1.3,1.57Z"/>
      <path class="cls-1" d="M289.56,40.29c-.6,0-1.06-.25-1.37-.74-.31-.49-.44-1.06-.38-1.71,.06-.64,.21-1.18,.45-1.6,.69-1.05,2.06-2.26,4.12-3.64s3.32-2.38,3.8-3.01c.69-.93,.54-1.35-.45-1.26-.75,.06-1.51,.33-2.29,.81-1.89,1.23-3.73,2.67-5.53,4.32-.36,.36-.62,.45-.76,.27-.12-.12,.55-.85,2.02-2.2,1.98-1.77,3.73-2.91,5.26-3.42,1.53-.6,2.51-.46,2.95,.43,.43,.88-.08,1.88-1.55,2.99-2.34,1.71-4.15,3.22-5.44,4.54-1.29,1.17-1.87,2.14-1.75,2.92,.3,1.71,2.44,1.09,6.43-1.84,2.52-1.83,4.36-3.27,5.53-4.32,.12-.12,.26-.18,.43-.18s.25,.06,.25,.18c0,.18-1.39,1.32-4.18,3.42-3.42,2.7-5.92,4.05-7.51,4.05Z"/>
      <path class="cls-1" d="M302.56,42.68c-.93,.3-1.6,.18-2.02-.36-.81-.93-.41-2.47,1.21-4.63l.94-.99c-3,1.71-4.81,2.23-5.44,1.57-.36-.36-.3-1,.18-1.93,.24-.42,1.27-1.56,3.1-3.42,.06-.06,.17-.18,.34-.36,.16-.18,.29-.34,.38-.47,.09-.13,.23-.23,.41-.29,.18-.06,.33-.06,.45,0,.54,.24,.51,.76-.09,1.57-.24,.24-.77,.75-1.6,1.53-.82,.78-1.5,1.46-2.02,2.05-.52,.58-.73,.97-.61,1.15,.24,.42,1.35,.11,3.33-.94,1.11-.54,2.4-1.45,3.87-2.74,.99-.87,1.69-1.15,2.11-.85,.18,.18,.03,.53-.45,1.03l-1.93,1.93c-1.98,1.77-3.18,3.36-3.6,4.77-.18,.75,.09,1.12,.81,1.12,1.41,0,5.22-2.73,11.42-8.19,1.17-1.05,1.84-1.54,2.02-1.48,.18,.06,.11,.25-.22,.58s-1.48,1.33-3.46,3.01c-4.38,3.75-7.42,5.86-9.13,6.34Z"/>
      <path class="cls-1" d="M315.47,39.93c-1.98,.69-3.24,.43-3.78-.76-.18-.48-.21-1.18-.09-2.11,.18-.81,.62-1.66,1.3-2.56,.99-1.35,2.08-2.43,3.28-3.24,1.23-.69,2.25-1.02,3.06-.99,.87,0,1.38,.24,1.53,.72,.15,.48-.08,1.09-.67,1.84-.48,.6-.93,1.07-1.35,1.42-.42,.34-.71,.5-.85,.47-.15-.03-.26-.07-.32-.13,.87-.54,1.58-1.18,2.14-1.93,.55-.75,.77-1.24,.65-1.48-.42-.99-1.71-.52-3.87,1.39-.69,.54-1.56,1.48-2.61,2.83-1.29,1.83-1.74,3.18-1.35,4.05,.3,.75,1.06,.85,2.29,.31,2.34-.93,4.8-2.44,7.38-4.54,.3-.24,1.21-1.03,2.74-2.38,.24-.24,.42-.24,.54,0,0,.12-.09,.27-.27,.45-3.69,3.33-6.94,5.55-9.76,6.66Z"/>
      <path class="cls-1" d="M330.26,44.25c-.24-.48-.11-1.21,.4-2.2,.99-1.83,3.07-4.35,6.25-7.56,1.05-1.05,1.54-1.66,1.48-1.84-.12-.24-.75-.07-1.89,.52-1.14,.58-2.2,1.21-3.19,1.87-1.35,.81-2.49,1.74-3.42,2.79-.54,.54-.78,.54-.72,0,.06-.87,.52-1.74,1.39-2.61,.18-.24,.7-.82,1.55-1.73,.85-.91,1.63-1.75,2.34-2.5,.7-.75,1.09-1.18,1.15-1.3,.12-.24,.18-.43,.18-.58s-.12-.2-.36-.13c-1.23,.24-3.16,1.4-5.8,3.49s-4.48,3.88-5.53,5.37c-.3,.3-.42,.51-.36,.63,0,.12-.12,.24-.36,.36-.24,.18-.44,.2-.61,.04-.16-.15-.28-.46-.34-.94-.18-1.65,1.23-3.99,4.23-7.02,1.47-1.47,2.55-2.35,3.24-2.65,.36-.12,.67-.2,.94-.23,.3,.06,.43,.23,.4,.52-.03,.29-.2,.49-.49,.61-.42,.18-1.26,.88-2.52,2.11-1.83,1.83-3.06,3.21-3.69,4.14l-1.08,2.2c.36-.42,.82-.9,1.39-1.44,2.58-2.52,4.93-4.48,7.06-5.89,1.47-1.05,2.79-1.63,3.96-1.75,.3-.06,.5,.02,.61,.22,.11,.21,.14,.45,.11,.72-.03,.27-.11,.51-.23,.72-.18,.42-.99,1.48-2.43,3.19l-1.26,1.57c3.51-2.16,5.53-3.01,6.07-2.56,.12,.06,.21,.15,.27,.27,.18,.54-.34,1.42-1.57,2.65l-2.47,2.7-.67,.81c-.48,.48-.9,.94-1.26,1.37-.36,.43-.79,.99-1.28,1.66-.5,.67-.77,1.17-.83,1.48-.06,.31-.03,.62,.09,.92,.75,.42,3.21-1.08,7.38-4.5,1.29-1.05,3.03-2.65,5.22-4.81l2.34-2.11c.12-.12,.21-.18,.27-.18,.18,0,.27,.06,.27,.18,.06,.06,.03,.15-.09,.27-.36,.3-1.11,.98-2.25,2.02-1.14,1.05-2.02,1.84-2.65,2.38-2.1,1.98-3.94,3.58-5.53,4.81-3.21,2.34-5.11,2.98-5.71,1.93Z"/>
      <path class="cls-1" d="M316.81,59.27c-.6,0-.91-.2-.94-.58v-.09l.09-.09,.09,.09c.24,.18,.67,.29,1.3,.31,4.62-.36,9.19-2.98,13.72-7.87,2.1-2.28,5.91-7.3,11.42-15.07,1.65-2.4,3.34-4.33,5.08-5.8,2.64-2.16,4.84-3.33,6.61-3.51,.75-.12,1.42-.18,2.02-.18,.42,0,.61,0,.58,0s-.35,.06-.94,.18c-.12,.06-.24,.09-.36,.09-2.22,.42-4.15,1.33-5.8,2.74-.24,.18-.64,.55-1.19,1.1-.56,.56-1.06,1.09-1.51,1.6l-.63,.72,1.84-1.3c4.5-2.82,7.04-3.73,7.65-2.74,.81,1.23-.45,2.98-3.78,5.26-1.83,1.35-3,2.61-3.51,3.78-.54,1.47-.11,2.14,1.3,2.02,2.4-.24,5.77-1.99,10.12-5.26,.54-.42,1.09-.85,1.66-1.3,.12-.06,.28-.2,.49-.41,.21-.21,.39-.34,.54-.4,.18-.18,.27-.12,.27,.18,0,.12-.17,.33-.49,.63-3.33,2.94-6.88,5.13-10.66,6.57-1.41,.54-2.55,.66-3.42,.36-.87-.3-1.17-1.03-.9-2.2,.36-1.71,1.83-3.43,4.41-5.17,.99-.69,1.88-1.45,2.68-2.27,.79-.83,1.1-1.39,.92-1.69-.42-.69-2.58,.2-6.48,2.65-.93,.6-1.93,1.47-3.01,2.61-.42,.42-1.42,1.64-2.99,3.67-1.57,2.02-3.25,4.24-5.04,6.63-1.78,2.4-2.95,3.93-3.49,4.59-2.28,2.52-4.28,4.45-6,5.8-1.72,1.35-3.88,2.46-6.45,3.33-1.89,.69-3.63,1.03-5.22,1.03Z"/>
      <path class="cls-1" d="M365.88,42.41c-1.35,.42-2.2,.21-2.56-.63-.24-.87-.26-1.75-.04-2.63,.21-.88,.51-1.58,.9-2.09-1.05,.75-1.77,1.18-2.16,1.3-.87,.36-1.54,.45-2.02,.27s-.7-.61-.67-1.28c.03-.67,.25-1.39,.67-2.14,1.11-1.71,2.77-3.03,4.99-3.96,1.98-.87,3.12-.78,3.42,.27,.24,.69,.09,1.36-.45,2.02-.18,.36-.25,.65-.22,.85,.06,.24-.15,.66-.63,1.26-.18,.18-.43,.46-.74,.83-.31,.38-.59,.72-.83,1.03-.24,.31-.45,.62-.63,.92-1.17,2.4-1.26,3.63-.27,3.69,.81,.12,2.53-.81,5.17-2.79,1.71-1.29,3.7-3.06,5.98-5.31l1.17-1.21c.42-.3,.64-.3,.67,0,0,.06-.2,.27-.58,.63l-3.51,3.33c-1.23,1.17-2.41,2.19-3.55,3.06-1.74,1.41-3.1,2.26-4.09,2.56Zm-5.49-4.32c.06,.18,.57,.12,1.53-.18,.12-.06,.64-.4,1.57-1.03,.06-.06,.67-.58,1.84-1.57,.12-.12,.44-.38,.97-.79,.52-.4,.88-.76,1.06-1.06,.81-1.05,.9-1.75,.27-2.11-.24-.24-.92-.03-2.02,.63-1.23,.69-2.47,1.75-3.71,3.17-1.24,1.42-1.75,2.41-1.51,2.95Z"/>
      <path class="cls-1" d="M376.04,47.76c-.24-.06-.37-.28-.4-.65-.03-.37,.1-.74,.4-1.1,.36-.48,.89-1.02,1.6-1.62s1.34-1.05,1.91-1.35l.72-.54c.18-.18,.43-.61,.76-1.3l.72-1.26-1.12,.72c-1.77,.93-2.74,.75-2.92-.54-.12-.36-.06-.91,.18-1.66l.72-1.39-1.62,1.12c-2.28,1.59-3.57,1.83-3.87,.72-.12-.36-.03-.91,.27-1.66,.93-1.98,2.43-4,4.5-6.07l1.12-.99c.3-.3,.66-.55,1.08-.76,.6-.3,1-.18,1.21,.36,.06,.12,.03,.35-.09,.67l-1.21,1.17-1.75,1.57c-1.77,1.77-3,3.18-3.69,4.23-.54,.75-.81,1.24-.81,1.48,.12,.12,.31,.15,.58,.09,.27-.06,.66-.21,1.17-.45l.63-.36c1.05-.6,1.95-1.24,2.7-1.93,.3-.3,.79-.81,1.46-1.53,.67-.72,1.24-1.29,1.71-1.71,.46-.42,.79-.63,.97-.63,.87-.18,1.05,.18,.54,1.08-.18,.3-.55,.71-1.1,1.24-.55,.53-.86,.85-.92,.97-.24,.24-.55,.56-.92,.97-.38,.4-.83,.96-1.35,1.66s-.8,1.24-.83,1.62c-.03,.38,.15,.65,.54,.83,.42,.06,1.14-.22,2.16-.83s1.68-1.13,1.98-1.55c.12-.18,.41-.41,.88-.7,.46-.29,.79-.43,.97-.43,.3,0,.39,.15,.27,.45-.06,.12-.18,.22-.36,.31-.24,.12-.65,.52-1.24,1.19-.58,.67-1.1,1.34-1.55,2l-.63,.94c.3-.18,.82-.47,1.55-.88,.73-.4,1.2-.67,1.39-.79,.2-.12,.56-.37,1.1-.74,.54-.37,.95-.67,1.24-.88,.29-.21,.7-.52,1.26-.92,.55-.4,1.07-.83,1.55-1.28,.48-.45,1.08-.98,1.8-1.6s1.5-1.33,2.34-2.14c.3-.3,.52-.36,.67-.18,.12,.06,.01,.24-.31,.54-3.69,3.51-6.81,6.03-9.35,7.56-2.04,1.11-3.12,1.69-3.24,1.75l-.18,.09c-1.65,2.28-2.85,3.78-3.6,4.5-.69,.57-1.21,.76-1.57,.58Zm.72-.58c.54-.36,1.09-.94,1.66-1.75l1.48-2.2c-1.59,.99-2.7,1.92-3.33,2.79-.6,.81-.69,1.23-.27,1.26,.12,0,.27-.03,.45-.09Z"/>
      <path class="cls-1" d="M395.7,42.68c-.93,.3-1.6,.18-2.02-.36-.81-.93-.41-2.47,1.21-4.63l.94-.99c-3,1.71-4.81,2.23-5.44,1.57-.36-.36-.3-1,.18-1.93,.24-.42,1.27-1.56,3.1-3.42,.06-.06,.17-.18,.34-.36,.16-.18,.29-.34,.38-.47,.09-.13,.23-.23,.41-.29,.18-.06,.33-.06,.45,0,.54,.24,.51,.76-.09,1.57-.24,.24-.77,.75-1.6,1.53-.82,.78-1.5,1.46-2.02,2.05-.52,.58-.73,.97-.61,1.15,.24,.42,1.35,.11,3.33-.94,1.11-.54,2.4-1.45,3.87-2.74,.99-.87,1.69-1.15,2.11-.85,.18,.18,.03,.53-.45,1.03l-1.93,1.93c-1.98,1.77-3.18,3.36-3.6,4.77-.18,.75,.09,1.12,.81,1.12,1.41,0,5.22-2.73,11.42-8.19,1.17-1.05,1.84-1.54,2.02-1.48,.18,.06,.11,.25-.22,.58s-1.48,1.33-3.46,3.01c-4.38,3.75-7.42,5.86-9.13,6.34Z"/>
      <path class="cls-1" d="M413.1,40.56c-1.05,.36-1.81,.21-2.29-.45-.81-1.05,.08-2.86,2.65-5.44,.69-.54,1.03-.85,1.03-.94l-.36-.18-2.7,1.66c-.69,.48-1.57,.91-2.63,1.28-1.06,.38-1.78,.38-2.14,.02-.48-.48-.48-1.15,0-2.02,.24-.24,.48-.55,.72-.94,.6-.6,1-.93,1.21-.99,.12-.06,.24-.03,.36,.09,.12,.12,.18,.24,.18,.36,0,.18-.11,.38-.31,.58s-.49,.47-.83,.79-.61,.56-.79,.74c-.54,.81-.42,1.21,.36,1.21,.6,0,1.36-.25,2.29-.76l3.6-2.2c-.48-.18-.81-.42-.99-.72-.42-.69-.06-1.51,1.08-2.47,.93-.93,1.9-1.6,2.92-2,1.02-.41,1.65-.32,1.89,.25,.3,.87-.96,2.46-3.78,4.77l.45,.18c.24,.18,.3,.37,.18,.56-.12,.2-.57,.71-1.35,1.55-1.77,1.89-2.64,3.27-2.61,4.14,.06,.36,.26,.58,.61,.65,.34,.08,.78-.01,1.3-.27s1.03-.52,1.51-.79c.48-.27,.97-.58,1.48-.94,2.16-1.59,4.39-3.4,6.7-5.44,.36-.24,.58-.24,.67,0,0,.06-.11,.18-.32,.36-4.77,4.17-8.14,6.63-10.12,7.38Zm.94-7.56c1.89-1.53,3.18-2.82,3.87-3.87,.24-.36,.18-.57-.18-.63-.36,0-.92,.24-1.66,.72-1.98,1.35-2.97,2.4-2.97,3.15,0,.18,.07,.31,.22,.4s.33,.13,.54,.13l.18,.09Z"/>
      <path class="cls-1" d="M424.44,36.97c-.24-.12-.4-.37-.47-.74-.08-.37,0-.62,.2-.74,.69-.36,1.08-.13,1.17,.67,.06,.24-.02,.48-.22,.72-.21,.24-.43,.27-.67,.09Zm2.47-4.5l-.09-.36c0-.24,.09-.46,.27-.67,.36-.24,.64-.21,.83,.09s.2,.61,.02,.94c-.06,.12-.22,.18-.47,.18s-.44-.06-.56-.18Z"/>
    </g>
  </g>
</svg>